<svg width="24" height="24" viewBox="0 0 24 24" fill="none" xmlns="http://www.w3.org/2000/svg">
<path d="M3 18C3 18.5527 3.44727 19 4 19H7H8C8 21.2061 9.79395 23 12 23C14.2061 23 16 21.2061 16 19H17H20C20.5527 19 21 18.5527 21 18C21 17.4473 20.5527 17 20 17H19.8157C19.9278 16.6857 20 16.3524 20 16V11C20 7.28052 17.4447 4.15491 14 3.26331V3C14 1.89746 13.1025 1 12 1C10.8975 1 10 1.89746 10 3V3.26331C6.5553 4.15491 4 7.28052 4 11V16C4 16.3524 4.07227 16.6857 4.18433 17H4C3.44727 17 3 17.4473 3 18ZM12 21C10.8975 21 10 20.1025 10 19H14C14 20.1025 13.1025 21 12 21ZM6 16V11C6 7.69141 8.69141 5 12 5C15.3086 5 18 7.69141 18 11V16C18 16.5518 17.5518 17 17 17H15H9H7C6.44824 17 6 16.5518 6 16Z" fill="#EBE5DB"/>
</svg>
