<svg width="1309" height="56" viewBox="0 0 1309 56" fill="none" xmlns="http://www.w3.org/2000/svg">
<path d="M75.1568 41.0354H69.9428V30.5265H60.1727V41.0354H54.9418V16.6866H60.1727V26.2296H69.9428V16.6866H75.1568V41.0354Z" fill="#CACACA"/>
<path d="M80.7759 17.6026C80.7759 15.9482 81.7096 15.1211 83.577 15.1211C85.4444 15.1211 86.3781 15.9482 86.3781 17.6026C86.3781 18.3909 86.1418 19.0071 85.6694 19.4512C85.2081 19.8842 84.5107 20.1008 83.577 20.1008C81.7096 20.1008 80.7759 19.268 80.7759 17.6026ZM86.1418 41.0354H80.9953V22.4157H86.1418V41.0354Z" fill="#CACACA"/>
<path d="M107.977 22.4157V24.9972L105.024 25.7466C105.564 26.5793 105.834 27.512 105.834 28.5446C105.834 30.5431 105.125 32.1031 103.708 33.2245C102.302 34.3348 100.344 34.8899 97.8355 34.8899L96.9074 34.84L96.1481 34.7567C95.6194 35.1564 95.355 35.6005 95.355 36.0891C95.355 36.8219 96.3 37.1883 98.1899 37.1883H101.396C103.466 37.1883 105.041 37.6268 106.121 38.504C107.212 39.3811 107.757 40.669 107.757 42.3678C107.757 44.544 106.835 46.2317 104.99 47.4308C103.156 48.6299 100.518 49.2295 97.0762 49.2295C94.4438 49.2295 92.4302 48.7742 91.0353 47.8638C89.6516 46.9644 88.9598 45.6987 88.9598 44.0666C88.9598 42.9452 89.3141 42.007 90.0228 41.252C90.7316 40.497 91.7721 39.9585 93.1445 39.6365C92.6158 39.4144 92.1546 39.0536 91.7609 38.5539C91.3671 38.0432 91.1703 37.5047 91.1703 36.9384C91.1703 36.2279 91.3784 35.6394 91.7946 35.1731C92.2108 34.6956 92.8127 34.2293 93.6001 33.7741C92.6102 33.3522 91.8227 32.6749 91.2378 31.7422C90.6641 30.8096 90.3772 29.7104 90.3772 28.4447C90.3772 26.4128 91.0465 24.8417 92.3852 23.7314C93.7239 22.6211 95.6363 22.066 98.1224 22.066C98.6511 22.066 99.2754 22.1159 99.9954 22.2159C100.727 22.3047 101.193 22.3713 101.396 22.4157H107.977ZM93.4145 43.6669C93.4145 44.3663 93.752 44.9159 94.427 45.3157C95.1132 45.7154 96.0694 45.9152 97.2955 45.9152C99.1404 45.9152 100.586 45.6654 101.632 45.1658C102.678 44.6661 103.201 43.9833 103.201 43.1173C103.201 42.4178 102.892 41.9348 102.273 41.6683C101.655 41.4018 100.698 41.2686 99.4048 41.2686H96.7387C95.7938 41.2686 95.0007 41.4851 94.3595 41.9181C93.7295 42.3623 93.4145 42.9452 93.4145 43.6669ZM95.2875 28.5113C95.2875 29.5216 95.5182 30.3211 95.9794 30.9095C96.4518 31.498 97.1662 31.7922 98.1224 31.7922C99.0898 31.7922 99.7985 31.498 100.249 30.9095C100.698 30.3211 100.923 29.5216 100.923 28.5113C100.923 26.2685 99.9898 25.1471 98.1224 25.1471C96.2325 25.1471 95.2875 26.2685 95.2875 28.5113Z" fill="#CACACA"/>
<path d="M128.512 41.0354H123.366V30.1601C123.366 27.4731 122.353 26.1297 120.329 26.1297C118.889 26.1297 117.848 26.6127 117.207 27.5786C116.566 28.5446 116.245 30.1101 116.245 32.2752V41.0354H111.098V15.1211H116.245V20.4005C116.245 20.8113 116.206 21.7773 116.127 23.2984L116.009 24.7973H116.279C117.426 22.9764 119.249 22.066 121.746 22.066C123.962 22.066 125.644 22.6544 126.791 23.8314C127.939 25.0083 128.512 26.6959 128.512 28.8943V41.0354Z" fill="#CACACA"/>
<path d="M138.957 41.0354H133.811V15.1211H138.957V41.0354Z" fill="#CACACA"/>
<path d="M148.474 31.6923C148.474 33.5354 148.778 34.9288 149.386 35.8726C150.004 36.8163 151.006 37.2882 152.389 37.2882C153.762 37.2882 154.746 36.8219 155.342 35.8892C155.95 34.9455 156.253 33.5465 156.253 31.6923C156.253 29.8492 155.95 28.4669 155.342 27.5453C154.735 26.6238 153.739 26.163 152.355 26.163C150.983 26.163 149.993 26.6238 149.386 27.5453C148.778 28.4558 148.474 29.8381 148.474 31.6923ZM161.518 31.6923C161.518 34.7234 160.708 37.0939 159.088 38.8037C157.468 40.5136 155.213 41.3685 152.322 41.3685C150.511 41.3685 148.913 40.9799 147.529 40.2027C146.146 39.4144 145.083 38.2875 144.34 36.8219C143.598 35.3563 143.227 33.6464 143.227 31.6923C143.227 28.6501 144.031 26.2851 145.64 24.5975C147.248 22.9098 149.509 22.066 152.423 22.066C154.234 22.066 155.831 22.4546 157.215 23.2318C158.599 24.009 159.662 25.1249 160.404 26.5793C161.147 28.0338 161.518 29.7382 161.518 31.6923Z" fill="#CACACA"/>
<path d="M181.277 41.0354L179.826 34.5235L177.869 26.2962H177.751L174.309 41.0354H168.774L163.408 22.4157H168.538L170.714 30.6597C171.063 32.1364 171.417 34.1738 171.777 36.7719H171.879C171.924 35.9281 172.121 34.5902 172.469 32.7582L172.739 31.3425L175.068 22.4157H180.738L182.948 31.3425C182.993 31.5868 183.061 31.9476 183.151 32.4251C183.252 32.9025 183.347 33.4132 183.437 33.9573C183.527 34.4902 183.606 35.0176 183.674 35.5395C183.752 36.0502 183.797 36.461 183.809 36.7719H183.91C184.011 35.9725 184.191 34.8788 184.45 33.491C184.709 32.092 184.894 31.1482 185.007 30.6597L187.268 22.4157H192.313L186.88 41.0354H181.277Z" fill="#CACACA"/>
<path d="M17.9436 44.971C27.8535 44.971 35.8871 37.3356 35.8871 27.9168C35.8871 18.498 27.8535 10.8626 17.9436 10.8626C8.03365 10.8626 3.19845e-07 18.4981 2.06049e-07 27.9168C9.22516e-08 37.3355 8.03358 44.971 17.9436 44.971ZM31.2565 27.9168L4.6306 27.9168C4.6306 20.9229 10.5861 15.2637 17.9436 15.2637C25.3022 15.2637 31.2565 20.924 31.2565 27.9168Z" fill="#CACACA"/>
<path d="M324.785 42.8347C323.648 43.7263 322.168 44.4181 320.346 44.9101C318.524 45.402 316.281 45.648 313.617 45.648C310.969 45.648 308.15 45.4097 305.159 44.9331V14.54C308.181 14.0634 310.798 13.8251 313.01 13.8251C315.237 13.8251 317.059 14.0326 318.477 14.4477C319.91 14.8628 321.078 15.4239 321.981 16.1311C323.757 17.4993 324.645 19.275 324.645 21.458C324.645 23.6256 323.843 25.4243 322.238 26.854C324.139 27.4382 325.611 28.5451 326.654 30.1747C327.604 31.6352 328.079 33.257 328.079 35.0404C328.079 36.8083 327.815 38.3226 327.285 39.5832C326.771 40.8438 325.938 41.9276 324.785 42.8347ZM311.351 26.0008C312.005 26.1084 312.823 26.1622 313.804 26.1622C314.785 26.1622 315.588 26.0392 316.211 25.7933C316.849 25.5319 317.34 25.2091 317.683 24.8247C318.243 24.1944 318.524 23.3182 318.524 22.1959C318.524 19.8438 317.122 18.6677 314.318 18.6677C313.134 18.6677 312.145 18.7138 311.351 18.8061V26.0008ZM314.809 30.9357C313.5 30.9357 312.348 31.0202 311.351 31.1893V40.2519C312.441 40.5287 313.586 40.667 314.785 40.667C315.985 40.667 317.036 40.5287 317.94 40.2519C318.858 39.9598 319.63 39.5678 320.253 39.0759C321.514 38.0612 322.145 36.7699 322.145 35.2018C322.145 32.3577 319.7 30.9357 314.809 30.9357Z" fill="#CACACA"/>
<path d="M330.79 33.1494C330.79 31.4584 331.078 29.8442 331.654 28.3068C332.246 26.7541 333.087 25.4012 334.177 24.2482C336.561 21.7578 339.652 20.5125 343.453 20.5125C347.238 20.5125 350.244 21.6886 352.472 24.0407C354.605 26.2852 355.672 29.1985 355.672 32.7805C355.672 36.3625 354.574 39.3295 352.378 41.6817C350.057 44.1721 346.981 45.4174 343.149 45.4174C339.193 45.4174 336.093 44.1952 333.85 41.7508C331.81 39.5217 330.79 36.6546 330.79 33.1494ZM336.467 33.0111C336.467 33.9796 336.631 34.9174 336.958 35.8244C337.285 36.7314 337.752 37.5078 338.36 38.1535C339.652 39.5524 341.35 40.2519 343.453 40.2519C345.4 40.2519 346.934 39.5678 348.056 38.1996C349.146 36.8775 349.691 35.1557 349.691 33.0341C349.691 30.8819 349.13 29.1447 348.009 27.8226C346.81 26.4082 345.166 25.701 343.079 25.701C340.961 25.701 339.302 26.4543 338.103 27.9609C337.012 29.3445 336.467 31.0279 336.467 33.0111Z" fill="#CACACA"/>
<path d="M358.78 33.1494C358.78 31.4584 359.068 29.8442 359.644 28.3068C360.236 26.7541 361.077 25.4012 362.168 24.2482C364.551 21.7578 367.643 20.5125 371.443 20.5125C375.228 20.5125 378.234 21.6886 380.462 24.0407C382.596 26.2852 383.662 29.1985 383.662 32.7805C383.662 36.3625 382.564 39.3295 380.368 41.6817C378.047 44.1721 374.971 45.4174 371.139 45.4174C367.183 45.4174 364.083 44.1952 361.84 41.7508C359.8 39.5217 358.78 36.6546 358.78 33.1494ZM364.457 33.0111C364.457 33.9796 364.621 34.9174 364.948 35.8244C365.275 36.7314 365.742 37.5078 366.35 38.1535C367.643 39.5524 369.34 40.2519 371.443 40.2519C373.39 40.2519 374.924 39.5678 376.046 38.1996C377.136 36.8775 377.681 35.1557 377.681 33.0341C377.681 30.8819 377.121 29.1447 375.999 27.8226C374.8 26.4082 373.156 25.701 371.069 25.701C368.951 25.701 367.292 26.4543 366.093 27.9609C365.002 29.3445 364.457 31.0279 364.457 33.0111Z" fill="#CACACA"/>
<path d="M396.77 45.4174C392.377 45.4174 389.067 44.6257 386.84 43.0422C386.871 42.581 386.918 42.0583 386.98 41.4741L387.19 39.8138C387.315 38.7223 387.393 38.0458 387.424 37.7845C387.455 37.5078 387.479 37.3617 387.494 37.3464C387.51 37.3156 387.634 37.4386 387.868 37.7153C388.102 37.9767 388.546 38.2995 389.2 38.6838C389.854 39.0682 390.609 39.4064 391.466 39.6985C393.32 40.3288 395.251 40.644 397.26 40.644C399.955 40.644 401.302 39.76 401.302 37.992C401.302 37.4232 401.045 37.0005 400.531 36.7237C399.612 36.2625 398.257 35.9166 396.466 35.686C394.69 35.4401 393.234 35.0865 392.097 34.6253C390.96 34.1641 390.033 33.6106 389.317 32.9649C387.993 31.7505 387.331 30.1593 387.331 28.1915C387.331 25.7933 388.265 23.91 390.134 22.5418C391.988 21.1889 394.55 20.5125 397.821 20.5125C401.061 20.5125 403.826 21.4195 406.115 23.2336C406.006 23.6333 405.889 24.0176 405.765 24.3866C405.407 25.4012 405.142 26.1315 404.97 26.5773L404.433 27.9379C404.402 28.0608 404.379 28.1223 404.363 28.1223C404.332 28.1223 404.207 27.9609 403.989 27.6381C403.008 26.5158 401.481 25.7779 399.41 25.4243C398.771 25.3013 398.117 25.2398 397.447 25.2398C394.612 25.2398 393.195 26.0854 393.195 27.7764C393.195 28.3606 393.491 28.8064 394.083 29.1139C395.189 29.6981 396.7 30.1286 398.615 30.4053C400.547 30.682 402.011 31.0586 403.008 31.5352C404.005 31.9964 404.807 32.5576 405.414 33.2186C406.536 34.4177 407.097 36.0089 407.097 37.992C407.097 40.1597 406.217 41.9199 404.456 43.2728C402.618 44.7025 400.056 45.4174 396.77 45.4174Z" fill="#CACACA"/>
<path d="M420.741 45.4174C416.349 45.4174 413.039 44.6257 410.811 43.0422C410.843 42.581 410.889 42.0583 410.952 41.4741L411.162 39.8138C411.287 38.7223 411.364 38.0458 411.396 37.7845C411.427 37.5078 411.45 37.3617 411.466 37.3464C411.481 37.3156 411.606 37.4386 411.839 37.7153C412.073 37.9767 412.517 38.2995 413.171 38.6838C413.825 39.0682 414.581 39.4064 415.438 39.6985C417.291 40.3288 419.223 40.644 421.232 40.644C423.926 40.644 425.274 39.76 425.274 37.992C425.274 37.4232 425.017 37.0005 424.503 36.7237C423.584 36.2625 422.229 35.9166 420.437 35.686C418.662 35.4401 417.205 35.0865 416.068 34.6253C414.931 34.1641 414.005 33.6106 413.288 32.9649C411.964 31.7505 411.302 30.1593 411.302 28.1915C411.302 25.7933 412.237 23.91 414.106 22.5418C415.959 21.1889 418.522 20.5125 421.793 20.5125C425.032 20.5125 427.797 21.4195 430.087 23.2336C429.978 23.6333 429.861 24.0176 429.736 24.3866C429.378 25.4012 429.113 26.1315 428.942 26.5773L428.405 27.9379C428.373 28.0608 428.35 28.1223 428.334 28.1223C428.303 28.1223 428.179 27.9609 427.961 27.6381C426.979 26.5158 425.453 25.7779 423.381 25.4243C422.743 25.3013 422.088 25.2398 421.419 25.2398C418.584 25.2398 417.166 26.0854 417.166 27.7764C417.166 28.3606 417.462 28.8064 418.054 29.1139C419.16 29.6981 420.671 30.1286 422.587 30.4053C424.518 30.682 425.982 31.0586 426.979 31.5352C427.976 31.9964 428.778 32.5576 429.386 33.2186C430.507 34.4177 431.068 36.0089 431.068 37.992C431.068 40.1597 430.188 41.9199 428.428 43.2728C426.59 44.7025 424.028 45.4174 420.741 45.4174Z" fill="#CACACA"/>
<path d="M447.329 39.9983C449.339 39.9983 450.717 39.4833 451.465 38.4532H451.652L451.722 43.8032C450.959 44.5565 449.541 45.0561 447.47 45.3021C446.909 45.379 446.208 45.4174 445.367 45.4174C444.541 45.4174 443.638 45.2637 442.657 44.9562C441.691 44.6487 440.865 44.1491 440.18 43.4573C438.763 42.0276 438.054 39.7907 438.054 36.7468V26.2775H434.526C434.51 25.8317 434.503 25.3782 434.503 24.917V21.3657C434.503 21.1044 434.51 20.9737 434.526 20.9737H438.054V14.4016H443.778V20.9737H450.203V26.2775H443.778V35.686C443.778 38.0997 444.456 39.4756 445.811 39.8138C446.247 39.9368 446.753 39.9983 447.329 39.9983Z" fill="#CACACA"/>
<path d="M599.972 33.3286C599.972 36.7876 600.034 39.0091 600.158 39.993H594.06V15.8952H599.972V17.9706C602.106 16.2795 604.294 15.434 606.537 15.434C609.185 15.434 611.108 16.5639 612.308 18.8238C613.507 17.6093 614.504 16.8099 615.298 16.4256C616.622 15.7645 617.946 15.434 619.27 15.434C620.61 15.434 621.747 15.6569 622.681 16.1027C623.616 16.5485 624.387 17.1789 624.994 17.9936C626.225 19.6386 626.84 21.8985 626.84 24.7733V33.9512C626.84 36.5493 626.879 38.1097 626.957 38.6324C627.035 39.1551 627.136 39.4933 627.261 39.647C627.401 39.8008 627.518 39.9391 627.611 40.0621L627.564 40.1544C626.318 40.0468 625.399 39.993 624.808 39.993H623.055C622.479 39.993 621.77 40.016 620.929 40.0621V27.5866C620.929 23.9893 620.368 21.8524 619.247 21.1759C618.873 20.9607 618.429 20.8531 617.915 20.8531C617.417 20.8531 616.973 20.9146 616.583 21.0376C616.194 21.1452 615.828 21.3297 615.485 21.591C614.909 22.0061 614.255 22.8209 613.523 24.0354C613.538 24.1584 613.546 24.2814 613.546 24.4043C613.546 24.5273 613.546 26.5566 613.546 30.4922C613.546 34.4278 613.64 37.5947 613.826 39.993C612.502 39.993 611.373 39.993 610.439 39.993C609.52 39.993 608.64 40.016 607.799 40.0621V27.5636C607.799 25.0577 607.643 23.4281 607.331 22.6748C607.035 21.9215 606.716 21.4296 606.373 21.199C606.031 20.9684 605.61 20.8531 605.112 20.8531C603.056 20.8531 601.342 21.8293 599.972 23.7817V33.3286Z" fill="#CACACA"/>
<path d="M649.737 38.5632C647.525 39.747 645.524 40.3389 643.732 40.3389C641.941 40.3389 640.407 40.1774 639.13 39.8546C637.852 39.5164 636.77 39.0244 635.882 38.3787C634.075 37.072 633.172 35.1811 633.172 32.706C633.172 30.4922 634.278 28.6474 636.49 27.1716C638.888 25.5727 642.144 24.7733 646.256 24.7733L647.19 24.7964C647.377 24.8117 647.587 24.8271 647.821 24.8425C648.055 24.8425 648.265 24.8579 648.452 24.8886C648.327 22.4289 647.253 20.9915 645.228 20.5764C644.558 20.438 643.841 20.3688 643.078 20.3688C642.331 20.3688 641.591 20.438 640.859 20.5764C640.142 20.6994 639.441 20.8685 638.756 21.0837C637.245 21.5603 636.162 22.106 635.508 22.721L635.438 22.6748L634.737 17.5786C637.494 16.1488 640.508 15.434 643.779 15.434C648.857 15.434 652.104 17.2403 653.522 20.8531C653.974 22.0061 654.199 23.3051 654.199 24.7502V33.098C654.199 34.8813 654.838 36.0958 656.115 36.7415L651.886 40.5695C650.999 40.1083 650.282 39.4395 649.737 38.5632ZM648.475 29.0394C648.055 28.9626 647.619 28.9241 647.167 28.9241H646.232C642.79 28.9241 640.602 29.6774 639.667 31.184C639.387 31.6298 639.246 32.0987 639.246 32.5907C639.246 33.0826 639.332 33.5208 639.503 33.9051C639.69 34.2741 639.994 34.5815 640.415 34.8275C641.225 35.2887 642.424 35.5193 644.013 35.5193C645.617 35.5193 647.112 35.1426 648.499 34.3894C648.483 34.2202 648.475 34.0435 648.475 33.859V29.0394Z" fill="#CACACA"/>
<path d="M660.297 9.1847C661.31 7.58587 662.47 6.07927 663.779 4.66492L668.241 8.14699C667.462 9.13089 666.933 9.80732 666.652 10.1763L665.835 11.3062C665.57 11.6598 665.29 12.0595 664.994 12.5053L660.297 9.1847ZM657.704 43.5673C660.009 43.5673 661.162 41.8762 661.162 38.494V15.8952H666.839V36.8337C666.839 43.2905 664.978 47.1108 661.255 48.2946C660.04 48.6789 658.662 48.8711 657.12 48.8711L654.69 42.8063L654.737 42.691C655.625 43.2752 656.614 43.5673 657.704 43.5673Z" fill="#CACACA"/>
<path d="M672.774 9.02328C674.02 7.1016 675.321 5.41053 676.676 3.95006L681.699 7.84721C681.029 8.662 680.406 9.46142 679.83 10.2455C679.83 10.2455 679.23 11.0833 678.031 12.759L672.774 9.02328ZM678.919 37.4102C678.919 38.7323 678.95 39.5932 679.012 39.993H673.078V15.8952H678.919V37.4102Z" fill="#CACACA"/>
<path d="M691.675 37.0413C691.675 38.3941 691.738 39.378 691.862 39.993H685.998V15.8952H691.675V17.9475C693.731 16.2718 695.928 15.434 698.264 15.434C700.818 15.434 702.859 16.2949 704.385 18.0167C705.912 19.7231 706.675 21.9753 706.675 24.7733V33.9512C706.675 36.5493 706.714 38.1097 706.792 38.6324C706.87 39.1551 706.971 39.4933 707.096 39.647C707.236 39.8008 707.353 39.9391 707.446 40.0621L707.399 40.1544C706.138 40.0468 705.219 39.993 704.642 39.993H703.007C702.508 39.993 701.839 40.016 700.998 40.0621V27.4944C700.998 22.99 699.611 20.7378 696.839 20.7378C694.783 20.7378 693.062 21.7832 691.675 23.874V37.0413Z" fill="#CACACA"/>
<path d="M712.352 28.1401C712.352 26.3414 712.664 24.6734 713.287 23.136C713.91 21.5987 714.79 20.2535 715.927 19.1005C718.357 16.6562 721.535 15.434 725.46 15.434C728.777 15.434 731.441 16.5178 733.45 18.6854C735.428 20.7762 736.417 23.4051 736.417 26.572C736.417 27.7865 736.324 28.6166 736.137 29.0625C734.579 29.4929 731.41 29.7082 726.628 29.7082H718.404C718.809 31.3531 719.751 32.6368 721.231 33.5592C722.711 34.4662 724.634 34.9197 727.002 34.9197C729.478 34.9197 731.604 34.4816 733.38 33.6053C733.847 33.3747 734.198 33.1595 734.431 32.9596C734.4 33.6053 734.361 34.2664 734.315 34.9428L734.058 38.5402C732.874 39.3396 730.958 39.893 728.31 40.2005C727.531 40.2927 726.784 40.3389 726.067 40.3389C722.111 40.3389 718.84 39.2012 716.254 36.926C713.653 34.6353 712.352 31.7067 712.352 28.1401ZM730.203 25.2345C729.564 21.9292 727.742 20.2766 724.735 20.2766C722.368 20.2766 720.569 21.2835 719.338 23.2975C718.965 23.9124 718.676 24.5888 718.474 25.3267C718.848 25.3421 719.307 25.3575 719.852 25.3729H721.581C722.158 25.3882 722.711 25.3959 723.24 25.3959H724.572C725.366 25.3959 726.145 25.3882 726.908 25.3729L728.824 25.3037C729.338 25.2883 729.798 25.2653 730.203 25.2345Z" fill="#CACACA"/>
<path d="M570.673 16.4974C572.885 15.3137 574.886 14.7218 576.678 14.7218C578.469 14.7218 580.003 14.8832 581.28 15.206C582.558 15.5443 583.64 16.0362 584.528 16.6819C586.335 17.9886 587.238 19.8796 587.238 22.3547C587.238 24.5684 586.132 26.4132 583.921 27.8891C581.522 29.4879 578.266 30.2873 574.154 30.2873L573.22 30.2643C573.033 30.2489 572.823 30.2335 572.589 30.2181C572.355 30.2181 572.145 30.2028 571.958 30.172C572.083 32.6318 573.157 34.0692 575.182 34.4843C575.852 34.6226 576.569 34.6918 577.332 34.6918C578.08 34.6918 578.819 34.6226 579.551 34.4843C580.268 34.3613 580.969 34.1922 581.654 33.9769C583.165 33.5004 584.248 32.9546 584.902 32.3397L584.972 32.3858L585.673 37.4821C582.916 38.9118 579.902 39.6267 576.631 39.6267C571.553 39.6267 568.306 37.8203 566.888 34.2075C566.436 33.0545 566.211 31.7555 566.211 30.3104V21.9626C566.211 20.1793 565.572 18.9648 564.295 18.3192L568.524 14.4912C569.411 14.9524 570.128 15.6211 570.673 16.4974ZM571.935 26.0212C572.355 26.0981 572.791 26.1365 573.243 26.1365H574.178C577.62 26.1365 579.808 25.3832 580.743 23.8766C581.023 23.4308 581.164 22.9619 581.164 22.47C581.164 21.978 581.078 21.5399 580.907 21.1555C580.72 20.7866 580.416 20.4791 579.995 20.2331C579.185 19.7719 577.986 19.5413 576.397 19.5413C574.793 19.5413 573.298 19.918 571.911 20.6713C571.927 20.8404 571.935 21.0172 571.935 21.2017V26.0212Z" fill="#CACACA"/>
<path d="M571.459 52.9526C570.421 51.9279 570.421 50.2666 571.459 49.2419L573.728 47.0023C574.767 45.9776 576.45 45.9776 577.488 47.0023L579.757 49.2419C580.795 50.2666 580.795 51.9279 579.757 52.9526L577.488 55.1922C576.45 56.2169 574.767 56.2169 573.728 55.1922L571.459 52.9526Z" fill="#CACACA"/>
<path d="M929.642 35.4204H925.683V27.0547C925.683 26.0213 925.506 25.2483 925.151 24.7359C924.805 24.2149 924.255 23.9544 923.502 23.9544C922.49 23.9544 921.754 24.3217 921.296 25.0562C920.837 25.7907 920.608 26.9992 920.608 28.6817V35.4204H916.649V21.0975H919.673L920.205 22.9295H920.426C920.816 22.2719 921.378 21.7594 922.114 21.3922C922.849 21.0164 923.693 20.8285 924.645 20.8285C926.817 20.8285 928.288 21.5288 929.058 22.9295H929.408C929.798 22.2633 930.369 21.7466 931.122 21.3794C931.883 21.0121 932.74 20.8285 933.692 20.8285C935.336 20.8285 936.578 21.247 937.417 22.084C938.265 22.9124 938.689 24.2448 938.689 26.0811V35.4204H934.717V27.0547C934.717 26.0213 934.54 25.2483 934.185 24.7359C933.839 24.2149 933.289 23.9544 932.536 23.9544C931.567 23.9544 930.84 24.296 930.356 24.9793C929.88 25.6626 929.642 26.7472 929.642 28.2333V35.4204Z" fill="#CACACA"/>
<path d="M951.981 35.4204L951.215 33.4731H951.111C950.445 34.3015 949.757 34.878 949.047 35.2026C948.346 35.5186 947.429 35.6766 946.295 35.6766C944.902 35.6766 943.803 35.2837 942.998 34.498C942.202 33.7122 941.804 32.5934 941.804 31.1415C941.804 29.6212 942.341 28.5024 943.414 27.7849C944.495 27.059 946.122 26.6576 948.294 26.5807L950.812 26.5038V25.8761C950.812 24.4241 950.059 23.6982 948.554 23.6982C947.394 23.6982 946.031 24.0441 944.465 24.7359L943.154 22.0968C944.824 21.2342 946.676 20.8029 948.71 20.8029C950.657 20.8029 952.149 21.2214 953.188 22.0584C954.226 22.8954 954.745 24.1679 954.745 25.8761V35.4204H951.981ZM950.812 28.7842L949.281 28.8355C948.13 28.8696 947.273 29.0746 946.711 29.4504C946.148 29.8262 945.867 30.3984 945.867 31.1671C945.867 32.2688 946.507 32.8197 947.788 32.8197C948.705 32.8197 949.436 32.5592 949.982 32.0382C950.535 31.5173 950.812 30.8255 950.812 29.9628V28.7842Z" fill="#CACACA"/>
<path d="M972.229 35.4204H968.27V27.0547C968.27 26.0213 968.084 25.2483 967.712 24.7359C967.34 24.2149 966.747 23.9544 965.934 23.9544C964.826 23.9544 964.026 24.3217 963.533 25.0562C963.039 25.7821 962.793 26.9906 962.793 28.6817V35.4204H958.834V21.0975H961.858L962.39 22.9295H962.611C963.052 22.2377 963.658 21.7167 964.428 21.3666C965.207 21.0078 966.09 20.8285 967.076 20.8285C968.764 20.8285 970.044 21.2811 970.918 22.1865C971.792 23.0832 972.229 24.3814 972.229 26.0811V35.4204Z" fill="#CACACA"/>
<path d="M982.419 32.5635C983.111 32.5635 983.942 32.414 984.911 32.1151V35.0232C983.924 35.4588 982.713 35.6766 981.276 35.6766C979.693 35.6766 978.538 35.2837 977.811 34.498C977.093 33.7037 976.733 32.5165 976.733 30.9365V24.0313H974.838V22.3786L977.019 21.0719L978.161 18.0485H980.692V21.0975H984.755V24.0313H980.692V30.9365C980.692 31.4916 980.848 31.9016 981.16 32.1664C981.48 32.4311 981.899 32.5635 982.419 32.5635Z" fill="#CACACA"/>
<path d="M1001.25 35.4204H997.294V27.0547C997.294 24.9878 996.515 23.9544 994.957 23.9544C993.85 23.9544 993.049 24.3259 992.556 25.069C992.063 25.812 991.816 27.0163 991.816 28.6817V35.4204H987.857V15.4862H991.816V19.5474C991.816 19.8634 991.786 20.6064 991.725 21.7765L991.634 22.9295H991.842C992.725 21.5288 994.127 20.8285 996.048 20.8285C997.752 20.8285 999.046 21.2811 999.929 22.1865C1000.81 23.0918 1001.25 24.39 1001.25 26.0811V35.4204Z" fill="#CACACA"/>
<path d="M1015.61 35.4204L1015.08 33.5884H1014.87C1014.44 34.2546 1013.84 34.7713 1013.06 35.1385C1012.29 35.4973 1011.4 35.6766 1010.4 35.6766C1008.7 35.6766 1007.41 35.2282 1006.55 34.3314C1005.68 33.4261 1005.25 32.1279 1005.25 30.4368V21.0975H1009.21V29.4632C1009.21 30.4966 1009.4 31.2738 1009.77 31.7948C1010.14 32.3073 1010.73 32.5635 1011.55 32.5635C1012.65 32.5635 1013.45 32.2005 1013.95 31.4746C1014.44 30.74 1014.69 29.5273 1014.69 27.8362V21.0975H1018.65V35.4204H1015.61Z" fill="#CACACA"/>
<path d="M1026.76 35.4204H1022.8V15.4862H1026.76V35.4204Z" fill="#CACACA"/>
<path d="M849.444 24.9254C849.444 21.6521 850.097 18.4109 851.366 15.3868C852.635 12.3628 854.495 9.615 856.84 7.30047C859.185 4.98593 861.969 3.14994 865.033 1.89733C868.097 0.64471 871.381 -3.55993e-06 874.698 -3.13069e-06C878.014 -2.70146e-06 881.298 0.644711 884.362 1.89733C887.426 3.14995 890.21 4.98594 892.555 7.30047C894.9 9.61501 896.76 12.3628 898.029 15.3868C899.298 18.4109 899.951 21.6521 899.951 24.9254L887.325 24.9254C887.325 23.2887 886.998 21.6681 886.363 20.1561C885.729 18.6441 884.799 17.2702 883.626 16.1129C882.454 14.9557 881.062 14.0377 879.53 13.4113C877.998 12.785 876.356 12.4627 874.698 12.4627C873.039 12.4627 871.397 12.785 869.865 13.4113C868.333 14.0377 866.941 14.9557 865.769 16.1129C864.596 17.2702 863.666 18.6441 863.032 20.1561C862.397 21.6681 862.071 23.2887 862.071 24.9254L849.444 24.9254Z" fill="#CACACA"/>
<path fill-rule="evenodd" clip-rule="evenodd" d="M866.051 45.5294C864.132 44.7449 862.335 43.7046 860.711 42.4408L865.934 37.2858C866.842 37.9132 867.819 38.4426 868.848 38.8634C870.703 39.6216 872.69 40.0118 874.698 40.0118C876.705 40.0118 878.693 39.6216 880.547 38.8634C881.576 38.4426 882.553 37.9132 883.461 37.2858L888.684 42.4408C887.06 43.7046 885.264 44.7449 883.345 45.5294C880.603 46.6502 877.665 47.227 874.698 47.227C871.73 47.227 868.792 46.6502 866.051 45.5294ZM890.576 44.3076C891.265 43.7576 891.926 43.1712 892.555 42.5503L883.626 33.7378C882.454 34.8951 881.062 35.8131 879.53 36.4394C877.998 37.0657 876.356 37.3881 874.698 37.3881C873.039 37.3881 871.397 37.0657 869.865 36.4394C868.333 35.8131 866.941 34.8951 865.769 33.7378L856.84 42.5503C857.469 43.1712 858.13 43.7576 858.819 44.3076C860.699 45.8079 862.791 47.0368 865.033 47.9534C868.097 49.206 871.381 49.8507 874.698 49.8507C878.014 49.8507 881.298 49.206 884.362 47.9534C886.604 47.0368 888.696 45.8079 890.576 44.3076Z" fill="#CACACA"/>
<path d="M1196.18 29.7583H1205.68L1202.95 42.449C1201.44 42.9597 1200.04 43.3039 1198.75 43.4816C1197.46 43.6703 1196.1 43.7647 1194.66 43.7647C1191.75 43.7647 1189.5 42.9486 1187.91 41.3165C1186.33 39.6843 1185.53 37.3416 1185.53 34.2883C1185.53 31.3127 1186.13 28.6258 1187.34 26.2275C1188.54 23.8182 1190.24 21.964 1192.42 20.6649C1194.6 19.3548 1197.12 18.6997 1199.98 18.6997C1202.43 18.6997 1204.74 19.2493 1206.9 20.3485L1204.95 24.5287C1204.12 24.0846 1203.29 23.7293 1202.46 23.4629C1201.63 23.1964 1200.72 23.0632 1199.74 23.0632C1198.02 23.0632 1196.48 23.5239 1195.12 24.4455C1193.77 25.367 1192.7 26.6827 1191.93 28.3926C1191.16 30.0913 1190.78 31.9233 1190.78 33.8886C1190.78 35.7983 1191.19 37.2028 1192 38.1022C1192.82 38.9904 1194.07 39.4345 1195.76 39.4345C1196.61 39.4345 1197.57 39.3013 1198.63 39.0348L1199.74 34.0551H1195.24L1196.18 29.7583Z" fill="#CACACA"/>
<path d="M1213.02 43.4316H1207.94L1213.51 17.5172H1218.59L1213.02 43.4316Z" fill="#CACACA"/>
<path d="M1231.16 31.8401C1231.16 29.6528 1230.36 28.5591 1228.75 28.5591C1227.9 28.5591 1227.14 28.8978 1226.47 29.5751C1225.81 30.2523 1225.26 31.2461 1224.83 32.5562C1224.42 33.8664 1224.21 35.2154 1224.21 36.6033C1224.21 38.6573 1225.05 39.6843 1226.74 39.6843C1227.58 39.6843 1228.34 39.3457 1229.02 38.6684C1229.69 37.98 1230.22 37.0307 1230.59 35.8205C1230.97 34.5992 1231.16 33.2724 1231.16 31.8401ZM1236.27 31.8401C1236.27 34.1828 1235.87 36.2591 1235.07 38.0689C1234.29 39.8786 1233.15 41.2832 1231.65 42.2824C1230.15 43.2706 1228.38 43.7647 1226.32 43.7647C1224.12 43.7647 1222.37 43.1152 1221.05 41.8161C1219.75 40.506 1219.1 38.7683 1219.1 36.6033C1219.1 34.2383 1219.49 32.1343 1220.29 30.2912C1221.1 28.437 1222.27 27.0047 1223.79 25.9943C1225.3 24.9729 1227.08 24.4621 1229.12 24.4621C1231.32 24.4621 1233.07 25.1172 1234.35 26.4274C1235.63 27.7375 1236.27 29.5418 1236.27 31.8401Z" fill="#CACACA"/>
<path d="M1252.24 29.1087C1251.54 31.0851 1250.85 32.856 1250.16 34.4215L1246.23 43.4316H1240.76L1239.9 24.8119H1244.64L1244.71 33.0558L1244.64 35.8371L1244.52 38.6851H1244.59C1244.66 38.463 1244.74 38.2354 1244.83 38.0022C1244.92 37.758 1245.2 36.9974 1245.69 35.7206C1246.17 34.4437 1246.43 33.7831 1246.46 33.7387L1250.36 24.8119H1255.9V33.7387C1255.9 35.3153 1255.84 36.9641 1255.73 38.6851H1255.83L1256.3 37.3527C1257.12 35.0433 1257.66 33.611 1257.91 33.0558L1261.6 24.8119H1266.78L1257.84 43.4316H1252.27L1252.17 34.7713C1252.17 33.0503 1252.22 31.1628 1252.34 29.1087H1252.24Z" fill="#CACACA"/>
<path d="M1289.22 19.0827L1285.83 34.8379C1285.19 37.7913 1283.96 40.0174 1282.15 41.5163C1280.34 43.0152 1277.99 43.7647 1275.08 43.7647C1272.7 43.7647 1270.82 43.1374 1269.45 41.8827C1268.09 40.617 1267.41 38.9071 1267.41 36.7531C1267.41 35.9537 1267.49 35.1876 1267.66 34.4548L1270.97 19.0827H1276.11L1272.84 34.3882C1272.65 35.2098 1272.55 35.9038 1272.55 36.47C1272.55 38.4464 1273.62 39.4345 1275.74 39.4345C1277.12 39.4345 1278.22 39.0126 1279.03 38.1688C1279.84 37.3138 1280.43 36.0426 1280.79 34.3549L1284.06 19.0827H1289.22Z" fill="#CACACA"/>
<path d="M1297.73 30.541H1298.67C1300.27 30.541 1301.52 30.158 1302.44 29.3919C1303.36 28.6258 1303.82 27.5987 1303.82 26.3108C1303.82 24.3122 1302.72 23.313 1300.53 23.313H1299.28L1297.73 30.541ZM1309 26.1775C1309 28.8534 1308.04 30.9574 1306.13 32.4896C1304.23 34.0107 1301.6 34.7713 1298.25 34.7713H1296.8L1294.96 43.4316H1289.81L1295.03 19.0827H1300.73C1303.45 19.0827 1305.51 19.6767 1306.91 20.8648C1308.3 22.0417 1309 23.8126 1309 26.1775Z" fill="#CACACA"/>
<path d="M1166.64 23.6641H1156.1L1159.99 15.6822C1160.36 14.7475 1159.31 13.8251 1157.87 13.8251H1144.71C1143.62 13.8251 1142.68 14.3724 1142.54 15.1042L1139.61 29.8626C1139.44 30.7481 1140.46 31.5352 1141.79 31.5352H1152.64L1148.42 43.4957C1148.09 44.4304 1149.15 45.3098 1150.55 45.3098C1151.32 45.3098 1152.05 45.0392 1152.45 44.5718L1168.54 25.8778C1169.39 24.9001 1168.33 23.6641 1166.64 23.6641Z" fill="#CACACA"/>
</svg>
