<svg width="119" height="119" viewBox="0 0 119 119" fill="none" xmlns="http://www.w3.org/2000/svg">
<rect x="7" y="7" width="105" height="104.185" rx="52.0926" fill="#D1E6DF" stroke="white" stroke-width="14"/>
<g clip-path="url(#clip0_29_140)">
<path d="M63.6712 70.5735C64.0005 68.5604 62.6209 66.664 60.5899 66.3377C58.5589 66.0114 56.6455 67.3788 56.3162 69.3919C55.9869 71.4049 57.3664 73.3014 59.3975 73.6277C61.4285 73.954 63.3419 72.5866 63.6712 70.5735Z" fill="#2B6956"/>
<path d="M78.8879 51.2685C73.5184 45.9472 66.6133 43.5144 60 43.5144C53.3867 43.5144 46.4816 45.9472 41.1121 51.2685C39.6282 52.7408 39.635 55.0207 41.0983 56.477C42.9256 58.3081 45.3181 57.5792 46.3895 56.4819C50.0265 52.8823 54.8597 50.8999 60 50.8999C65.1403 50.8999 69.9735 52.8823 73.6105 56.4819C74.6819 57.5792 77.0744 58.3081 78.9017 56.477C80.365 55.0207 80.3718 52.7408 78.8879 51.2685Z" fill="#2B6956"/>
<path d="M60 54.9038C56.2952 54.9038 52.32 56.2688 49.2396 59.3209C47.7367 60.8103 47.7667 63.1007 49.2546 64.5598C50.732 66.014 53.0307 66.0079 54.5077 64.5441C55.9748 63.0902 57.9252 62.2896 59.9999 62.2896C62.0746 62.2896 64.0251 63.0902 65.4921 64.5441C66.9692 66.0079 69.2679 66.014 70.7452 64.5598C72.2332 63.1007 72.2631 60.8103 70.7602 59.3209C67.68 56.2689 63.7048 54.9038 60 54.9038Z" fill="#2B6956"/>
</g>
<defs>
<clipPath id="clip0_29_140">
<rect x="40" y="38.7761" width="40" height="39.6418" fill="white"/>
</clipPath>
</defs>
</svg>
