<svg width="60" height="60" viewBox="0 0 60 60" fill="none" xmlns="http://www.w3.org/2000/svg">
<rect x="0.5" y="0.5" width="59" height="58.2195" rx="29.1097" stroke="#2B6956"/>
<path d="M38.25 22.9476V39.2329C38.2503 39.3688 38.2126 39.5022 38.1412 39.6184C38.0698 39.7346 37.9673 39.8292 37.845 39.8917C37.7383 39.9457 37.6199 39.9736 37.5 39.9731C37.3471 39.9728 37.1979 39.9263 37.0725 39.8399L30 34.9543L22.9275 39.8399C22.8182 39.9129 22.6912 39.9562 22.5596 39.9653C22.4279 39.9744 22.2961 39.949 22.1775 39.8917C22.051 39.8323 21.9439 39.739 21.8684 39.6226C21.7928 39.5062 21.7518 39.3712 21.75 39.2329V22.9476C21.75 21.9659 22.1451 21.0245 22.8483 20.3304C23.5516 19.6363 24.5054 19.2463 25.5 19.2463H34.5C35.4946 19.2463 36.4484 19.6363 37.1517 20.3304C37.8549 21.0245 38.25 21.9659 38.25 22.9476V22.9476Z" fill="#2B6956"/>
</svg>
