<svg width="1920" height="508" viewBox="0 0 1920 508" fill="none" xmlns="http://www.w3.org/2000/svg">
<rect width="1920" height="508" fill="#2B6956"/>
<mask id="mask0_37_411" style="mask-type:alpha" maskUnits="userSpaceOnUse" x="0" y="0" width="1920" height="508">
<rect width="1920" height="508" fill="#080A12"/>
</mask>
<g mask="url(#mask0_37_411)">
<path d="M1913.39 197.54C2119.51 158.469 2148.68 344.959 2137.5 443.088C2111.71 626.201 2023.83 537.761 1936.88 678.321C1849.94 818.88 1843.25 663.648 1754.58 623.57C1665.9 583.491 1680.56 799.125 1519.28 721.487C1358 643.849 1398.47 317.579 1596.86 473.76C1795.24 629.942 1655.75 246.378 1913.39 197.54Z" stroke="#EEEEEE" stroke-opacity="0.12" stroke-width="2"/>
<path d="M1883.16 259.475C2041.93 229.455 2064.44 372.919 2055.84 448.404C2036.01 589.261 1968.29 521.212 1901.34 629.324C1834.38 737.435 1829.21 618.02 1760.89 587.174C1692.57 556.328 1703.9 722.208 1579.65 662.457C1455.4 602.705 1486.52 351.726 1639.37 471.905C1792.22 592.084 1684.69 296.999 1883.16 259.475Z" stroke="#EEEEEE" stroke-opacity="0.12" stroke-width="2"/>
<path d="M1941.58 140.223C2191.96 92.8382 2227.43 319.186 2213.86 438.284C2182.57 660.525 2075.79 553.17 1970.2 723.752C1864.6 894.334 1856.46 705.927 1748.73 657.268C1640.99 608.609 1658.84 870.327 1462.91 776.069C1266.97 681.812 1316.08 285.824 1557.1 475.417C1798.13 665.01 1628.6 199.453 1941.58 140.223Z" stroke="#EEEEEE" stroke-opacity="0.12" stroke-width="2"/>
<path d="M1965.02 92.039C2252.06 37.5895 2292.67 297.395 2277.09 434.104C2241.16 689.211 2118.78 566.009 1997.69 761.836C1876.59 957.664 1867.3 741.404 1743.81 685.576C1620.33 629.748 1640.72 930.156 1416.13 822.009C1191.54 713.862 1247.93 259.316 1524.19 476.883C1800.45 694.45 1606.21 160.101 1965.02 92.039Z" stroke="#EEEEEE" stroke-opacity="0.12" stroke-width="2"/>
<path d="M1998.97 23.2784C2339.42 -41.102 2387.67 266.547 2369.24 428.419C2326.7 730.479 2181.51 584.556 2037.94 816.396C1894.37 1048.24 1883.28 792.159 1736.79 726.013C1590.3 659.867 1614.58 1015.59 1348.16 887.458C1081.73 759.328 1148.47 221.118 1476.22 478.829C1803.96 736.54 1573.41 103.754 1998.97 23.2784Z" stroke="#EEEEEE" stroke-opacity="0.12" stroke-width="2"/>
<path d="M2038.68 -56.926C2441.68 -132.855 2498.92 230.622 2477.16 421.852C2426.92 778.692 2254.99 606.241 2085.12 880.084C1915.25 1153.93 1902.03 851.391 1728.59 773.19C1555.15 694.988 1584.03 1115.25 1268.59 963.772C953.148 812.296 1031.94 176.477 1420.03 481.064C1808.11 785.652 1534.94 37.9851 2038.68 -56.926Z" stroke="#EEEEEE" stroke-opacity="0.12" stroke-width="2"/>
<path d="M-43.0138 -55.1856C-132.506 94.6016 4.78732 170.746 84.6203 190.095C235.003 222.353 191.082 128.415 325.733 100.734C460.383 73.0524 341.065 23.4162 335.14 -57.3051C329.215 -138.026 493.422 -64.8778 478.939 -213.044C464.456 -361.21 198.073 -422.965 263.277 -223.344C328.481 -23.7228 68.851 -242.42 -43.0138 -55.1856Z" stroke="#EEEEEE" stroke-opacity="0.12" stroke-width="2"/>
<path d="M14.0059 -61.0743C-54.8704 54.3303 50.7288 112.957 112.138 127.845C227.816 152.661 194.05 80.3073 297.639 58.9544C401.227 37.6014 309.451 -0.608663 304.91 -62.7892C300.37 -124.97 426.674 -68.6571 415.564 -182.79C404.455 -296.923 199.547 -344.437 249.664 -190.678C299.78 -36.9184 100.101 -205.33 14.0059 -61.0743Z" stroke="#EEEEEE" stroke-opacity="0.12" stroke-width="2"/>
<path d="M-95.8412 -49.576C-204.492 132.401 -37.8733 224.869 59.0171 248.357C241.532 287.509 188.246 173.406 351.679 139.75C515.112 106.094 370.305 45.8237 363.132 -52.2329C355.958 -150.29 555.242 -61.4664 537.696 -241.451C520.15 -421.436 196.85 -496.396 275.946 -253.916C355.041 -11.4367 39.9718 -277.047 -95.8412 -49.576Z" stroke="#EEEEEE" stroke-opacity="0.12" stroke-width="2"/>
<path d="M-140.178 -45.0575C-264.837 163.528 -73.5601 269.584 37.6605 296.538C247.168 341.477 185.971 210.652 373.554 172.118C561.137 133.583 394.906 64.4462 386.643 -47.9681C378.38 -160.382 607.151 -58.4967 586.958 -264.836C566.765 -471.176 195.649 -557.206 286.509 -279.204C377.369 -1.20166 15.6448 -305.79 -140.178 -45.0575Z" stroke="#EEEEEE" stroke-opacity="0.12" stroke-width="2"/>
<path d="M-203.591 -38.2188C-351.287 209.233 -124.834 334.947 6.85469 366.873C254.921 420.089 182.508 264.944 404.646 219.163C626.785 173.381 429.974 91.4459 420.235 -41.8843C410.496 -175.214 681.348 -54.4614 657.521 -299.191C633.693 -543.92 194.28 -645.809 301.757 -316.11C409.234 13.5887 -18.971 -347.534 -203.591 -38.2188Z" stroke="#EEEEEE" stroke-opacity="0.12" stroke-width="2"/>
<path d="M-277.592 -30.1533C-452.204 262.842 -184.723 411.549 -29.1559 449.277C263.895 512.154 178.417 328.535 440.883 274.234C703.349 219.933 470.867 123.036 459.424 -34.7909C447.982 -192.617 767.921 -49.8042 739.888 -339.494C711.854 -629.183 192.761 -749.585 319.581 -359.352C446.401 30.8811 -59.3255 -396.397 -277.592 -30.1533Z" stroke="#EEEEEE" stroke-opacity="0.12" stroke-width="2"/>
</g>
</svg>
