<svg width="24" height="24" viewBox="0 0 24 24" fill="none" xmlns="http://www.w3.org/2000/svg">
<path fill-rule="evenodd" clip-rule="evenodd" d="M16.6415 15.6715C18.0423 13.7957 19 11.7341 19 9.6473C19 5.91771 15.866 2.89428 12 2.89428C8.13401 2.89428 5 5.91771 5 9.6473C5 11.7341 5.95769 13.7957 7.35846 15.6715C8.74868 17.5331 10.4581 19.0536 11.6769 20.0166C11.8768 20.1745 12.1232 20.1745 12.3231 20.0166C13.5419 19.0536 15.2513 17.5331 16.6415 15.6715V15.6715ZM13.5904 21.5092C16.1746 19.4672 21 14.9452 21 9.6473C21 4.85211 16.9706 0.964844 12 0.964844C7.02944 0.964844 3 4.85211 3 9.6473C3 14.9452 7.82537 19.4672 10.4096 21.5092C11.3466 22.2495 12.6534 22.2495 13.5904 21.5092Z" fill="#5A524C"/>
<path fill-rule="evenodd" clip-rule="evenodd" d="M12 7.71776C10.8954 7.71776 10 8.58159 10 9.64719C10 10.7128 10.8954 11.5766 12 11.5766C13.1046 11.5766 14 10.7128 14 9.64719C14 8.58159 13.1046 7.71776 12 7.71776ZM8 9.64719C8 7.516 9.79086 5.78833 12 5.78833C14.2091 5.78833 16 7.516 16 9.64719C16 11.7783 14.2091 13.5061 12 13.5061C9.79086 13.5061 8 11.7783 8 9.64719Z" fill="#5A524C"/>
</svg>
