<svg width="65" height="65" viewBox="0 0 65 65" fill="none" xmlns="http://www.w3.org/2000/svg">
<circle cx="32.5" cy="32.5" r="32.5" fill="#2B6956"/>
<path fill-rule="evenodd" clip-rule="evenodd" d="M43.3337 22.0833H20.667C19.8846 22.0833 19.2503 22.7176 19.2503 23.5V40.5C19.2503 41.2824 19.8846 41.9167 20.667 41.9167H43.3337C44.1161 41.9167 44.7503 41.2824 44.7503 40.5V23.5C44.7503 22.7176 44.1161 22.0833 43.3337 22.0833ZM20.667 19.25C18.3198 19.25 16.417 21.1528 16.417 23.5V40.5C16.417 42.8473 18.3198 44.75 20.667 44.75H43.3337C45.6809 44.75 47.5837 42.8473 47.5837 40.5V23.5C47.5837 21.1528 45.6809 19.25 43.3337 19.25H20.667Z" fill="white"/>
<path fill-rule="evenodd" clip-rule="evenodd" d="M22.4124 25.4263C22.9133 24.8252 23.8066 24.744 24.4076 25.2449L31.0937 30.8167C31.6192 31.2544 32.3822 31.2544 32.9076 30.8167L39.5937 25.2449C40.1948 24.744 41.0882 24.8252 41.589 25.4263C42.0899 26.0273 42.0087 26.9206 41.4076 27.4215L34.7214 32.9932C33.1454 34.3068 30.856 34.3068 29.2798 32.9932L22.5938 27.4215C21.9927 26.9206 21.9115 26.0273 22.4124 25.4263V25.4263Z" fill="white"/>
</svg>
