<svg width="23" height="23" viewBox="0 0 23 23" fill="none" xmlns="http://www.w3.org/2000/svg">
<path d="M11.5025 5.60306C8.23916 5.60306 5.60694 8.23586 5.60694 11.4999C5.60694 14.764 8.23916 17.3968 11.5025 17.3968C14.7658 17.3968 17.3981 14.764 17.3981 11.4999C17.3981 8.23586 14.7658 5.60306 11.5025 5.60306ZM11.5025 15.3337C9.39364 15.3337 7.66961 13.6144 7.66961 11.4999C7.66961 9.38547 9.38851 7.66619 11.5025 7.66619C13.6165 7.66619 15.3354 9.38547 15.3354 11.4999C15.3354 13.6144 13.6114 15.3337 11.5025 15.3337V15.3337ZM19.0143 5.36184C19.0143 6.12654 18.3986 6.73727 17.6392 6.73727C16.8747 6.73727 16.2641 6.12141 16.2641 5.36184C16.2641 4.60228 16.8798 3.98642 17.6392 3.98642C18.3986 3.98642 19.0143 4.60228 19.0143 5.36184ZM22.919 6.7578C22.8318 4.91534 22.4111 3.28331 21.0616 1.93868C19.7173 0.59405 18.0856 0.173211 16.2436 0.0808318C14.3451 -0.0269439 8.65477 -0.0269439 6.75629 0.0808318C4.91938 0.168079 3.28771 0.588917 1.93825 1.93355C0.588786 3.27818 0.173172 4.91021 0.0808138 6.75266C-0.0269379 8.65157 -0.0269379 14.3432 0.0808138 16.2421C0.168041 18.0845 0.588786 19.7165 1.93825 21.0612C3.28771 22.4058 4.91425 22.8266 6.75629 22.919C8.65477 23.0268 14.3451 23.0268 16.2436 22.919C18.0856 22.8318 19.7173 22.4109 21.0616 21.0612C22.4059 19.7165 22.8267 18.0845 22.919 16.2421C23.0268 14.3432 23.0268 8.6567 22.919 6.7578V6.7578ZM20.4664 18.2795C20.0662 19.2854 19.2914 20.0604 18.2806 20.4658C16.7669 21.0663 13.1752 20.9277 11.5025 20.9277C9.82978 20.9277 6.23292 21.0612 4.7244 20.4658C3.71872 20.0655 2.94393 19.2906 2.53858 18.2795C1.93825 16.7655 2.07679 13.173 2.07679 11.4999C2.07679 9.82684 1.94338 6.22918 2.53858 4.72032C2.9388 3.71441 3.71359 2.93946 4.7244 2.53401C6.23805 1.93355 9.82978 2.07212 11.5025 2.07212C13.1752 2.07212 16.7721 1.93868 18.2806 2.53401C19.2863 2.93432 20.0611 3.70928 20.4664 4.72032C21.0667 6.23431 20.9282 9.82684 20.9282 11.4999C20.9282 13.173 21.0667 16.7707 20.4664 18.2795Z" fill="#667966"/>
</svg>
