<svg width="81" height="81" viewBox="0 0 81 81" fill="none" xmlns="http://www.w3.org/2000/svg">
<rect width="81" height="80.2747" rx="40.1373" fill="#E2F1ED"/>
<path d="M57.287 27.8463L40.746 18.0431C40.2864 17.7707 39.7138 17.7707 39.2541 18.0431L22.7131 27.8463C22.271 28.1084 22 28.5831 22 29.0956V34.6917C22 46.4785 28.8359 57.2439 39.4732 61.3468C39.8119 61.4774 40.1879 61.4776 40.5268 61.3468C51.1384 57.2541 58 46.512 58 34.6917V29.0956C58.0001 28.583 57.7292 28.1084 57.287 27.8463ZM47.2084 36.3756L38.0638 45.4857C37.494 46.0533 36.5702 46.0533 36.0004 45.4857L32.7911 42.2885C32.2213 41.721 32.2213 40.8006 32.7911 40.2329C33.3609 39.6654 34.2848 39.6654 34.8545 40.2329L37.0321 42.4022L45.145 34.32C45.7147 33.7524 46.6386 33.7524 47.2084 34.32C47.7783 34.8877 47.7783 35.808 47.2084 36.3756Z" fill="#2B6956"/>
</svg>
