<svg width="178" height="34" viewBox="0 0 178 34" fill="none" xmlns="http://www.w3.org/2000/svg">
<path d="M30.3026 16.2861C30.6918 15.8919 30.9628 15.3982 31.0853 14.8603C31.2079 14.3223 31.1772 13.7612 30.9968 13.2395C30.8274 12.7162 30.5132 12.2506 30.09 11.8957C29.6667 11.5407 29.1513 11.3107 28.6026 11.2318L22.5251 10.3051C22.4968 10.297 22.4706 10.2827 22.4486 10.2633C22.4265 10.2438 22.4091 10.2198 22.3976 10.1928L19.7343 4.5769C19.5007 4.05103 19.1179 3.60381 18.6325 3.28972C18.147 2.97562 17.5799 2.80822 17.0001 2.80789C16.4271 2.80554 15.8655 2.96726 15.383 3.27361C14.9005 3.57996 14.5175 4.01789 14.2801 4.53478L11.6168 10.1507C11.6022 10.1781 11.5822 10.2022 11.5578 10.2215C11.5334 10.2409 11.5053 10.255 11.4751 10.263L5.41178 11.2318C4.86225 11.3129 4.3462 11.5435 3.92102 11.898C3.49585 12.2524 3.17821 12.7168 3.00345 13.2395C2.82962 13.763 2.80373 14.3237 2.9286 14.8608C3.05347 15.3978 3.32432 15.8908 3.71178 16.2861L8.18845 20.849C8.20134 20.8778 8.20799 20.9089 8.20799 20.9403C8.20799 20.9717 8.20134 21.0028 8.18845 21.0316L7.14011 27.4056C7.04266 27.9607 7.10619 28.5319 7.32333 29.0526C7.54046 29.5733 7.90228 30.0223 8.36672 30.3473C8.83115 30.6723 9.37913 30.8599 9.94694 30.8885C10.5147 30.917 11.0791 30.7852 11.5743 30.5084L16.8584 27.6022C16.8847 27.5887 16.9139 27.5816 16.9434 27.5816C16.973 27.5816 17.0022 27.5887 17.0284 27.6022L22.3126 30.5084C22.8085 30.7793 23.3712 30.9064 23.9366 30.8752C24.5019 30.844 25.0469 30.6559 25.5095 30.3322C25.972 30.0086 26.3333 29.5625 26.5521 29.045C26.7709 28.5275 26.8384 27.9594 26.7468 27.4056L25.7693 21.0596C25.7544 21.034 25.7465 21.005 25.7465 20.9754C25.7465 20.9458 25.7544 20.9168 25.7693 20.8912L30.3026 16.2861Z" fill="#FE8D4D"/>
<path d="M78.3026 16.2861C78.6918 15.8919 78.9628 15.3982 79.0853 14.8603C79.2079 14.3223 79.1772 13.7612 78.9968 13.2395C78.8274 12.7162 78.5132 12.2506 78.09 11.8957C77.6667 11.5407 77.1513 11.3107 76.6026 11.2318L70.5251 10.3051C70.4968 10.297 70.4706 10.2827 70.4486 10.2633C70.4265 10.2438 70.4091 10.2198 70.3976 10.1928L67.7343 4.5769C67.5007 4.05103 67.1179 3.60381 66.6325 3.28972C66.147 2.97562 65.5799 2.80822 65.0001 2.80789C64.4271 2.80554 63.8655 2.96726 63.383 3.27361C62.9005 3.57996 62.5175 4.01789 62.2801 4.53478L59.6168 10.1507C59.6022 10.1781 59.5822 10.2022 59.5578 10.2215C59.5334 10.2409 59.5053 10.255 59.4751 10.263L53.4118 11.2318C52.8622 11.3129 52.3462 11.5435 51.921 11.898C51.4958 12.2524 51.1782 12.7168 51.0034 13.2395C50.8296 13.763 50.8037 14.3237 50.9286 14.8608C51.0535 15.3978 51.3243 15.8908 51.7118 16.2861L56.1884 20.849C56.2013 20.8778 56.208 20.9089 56.208 20.9403C56.208 20.9717 56.2013 21.0028 56.1884 21.0316L55.1401 27.4056C55.0427 27.9607 55.1062 28.5319 55.3233 29.0526C55.5405 29.5733 55.9023 30.0223 56.3667 30.3473C56.8312 30.6723 57.3791 30.8599 57.9469 30.8885C58.5147 30.917 59.0791 30.7852 59.5743 30.5084L64.8584 27.6022C64.8847 27.5887 64.9139 27.5816 64.9434 27.5816C64.973 27.5816 65.0022 27.5887 65.0284 27.6022L70.3126 30.5084C70.8085 30.7793 71.3712 30.9064 71.9366 30.8752C72.5019 30.844 73.0469 30.6559 73.5095 30.3322C73.972 30.0086 74.3333 29.5625 74.5521 29.045C74.7709 28.5275 74.8384 27.9594 74.7468 27.4056L73.7693 21.0596C73.7544 21.034 73.7465 21.005 73.7465 20.9754C73.7465 20.9458 73.7544 20.9168 73.7693 20.8912L78.3026 16.2861Z" fill="#FE8D4D"/>
<path d="M126.303 16.2861C126.692 15.8919 126.963 15.3982 127.085 14.8603C127.208 14.3223 127.177 13.7612 126.997 13.2395C126.827 12.7162 126.513 12.2506 126.09 11.8957C125.667 11.5407 125.151 11.3107 124.603 11.2318L118.525 10.3051C118.497 10.297 118.471 10.2827 118.449 10.2633C118.426 10.2438 118.409 10.2198 118.398 10.1928L115.734 4.5769C115.501 4.05103 115.118 3.60381 114.632 3.28972C114.147 2.97562 113.58 2.80822 113 2.80789C112.427 2.80554 111.866 2.96726 111.383 3.27361C110.9 3.57996 110.518 4.01789 110.28 4.53478L107.617 10.1507C107.602 10.1781 107.582 10.2022 107.558 10.2215C107.533 10.2409 107.505 10.255 107.475 10.263L101.412 11.2318C100.862 11.3129 100.346 11.5435 99.921 11.898C99.4958 12.2524 99.1782 12.7168 99.0034 13.2395C98.8296 13.763 98.8037 14.3237 98.9286 14.8608C99.0535 15.3978 99.3243 15.8908 99.7118 16.2861L104.188 20.849C104.201 20.8778 104.208 20.9089 104.208 20.9403C104.208 20.9717 104.201 21.0028 104.188 21.0316L103.14 27.4056C103.043 27.9607 103.106 28.5319 103.323 29.0526C103.54 29.5733 103.902 30.0223 104.367 30.3473C104.831 30.6723 105.379 30.8599 105.947 30.8885C106.515 30.917 107.079 30.7852 107.574 30.5084L112.858 27.6022C112.885 27.5887 112.914 27.5816 112.943 27.5816C112.973 27.5816 113.002 27.5887 113.028 27.6022L118.313 30.5084C118.808 30.7793 119.371 30.9064 119.937 30.8752C120.502 30.844 121.047 30.6559 121.509 30.3322C121.972 30.0086 122.333 29.5625 122.552 29.045C122.771 28.5275 122.838 27.9594 122.747 27.4056L121.769 21.0596C121.754 21.034 121.747 21.005 121.747 20.9754C121.747 20.9458 121.754 20.9168 121.769 20.8912L126.303 16.2861Z" fill="#FE8D4D"/>
<path d="M174.303 16.2861C174.692 15.8919 174.963 15.3982 175.085 14.8603C175.208 14.3223 175.177 13.7612 174.997 13.2395C174.827 12.7162 174.513 12.2506 174.09 11.8957C173.667 11.5407 173.151 11.3107 172.603 11.2318L166.525 10.3051C166.497 10.297 166.471 10.2827 166.449 10.2633C166.426 10.2438 166.409 10.2198 166.398 10.1928L163.734 4.5769C163.501 4.05103 163.118 3.60381 162.632 3.28972C162.147 2.97562 161.58 2.80822 161 2.80789C160.427 2.80554 159.866 2.96726 159.383 3.27361C158.9 3.57996 158.518 4.01789 158.28 4.53478L155.617 10.1507C155.602 10.1781 155.582 10.2022 155.558 10.2215C155.533 10.2409 155.505 10.255 155.475 10.263L149.412 11.2318C148.862 11.3129 148.346 11.5435 147.921 11.898C147.496 12.2524 147.178 12.7168 147.003 13.2395C146.83 13.763 146.804 14.3237 146.929 14.8608C147.053 15.3978 147.324 15.8908 147.712 16.2861L152.188 20.849C152.201 20.8778 152.208 20.9089 152.208 20.9403C152.208 20.9717 152.201 21.0028 152.188 21.0316L151.14 27.4056C151.043 27.9607 151.106 28.5319 151.323 29.0526C151.54 29.5733 151.902 30.0223 152.367 30.3473C152.831 30.6723 153.379 30.8599 153.947 30.8885C154.515 30.917 155.079 30.7852 155.574 30.5084L160.858 27.6022C160.885 27.5887 160.914 27.5816 160.943 27.5816C160.973 27.5816 161.002 27.5887 161.028 27.6022L166.313 30.5084C166.808 30.7793 167.371 30.9064 167.937 30.8752C168.502 30.844 169.047 30.6559 169.509 30.3322C169.972 30.0086 170.333 29.5625 170.552 29.045C170.771 28.5275 170.838 27.9594 170.747 27.4056L169.769 21.0596C169.754 21.034 169.747 21.005 169.747 20.9754C169.747 20.9458 169.754 20.9168 169.769 20.8912L174.303 16.2861Z" fill="#FE8D4D"/>
</svg>
