<svg width="24" height="24" viewBox="0 0 24 24" fill="none" xmlns="http://www.w3.org/2000/svg">
<path d="M12 10.87L21.46 5.32C21.1876 4.91706 20.8214 4.58636 20.3929 4.35641C19.9643 4.12646 19.4863 4.00414 19 4H4.99996C4.51114 3.99979 4.02967 4.11902 3.59744 4.34734C3.16522 4.57565 2.79533 4.90612 2.51996 5.31L12 10.87Z" fill="#EBE5DB"/>
<path d="M13 12.5896C12.6962 12.7658 12.3513 12.859 12 12.8596C11.6496 12.862 11.3048 12.7724 11 12.5996L2 7.32959V16.9996C2 17.7952 2.31607 18.5583 2.87868 19.1209C3.44129 19.6835 4.20435 19.9996 5 19.9996H19C19.7956 19.9996 20.5587 19.6835 21.1213 19.1209C21.6839 18.5583 22 17.7952 22 16.9996V7.32959L13 12.5896Z" fill="#EBE5DB"/>
</svg>
