<svg width="80" height="79" viewBox="0 0 80 79" fill="none" xmlns="http://www.w3.org/2000/svg">
<g clip-path="url(#clip0_29_228)">
<path d="M40.0056 41.0016C51.4342 41.0016 60.7766 31.7808 60.7766 20.5008C60.7766 9.22083 51.4342 0 40.0056 0C28.5769 0 19.2347 9.22083 19.2347 20.5008C19.2347 31.7808 28.5771 41.0016 40.0056 41.0016Z" fill="#2B6956"/>
<path d="M75.6519 57.3843C75.1076 56.0414 74.3821 54.7881 73.5658 53.6243C69.3934 47.5367 62.9536 43.5082 55.6974 42.5234C54.7904 42.4339 53.7927 42.6128 53.067 43.15C49.2574 45.9253 44.7224 47.3576 40.0057 47.3576C35.289 47.3576 30.754 45.9253 26.9444 43.15C26.2187 42.6128 25.221 42.3443 24.314 42.5234C17.0578 43.5082 10.5272 47.5367 6.44565 53.6243C5.62933 54.7881 4.90363 56.131 4.35954 57.3843C4.08749 57.9215 4.17811 58.5481 4.45016 59.0853C5.17585 60.3386 6.0828 61.592 6.89912 62.6662C8.16891 64.3673 9.5295 65.889 11.0715 67.3214C12.3413 68.5747 13.7925 69.7385 15.2439 70.9023C22.4094 76.1843 31.0262 78.9593 39.9151 78.9593C48.804 78.9593 57.4208 76.1841 64.5863 70.9023C66.0375 69.8281 67.4887 68.5747 68.7586 67.3214C70.2099 65.889 71.6611 64.3671 72.931 62.6662C73.838 61.5024 74.6545 60.3386 75.38 59.0853C75.8333 58.5481 75.9239 57.9213 75.6519 57.3843Z" fill="#2B6956"/>
</g>
<defs>
<clipPath id="clip0_29_228">
<rect width="80" height="78.9593" fill="white"/>
</clipPath>
</defs>
</svg>
