<svg width="23" height="23" viewBox="0 0 23 23" fill="none" xmlns="http://www.w3.org/2000/svg">
<path d="M11.5022 5.60293C8.23898 5.60293 5.60681 8.23568 5.60681 11.4997C5.60681 14.7637 8.23898 17.3964 11.5022 17.3964C14.7655 17.3964 17.3977 14.7637 17.3977 11.4997C17.3977 8.23568 14.7655 5.60293 11.5022 5.60293ZM11.5022 15.3333C9.39343 15.3333 7.66944 13.6141 7.66944 11.4997C7.66944 9.38526 9.3883 7.66602 11.5022 7.66602C13.6162 7.66602 15.335 9.38526 15.335 11.4997C15.335 13.6141 13.6111 15.3333 11.5022 15.3333V15.3333ZM19.0139 5.36173C19.0139 6.1264 18.3982 6.73712 17.6388 6.73712C16.8743 6.73712 16.2637 6.12127 16.2637 5.36173C16.2637 4.60218 16.8794 3.98633 17.6388 3.98633C18.3982 3.98633 19.0139 4.60218 19.0139 5.36173ZM22.9185 6.75765C22.8313 4.91524 22.4106 3.28324 21.0611 1.93864C19.7168 0.594036 18.0852 0.173207 16.2432 0.08083C14.3448 -0.0269433 8.65458 -0.0269433 6.75614 0.08083C4.91927 0.168075 3.28764 0.588904 1.93821 1.93351C0.588773 3.27811 0.173169 4.9101 0.080812 6.75252C-0.0269373 8.65138 -0.0269373 14.3428 0.080812 16.2417C0.168038 18.0841 0.588773 19.7161 1.93821 21.0607C3.28764 22.4053 4.91414 22.8261 6.75614 22.9185C8.65458 23.0263 14.3448 23.0263 16.2432 22.9185C18.0852 22.8313 19.7168 22.4104 21.0611 21.0607C22.4054 19.7161 22.8262 18.0841 22.9185 16.2417C23.0263 14.3428 23.0263 8.65651 22.9185 6.75765V6.75765ZM20.466 18.2791C20.0657 19.285 19.291 20.06 18.2802 20.4654C16.7666 21.0658 13.1749 20.9273 11.5022 20.9273C9.82956 20.9273 6.23279 21.0607 4.7243 20.4654C3.71863 20.0651 2.94387 19.2902 2.53852 18.2791C1.93821 16.7652 2.07674 13.1727 2.07674 11.4997C2.07674 9.82662 1.94334 6.22904 2.53852 4.72022C2.93873 3.71433 3.7135 2.93939 4.7243 2.53396C6.23792 1.93351 9.82956 2.07207 11.5022 2.07207C13.1749 2.07207 16.7717 1.93864 18.2802 2.53396C19.2858 2.93426 20.0606 3.7092 20.466 4.72022C21.0663 6.23418 20.9277 9.82662 20.9277 11.4997C20.9277 13.1727 21.0663 16.7703 20.466 18.2791Z" fill="#667966"/>
</svg>
