<svg width="68" height="53" viewBox="0 0 68 53" fill="none" xmlns="http://www.w3.org/2000/svg">
<path d="M65.3116 0V3.85291C59.8295 5.84489 55.5333 8.99013 52.4233 13.2886C49.3132 17.5347 47.7581 21.9642 47.7581 26.5772C47.7581 27.5732 47.9163 28.3071 48.2326 28.7789C48.4434 29.0934 48.6806 29.2507 48.9442 29.2507C49.2078 29.2507 49.6031 29.0672 50.1302 28.7003C51.8171 27.4946 53.9519 26.8918 56.5349 26.8918C59.5395 26.8918 62.2016 28.1236 64.5209 30.5874C66.8403 32.9987 68 35.8819 68 39.2368C68 42.749 66.6558 45.8418 63.9674 48.5152C61.3318 51.1887 58.1163 52.5254 54.3209 52.5254C49.893 52.5254 46.0713 50.7169 42.8558 47.0999C39.6403 43.4829 38.0326 38.634 38.0326 32.5532C38.0326 25.4764 40.2202 19.1335 44.5953 13.5245C48.9705 7.91551 55.876 3.40734 65.3116 0ZM27.2791 0V3.85291C21.7969 5.84489 17.5008 8.99013 14.3907 13.2886C11.2806 17.5347 9.72558 21.9642 9.72558 26.5772C9.72558 27.5732 9.88372 28.3071 10.2 28.7789C10.4109 29.0934 10.6481 29.2507 10.9116 29.2507C11.1752 29.2507 11.5705 29.0672 12.0977 28.7003C13.7845 27.4946 15.9194 26.8918 18.5023 26.8918C21.507 26.8918 24.169 28.1236 26.4884 30.5874C28.8078 32.9987 29.9674 35.8819 29.9674 39.2368C29.9674 42.749 28.6233 45.8418 25.9349 48.5152C23.2992 51.1887 20.0837 52.5254 16.2884 52.5254C11.8605 52.5254 8.03876 50.7169 4.82326 47.0999C1.60775 43.4829 0 38.634 0 32.5532C0 25.4764 2.1876 19.1335 6.56279 13.5245C10.938 7.91551 17.8434 3.40734 27.2791 0Z" fill="#363848" fill-opacity="0.12"/>
</svg>
