<svg width="25" height="24" viewBox="0 0 25 24" fill="none" xmlns="http://www.w3.org/2000/svg">
<path d="M23.2147 0H1.78017C0.798007 0 0 0.775453 0 1.72739V22.2314C0 23.1834 0.798007 23.9588 1.78017 23.9588H23.2147C24.1969 23.9588 25.0005 23.1834 25.0005 22.2314V1.72739C25.0005 0.775453 24.1969 0 23.2147 0ZM7.55595 20.5361H3.85052V9.10221H7.56153V20.5361H7.55595ZM5.70324 7.54061C4.5146 7.54061 3.55476 6.61541 3.55476 5.48165C3.55476 4.34788 4.5146 3.42269 5.70324 3.42269C6.8863 3.42269 7.85172 4.34788 7.85172 5.48165C7.85172 6.62076 6.89188 7.54061 5.70324 7.54061V7.54061ZM21.4457 20.5361H17.7403V14.9743C17.7403 13.648 17.7124 11.942 15.815 11.942C13.8842 11.942 13.5884 13.3859 13.5884 14.878V20.5361H9.88301V9.10221H13.4378V10.6638H13.488C13.9847 9.76535 15.1956 8.81876 16.9981 8.81876C20.7482 8.81876 21.4457 11.1879 21.4457 14.2683V20.5361V20.5361Z" fill="#667966"/>
</svg>
