<svg width="24" height="24" viewBox="0 0 24 24" fill="none" xmlns="http://www.w3.org/2000/svg">
<path d="M9.70564 13.2399C9.63028 13.2399 8.0494 13.2404 7.32028 13.2397C6.94492 13.2394 6.811 13.1045 6.811 12.7268C6.81052 11.7565 6.81028 10.7861 6.811 9.81581C6.81124 9.44285 6.95284 9.30053 7.3234 9.30029C8.05252 9.29981 9.62476 9.30005 9.70564 9.30005C9.70564 9.23357 9.7054 7.83269 9.70564 7.18757C9.70612 6.23381 9.87628 5.32085 10.3608 4.48493C10.8569 3.62933 11.5788 3.04325 12.504 2.70437C13.0966 2.48717 13.7117 2.40053 14.3405 2.40005C15.1272 2.39957 15.914 2.40029 16.7009 2.40173C17.0391 2.40221 17.1891 2.55173 17.1898 2.89229C17.1912 3.80501 17.1912 4.71773 17.1898 5.63021C17.1893 5.97437 17.0456 6.11261 16.6997 6.11645C16.0548 6.12341 15.4095 6.11909 14.7653 6.14501C14.1147 6.14501 13.7724 6.46277 13.7724 7.13621C13.7568 7.84853 13.766 8.56157 13.766 9.29981C13.8269 9.29981 15.6785 9.29957 16.544 9.29981C16.9371 9.29981 17.0715 9.43493 17.0715 9.83021C17.0715 10.7953 17.0712 11.7605 17.0705 12.7256C17.0703 13.1151 16.944 13.2394 16.5485 13.2397C15.6831 13.2401 13.8387 13.2399 13.758 13.2399V21.0507C13.758 21.4671 13.627 21.5998 13.2161 21.5998C12.2144 21.5998 11.2124 21.6001 10.2106 21.5998C9.84748 21.5998 9.70588 21.4587 9.70588 21.0956C9.70564 18.5518 9.70564 13.3292 9.70564 13.2399Z" fill="#3D6AD6"/>
</svg>
