<svg width="25" height="24" viewBox="0 0 25 24" fill="none" xmlns="http://www.w3.org/2000/svg">
<path d="M23.2138 0H1.7801C0.797975 0 0 0.775421 0 1.72732V22.2305C0 23.1824 0.797975 23.9578 1.7801 23.9578H23.2138C24.1959 23.9578 24.9995 23.1824 24.9995 22.2305V1.72732C24.9995 0.775421 24.1959 0 23.2138 0ZM7.55565 20.5353H3.85037V9.10184H7.56123V20.5353H7.55565ZM5.70301 7.5403C4.51442 7.5403 3.55461 6.61514 3.55461 5.48142C3.55461 4.34771 4.51442 3.42255 5.70301 3.42255C6.88602 3.42255 7.8514 4.34771 7.8514 5.48142C7.8514 6.62049 6.8916 7.5403 5.70301 7.5403V7.5403ZM21.4449 20.5353H17.7396V14.9736C17.7396 13.6474 17.7117 11.9415 15.8144 11.9415C13.8836 11.9415 13.5879 13.3854 13.5879 14.8774V20.5353H9.88261V9.10184H13.4372V10.6634H13.4874C13.9841 9.76496 15.195 8.81841 16.9974 8.81841C20.7473 8.81841 21.4449 11.1875 21.4449 14.2677V20.5353V20.5353Z" fill="#667966"/>
</svg>
