<svg width="56" height="55" viewBox="0 0 56 55" fill="none" xmlns="http://www.w3.org/2000/svg">
<rect x="0.5" y="0.5" width="55" height="53.0241" rx="26.5121" stroke="#EBE5DB"/>
<path d="M19 32.8006C19 33.3338 19.4473 33.7653 20 33.7653H23H24C24 35.8935 25.7939 37.6242 28 37.6242C30.2061 37.6242 32 35.8935 32 33.7653H33H36C36.5527 33.7653 37 33.3338 37 32.8006C37 32.2673 36.5527 31.8359 36 31.8359H35.8157C35.9278 31.5326 36 31.2111 36 30.8711V26.0476C36 22.4593 33.4447 19.444 30 18.5838V18.3298C30 17.2662 29.1025 16.4004 28 16.4004C26.8975 16.4004 26 17.2662 26 18.3298V18.5838C22.5553 19.444 20 22.4593 20 26.0476V30.8711C20 31.2111 20.0723 31.5326 20.1843 31.8359H20C19.4473 31.8359 19 32.2673 19 32.8006ZM28 35.6947C26.8975 35.6947 26 34.8289 26 33.7653H30C30 34.8289 29.1025 35.6947 28 35.6947ZM22 30.8711V26.0476C22 22.8557 24.6914 20.2593 28 20.2593C31.3086 20.2593 34 22.8557 34 26.0476V30.8711C34 31.4034 33.5518 31.8359 33 31.8359H31H25H23C22.4482 31.8359 22 31.4034 22 30.8711Z" fill="#EBE5DB"/>
</svg>
