<svg width="81" height="80" viewBox="0 0 81 80" fill="none" xmlns="http://www.w3.org/2000/svg">
<rect width="81" height="79.9463" rx="6" fill="white"/>
<path d="M57.287 27.7325L40.746 17.9693C40.2864 17.6981 39.7138 17.6981 39.2541 17.9693L22.7131 27.7325C22.271 27.9935 22 28.4662 22 28.9766V34.5498C22 46.2884 28.8359 57.0097 39.4732 61.0958C39.8119 61.2259 40.1879 61.2261 40.5268 61.0958C51.1384 57.0199 58 46.3218 58 34.5498V28.9766C58.0001 28.4662 57.7292 27.9935 57.287 27.7325ZM47.2084 36.2268L38.0638 45.2996C37.494 45.8649 36.5702 45.8649 36.0004 45.2996L32.7911 42.1156C32.2213 41.5503 32.2213 40.6337 32.7911 40.0684C33.3609 39.5031 34.2848 39.5031 34.8545 40.0684L37.0321 42.2288L45.145 34.1796C45.7147 33.6144 46.6386 33.6144 47.2084 34.1796C47.7783 34.745 47.7783 35.6616 47.2084 36.2268Z" fill="#2B6956"/>
</svg>
