<svg width="91" height="91" viewBox="0 0 91 91" fill="none" xmlns="http://www.w3.org/2000/svg">
<rect width="91" height="91" rx="45.5" fill="#D1E6DF"/>
<path d="M62.3685 31.5378L46.8685 25.2871C46.3963 25.0976 45.8902 25 45.379 25C44.8679 25 44.3617 25.0976 43.8896 25.2871L28.3896 31.5378C26.9445 32.1159 26 33.4833 26 34.999C26 50.5084 35.2435 61.2281 43.8815 64.7129C44.8341 65.0957 45.9078 65.0957 46.8604 64.7129C53.7789 61.9235 64.75 52.2898 64.75 34.999C64.75 33.4833 63.8055 32.1159 62.3685 31.5378ZM45.3831 59.8686L45.375 30.1001L59.5753 35.8272C59.3089 47.6565 52.9474 56.2277 45.3831 59.8686V59.8686Z" fill="#2B6956"/>
</svg>
