<svg width="91" height="91" viewBox="0 0 91 91" fill="none" xmlns="http://www.w3.org/2000/svg">
<rect width="91" height="91" rx="45.5" fill="#D1E6DF"/>
<path d="M27.9051 36.5645L44.8901 44.8198C45.3859 45.0612 45.9467 45.0612 46.4425 44.8198L63.4275 36.5645C64.6343 35.9778 64.6343 34.0239 63.4275 33.4372L46.4432 25.181C46.1996 25.0617 45.9349 25 45.667 25C45.3992 25 45.1345 25.0617 44.8908 25.181L27.9051 33.4364C26.6983 34.0231 26.6983 35.9778 27.9051 36.5645ZM63.4283 43.4613L59.1926 41.4042L47.4064 47.1284C46.8552 47.3963 46.2697 47.5323 45.6667 47.5323C45.0637 47.5323 44.4789 47.3963 43.9269 47.1284L32.1415 41.4042L27.9051 43.4613C26.6983 44.0472 26.6983 46.0003 27.9051 46.5862L44.8901 54.8353C45.3859 55.0759 45.9467 55.0759 46.4425 54.8353L63.4283 46.5862C64.635 46.0003 64.635 44.0472 63.4283 43.4613V43.4613ZM63.4283 53.4455L59.2086 51.3963L47.4064 57.1282C46.8552 57.3962 46.2697 57.5321 45.6667 57.5321C45.0637 57.5321 44.4789 57.3962 43.9269 57.1282L32.1254 51.3963L27.9051 53.4455C26.6983 54.0314 26.6983 55.9845 27.9051 56.5704L44.8901 64.8195C45.3859 65.0602 45.9467 65.0602 46.4425 64.8195L63.4283 56.5704C64.635 55.9845 64.635 54.0314 63.4283 53.4455V53.4455Z" fill="#2B6956"/>
</svg>
