<svg width="24" height="24" viewBox="0 0 24 24" fill="none" xmlns="http://www.w3.org/2000/svg">
<path d="M18.7848 6.36257C18.216 5.24129 17.3746 4.28097 16.3377 3.5699C15.3009 2.85882 14.1019 2.41981 12.8511 2.29322C12.2852 2.23645 11.7151 2.23645 11.1492 2.29322C9.89839 2.41989 8.69944 2.85889 7.66255 3.56988C6.62566 4.28088 5.78409 5.24105 5.21515 6.3622C4.49934 7.79271 4.22286 9.40305 4.42052 10.9904C4.61817 12.5778 5.28114 14.0711 6.3259 15.2824L11.4206 21.4765C11.4909 21.5621 11.5794 21.631 11.6796 21.6784C11.7797 21.7257 11.8892 21.7502 12 21.7502C12.1107 21.7502 12.2202 21.7257 12.3203 21.6784C12.4205 21.631 12.509 21.5621 12.5793 21.4765L17.674 15.2824C18.7188 14.0712 19.3817 12.5779 19.5794 10.9906C19.777 9.40331 19.5005 7.79302 18.7848 6.36257ZM12 12.75C11.4066 12.75 10.8266 12.5741 10.3332 12.2444C9.83989 11.9148 9.45538 11.4463 9.22831 10.8981C9.00125 10.3499 8.94184 9.74669 9.0576 9.16475C9.17335 8.58281 9.45907 8.04826 9.87863 7.6287C10.2982 7.20914 10.8327 6.92342 11.4147 6.80767C11.9966 6.69191 12.5998 6.75132 13.148 6.97838C13.6962 7.20545 14.1647 7.58996 14.4944 8.08331C14.824 8.57666 15 9.15668 15 9.75002C14.999 10.5454 14.6826 11.3079 14.1202 11.8703C13.5578 12.4327 12.7953 12.7491 12 12.75V12.75Z" fill="#5A524C"/>
</svg>
