<svg width="1920" height="674" viewBox="0 0 1920 674" fill="none" xmlns="http://www.w3.org/2000/svg">
<rect width="1920" height="674" fill="#0D0E0C"/>
<mask id="mask0_41_52" style="mask-type:alpha" maskUnits="userSpaceOnUse" x="0" y="0" width="1920" height="674">
<rect width="1920" height="674" fill="#0D0E0C"/>
</mask>
<g mask="url(#mask0_41_52)">
<path d="M609.532 419.463C533.997 168.843 761.564 108.168 884.789 109.157C1115.38 117.119 1017.18 237.771 1203 327.204C1388.82 416.637 1197.09 445.303 1159 560.595C1120.91 675.886 1386.54 629.395 1311.38 839.699C1236.22 1050 826.068 1042.62 993.817 775.957C1161.57 509.299 703.951 732.737 609.532 419.463Z" stroke="#20221E" stroke-width="2"/>
<path d="M690.35 448.846C632.26 255.781 807.315 209.026 902.104 209.781C1079.48 215.901 1003.94 308.854 1146.87 377.739C1289.8 446.625 1142.31 468.719 1113.01 557.538C1083.7 646.358 1288.04 610.527 1230.21 772.543C1172.38 934.558 856.881 928.89 985.934 723.456C1114.99 518.022 762.962 690.177 690.35 448.846Z" stroke="#20221E" stroke-width="2"/>
<path d="M534.713 392.016C443.052 87.5646 719.248 13.842 868.804 15.0371C1148.67 24.6959 1029.48 171.271 1255 279.905C1480.52 388.539 1247.81 423.373 1201.58 563.433C1155.34 703.493 1477.74 647 1386.5 902.484C1295.27 1157.97 797.482 1149.02 1001.09 825.068C1204.7 501.119 649.289 772.58 534.713 392.016Z" stroke="#20221E" stroke-width="2"/>
<path d="M471.85 369.255C366.61 20.2413 683.646 -64.2489 855.319 -62.8673C1176.57 -51.7734 1039.77 116.244 1298.64 240.793C1557.52 365.342 1290.41 405.256 1237.35 565.81C1184.28 726.363 1554.35 661.628 1449.65 954.493C1344.94 1247.36 773.537 1237.06 1007.23 865.718C1240.92 494.376 603.4 805.521 471.85 369.255Z" stroke="#20221E" stroke-width="2"/>
<path d="M382.075 336.154C257.503 -77.822 632.899 -178.075 836.169 -176.454C1216.55 -163.329 1054.55 35.9811 1361.06 183.689C1667.57 331.398 1351.29 378.772 1288.44 569.22C1225.6 759.668 1663.79 682.842 1539.78 1030.24C1415.77 1377.64 739.197 1365.48 1015.94 924.984C1292.69 484.487 537.791 853.624 382.075 336.154Z" stroke="#20221E" stroke-width="2"/>
<path d="M277.344 297.404C130.232 -192.666 573.72 -311.398 813.854 -309.505C1263.21 -294.014 1071.81 -58.0406 1433.89 116.786C1795.97 291.612 1422.32 347.735 1348.06 573.205C1273.79 798.675 1791.46 707.67 1644.91 1118.95C1498.37 1530.23 699.102 1515.93 1026.09 994.411C1353.08 472.894 461.235 909.992 277.344 297.404Z" stroke="#20221E" stroke-width="2"/>
</g>
</svg>
