<svg width="80" height="79" viewBox="0 0 80 79" fill="none" xmlns="http://www.w3.org/2000/svg">
<path d="M63.3334 16.4498H60V9.86988C60 8.99733 59.6488 8.16051 59.0237 7.54352C58.3986 6.92653 57.5507 6.57991 56.6667 6.57991C55.7826 6.57991 54.9348 6.92653 54.3097 7.54352C53.6845 8.16051 53.3334 8.99733 53.3334 9.86988V16.4498H26.6667V9.86988C26.6667 8.99733 26.3155 8.16051 25.6904 7.54352C25.0653 6.92653 24.2174 6.57991 23.3334 6.57991C22.4493 6.57991 21.6015 6.92653 20.9763 7.54352C20.3512 8.16051 20 8.99733 20 9.86988V16.4498H16.6667C14.0145 16.4498 11.471 17.4897 9.59562 19.3406C7.72026 21.1916 6.66669 23.7021 6.66669 26.3197V29.6097H73.3334V26.3197C73.3334 23.7021 72.2798 21.1916 70.4044 19.3406C68.5291 17.4897 65.9855 16.4498 63.3334 16.4498Z" fill="#2B6956"/>
<path d="M6.66669 62.5094C6.66669 65.1271 7.72026 67.6375 9.59562 69.4885C11.471 71.3394 14.0145 72.3793 16.6667 72.3793H63.3334C65.9855 72.3793 68.5291 71.3394 70.4044 69.4885C72.2798 67.6375 73.3334 65.1271 73.3334 62.5094V36.1897H6.66669V62.5094Z" fill="#2B6956"/>
</svg>
