<svg width="161" height="64" viewBox="0 0 161 64" fill="none" xmlns="http://www.w3.org/2000/svg">
<path d="M26.3366 61.5344L48.7603 23.0105C48.7603 22.862 48.6851 22.7878 48.5346 22.7878C34.1372 35.8518 24.33 45.4024 19.1128 51.4395C18.4105 52.2313 16.6548 53.988 13.8455 56.7096C11.0864 59.4313 9.40592 61.0148 8.80394 61.4602C8.25213 61.9056 7.24883 62.2519 5.79405 62.4994C5.49306 62.4994 5.34256 62.3262 5.34256 61.9798C5.34256 61.6334 7.32408 59.1097 11.2871 54.4086C15.3003 49.6581 19.6897 44.4127 24.4554 38.6724C29.2211 32.8827 33.5854 26.7218 37.5484 20.1898C41.5616 13.6578 43.5682 8.61036 43.5682 5.04745C43.5682 2.96909 42.4897 1.92991 40.3326 1.92991C36.6706 1.92991 32.4818 3.38971 27.7663 6.30932C23.1009 9.22892 18.8871 12.6434 15.1247 16.5527C11.4125 20.462 8.25213 24.4455 5.64355 28.5033C3.03498 32.5115 1.73069 35.6291 1.73069 37.8559C1.73069 39.2415 2.55841 39.9343 4.21385 39.9343C5.8693 39.9343 7.77556 39.3899 9.93265 38.3013C12.1399 37.2126 14.2218 35.8765 16.1782 34.293C20.1412 31.0765 23.3769 28.1569 25.8851 25.5342L27.39 23.9012C27.5907 23.7527 27.7663 23.6785 27.9168 23.6785C28.0673 23.6785 28.1425 23.827 28.1425 24.1239C21.8719 31.1012 15.7518 36.0992 9.78216 39.1178C7.37424 40.3054 5.24223 40.8992 3.38613 40.8992C1.12871 40.8992 0 39.6621 0 37.1879C0 35.2085 0.702309 32.7095 2.10693 29.6909C3.56171 26.6723 5.59339 23.5548 8.20196 20.3383C10.8607 17.0723 13.7954 14.029 17.0059 11.2083C20.2666 8.3382 23.9287 5.98767 27.992 4.15673C32.1055 2.2763 36.1187 1.33609 40.0316 1.33609C43.493 1.33609 45.2237 3.01858 45.2237 6.38354C45.2237 8.75882 44.396 11.8021 42.7405 15.5135C41.0851 19.2249 39.0785 22.8867 36.7207 26.4991C32.0554 33.6744 27.7161 39.7116 23.7029 44.6106L21.2198 47.5797L55.0811 15.0681C56.4355 13.831 57.188 13.2125 57.3385 13.2125C57.6897 13.2125 57.8652 13.4351 57.8652 13.8805C57.8652 14.2764 57.3887 14.9692 56.4355 15.9589C48.2085 28.8249 41.1352 40.5281 35.2158 51.0684L34.99 51.8849C38.7524 47.4807 44.421 41.6415 51.9959 34.3672C59.5708 27.093 65.9669 21.1795 71.184 16.6269C76.4012 12.0743 81.518 8.165 86.5345 4.899C91.551 1.633 95.3384 0 97.8969 0C98.6493 0 99.0256 0.395878 99.0256 1.18763C99.0256 1.38557 98.85 1.58351 98.4988 1.78145C98.1978 1.97939 97.1945 2.69692 95.4889 3.93404C90.5226 7.39798 88.0144 9.10521 87.9642 9.05573C87.8137 9.05573 87.7384 9.00624 87.7384 8.90727L87.8889 8.46191C87.8889 8.26397 87.7635 8.165 87.5127 8.165C85.5563 8.165 81.7187 10.3671 75.9999 14.7712C70.3312 19.1754 64.3365 24.3713 58.0157 30.359C51.7451 36.3466 45.7002 42.359 39.8811 48.3962C34.1121 54.4333 29.9986 59.0849 27.5405 62.3509C27.0891 62.8953 26.6877 63.1674 26.3366 63.1674C25.9854 63.1674 25.8099 63.0437 25.8099 62.7963C25.8099 62.5983 25.9854 62.1777 26.3366 61.5344Z" fill="black"/>
<path d="M67.4581 32.2146C66.6053 32.2146 66.1789 31.8435 66.1789 31.1012C66.1789 30.3095 66.5551 29.5672 67.3076 28.8744C68.0601 28.1816 68.6871 27.8352 69.1888 27.8352C69.7406 27.8352 70.1419 27.9837 70.3927 28.2806C70.6937 28.5775 70.8442 28.9239 70.8442 29.3198C70.8442 29.7157 70.4931 30.3095 69.7908 31.1012C69.0885 31.8435 68.3109 32.2146 67.4581 32.2146ZM48.4205 55.6705C48.9723 54.4333 51.1796 51.6127 55.0423 47.2086C58.9551 42.8044 61.9149 39.6126 63.9215 37.6332C64.2225 37.2374 64.373 36.9652 64.373 36.8167C64.373 36.6188 64.1723 36.4951 63.771 36.4456L62.0403 36.2971C61.639 36.2971 61.2627 36.4951 60.9116 36.891C57.5004 40.3054 54.2647 44.0415 51.2047 48.0993C48.1948 52.1076 46.6898 54.6065 46.6898 55.5962C46.6898 56.5364 46.9908 57.0066 47.5928 57.0066C48.3954 57.0066 50.0258 56.3632 52.4839 55.0766C54.942 53.7406 57.1994 52.4045 59.2561 51.0684L62.3413 49.0642L62.266 48.0993C54.1895 53.3447 49.6997 55.9674 48.7968 55.9674C48.5459 55.9674 48.4205 55.8684 48.4205 55.6705Z" fill="black"/>
<path d="M103.008 8.09077C101.503 8.09077 95.9596 12.8413 86.3781 22.3424C76.7966 31.8435 69.5227 39.9838 64.5564 46.7632C69.1715 43.2992 76.7464 36.5198 87.2811 26.4249C97.8659 16.2805 103.158 10.2434 103.158 8.31345C103.158 8.21449 103.108 8.14026 103.008 8.09077ZM104.437 6.75468C104.889 6.75468 105.115 7.02685 105.115 7.57118C105.115 9.94645 99.722 16.2805 88.9365 26.5734C78.2012 36.8167 69.6732 44.1157 63.3524 48.4704C61.1452 51.588 60.0415 53.8395 60.0415 55.2251C60.0415 55.6705 60.1419 55.8931 60.3425 55.8931C62.3993 55.8931 66.0864 54.2601 71.4039 50.9941L75.9187 48.0993L75.994 49.0642C74.7399 49.856 73.3101 50.7467 71.7049 51.7364C65.8857 55.2993 61.8475 57.0808 59.59 57.0808C58.9881 57.0808 58.6871 56.6107 58.6871 55.6705C58.6871 52.8003 60.7188 48.5694 64.7821 42.9776C68.8455 37.3363 73.4857 31.893 78.7029 26.6476C83.9702 21.3527 89.1121 16.7259 94.1286 12.7671C99.1952 8.75882 102.632 6.75468 104.437 6.75468Z" fill="black"/>
<path d="M116.602 8.09077C115.097 8.09077 109.554 12.8413 99.9726 22.3424C90.3911 31.8435 83.1172 39.9838 78.1509 46.7632C82.766 43.2992 90.3409 36.5198 100.876 26.4249C111.46 16.2805 116.753 10.2434 116.753 8.31345C116.753 8.21449 116.703 8.14026 116.602 8.09077ZM118.032 6.75468C118.483 6.75468 118.709 7.02685 118.709 7.57118C118.709 9.94645 113.316 16.2805 102.531 26.5734C91.7957 36.8167 83.2677 44.1157 76.9469 48.4704C74.7397 51.588 73.636 53.8395 73.636 55.2251C73.636 55.6705 73.7364 55.8931 73.937 55.8931C75.9938 55.8931 79.6809 54.2601 84.9984 50.9941L89.5132 48.0993L89.5885 49.0642C88.3344 49.856 86.9046 50.7467 85.2994 51.7364C79.4802 55.2993 75.442 57.0808 73.1845 57.0808C72.5826 57.0808 72.2816 56.6107 72.2816 55.6705C72.2816 52.8003 74.3133 48.5694 78.3766 42.9776C82.44 37.3363 87.0802 31.893 92.2974 26.6476C97.5647 21.3527 102.707 16.7259 107.723 12.7671C112.79 8.75882 116.226 6.75468 118.032 6.75468Z" fill="black"/>
<path d="M105.817 32.2146C104.964 32.2146 104.537 31.8435 104.537 31.1012C104.537 30.3095 104.914 29.5672 105.666 28.8744C106.419 28.1816 107.046 27.8352 107.547 27.8352C108.099 27.8352 108.5 27.9837 108.751 28.2806C109.052 28.5775 109.203 28.9239 109.203 29.3198C109.203 29.7157 108.852 30.3095 108.149 31.1012C107.447 31.8435 106.669 32.2146 105.817 32.2146ZM86.779 55.6705C87.3308 54.4333 89.5381 51.6127 93.4008 47.2086C97.3137 42.8044 100.273 39.6126 102.28 37.6332C102.581 37.2374 102.731 36.9652 102.731 36.8167C102.731 36.6188 102.531 36.4951 102.13 36.4456L100.399 36.2971C99.9975 36.2971 99.6213 36.4951 99.2701 36.891C95.8589 40.3054 92.6233 44.0415 89.5632 48.0993C86.5533 52.1076 85.0483 54.6065 85.0483 55.5962C85.0483 56.5364 85.3493 57.0066 85.9513 57.0066C86.754 57.0066 88.3843 56.3632 90.8424 55.0766C93.3005 53.7406 95.5579 52.4045 97.6147 51.0684L100.7 49.0642L100.625 48.0993C92.548 53.3447 88.0582 55.9674 87.1553 55.9674C86.9044 55.9674 86.779 55.8684 86.779 55.6705Z" fill="black"/>
<path d="M122.931 48.0993L123.006 49.0642C114.929 54.3591 110.013 57.0066 108.257 57.0066C107.956 57.0066 107.806 56.8334 107.806 56.487C107.806 55.4478 108.207 53.9632 109.01 52.0333L109.386 50.9941C109.386 50.8952 109.286 50.8457 109.085 50.8457C108.935 50.8457 107.48 51.8354 104.721 53.8148C102.012 55.7942 100.231 56.7839 99.3783 56.7839C98.5756 56.7839 98.1743 56.0416 98.1743 54.5571C98.1743 50.4498 100.532 46.4415 105.248 42.5322C110.013 38.6229 115.732 36.6683 122.404 36.6683C123.006 36.6683 123.307 36.9157 123.307 37.4106C123.307 37.9054 120.949 40.8003 116.234 46.0951C111.518 51.3405 109.16 54.5076 109.16 55.5962C109.16 55.7942 109.311 55.8931 109.612 55.8931C109.913 55.8931 111.192 55.2498 113.45 53.9632C115.707 52.6766 117.839 51.39 119.846 50.1034L122.931 48.0993ZM110.966 48.1735C111.819 47.5302 113.475 45.823 115.933 43.0518C118.391 40.2807 119.62 38.6724 119.62 38.2271C119.62 38.0291 119.419 37.9301 119.018 37.9301C116.71 37.9301 114.026 38.9941 110.966 41.1219C107.906 43.2003 105.298 45.5755 103.141 48.2477C101.034 50.9199 99.9802 53.0725 99.9802 54.7055C99.9802 55.0024 100.131 55.1509 100.432 55.1509C100.733 55.1509 101.209 54.9777 101.861 54.6313C102.564 54.2354 103.391 53.7158 104.345 53.0725C105.348 52.3797 106.201 51.7859 106.903 51.2911C109.311 49.5096 110.665 48.4704 110.966 48.1735Z" fill="black"/>
<path d="M122.097 49.5838L121.871 48.7673L125.032 46.6147C127.289 45.1302 128.844 44.0168 129.697 43.2745C130.55 42.5322 131.152 42.0374 131.503 41.79C131.904 41.493 132.331 41.0724 132.782 40.5281C133.284 39.9838 133.585 39.6621 133.685 39.5631C133.685 39.5631 133.986 39.1673 134.588 38.3755C135.09 37.7817 135.366 37.4353 135.416 37.3363C136.219 37.5343 136.62 38.1281 136.62 39.1178C135.215 41.1961 133.158 43.7694 130.45 46.8374C127.741 49.9055 126.386 51.5137 126.386 51.6622C126.386 51.7612 126.411 51.8106 126.461 51.8106C126.562 51.8106 126.938 51.5632 127.59 51.0684C128.292 50.524 130.149 49.2127 133.158 47.1343C139.279 42.9776 143.417 40.1817 145.574 38.7466C146.427 38.0539 147.004 37.7075 147.305 37.7075C147.656 37.7075 147.932 37.8312 148.133 38.0786C148.384 38.2765 148.509 38.5734 148.509 38.9693C148.509 39.3652 148.108 40.1817 147.305 41.4188C146.502 42.6559 145.65 43.8436 144.747 44.9817C142.389 47.9508 140.934 49.7075 140.382 50.2519C140.131 50.6477 140.006 50.8952 140.006 50.9941C140.006 51.0436 140.031 51.0684 140.081 51.0684C140.432 51.0684 146.001 47.1838 156.786 39.4147C158.542 38.1776 159.721 37.559 160.323 37.559C160.774 37.559 161 38.0539 161 39.0436C161 39.9838 160.248 41.4188 158.743 43.3487C157.238 45.2786 155.582 47.0601 153.776 48.6931C148.96 53.0478 146.552 55.4478 146.552 55.8931C146.552 55.9426 146.653 55.9674 146.853 55.9674C147.455 55.9674 150.842 54.0127 157.012 50.1034L160.097 48.0993L160.172 49.0642C152.096 54.3591 147.18 57.0066 145.424 57.0066C145.123 57.0066 144.972 56.8581 144.972 56.5612C144.972 54.7303 146.126 52.5777 148.434 50.1034C150.791 47.5797 153.124 45.3281 155.432 43.3487C157.739 41.3199 158.893 39.9838 158.893 39.3405C158.893 39.2415 158.843 39.192 158.743 39.192C158.692 39.192 158.542 39.2662 158.291 39.4147C158.04 39.5631 154.88 41.7405 148.81 45.9467C142.79 50.1529 139.279 52.6271 138.275 53.3694C137.272 54.0622 136.043 55.1261 134.588 56.5612C134.087 56.9571 133.309 57.155 132.255 57.155C131.202 57.155 130.675 57.056 130.675 56.8581C130.675 56.6107 130.876 56.289 131.277 55.8931C134.287 52.9241 137.498 49.5591 140.909 45.7982C144.37 42.0374 146.176 40.0085 146.327 39.7116C146.327 39.5631 146.252 39.4889 146.101 39.4889C145.599 39.4889 142.514 41.4683 136.846 45.4271C131.177 49.3364 127.891 51.6127 126.988 52.256C124.63 53.988 123.376 54.9034 123.226 55.0024C123.125 55.0519 122.875 55.2993 122.473 55.7447C121.57 56.6849 120.743 57.155 119.99 57.155C119.238 56.9571 118.836 56.8086 118.786 56.7096C119.94 55.423 122.799 51.9838 127.364 46.3921L122.097 49.5838Z" fill="black"/>
</svg>
