<svg width="75" height="58" viewBox="0 0 75 58" fill="none" xmlns="http://www.w3.org/2000/svg">
<circle cx="2.44444" cy="55.0275" r="2.44444" transform="rotate(-90 2.44444 55.0275)" fill="#EBE5DB"/>
<circle cx="2.44444" cy="37.5" r="2.44444" transform="rotate(-90 2.44444 37.5)" fill="#EBE5DB"/>
<circle cx="2.44444" cy="19.972" r="2.44444" transform="rotate(-90 2.44444 19.972)" fill="#EBE5DB"/>
<circle cx="2.44444" cy="2.44447" r="2.44444" transform="rotate(-90 2.44444 2.44447)" fill="#EBE5DB"/>
<circle cx="19.972" cy="55.0275" r="2.44444" transform="rotate(-90 19.972 55.0275)" fill="#EBE5DB"/>
<circle cx="19.972" cy="37.5" r="2.44444" transform="rotate(-90 19.972 37.5)" fill="#EBE5DB"/>
<circle cx="19.972" cy="19.972" r="2.44444" transform="rotate(-90 19.972 19.972)" fill="#EBE5DB"/>
<circle cx="19.972" cy="2.44447" r="2.44444" transform="rotate(-90 19.972 2.44447)" fill="#EBE5DB"/>
<circle cx="37.4995" cy="55.0275" r="2.44444" transform="rotate(-90 37.4995 55.0275)" fill="#EBE5DB"/>
<circle cx="37.4995" cy="37.5" r="2.44444" transform="rotate(-90 37.4995 37.5)" fill="#EBE5DB"/>
<circle cx="37.4995" cy="19.972" r="2.44444" transform="rotate(-90 37.4995 19.972)" fill="#EBE5DB"/>
<circle cx="37.4995" cy="2.44447" r="2.44444" transform="rotate(-90 37.4995 2.44447)" fill="#EBE5DB"/>
<circle cx="55.028" cy="55.0275" r="2.44444" transform="rotate(-90 55.028 55.0275)" fill="#EBE5DB"/>
<circle cx="55.028" cy="37.5" r="2.44444" transform="rotate(-90 55.028 37.5)" fill="#EBE5DB"/>
<circle cx="55.028" cy="19.972" r="2.44444" transform="rotate(-90 55.028 19.972)" fill="#EBE5DB"/>
<circle cx="55.028" cy="2.44447" r="2.44444" transform="rotate(-90 55.028 2.44447)" fill="#EBE5DB"/>
<circle cx="72.5555" cy="55.0275" r="2.44444" transform="rotate(-90 72.5555 55.0275)" fill="#EBE5DB"/>
<circle cx="72.5555" cy="37.5" r="2.44444" transform="rotate(-90 72.5555 37.5)" fill="#EBE5DB"/>
<circle cx="72.5555" cy="19.972" r="2.44444" transform="rotate(-90 72.5555 19.972)" fill="#EBE5DB"/>
<circle cx="72.5555" cy="2.44447" r="2.44444" transform="rotate(-90 72.5555 2.44447)" fill="#EBE5DB"/>
</svg>
