<svg width="1920" height="504" viewBox="0 0 1920 504" fill="none" xmlns="http://www.w3.org/2000/svg">
<rect width="1920" height="503.451" fill="#2B6956"/>
<mask id="mask0_25_655" style="mask-type:alpha" maskUnits="userSpaceOnUse" x="0" y="0" width="1920" height="504">
<rect width="1920" height="503.451" fill="#080A12"/>
</mask>
<g mask="url(#mask0_25_655)">
<path d="M1913.39 195.771C2119.51 157.05 2148.68 341.87 2137.5 439.12C2111.71 620.594 2023.83 532.946 1936.88 672.247C1849.94 811.548 1843.25 657.706 1754.58 617.986C1665.9 578.266 1680.56 791.969 1519.28 715.027C1358 638.084 1398.47 314.735 1596.86 469.519C1795.24 624.302 1655.75 244.172 1913.39 195.771Z" stroke="#EEEEEE" stroke-opacity="0.12" stroke-width="2"/>
<path d="M1883.16 257.152C2041.93 227.401 2064.44 369.58 2055.84 444.388C2036.01 583.984 1968.29 516.545 1901.34 623.688C1834.38 730.831 1829.21 612.486 1760.89 581.916C1692.57 551.346 1703.9 715.741 1579.65 656.525C1455.4 597.308 1486.52 348.577 1639.37 467.679C1792.22 586.782 1684.69 294.34 1883.16 257.152Z" stroke="#EEEEEE" stroke-opacity="0.12" stroke-width="2"/>
<path d="M1941.58 138.967C2191.96 92.0069 2227.43 316.328 2213.86 434.359C2182.57 654.61 2075.79 548.216 1970.2 717.271C1864.6 886.325 1856.46 699.606 1748.73 651.383C1640.99 603.159 1658.84 862.534 1462.91 769.12C1266.97 675.707 1316.08 283.265 1557.1 471.16C1798.13 659.055 1628.6 197.667 1941.58 138.967Z" stroke="#EEEEEE" stroke-opacity="0.12" stroke-width="2"/>
<path d="M1965.02 91.2149C2252.06 37.2531 2292.67 294.732 2277.09 430.217C2241.16 683.039 2118.78 560.94 1997.69 755.014C1876.59 949.088 1867.3 734.765 1743.81 679.437C1620.33 624.109 1640.72 921.828 1416.13 814.649C1191.54 707.47 1247.93 256.994 1524.19 472.613C1800.45 688.232 1606.21 158.667 1965.02 91.2149Z" stroke="#EEEEEE" stroke-opacity="0.12" stroke-width="2"/>
<path d="M1998.97 23.07C2339.42 -40.734 2387.67 264.16 2369.24 424.583C2326.7 723.938 2181.51 579.321 2037.94 809.085C1894.37 1038.85 1883.28 785.066 1736.79 719.512C1590.3 653.959 1614.58 1006.49 1348.16 879.511C1081.73 752.528 1148.47 219.138 1476.22 474.542C1803.96 729.945 1573.41 102.825 1998.97 23.07Z" stroke="#EEEEEE" stroke-opacity="0.12" stroke-width="2"/>
<path d="M2038.68 -56.4162C2441.68 -131.665 2498.92 228.557 2477.16 418.075C2426.92 771.719 2254.99 600.813 2085.12 872.203C1915.25 1143.59 1902.03 843.768 1728.59 766.266C1555.15 688.765 1584.03 1105.26 1268.59 955.142C953.148 805.023 1031.94 174.897 1420.03 476.757C1808.11 778.617 1534.94 37.6451 2038.68 -56.4162Z" stroke="#EEEEEE" stroke-opacity="0.12" stroke-width="2"/>
<path d="M-43.0141 -54.6916C-132.506 93.7544 4.78697 169.217 84.6199 188.393C235.003 220.362 191.082 127.265 325.732 99.8315C460.382 72.3981 341.065 23.2064 335.14 -56.7921C329.215 -136.791 493.421 -64.2969 478.938 -211.136C464.455 -357.975 198.073 -419.177 263.276 -221.344C328.48 -23.5105 68.8507 -240.249 -43.0141 -54.6916Z" stroke="#EEEEEE" stroke-opacity="0.12" stroke-width="2"/>
<path d="M14.0055 -60.5272C-54.8708 53.844 50.7285 111.946 112.138 126.7C227.816 151.294 194.05 79.5883 297.638 58.4266C401.227 37.2649 309.45 -0.603081 304.91 -62.2268C300.369 -123.851 426.673 -68.0422 415.564 -181.153C404.455 -294.264 199.547 -341.353 249.663 -188.97C299.779 -36.5877 100.101 -203.491 14.0055 -60.5272Z" stroke="#EEEEEE" stroke-opacity="0.12" stroke-width="2"/>
<path d="M-95.841 -49.1323C-204.491 131.215 -37.8731 222.856 59.0174 246.133C241.533 284.935 188.246 171.853 351.679 138.498C515.112 105.144 370.306 45.4131 363.132 -51.7655C355.958 -148.944 555.243 -60.9163 537.696 -239.289C520.15 -417.662 196.85 -491.951 275.946 -251.643C355.041 -11.3346 39.972 -274.566 -95.841 -49.1323Z" stroke="#EEEEEE" stroke-opacity="0.12" stroke-width="2"/>
<path d="M-140.178 -44.6541C-264.836 162.064 -73.5598 267.17 37.6608 293.883C247.169 338.419 185.971 208.766 373.554 170.577C561.138 132.387 394.907 63.8691 386.643 -47.5385C378.38 -158.946 607.151 -57.9729 586.958 -262.465C566.765 -466.957 195.65 -552.216 286.509 -276.704C377.369 -1.19087 15.6451 -303.052 -140.178 -44.6541Z" stroke="#EEEEEE" stroke-opacity="0.12" stroke-width="2"/>
<path d="M-203.592 -37.8767C-351.288 207.36 -124.835 331.948 6.85413 363.587C254.92 416.327 182.507 262.572 404.646 217.2C626.784 171.829 429.973 90.6269 420.234 -41.5093C410.495 -173.646 681.348 -53.9739 657.52 -296.512C633.693 -539.049 194.279 -640.026 301.756 -313.28C409.233 13.4669 -18.9716 -344.422 -203.592 -37.8767Z" stroke="#EEEEEE" stroke-opacity="0.12" stroke-width="2"/>
<path d="M-277.592 -29.8835C-452.205 260.488 -184.724 407.863 -29.1565 445.254C263.894 507.568 178.416 325.593 440.882 271.778C703.348 217.964 470.866 121.934 459.424 -34.4796C447.981 -190.893 767.921 -49.3585 739.887 -336.454C711.853 -623.549 192.76 -742.873 319.58 -356.134C446.4 30.6043 -59.3261 -392.848 -277.592 -29.8835Z" stroke="#EEEEEE" stroke-opacity="0.12" stroke-width="2"/>
</g>
</svg>
