<svg width="81" height="80" viewBox="0 0 81 80" fill="none" xmlns="http://www.w3.org/2000/svg">
<rect width="81" height="79.9463" rx="6" fill="white"/>
<path d="M61.4948 37.3279L52.459 46.0199L54.5919 58.2934C54.7475 59.1913 54.1361 60.0436 53.2263 60.1971C52.8651 60.258 52.4934 60.2001 52.1688 60.0322L40.9997 54.2371L29.8311 60.0315C29.0138 60.4544 28.0037 60.1433 27.5753 59.3366C27.4051 59.0162 27.3463 58.6494 27.4082 58.2928L29.5408 46.02L20.505 37.3279C19.8439 36.6923 19.8301 35.6481 20.474 34.9957C20.7309 34.7356 21.0675 34.5662 21.4316 34.5142L33.9172 32.7238L39.5016 21.558C39.9897 20.7413 41.0562 20.4698 41.8836 20.9518C42.137 21.0993 42.3483 21.3079 42.4978 21.558L48.0821 32.7238L60.5677 34.5135C61.4811 34.6439 62.1145 35.4805 61.9824 36.382C61.9297 36.7416 61.7582 37.0738 61.4945 37.3272L61.4948 37.3279Z" fill="#2B6956"/>
</svg>
