<svg width="24" height="24" viewBox="0 0 24 24" fill="none" xmlns="http://www.w3.org/2000/svg">
<path d="M11.9995 10.8698L21.4595 5.31983C21.1872 4.91689 20.821 4.5862 20.3924 4.35624C19.9639 4.12629 19.4859 4.00397 18.9995 3.99983H4.99953C4.51071 3.99962 4.02924 4.11886 3.59702 4.34717C3.16479 4.57548 2.7949 4.90595 2.51953 5.30983L11.9995 10.8698Z" fill="#5A524C"/>
<path d="M13 12.5898C12.6962 12.7661 12.3513 12.8592 12 12.8598C11.6496 12.8622 11.3048 12.7726 11 12.5998L2 7.3298V16.9998C2 17.7955 2.31607 18.5585 2.87868 19.1211C3.44129 19.6837 4.20435 19.9998 5 19.9998H19C19.7956 19.9998 20.5587 19.6837 21.1213 19.1211C21.6839 18.5585 22 17.7955 22 16.9998V7.3298L13 12.5898Z" fill="#5A524C"/>
</svg>
