<svg width="24" height="24" viewBox="0 0 24 24" fill="none" xmlns="http://www.w3.org/2000/svg">
<path d="M18.7848 6.36242C18.216 5.24114 17.3746 4.28082 16.3377 3.56975C15.3009 2.85867 14.1019 2.41966 12.8511 2.29307C12.2852 2.23629 11.7151 2.23629 11.1492 2.29307C9.89839 2.41974 8.69944 2.85874 7.66255 3.56973C6.62566 4.28072 5.78409 5.2409 5.21515 6.36204C4.49934 7.79256 4.22286 9.4029 4.42052 10.9902C4.61817 12.5776 5.28114 14.071 6.3259 15.2822L11.4206 21.4763C11.4909 21.5619 11.5794 21.6309 11.6796 21.6782C11.7797 21.7255 11.8892 21.7501 12 21.7501C12.1107 21.7501 12.2202 21.7255 12.3203 21.6782C12.4205 21.6309 12.509 21.5619 12.5793 21.4763L17.674 15.2822C18.7188 14.071 19.3817 12.5777 19.5794 10.9904C19.777 9.40315 19.5005 7.79287 18.7848 6.36242ZM12 12.7499C11.4066 12.7499 10.8266 12.5739 10.3332 12.2443C9.83989 11.9146 9.45538 11.4461 9.22831 10.8979C9.00125 10.3497 8.94184 9.74654 9.0576 9.1646C9.17335 8.58266 9.45907 8.04811 9.87863 7.62855C10.2982 7.20899 10.8327 6.92327 11.4147 6.80751C11.9966 6.69176 12.5998 6.75117 13.148 6.97823C13.6962 7.20529 14.1647 7.58981 14.4944 8.08316C14.824 8.57651 15 9.15653 15 9.74987C14.999 10.5452 14.6826 11.3078 14.1202 11.8702C13.5578 12.4326 12.7953 12.7489 12 12.7499V12.7499Z" fill="#2B6956"/>
</svg>
