<svg width="24" height="24" viewBox="0 0 24 24" fill="none" xmlns="http://www.w3.org/2000/svg">
<path d="M9.70466 13.2399C9.6293 13.2399 8.04842 13.2404 7.3193 13.2397C6.94394 13.2394 6.81002 13.1045 6.81002 12.7268C6.80954 11.7565 6.8093 10.7861 6.81002 9.81581C6.81026 9.44285 6.95186 9.30053 7.32242 9.30029C8.05154 9.29981 9.62378 9.30005 9.70466 9.30005C9.70466 9.23357 9.70442 7.83269 9.70466 7.18757C9.70514 6.23381 9.8753 5.32085 10.3599 4.48493C10.8559 3.62933 11.5779 3.04325 12.5031 2.70437C13.0956 2.48717 13.7107 2.40053 14.3395 2.40005C15.1263 2.39957 15.913 2.40029 16.6999 2.40173C17.0381 2.40221 17.1881 2.55173 17.1888 2.89229C17.1903 3.80501 17.1903 4.71773 17.1888 5.63021C17.1883 5.97437 17.0446 6.11261 16.6987 6.11645C16.0539 6.12341 15.4085 6.11909 14.7643 6.14501C14.1137 6.14501 13.7715 6.46277 13.7715 7.13621C13.7559 7.84853 13.765 8.56157 13.765 9.29981C13.8259 9.29981 15.6775 9.29957 16.543 9.29981C16.9361 9.29981 17.0705 9.43493 17.0705 9.83021C17.0705 10.7953 17.0703 11.7605 17.0695 12.7256C17.0693 13.1151 16.9431 13.2394 16.5475 13.2397C15.6821 13.2401 13.8377 13.2399 13.7571 13.2399V21.0507C13.7571 21.4671 13.626 21.5998 13.2151 21.5998C12.2134 21.5998 11.2114 21.6001 10.2096 21.5998C9.8465 21.5998 9.7049 21.4587 9.7049 21.0956C9.70466 18.5518 9.70466 13.3292 9.70466 13.2399Z" fill="#3D6AD6"/>
</svg>
