<svg width="24" height="24" viewBox="0 0 24 24" fill="none" xmlns="http://www.w3.org/2000/svg">
<path fill-rule="evenodd" clip-rule="evenodd" d="M16.6415 16.0332C18.0423 14.1141 19 12.0049 19 9.86998C19 6.05428 15.866 2.96104 12 2.96104C8.13401 2.96104 5 6.05428 5 9.86998C5 12.0049 5.95769 14.1141 7.35846 16.0332C8.74868 17.9378 10.4581 19.4934 11.6769 20.4787C11.8768 20.6402 12.1232 20.6402 12.3231 20.4787C13.5419 19.4934 15.2513 17.9378 16.6415 16.0332V16.0332ZM13.5904 22.0057C16.1746 19.9167 21 15.2902 21 9.86998C21 4.96408 16.9706 0.987061 12 0.987061C7.02944 0.987061 3 4.96408 3 9.86998C3 15.2902 7.82537 19.9167 10.4096 22.0057C11.3466 22.7631 12.6534 22.7631 13.5904 22.0057Z" fill="#5A524C"/>
<path fill-rule="evenodd" clip-rule="evenodd" d="M12 7.89645C10.8954 7.89645 10 8.7805 10 9.87103C10 10.9616 10.8954 11.8456 12 11.8456C13.1046 11.8456 14 10.9616 14 9.87103C14 8.7805 13.1046 7.89645 12 7.89645ZM8.00003 9.87103C8.00003 7.68997 9.79089 5.92188 12 5.92188C14.2091 5.92188 16 7.68997 16 9.87103C16 12.0521 14.2091 13.8202 12 13.8202C9.79089 13.8202 8.00003 12.0521 8.00003 9.87103Z" fill="#5A524C"/>
</svg>
