<svg width="32" height="23" viewBox="0 0 32 23" fill="none" xmlns="http://www.w3.org/2000/svg">
<path d="M31.2769 3.59872C30.9095 2.18218 29.8271 1.06656 28.4527 0.687963C25.9615 0 15.9722 0 15.9722 0C15.9722 0 5.98296 0 3.49173 0.687963C2.11735 1.06662 1.0349 2.18218 0.66751 3.59872C0 6.16627 0 11.5232 0 11.5232C0 11.5232 0 16.8802 0.66751 19.4477C1.0349 20.8643 2.11735 21.9334 3.49173 22.312C5.98296 23 15.9722 23 15.9722 23C15.9722 23 25.9615 23 28.4527 22.312C29.8271 21.9334 30.9095 20.8643 31.2769 19.4477C31.9444 16.8802 31.9444 11.5232 31.9444 11.5232C31.9444 11.5232 31.9444 6.16627 31.2769 3.59872V3.59872ZM12.7051 16.387V6.65951L21.0542 11.5234L12.7051 16.387V16.387Z" fill="#667966"/>
</svg>
