<svg width="24" height="24" viewBox="0 0 24 24" fill="none" xmlns="http://www.w3.org/2000/svg">
<path d="M21.5944 21.6001V21.5994H21.5991V14.5578C21.5991 11.113 20.8575 8.45935 16.8303 8.45935C14.8943 8.45935 13.5951 9.52183 13.0647 10.5289H13.0088V8.78095H9.19043V21.5994H13.1665V15.2521C13.1665 13.581 13.4833 11.9648 15.5528 11.9648C17.5921 11.9648 17.6223 13.8721 17.6223 15.3591V21.6001H21.5944Z" fill="#0073B1"/>
<path d="M2.71582 8.78162H6.69669V21.6H2.71582V8.78162Z" fill="#0073B1"/>
<path d="M4.7051 2.40015C3.43214 2.40015 2.39941 3.43286 2.39941 4.70582C2.39941 5.97878 3.43214 7.0331 4.7051 7.0331C5.97806 7.0331 7.01078 5.97878 7.01078 4.70582C7.00982 3.43286 5.9771 2.40015 4.7051 2.40015Z" fill="#0073B1"/>
</svg>
