<svg width="60" height="60" viewBox="0 0 60 60" fill="none" xmlns="http://www.w3.org/2000/svg">
<rect x="0.5" y="0.5" width="59" height="58.2195" rx="29.1097" stroke="#2B6956"/>
<path d="M38.25 22.9474V39.2328C38.2503 39.3687 38.2126 39.5021 38.1412 39.6183C38.0698 39.7345 37.9673 39.8291 37.845 39.8916C37.7383 39.9456 37.6199 39.9735 37.5 39.973C37.3471 39.9727 37.1979 39.9262 37.0725 39.8398L30 34.9542L22.9275 39.8398C22.8182 39.9128 22.6912 39.956 22.5596 39.9651C22.4279 39.9742 22.2961 39.9489 22.1775 39.8916C22.051 39.8322 21.9439 39.7389 21.8684 39.6225C21.7928 39.506 21.7518 39.371 21.75 39.2328V22.9474C21.75 21.9658 22.1451 21.0244 22.8483 20.3303C23.5516 19.6362 24.5054 19.2462 25.5 19.2462H34.5C35.4946 19.2462 36.4484 19.6362 37.1517 20.3303C37.8549 21.0244 38.25 21.9658 38.25 22.9474V22.9474Z" fill="#2B6956"/>
</svg>
