<svg width="119" height="119" viewBox="0 0 119 119" fill="none" xmlns="http://www.w3.org/2000/svg">
<rect x="7" y="7" width="105" height="104.185" rx="52.0926" fill="#D1E6DF" stroke="white" stroke-width="14"/>
<path d="M41.9051 50.237L58.8901 58.4185C59.3859 58.6577 59.9467 58.6577 60.4425 58.4185L77.4275 50.237C78.6343 49.6556 78.6343 47.7192 77.4275 47.1378L60.4432 38.9556C60.1996 38.8373 59.9349 38.7761 59.667 38.7761C59.3992 38.7761 59.1345 38.8373 58.8908 38.9556L41.9051 47.137C40.6983 47.7184 40.6983 49.6556 41.9051 50.237ZM77.4283 57.0721L73.1926 55.0335L61.4064 60.7064C60.8552 60.9719 60.2697 61.1066 59.6667 61.1066C59.0637 61.1066 58.4789 60.9719 57.9269 60.7064L46.1415 55.0335L41.9051 57.0721C40.6983 57.6527 40.6983 59.5884 41.9051 60.169L58.8901 68.3443C59.3859 68.5827 59.9467 68.5827 60.4425 68.3443L77.4283 60.169C78.635 59.5884 78.635 57.6527 77.4283 57.0721V57.0721ZM77.4283 66.9669L73.2086 64.936L61.4064 70.6167C60.8552 70.8822 60.2697 71.017 59.6667 71.017C59.0637 71.017 58.4789 70.8822 57.9269 70.6167L46.1254 64.936L41.9051 66.9669C40.6983 67.5476 40.6983 69.4832 41.9051 70.0639L58.8901 78.2391C59.3859 78.4776 59.9467 78.4776 60.4425 78.2391L77.4283 70.0639C78.635 69.4832 78.635 67.5476 77.4283 66.9669V66.9669Z" fill="#2B6956"/>
</svg>
