<svg width="24" height="24" viewBox="0 0 24 24" fill="none" xmlns="http://www.w3.org/2000/svg">
<g clip-path="url(#clip0_32_35)">
<path d="M12 0C6.93398 0 2.8125 4.06787 2.8125 9.06798C2.8125 10.6685 3.24094 12.242 4.05145 13.6184C4.24041 13.9393 4.45162 14.252 4.67934 14.5479L11.6008 23.6878H12.3991L19.3207 14.5479C19.5483 14.252 19.7595 13.9393 19.9485 13.6184C20.7591 12.242 21.1875 10.6685 21.1875 9.06798C21.1875 4.06787 17.066 0 12 0ZM12 12.0752C10.32 12.0752 8.95312 10.7262 8.95312 9.06798C8.95312 7.40979 10.32 6.06074 12 6.06074C13.68 6.06074 15.0469 7.40979 15.0469 9.06798C15.0469 10.7262 13.68 12.0752 12 12.0752Z" fill="#2B6956"/>
</g>
<defs>
<clipPath id="clip0_32_35">
<rect width="24" height="23.6878" fill="white"/>
</clipPath>
</defs>
</svg>
