<svg width="80" height="79" viewBox="0 0 80 79" fill="none" xmlns="http://www.w3.org/2000/svg">
<g clip-path="url(#clip0_29_240)">
<path d="M40 14.6878C41.2944 14.6878 42.3438 13.6521 42.3438 12.3745V4.73446C42.3438 3.45693 41.2944 2.4212 40 2.4212C38.7056 2.4212 37.6562 3.45693 37.6562 4.73446V12.3745C37.6562 13.6521 38.7056 14.6878 40 14.6878Z" fill="#2B6956"/>
<path d="M50.9375 18.614C51.5373 18.614 52.1372 18.3881 52.5947 17.9364L58.8447 11.7677C59.76 10.8644 59.76 9.39969 58.8447 8.49629C57.9295 7.59303 56.4455 7.59303 55.5302 8.49629L49.2802 14.665C48.3648 15.5682 48.3648 17.033 49.2802 17.9364C49.7378 18.3881 50.3377 18.614 50.9375 18.614V18.614Z" fill="#2B6956"/>
<path d="M27.4053 17.9366C27.863 18.3883 28.4628 18.6142 29.0625 18.6142C29.6622 18.6142 30.2622 18.3883 30.7197 17.9366C31.635 17.0333 31.635 15.5686 30.7197 14.6652L24.4697 8.49647C23.5545 7.59322 22.0705 7.59322 21.1552 8.49647C20.2398 9.39972 20.2398 10.8645 21.1552 11.7679L27.4053 17.9366Z" fill="#2B6956"/>
<path d="M61.0516 35.1162L51.9534 26.1363C50.1952 24.4009 47.8106 23.4261 45.3241 23.4261H31.093C27.5453 23.4261 24.2102 24.7896 21.7017 27.2654L20.9527 28.0046L20.9042 28.0524H2.34375C1.04937 28.0524 0 29.0881 0 30.3657V55.0405C0 56.318 1.04937 57.3537 2.34375 57.3537H14.0292L19.5928 62.8448C20.0323 63.2786 20.6284 63.5224 21.25 63.5224H23.3722C22.5867 62.3224 22.0811 60.982 21.8831 59.5788C20.1309 59.0162 18.5542 57.9775 17.3398 56.549C13.8095 52.3961 14.3603 46.1828 18.5677 42.6983L27.4758 35.3208H45.2623C45.8839 35.3208 46.4802 35.5645 46.9197 35.9985L53.4636 42.4572C55.5655 44.5318 59.0502 44.576 61.1159 42.4665C63.1227 40.4174 63.1011 37.1391 61.0516 35.1162V35.1162Z" fill="#2B6956"/>
<path d="M80 35.1466C80 33.8687 78.9506 32.8332 77.6562 32.8333H65.2397C68.2364 36.6997 67.947 42.2683 64.3662 45.8028C62.4789 47.6655 59.9676 48.6912 57.2951 48.6912C54.6225 48.6912 52.1112 47.6655 50.2242 45.8028L44.2919 39.9475H28.7433L26.9022 41.4723L20.9561 46.3967C18.725 48.2444 18.434 51.5274 20.3061 53.7295C22.1781 55.9315 25.5044 56.2187 27.7355 54.371C25.5044 56.2187 25.2134 59.5017 27.0855 61.7037C28.9575 63.9058 32.2837 64.193 34.5148 62.3453C32.2837 64.193 31.9928 67.4759 33.8648 69.678C35.7369 71.8801 39.0631 72.1672 41.2942 70.3195L45.445 66.8819L44.8851 67.3456C42.654 69.1933 42.3631 72.4763 44.2351 74.6783C46.1072 76.8804 49.4334 77.1676 51.6645 75.3199L67.5855 62.1343H77.6565C78.9509 62.1343 80.0003 61.0986 80.0001 59.821L80 35.1466Z" fill="#2B6956"/>
</g>
<defs>
<clipPath id="clip0_29_240">
<rect width="80" height="78.9593" fill="white"/>
</clipPath>
</defs>
</svg>
