<svg width="161" height="64" viewBox="0 0 161 64" fill="none" xmlns="http://www.w3.org/2000/svg">
<path d="M26.3366 61.7872L48.7603 23.105C48.7603 22.9559 48.6851 22.8814 48.5346 22.8814C34.1372 35.9991 24.33 45.5889 19.1128 51.6508C18.4105 52.4458 16.6548 54.2098 13.8455 56.9426C11.0864 59.6755 9.40592 61.2655 8.80394 61.7127C8.25213 62.1599 7.24883 62.5077 5.79405 62.7561C5.49306 62.7561 5.34256 62.5822 5.34256 62.2344C5.34256 61.8866 7.32408 59.3525 11.2871 54.6321C15.3003 49.862 19.6897 44.5951 24.4554 38.8313C29.2211 33.0178 33.5854 26.8316 37.5484 20.2728C41.5616 13.7139 43.5682 8.64573 43.5682 5.06819C43.5682 2.98129 42.4897 1.93783 40.3326 1.93783C36.6706 1.93783 32.4818 3.40363 27.7663 6.33524C23.1009 9.26684 18.8871 12.6953 15.1247 16.6207C11.4125 20.546 8.25213 24.5459 5.64355 28.6204C3.03498 32.6451 1.73069 35.7755 1.73069 38.0114C1.73069 39.4027 2.55841 40.0983 4.21385 40.0983C5.8693 40.0983 7.77556 39.5518 9.93265 38.4586C12.1399 37.3655 14.2218 36.0239 16.1782 34.4339C20.1412 31.2041 23.3769 28.2726 25.8851 25.6391L27.39 23.9994C27.5907 23.8503 27.7663 23.7758 27.9168 23.7758C28.0673 23.7758 28.1425 23.9248 28.1425 24.223C21.8719 31.229 15.7518 36.2475 9.78216 39.2785C7.37424 40.471 5.24223 41.0672 3.38613 41.0672C1.12871 41.0672 0 39.825 0 37.3406C0 35.3531 0.702309 32.8439 2.10693 29.8129C3.56171 26.7819 5.59339 23.6516 8.20196 20.4218C10.8607 17.1424 13.7954 14.0866 17.0059 11.2544C20.2666 8.37245 23.9287 6.01226 27.992 4.1738C32.1055 2.28565 36.1187 1.34158 40.0316 1.34158C43.493 1.34158 45.2237 3.03098 45.2237 6.40977C45.2237 8.7948 44.396 11.8506 42.7405 15.5772C41.0851 19.3038 39.0785 22.9808 36.7207 26.608C32.0554 33.8128 27.7161 39.8747 23.7029 44.7939L21.2198 47.7751L55.0811 15.13C56.4355 13.8878 57.188 13.2667 57.3385 13.2667C57.6897 13.2667 57.8652 13.4903 57.8652 13.9375C57.8652 14.335 57.3887 15.0307 56.4355 16.0244C48.2085 28.9433 41.1352 40.6946 35.2158 51.2782L34.99 52.098C38.7524 47.6758 44.421 41.8126 51.9959 34.5084C59.5708 27.2043 65.9669 21.2665 71.184 16.6952C76.4012 12.1239 81.518 8.19854 86.5345 4.91912C91.551 1.63971 95.3384 0 97.8969 0C98.6493 0 99.0256 0.397504 99.0256 1.19251C99.0256 1.39127 98.85 1.59002 98.4988 1.78877C98.1978 1.98752 97.1945 2.708 95.4889 3.9502C90.5226 7.42837 88.0144 9.14261 87.9642 9.09293C87.8137 9.09293 87.7384 9.04324 87.7384 8.94386L87.8889 8.49667C87.8889 8.29792 87.7635 8.19854 87.5127 8.19854C85.5563 8.19854 81.7187 10.4097 75.9999 14.8319C70.3312 19.2542 64.3365 24.4714 58.0157 30.4837C51.7451 36.4959 45.7002 42.533 39.8811 48.595C34.1121 54.6569 29.9986 59.3276 27.5405 62.6071C27.0891 63.1536 26.6877 63.4269 26.3366 63.4269C25.9854 63.4269 25.8099 63.3027 25.8099 63.0542C25.8099 62.8555 25.9854 62.4331 26.3366 61.7872Z" fill="black"/>
<path d="M67.4581 32.347C66.6053 32.347 66.1789 31.9743 66.1789 31.229C66.1789 30.434 66.5551 29.6887 67.3076 28.993C68.0601 28.2974 68.6871 27.9496 69.1888 27.9496C69.7406 27.9496 70.1419 28.0986 70.3927 28.3968C70.6937 28.6949 70.8442 29.0427 70.8442 29.4402C70.8442 29.8377 70.4931 30.434 69.7908 31.229C69.0885 31.9743 68.3109 32.347 67.4581 32.347ZM48.4205 55.8992C48.9723 54.6569 51.1796 51.8247 55.0423 47.4025C58.9551 42.9802 61.9149 39.7754 63.9215 37.7878C64.2225 37.3903 64.373 37.117 64.373 36.968C64.373 36.7692 64.1723 36.645 63.771 36.5953L62.0403 36.4462C61.639 36.4462 61.2627 36.645 60.9116 37.0425C57.5004 40.471 54.2647 44.2224 51.2047 48.2969C48.1948 52.3216 46.6898 54.8309 46.6898 55.8246C46.6898 56.7687 46.9908 57.2407 47.5928 57.2407C48.3954 57.2407 50.0258 56.5948 52.4839 55.3029C54.942 53.9613 57.1994 52.6197 59.2561 51.2782L62.3413 49.2658L62.266 48.2969C54.1895 53.5638 49.6997 56.1973 48.7968 56.1973C48.5459 56.1973 48.4205 56.0979 48.4205 55.8992Z" fill="black"/>
<path d="M103.008 8.12401C101.503 8.12401 95.9596 12.8941 86.3781 22.4342C76.7966 31.9743 69.5227 40.148 64.5564 46.9553C69.1715 43.4771 76.7464 36.6698 87.2811 26.5335C97.8659 16.3474 103.158 10.2854 103.158 8.34761C103.158 8.24823 103.108 8.1737 103.008 8.12401ZM104.437 6.78243C104.889 6.78243 105.115 7.05571 105.115 7.60228C105.115 9.98731 99.722 16.3474 88.9365 26.6825C78.2012 36.968 69.6732 44.297 63.3524 48.6695C61.1452 51.7999 60.0415 54.0607 60.0415 55.452C60.0415 55.8992 60.1419 56.1227 60.3425 56.1227C62.3993 56.1227 66.0864 54.483 71.4039 51.2036L75.9187 48.2969L75.994 49.2658C74.7399 50.0608 73.3101 50.9552 71.7049 51.9489C65.8857 55.5265 61.8475 57.3153 59.59 57.3153C58.9881 57.3153 58.6871 56.8432 58.6871 55.8992C58.6871 53.0172 60.7188 48.7689 64.7821 43.1541C68.8455 37.4897 73.4857 32.024 78.7029 26.7571C83.9702 21.4404 89.1121 16.7946 94.1286 12.8195C99.1952 8.7948 102.632 6.78243 104.437 6.78243Z" fill="black"/>
<path d="M116.602 8.12401C115.097 8.12401 109.554 12.8941 99.9726 22.4342C90.3911 31.9743 83.1172 40.148 78.1509 46.9553C82.766 43.4771 90.3409 36.6698 100.876 26.5335C111.46 16.3474 116.753 10.2854 116.753 8.34761C116.753 8.24823 116.703 8.1737 116.602 8.12401ZM118.032 6.78243C118.483 6.78243 118.709 7.05571 118.709 7.60228C118.709 9.98731 113.316 16.3474 102.531 26.6825C91.7957 36.968 83.2677 44.297 76.9469 48.6695C74.7397 51.7999 73.636 54.0607 73.636 55.452C73.636 55.8992 73.7364 56.1227 73.937 56.1227C75.9938 56.1227 79.6809 54.483 84.9984 51.2036L89.5132 48.2969L89.5885 49.2658C88.3344 50.0608 86.9046 50.9552 85.2994 51.9489C79.4802 55.5265 75.442 57.3153 73.1845 57.3153C72.5826 57.3153 72.2816 56.8432 72.2816 55.8992C72.2816 53.0172 74.3133 48.7689 78.3766 43.1541C82.44 37.4897 87.0802 32.024 92.2974 26.7571C97.5647 21.4404 102.707 16.7946 107.723 12.8195C112.79 8.7948 116.226 6.78243 118.032 6.78243Z" fill="black"/>
<path d="M105.817 32.347C104.964 32.347 104.537 31.9743 104.537 31.229C104.537 30.434 104.914 29.6887 105.666 28.993C106.419 28.2974 107.046 27.9496 107.547 27.9496C108.099 27.9496 108.5 28.0986 108.751 28.3968C109.052 28.6949 109.203 29.0427 109.203 29.4402C109.203 29.8377 108.852 30.434 108.149 31.229C107.447 31.9743 106.669 32.347 105.817 32.347ZM86.779 55.8992C87.3308 54.6569 89.5381 51.8247 93.4008 47.4025C97.3137 42.9802 100.273 39.7754 102.28 37.7878C102.581 37.3903 102.731 37.117 102.731 36.968C102.731 36.7692 102.531 36.645 102.13 36.5953L100.399 36.4462C99.9975 36.4462 99.6213 36.645 99.2701 37.0425C95.8589 40.471 92.6233 44.2224 89.5632 48.2969C86.5533 52.3216 85.0483 54.8309 85.0483 55.8246C85.0483 56.7687 85.3493 57.2407 85.9513 57.2407C86.754 57.2407 88.3843 56.5948 90.8424 55.3029C93.3005 53.9613 95.5579 52.6197 97.6147 51.2782L100.7 49.2658L100.625 48.2969C92.548 53.5638 88.0582 56.1973 87.1553 56.1973C86.9044 56.1973 86.779 56.0979 86.779 55.8992Z" fill="black"/>
<path d="M122.931 48.2969L123.006 49.2658C114.929 54.5824 110.013 57.2407 108.257 57.2407C107.956 57.2407 107.806 57.0668 107.806 56.719C107.806 55.6756 108.207 54.1849 109.01 52.2471L109.386 51.2036C109.386 51.1042 109.286 51.0546 109.085 51.0546C108.935 51.0546 107.48 52.0483 104.721 54.0358C102.012 56.0234 100.231 57.0171 99.3783 57.0171C98.5756 57.0171 98.1743 56.2718 98.1743 54.7812C98.1743 50.6571 100.532 46.6323 105.248 42.707C110.013 38.7816 115.732 36.8189 122.404 36.8189C123.006 36.8189 123.307 37.0674 123.307 37.5642C123.307 38.0611 120.949 40.9679 116.234 46.2845C111.518 51.5514 109.16 54.7315 109.16 55.8246C109.16 56.0234 109.311 56.1227 109.612 56.1227C109.913 56.1227 111.192 55.4768 113.45 54.1849C115.707 52.893 117.839 51.6011 119.846 50.3092L122.931 48.2969ZM110.966 48.3714C111.819 47.7255 113.475 46.0112 115.933 43.2287C118.391 40.4461 119.62 38.8313 119.62 38.3841C119.62 38.1853 119.419 38.086 119.018 38.086C116.71 38.086 114.026 39.1543 110.966 41.2908C107.906 43.3777 105.298 45.7628 103.141 48.4459C101.034 51.1291 99.9802 53.2905 99.9802 54.9302C99.9802 55.2284 100.131 55.3774 100.432 55.3774C100.733 55.3774 101.209 55.2035 101.861 54.8557C102.564 54.4582 103.391 53.9365 104.345 53.2905C105.348 52.5949 106.201 51.9986 106.903 51.5018C109.311 49.713 110.665 48.6695 110.966 48.3714Z" fill="black"/>
<path d="M122.097 49.7875L121.871 48.9677L125.032 46.8062C127.289 45.3156 128.844 44.1976 129.697 43.4523C130.55 42.707 131.152 42.2101 131.503 41.9616C131.904 41.6635 132.331 41.2412 132.782 40.6946C133.284 40.148 133.585 39.825 133.685 39.7257C133.685 39.7257 133.986 39.3282 134.588 38.5332C135.09 37.9369 135.366 37.5891 135.416 37.4897C136.219 37.6885 136.62 38.2847 136.62 39.2785C135.215 41.3654 133.158 43.9492 130.45 47.0298C127.741 50.1105 126.386 51.7253 126.386 51.8744C126.386 51.9738 126.411 52.0235 126.461 52.0235C126.562 52.0235 126.938 51.775 127.59 51.2782C128.292 50.7316 130.149 49.4149 133.158 47.3279C139.279 43.1541 143.417 40.3468 145.574 38.9058C146.427 38.2102 147.004 37.8624 147.305 37.8624C147.656 37.8624 147.932 37.9866 148.133 38.235C148.384 38.4338 148.509 38.7319 148.509 39.1294C148.509 39.5269 148.108 40.3468 147.305 41.589C146.502 42.8312 145.65 44.0237 144.747 45.1665C142.389 48.1478 140.934 49.9117 140.382 50.4583C140.131 50.8558 140.006 51.1042 140.006 51.2036C140.006 51.2533 140.031 51.2782 140.081 51.2782C140.432 51.2782 146.001 47.3776 156.786 39.5766C158.542 38.3344 159.721 37.7133 160.323 37.7133C160.774 37.7133 161 38.2102 161 39.2039C161 40.148 160.248 41.589 158.743 43.5268C157.238 45.4646 155.582 47.2534 153.776 48.8931C148.96 53.2657 146.552 55.6756 146.552 56.1227C146.552 56.1724 146.653 56.1973 146.853 56.1973C147.455 56.1973 150.842 54.2346 157.012 50.3092L160.097 48.2969L160.172 49.2658C152.096 54.5824 147.18 57.2407 145.424 57.2407C145.123 57.2407 144.972 57.0917 144.972 56.7935C144.972 54.9551 146.126 52.7936 148.434 50.3092C150.791 47.7751 153.124 45.5143 155.432 43.5268C157.739 41.4896 158.893 40.148 158.893 39.5021C158.893 39.4027 158.843 39.353 158.743 39.353C158.692 39.353 158.542 39.4275 158.291 39.5766C158.04 39.7257 154.88 41.9119 148.81 46.1354C142.79 50.3589 139.279 52.8433 138.275 53.5887C137.272 54.2843 136.043 55.3526 134.588 56.7935C134.087 57.191 133.309 57.3898 132.255 57.3898C131.202 57.3898 130.675 57.2904 130.675 57.0917C130.675 56.8432 130.876 56.5203 131.277 56.1227C134.287 53.1415 137.498 49.7627 140.909 45.9864C144.37 42.2101 146.176 40.1729 146.327 39.8747C146.327 39.7257 146.252 39.6511 146.101 39.6511C145.599 39.6511 142.514 41.6387 136.846 45.6137C131.177 49.5391 127.891 51.8247 126.988 52.4707C124.63 54.2098 123.376 55.129 123.226 55.2284C123.125 55.2781 122.875 55.5265 122.473 55.9737C121.57 56.9178 120.743 57.3898 119.99 57.3898C119.238 57.191 118.836 57.042 118.786 56.9426C119.94 55.6507 122.799 52.1974 127.364 46.5826L122.097 49.7875Z" fill="black"/>
</svg>
