<svg width="80" height="80" viewBox="0 0 80 80" fill="none" xmlns="http://www.w3.org/2000/svg">
<path d="M54.2188 28.4375C40.003 28.4375 28.4375 40.003 28.4375 54.2188C28.4375 68.4345 40.003 80 54.2188 80C68.4345 80 80 68.4345 80 54.2188C80 40.003 68.4345 28.4375 54.2188 28.4375ZM54.2188 51.875C58.0959 51.875 61.25 55.0291 61.25 58.9062C61.25 61.9578 59.2847 64.535 56.5625 65.5058V70.625H51.875V65.5058C49.1528 64.535 47.1875 61.9578 47.1875 58.9062H51.875C51.875 60.1994 52.9256 61.25 54.2188 61.25C55.5119 61.25 56.5625 60.1994 56.5625 58.9062C56.5625 57.6131 55.5119 56.5625 54.2188 56.5625C50.3416 56.5625 47.1875 53.4084 47.1875 49.5312C47.1875 46.4797 49.1528 43.9025 51.875 42.9317V37.8125H56.5625V42.9317C59.2847 43.9025 61.25 46.4797 61.25 49.5312H56.5625C56.5625 48.2381 55.5119 47.1875 54.2188 47.1875C52.9256 47.1875 51.875 48.2381 51.875 49.5312C51.875 50.8244 52.9256 51.875 54.2188 51.875Z" fill="#2B6956"/>
<path d="M26.0938 28.4375C40.55 28.4375 51.875 22.26 51.875 14.375C51.875 6.49 40.55 0 26.0938 0C11.6375 0 0 6.49 0 14.375C0 22.26 11.6375 28.4375 26.0938 28.4375Z" fill="#2B6956"/>
<path d="M0 52.7437V56.5626C0 64.4476 11.6375 70.6251 26.0938 70.6251C26.9138 70.6251 27.7083 70.5496 28.5156 70.5101C26.7178 67.6833 25.377 64.5468 24.5875 61.1937C14.1336 60.9051 5.05656 57.6927 0 52.7437Z" fill="#2B6956"/>
<path d="M23.8627 56.4432C23.8089 55.706 23.75 54.9696 23.75 54.2188C23.75 51.7755 24.0702 49.4108 24.6161 47.1324C14.1492 46.8488 5.06109 43.6347 0 38.6812V42.5001C0 49.9668 10.5097 55.8347 23.8627 56.4432Z" fill="#2B6956"/>
<path d="M26.0938 42.5001C26.0963 42.5001 26.0983 42.4998 26.1009 42.4998C27.6467 38.8054 29.8938 35.4751 32.6842 32.6848C30.5675 32.9523 28.38 33.1251 26.0938 33.1251C14.9661 33.1251 5.30094 29.8068 0 24.6187V28.4376C0 36.3226 11.6375 42.5001 26.0938 42.5001Z" fill="#2B6956"/>
</svg>
