<svg width="198" height="72" viewBox="0 0 198 72" fill="none" xmlns="http://www.w3.org/2000/svg">
<path d="M97.619 36.768C94.577 36.768 92.38 36.001 91.028 34.467C89.676 32.933 89 30.45 89 27.018C89 23.43 89.702 20.752 91.106 18.984C92.536 17.216 94.746 16.332 97.736 16.332C100.492 16.332 102.572 17.073 103.976 18.555C105.406 20.011 106.121 22.208 106.121 25.146L105.731 28.773H94.265C94.317 29.683 94.473 30.385 94.733 30.879C95.019 31.347 95.461 31.685 96.059 31.893C96.683 32.075 97.541 32.166 98.633 32.166C99.491 32.166 100.518 32.14 101.714 32.088C102.91 32.036 103.781 31.984 104.327 31.932L105.419 31.815L105.497 35.676C102.559 36.404 99.933 36.768 97.619 36.768ZM100.973 24.795C100.973 23.235 100.726 22.156 100.232 21.558C99.764 20.934 98.919 20.622 97.697 20.622C96.449 20.622 95.565 20.947 95.045 21.597C94.525 22.221 94.252 23.287 94.226 24.795H100.973Z" fill="#0D0E0C"/>
<path d="M110.09 9H115.316V36.3H110.09V9Z" fill="#0D0E0C"/>
<path d="M120.368 16.8H125.555V17.892C126.517 17.346 127.349 16.956 128.051 16.722C128.779 16.462 129.533 16.332 130.313 16.332C131.223 16.332 132.094 16.488 132.926 16.8C133.784 17.086 134.486 17.541 135.032 18.165C136.254 17.541 137.398 17.086 138.464 16.8C139.556 16.488 140.661 16.332 141.779 16.332C144.197 16.332 145.913 17.073 146.927 18.555C147.941 20.037 148.448 22.429 148.448 25.731V36.3H143.222V25.887C143.222 24.145 143.027 22.897 142.637 22.143C142.247 21.389 141.519 21.012 140.453 21.012C139.699 21.012 138.698 21.194 137.45 21.558L136.865 21.753C136.969 23.495 137.021 24.977 137.021 26.199V36.3H131.795V26.277C131.795 24.873 131.717 23.807 131.561 23.079C131.431 22.351 131.158 21.831 130.742 21.519C130.352 21.181 129.754 21.012 128.948 21.012C128.116 21.012 127.154 21.194 126.062 21.558L125.594 21.714V36.3H120.368V16.8Z" fill="#0D0E0C"/>
<path d="M153.083 16.8H158.27V17.892C159.258 17.32 160.129 16.917 160.883 16.683C161.663 16.449 162.495 16.332 163.379 16.332C165.771 16.332 167.474 17.099 168.488 18.633C169.502 20.167 170.009 22.533 170.009 25.731V36.3H164.783V25.887C164.783 24.093 164.562 22.832 164.12 22.104C163.704 21.376 162.898 21.012 161.702 21.012C160.844 21.012 159.869 21.194 158.777 21.558L158.309 21.714V36.3H153.083V16.8Z" fill="#0D0E0C"/>
<path d="M179.398 36.768C175.368 36.768 173.353 34.636 173.353 30.372C173.353 28.344 173.886 26.888 174.952 26.004C176.044 25.094 177.786 24.561 180.178 24.405L184.351 24.093V22.884C184.351 22.104 184.169 21.558 183.805 21.246C183.467 20.934 182.882 20.778 182.05 20.778C181.192 20.778 180.009 20.817 178.501 20.895C176.993 20.947 175.732 21.012 174.718 21.09L174.562 17.463C177.37 16.709 180.022 16.332 182.518 16.332C185.014 16.332 186.808 16.852 187.9 17.892C189.018 18.932 189.577 20.596 189.577 22.884V30.996C189.629 31.646 189.733 32.088 189.889 32.322C190.071 32.556 190.396 32.725 190.864 32.829L190.708 36.768C189.356 36.768 188.277 36.677 187.471 36.495C186.691 36.313 185.911 35.949 185.131 35.403C183.233 36.313 181.322 36.768 179.398 36.768ZM180.529 32.517C181.517 32.517 182.596 32.361 183.766 32.049L184.351 31.893V27.72L180.802 28.032C179.346 28.162 178.618 28.942 178.618 30.372C178.618 31.802 179.255 32.517 180.529 32.517Z" fill="#0D0E0C"/>
<path d="M93.5946 59.8426C92.3815 59.8426 91.4766 59.5844 90.88 59.0681C90.2933 58.5418 90 57.7078 90 56.566V49.3872H91.1485V56.5957C91.1485 58.0851 91.9539 58.8298 93.5648 58.8298C94.41 58.8298 95.0414 58.6511 95.4591 58.2936C95.8767 57.9362 96.0855 57.3702 96.0855 56.5957V49.3872H97.2191V56.566C97.2191 57.6979 96.9158 58.527 96.3092 59.0532C95.7126 59.5794 94.8078 59.8426 93.5946 59.8426Z" fill="#5A524C"/>
<path d="M99.4796 52.2468H100.583V52.7681C101.031 52.5199 101.438 52.3461 101.806 52.2468C102.184 52.1475 102.577 52.0979 102.985 52.0979C103.621 52.0979 104.113 52.217 104.461 52.4553C104.809 52.6936 105.053 53.0759 105.192 53.6021C105.341 54.1184 105.416 54.8383 105.416 55.7617V59.6936H104.312V55.7915C104.312 55.0865 104.267 54.5454 104.178 54.1681C104.098 53.7908 103.949 53.5177 103.731 53.3489C103.512 53.1801 103.194 53.0957 102.776 53.0957C102.438 53.0957 102.09 53.1404 101.732 53.2298C101.384 53.3092 101.1 53.4035 100.882 53.5128L100.598 53.6468V59.6936H99.4796V52.2468Z" fill="#5A524C"/>
<path d="M107.491 52.2468H108.595V59.6936H107.491V52.2468ZM107.491 49.2681H108.595V50.5638H107.491V49.2681Z" fill="#5A524C"/>
<path d="M110.038 52.2468H111.231L112.976 58.7255H113.528L115.333 52.2468H116.481L114.378 59.6936H112.141L110.038 52.2468Z" fill="#5A524C"/>
<path d="M120.578 59.8426C119.445 59.8426 118.639 59.5496 118.162 58.9638C117.694 58.3681 117.461 57.4348 117.461 56.1638C117.461 54.7837 117.714 53.761 118.221 53.0957C118.729 52.4305 119.524 52.0979 120.608 52.0979C121.602 52.0979 122.343 52.3858 122.83 52.9617C123.328 53.5277 123.576 54.4014 123.576 55.583L123.516 56.4319H118.594C118.594 57.0475 118.659 57.5291 118.788 57.8766C118.927 58.2241 119.156 58.4773 119.474 58.6362C119.803 58.7851 120.255 58.8596 120.832 58.8596C121.12 58.8596 121.453 58.8546 121.831 58.8447C122.209 58.8248 122.552 58.8 122.86 58.7702L123.293 58.7255L123.323 59.6043C122.219 59.7631 121.304 59.8426 120.578 59.8426ZM122.457 55.5383C122.457 54.6348 122.313 53.9943 122.025 53.617C121.737 53.2298 121.264 53.0362 120.608 53.0362C119.922 53.0362 119.415 53.2397 119.087 53.6468C118.758 54.044 118.589 54.6745 118.579 55.5383H122.457Z" fill="#5A524C"/>
<path d="M125.319 52.2468H126.423V53.2596C127.278 52.6738 128.188 52.2816 129.153 52.083V53.2149C128.765 53.2943 128.342 53.4184 127.885 53.5872C127.437 53.7461 127.08 53.895 126.811 54.034L126.438 54.2277V59.6936H125.319V52.2468Z" fill="#5A524C"/>
<path d="M132.818 59.8426C132.221 59.8426 131.49 59.773 130.625 59.634L130.177 59.5596L130.237 58.5915C131.401 58.7603 132.256 58.8447 132.803 58.8447C133.399 58.8447 133.842 58.7504 134.13 58.5617C134.428 58.3631 134.578 58.0504 134.578 57.6234C134.578 57.3156 134.503 57.0823 134.354 56.9234C134.215 56.7645 134.031 56.6504 133.802 56.5809C133.583 56.5113 133.27 56.4468 132.862 56.3872L132.489 56.3277C131.893 56.2284 131.425 56.1092 131.087 55.9702C130.749 55.8312 130.496 55.6376 130.327 55.3894C130.158 55.1312 130.073 54.7787 130.073 54.3319C130.073 53.5277 130.317 52.9567 130.804 52.6191C131.291 52.2816 131.982 52.1128 132.877 52.1128C133.583 52.1128 134.304 52.1773 135.04 52.3064L135.458 52.3809L135.428 53.334C134.354 53.1752 133.514 53.0957 132.907 53.0957C132.33 53.0957 131.898 53.1851 131.609 53.3638C131.331 53.5426 131.192 53.8206 131.192 54.1979C131.192 54.466 131.261 54.6745 131.401 54.8234C131.54 54.9624 131.719 55.0667 131.938 55.1362C132.166 55.1957 132.484 55.2603 132.892 55.3298L133.265 55.4043C133.882 55.5135 134.359 55.6426 134.697 55.7915C135.035 55.9305 135.284 56.134 135.443 56.4021C135.612 56.6702 135.696 57.0426 135.696 57.5191C135.696 58.3234 135.458 58.9142 134.98 59.2915C134.513 59.6589 133.792 59.8426 132.818 59.8426Z" fill="#5A524C"/>
<path d="M137.409 52.2468H138.513V59.6936H137.409V52.2468ZM137.409 49.2681H138.513V50.5638H137.409V49.2681Z" fill="#5A524C"/>
<path d="M142.81 59.8574C142.303 59.8574 141.906 59.778 141.617 59.6191C141.339 59.4504 141.135 59.1723 141.006 58.7851C140.886 58.3879 140.827 57.8369 140.827 57.1319V53.2149H139.768V52.2468H140.827V49.9681H141.93V52.2468H144.302V53.2149H141.93V56.7745C141.93 57.3305 141.95 57.7475 141.99 58.0255C142.03 58.2936 142.124 58.5021 142.273 58.6511C142.433 58.7901 142.676 58.8596 143.004 58.8596L144.332 58.7702L144.406 59.6936C143.7 59.8028 143.168 59.8574 142.81 59.8574Z" fill="#5A524C"/>
<path d="M148.189 59.6936H147.085L144.967 52.2468H146.086L147.95 58.7255H148.442L150.322 52.2468H151.44L148.338 63H147.219L148.189 59.6936Z" fill="#5A524C"/>
<path d="M161.734 57.0426H157.319L156.573 59.6936H155.44L158.273 49.3872H160.779L163.613 59.6936H162.48L161.734 57.0426ZM157.572 56.0149H161.48L159.914 50.3702H159.139L157.572 56.0149Z" fill="#5A524C"/>
<path d="M165.13 49H166.249V59.6936H165.13V49Z" fill="#5A524C"/>
<path d="M170.82 59.8426C170.183 59.8426 169.691 59.7284 169.343 59.5C169.005 59.2617 168.766 58.8794 168.627 58.3532C168.488 57.827 168.418 57.0872 168.418 56.134V52.2468H169.537V56.1191C169.537 56.8638 169.577 57.4248 169.656 57.8021C169.736 58.1794 169.88 58.4475 170.089 58.6064C170.298 58.7652 170.621 58.8447 171.058 58.8447C171.734 58.8447 172.43 58.661 173.146 58.2936V52.2468H174.265V59.6936H173.146V59.1723C172.739 59.4106 172.361 59.5844 172.013 59.6936C171.665 59.7929 171.267 59.8426 170.82 59.8426Z" fill="#5A524C"/>
<path d="M176.417 52.2468H177.52V52.7681C178.266 52.3213 179.012 52.0979 179.758 52.0979C180.165 52.0979 180.533 52.1624 180.861 52.2915C181.19 52.4106 181.448 52.5993 181.637 52.8574C182.005 52.639 182.437 52.4603 182.935 52.3213C183.432 52.1723 183.939 52.0979 184.456 52.0979C185.063 52.0979 185.535 52.222 185.873 52.4702C186.211 52.7085 186.45 53.0908 186.589 53.617C186.738 54.1433 186.813 54.8582 186.813 55.7617V59.6936H185.694V55.7915C185.694 55.0865 185.654 54.5454 185.575 54.1681C185.495 53.7908 185.346 53.5177 185.127 53.3489C184.918 53.1801 184.605 53.0957 184.188 53.0957C183.849 53.0957 183.506 53.1404 183.158 53.2298C182.81 53.3092 182.527 53.4035 182.308 53.5128L182.025 53.6468C182.154 53.9645 182.219 54.6894 182.219 55.8213V59.6936H181.1V55.8511C181.1 55.1163 181.06 54.5603 180.981 54.183C180.901 53.7957 180.757 53.5177 180.548 53.3489C180.339 53.1801 180.026 53.0957 179.609 53.0957C179.28 53.0957 178.947 53.1404 178.609 53.2298C178.271 53.3092 177.998 53.4035 177.789 53.5128L177.535 53.6468V59.6936H176.417V52.2468Z" fill="#5A524C"/>
<path d="M188.885 52.2468H189.989V52.7681C190.436 52.5199 190.844 52.3461 191.212 52.2468C191.59 52.1475 191.982 52.0979 192.39 52.0979C193.027 52.0979 193.519 52.217 193.867 52.4553C194.215 52.6936 194.458 53.0759 194.598 53.6021C194.747 54.1184 194.821 54.8383 194.821 55.7617V59.6936H193.718V55.7915C193.718 55.0865 193.673 54.5454 193.583 54.1681C193.504 53.7908 193.355 53.5177 193.136 53.3489C192.917 53.1801 192.599 53.0957 192.181 53.0957C191.843 53.0957 191.495 53.1404 191.137 53.2298C190.789 53.3092 190.506 53.4035 190.287 53.5128L190.004 53.6468V59.6936H188.885V52.2468Z" fill="#5A524C"/>
<path d="M196.896 52.2468H198V59.6936H196.896V52.2468ZM196.896 49.2681H198V50.5638H196.896V49.2681Z" fill="#5A524C"/>
<path d="M0 4C0 1.79086 1.79086 0 4 0L68 0C70.2091 0 72 1.79086 72 4V36C72 55.8823 55.8823 72 36 72V72C16.1177 72 0 55.8823 0 36L0 4Z" fill="#2B6956"/>
<path d="M26.7087 31.6675C26.5812 32.0691 26.6588 32.5094 26.9152 32.8401L29.9605 36.7676L29.7515 41.7774C29.7339 42.1992 29.924 42.602 30.2577 42.8502C30.5914 43.0986 31.0243 43.1589 31.4107 43.0115L36 41.26L40.5893 43.0115C40.7288 43.0647 40.8743 43.0908 41.019 43.0908C41.2753 43.0908 41.5291 43.0088 41.7423 42.8502C42.076 42.602 42.2661 42.1992 42.2484 41.7774L42.0395 36.7676L45.0847 32.8401C45.3412 32.5094 45.4187 32.0691 45.2913 31.6676C45.1638 31.266 44.8484 30.9564 44.451 30.8433L39.7326 29.4985L37.0253 25.3197C36.7974 24.9678 36.4123 24.7563 35.9999 24.7563C35.5876 24.7563 35.2025 24.9678 34.9746 25.3197L32.2673 29.4985L27.5488 30.8433C27.1516 30.9564 26.8362 31.266 26.7087 31.6675V31.6675ZM33.3692 31.7998C33.6543 31.7186 33.9011 31.535 34.0647 31.2825L36.0001 28.2951L37.9356 31.2825C38.099 31.5349 38.346 31.7185 38.631 31.7997L42.0041 32.7611L39.8271 35.5688C39.6432 35.8059 39.5488 36.1031 39.5615 36.4058L39.7108 39.9873L36.43 38.7351C36.2914 38.6822 36.1457 38.6558 36.0002 38.6558C35.8547 38.6558 35.709 38.6822 35.5704 38.7351L32.2896 39.9873L32.4389 36.4058C32.4515 36.1031 32.3572 35.8059 32.1733 35.5688L29.9962 32.7611L33.3692 31.7998Z" fill="#EBE5DB"/>
<path d="M56.9204 31.7488C57.2979 29.4362 56.3137 27.0998 54.3517 25.6514C54.0408 25.4219 53.643 25.3536 53.276 25.4673C53.2173 25.4856 53.1592 25.505 53.1013 25.5247C53.6717 23.378 53.1702 21.1499 51.7314 19.589C50.1595 17.8838 47.7465 17.2754 45.4338 18.0008C45.0672 18.1157 44.7739 18.3991 44.6406 18.7672C43.7995 21.0891 44.2534 23.5906 45.8253 25.2958C46.9589 26.5256 48.5299 27.1849 50.1853 27.1849C50.2909 27.1849 50.3969 27.1812 50.5031 27.1758C49.6736 28.0498 49.1103 29.1535 48.9103 30.3783C48.5849 32.3713 49.2717 34.3815 50.7233 35.8262C49.9476 36.1984 49.2535 36.7398 48.6942 37.4347C47.4154 39.0236 47.0372 41.1658 47.6353 43.1937C45.569 43.7105 43.9279 45.3502 43.2793 47.5495C42.8841 47.777 42.4776 47.9873 42.0656 48.1761C37.7804 50.1397 32.8063 49.9014 28.72 47.5479C28.0711 45.3495 26.4302 43.7104 24.3644 43.1937C24.9625 41.1658 24.5843 39.0236 23.3055 37.4347C22.7462 36.7397 22.0521 36.1983 21.2765 35.8261C22.728 34.3813 23.4148 32.3712 23.0894 30.3782C22.8894 29.1535 22.3261 28.0498 21.4966 27.1758C21.6028 27.1812 21.7088 27.1849 21.8144 27.1849C23.4697 27.1849 25.0409 26.5254 26.1745 25.2958C27.7463 23.5905 28.2002 21.089 27.3591 18.7672C27.2258 18.3991 26.9325 18.1157 26.5659 18.0008C24.253 17.2751 21.8403 17.8839 20.2683 19.589C18.8295 21.1498 18.3281 23.3779 18.8984 25.5247C18.8405 25.5051 18.7825 25.4856 18.7237 25.4673C18.3568 25.3537 17.9591 25.4218 17.648 25.6514C15.6863 27.0998 14.702 29.4362 15.0795 31.7488C15.3163 33.1991 16.0625 34.4796 17.1569 35.4099C17.1467 35.4122 17.1367 35.4142 17.1266 35.4166C16.7533 35.506 16.4421 35.7686 16.2848 36.1266C15.2932 38.3853 15.5818 40.9125 17.0382 42.7219C17.6334 43.4614 18.3814 44.0259 19.2178 44.3988C18.8065 44.7339 18.4273 45.1256 18.0917 45.5712C17.8575 45.882 17.7783 46.2868 17.8774 46.666C18.5024 49.0583 20.2855 50.8306 22.531 51.2913C22.9109 51.3693 23.2926 51.4074 23.6719 51.4074C25.1228 51.4074 26.5378 50.8499 27.6726 49.8337C29.5037 50.8623 31.4826 51.5292 33.5077 51.8298L30.2158 55.142C29.731 55.6297 29.7243 56.4273 30.2006 56.9235C30.4415 57.1744 30.7597 57.3002 31.0782 57.3002C31.3896 57.3002 31.7011 57.18 31.9406 56.9389L36.0001 52.8545L40.0595 56.9389C40.2991 57.18 40.6106 57.3002 40.9219 57.3002C41.2404 57.3002 41.5587 57.1744 41.7995 56.9235C42.2759 56.4273 42.2692 55.6297 41.7843 55.142L38.4944 51.8317C40.0583 51.6001 41.5997 51.1499 43.071 50.4756C43.4967 50.2806 43.917 50.0649 44.3279 49.8341C45.4626 50.85 46.8774 51.4073 48.3281 51.4073C48.7073 51.4073 49.0893 51.3692 49.4691 51.2913C51.7145 50.8306 53.4976 49.0582 54.1226 46.6659C54.2217 46.2866 54.1425 45.8819 53.9084 45.5711C53.5727 45.1256 53.1935 44.7337 52.7822 44.3986C53.6186 44.0258 54.3667 43.4613 54.9618 42.7219C56.4182 40.9124 56.7068 38.3851 55.7152 36.1265C55.5579 35.7685 55.2467 35.506 54.8735 35.4165C54.8633 35.4141 54.8532 35.4121 54.8431 35.4098C55.9374 34.4796 56.6837 33.199 56.9204 31.7488V31.7488ZM22.0582 21.3184C22.8483 20.4614 24.0221 20.0826 25.2278 20.2663C25.4766 21.4875 25.1749 22.7095 24.385 23.5665C23.5949 24.4236 22.4207 24.8026 21.2156 24.6186C20.9666 23.3973 21.2683 22.1753 22.0582 21.3184V21.3184ZM18.6028 28.1121C19.7037 28.6469 20.4725 29.6313 20.6623 30.7936C20.852 31.9558 20.4375 33.1428 19.5663 34.0149C18.4655 33.4802 17.6965 32.4958 17.5069 31.3334C17.317 30.1712 17.7315 28.9843 18.6028 28.1121ZM18.9374 41.1197C18.2054 40.2104 17.9848 38.9703 18.3133 37.769C19.5289 37.6687 20.6746 38.1276 21.4065 39.037C22.1384 39.9464 22.3591 41.1864 22.0306 42.3877C20.8159 42.4878 19.6694 42.0292 18.9374 41.1197V41.1197ZM23.0145 48.8209C21.886 48.5893 20.9497 47.7709 20.463 46.6271C21.3427 45.7638 22.5148 45.3779 23.6431 45.6094C24.7718 45.841 25.708 46.6595 26.1947 47.8032C25.315 48.6666 24.1432 49.0529 23.0145 48.8209V48.8209ZM53.3971 28.1121C54.2684 28.9843 54.6829 30.1712 54.4931 31.3334C54.3033 32.4958 53.5344 33.4802 52.4336 34.0149C51.5624 33.1427 51.1478 31.9558 51.3377 30.7937C51.5274 29.6313 52.2963 28.6469 53.3971 28.1121ZM47.6151 23.5665C46.825 22.7095 46.5234 21.4874 46.7723 20.2662C47.9778 20.0822 49.1518 20.4614 49.9417 21.3182C50.7318 22.1752 51.0334 23.3973 50.7844 24.6185C49.5792 24.8025 48.405 24.4234 47.6151 23.5665V23.5665ZM48.9854 48.821C47.8571 49.0524 46.6848 48.6667 45.8053 47.8032C46.2919 46.6595 47.2281 45.841 48.3568 45.6094C49.4849 45.3779 50.6572 45.7638 51.5369 46.6271C51.0502 47.7709 50.114 48.5893 48.9854 48.821ZM53.0625 41.1198C52.3305 42.0293 51.1838 42.4879 49.9694 42.3877C49.6408 41.1863 49.8616 39.9464 50.5935 39.037C51.3255 38.1275 52.4713 37.6685 53.6866 37.769C54.0152 38.9703 53.7945 40.2104 53.0625 41.1198Z" fill="#EBE5DB"/>
</svg>
