<svg width="51" height="51" viewBox="0 0 51 51" fill="none" xmlns="http://www.w3.org/2000/svg">
<rect width="51" height="51" rx="25.5" fill="#E1EEEA" fill-opacity="0.11"/>
<path d="M34.3923 20.6579C34.4063 20.8726 34.4063 21.0873 34.4063 21.302C34.4063 27.8493 29.8383 35.3934 21.4892 35.3934C18.917 35.3934 16.5275 34.5807 14.5176 33.1701C14.883 33.216 15.2344 33.2314 15.6139 33.2314C17.7363 33.2314 19.69 32.4494 21.2502 31.1154C19.2543 31.0694 17.5817 29.6434 17.0054 27.6807C17.2865 27.7266 17.5676 27.7573 17.8628 27.7573C18.2704 27.7573 18.6781 27.696 19.0576 27.5887C16.9773 27.1286 15.4171 25.1353 15.4171 22.728V22.6667C16.0215 23.0347 16.7243 23.2647 17.4692 23.2953C16.2464 22.4059 15.4452 20.8879 15.4452 19.1706C15.4452 18.2506 15.6701 17.4073 16.0637 16.6713C18.2985 19.6766 21.6578 21.6392 25.4247 21.854C25.3544 21.4859 25.3123 21.1026 25.3123 20.7193C25.3123 17.9899 27.3363 15.7666 29.8522 15.7666C31.1594 15.7666 32.3401 16.3646 33.1694 17.3306C34.1954 17.116 35.1793 16.7019 36.0508 16.1346C35.7134 17.2846 34.9966 18.2506 34.0549 18.8639C34.9685 18.7567 35.854 18.4806 36.6692 18.0973C36.0509 19.0786 35.2778 19.9526 34.3923 20.6579V20.6579Z" fill="#EBE5DB"/>
</svg>
