<svg width="119" height="119" viewBox="0 0 119 119" fill="none" xmlns="http://www.w3.org/2000/svg">
<rect x="7" y="7" width="105" height="104.185" rx="52.0926" fill="#D1E6DF" stroke="white" stroke-width="14"/>
<path d="M42.5 75.3083C42.5 76.8205 43.6172 78.0422 45 78.0422H75C76.3828 78.0422 77.5 76.8205 77.5 75.3083V50.703H42.5V75.3083ZM55 57.1961C55 56.6322 55.4219 56.1708 55.9375 56.1708H64.0625C64.5781 56.1708 65 56.6322 65 57.1961V57.8795C65 58.4434 64.5781 58.9048 64.0625 58.9048H55.9375C55.4219 58.9048 55 58.4434 55 57.8795V57.1961ZM77.5 39.7673H42.5C41.1172 39.7673 40 40.9891 40 42.5013V46.6021C40 47.354 40.5625 47.9691 41.25 47.9691H78.75C79.4375 47.9691 80 47.354 80 46.6021V42.5013C80 40.9891 78.8828 39.7673 77.5 39.7673Z" fill="#2B6956"/>
</svg>
