<svg width="27" height="27" viewBox="0 0 27 27" fill="none" xmlns="http://www.w3.org/2000/svg">
<path d="M12.2687 12.2681C11.5882 12.9486 11.5882 14.0514 12.2687 14.7313C12.9486 15.4118 14.052 15.4118 14.7319 14.7313C15.4123 14.0509 15.4123 12.948 14.7319 12.2681C14.0514 11.5882 12.9486 11.5882 12.2687 12.2681ZM13.5 0C6.04397 0 0 6.04397 0 13.5C0 20.956 6.04397 27 13.5 27C20.956 27 27 20.956 27 13.5C27 6.04397 20.956 0 13.5 0ZM20.3665 8.05917L16.7754 15.9169C16.6017 16.2969 16.2969 16.6017 15.9169 16.7754L8.05972 20.3665C7.15337 20.7807 6.21925 19.8466 6.63351 18.9403L10.2252 11.0825C10.3989 10.7025 10.7036 10.3978 11.0836 10.2241L18.9408 6.63296C19.8472 6.21925 20.7807 7.15282 20.3665 8.05917V8.05917Z" fill="#2B6956"/>
</svg>
