<svg width="18" height="195" viewBox="0 0 18 195" fill="none" xmlns="http://www.w3.org/2000/svg">
<path d="M12.5 54.2856C12.5 56.1845 10.939 57.7348 9 57.7348C7.06095 57.7348 5.5 56.1845 5.5 54.2856C5.5 52.3867 7.06095 50.8364 9 50.8364C10.939 50.8364 12.5 52.3867 12.5 54.2856Z" fill="#EBE5DB" stroke="#EBE5DB"/>
<path d="M12.5 99.6874C12.5 101.586 10.939 103.137 9 103.137C7.06095 103.137 5.5 101.586 5.5 99.6874C5.5 97.7885 7.06095 96.2383 9 96.2383C10.939 96.2383 12.5 97.7885 12.5 99.6874Z" fill="#EBE5DB" stroke="#EBE5DB"/>
<path d="M12.5 145.089C12.5 146.988 10.939 148.538 9 148.538C7.06095 148.538 5.5 146.988 5.5 145.089C5.5 143.19 7.06095 141.64 9 141.64C10.939 141.64 12.5 143.19 12.5 145.089Z" fill="#EBE5DB" stroke="#EBE5DB"/>
<path d="M12.5 190.491C12.5 192.39 10.939 193.94 9 193.94C7.06095 193.94 5.5 192.39 5.5 190.491C5.5 188.592 7.06095 187.042 9 187.042C10.939 187.042 12.5 188.592 12.5 190.491Z" fill="#EBE5DB" stroke="#EBE5DB"/>
<path d="M12.5 8.88422C12.5 10.7831 10.939 12.3334 9 12.3334C7.06095 12.3334 5.5 10.7831 5.5 8.88422C5.5 6.98531 7.06095 5.43506 9 5.43506C10.939 5.43506 12.5 6.98531 12.5 8.88422Z" fill="#EBE5DB" stroke="#EBE5DB"/>
<path d="M17.5 8.88292C17.5 13.5065 13.7006 17.2658 9 17.2658C4.29939 17.2658 0.5 13.5065 0.5 8.88292C0.5 4.25931 4.29939 0.5 9 0.5C13.7006 0.5 17.5 4.25931 17.5 8.88292Z" stroke="#EBE5DB"/>
</svg>
