<svg width="81" height="81" viewBox="0 0 81 81" fill="none" xmlns="http://www.w3.org/2000/svg">
<rect width="81" height="80.2747" rx="40.1373" fill="#E2F1ED"/>
<path d="M60.4948 36.49L51.459 45.2177L53.5919 57.5416C53.7475 58.4432 53.1361 59.2989 52.2263 59.4531C51.8651 59.5143 51.4934 59.4562 51.1688 59.2875L39.9997 53.4687L28.8311 59.2868C28.0138 59.7115 27.0037 59.399 26.5753 58.589C26.4051 58.2674 26.3463 57.899 26.4082 57.541L28.5408 45.2178L19.505 36.49C18.8439 35.8517 18.8301 34.8033 19.474 34.1482C19.7309 33.887 20.0675 33.7169 20.4316 33.6647L32.9172 31.8669L38.5016 20.6552C38.9897 19.8352 40.0562 19.5626 40.8836 20.0465C41.137 20.1947 41.3483 20.4041 41.4978 20.6552L47.0821 31.8669L59.5677 33.664C60.4811 33.7949 61.1145 34.635 60.9824 35.5402C60.9297 35.9012 60.7582 36.2348 60.4945 36.4892L60.4948 36.49Z" fill="#2B6956"/>
</svg>
