<svg width="1309" height="55" viewBox="0 0 1309 55" fill="none" xmlns="http://www.w3.org/2000/svg">
<path d="M75.1568 40.1094H69.9428V29.8376H60.1727V40.1094H54.9418V16.31H60.1727V25.6377H69.9428V16.31H75.1568V40.1094Z" fill="#CACACA"/>
<path d="M80.7759 17.2054C80.7759 15.5883 81.7096 14.7798 83.577 14.7798C85.4444 14.7798 86.3781 15.5883 86.3781 17.2054C86.3781 17.9759 86.1418 18.5782 85.6693 19.0123C85.2081 19.4355 84.5107 19.6472 83.577 19.6472C81.7096 19.6472 80.7759 18.8332 80.7759 17.2054ZM86.1418 40.1094H80.9952V21.9099H86.1418V40.1094Z" fill="#CACACA"/>
<path d="M107.977 21.9099V24.4331L105.024 25.1656C105.564 25.9795 105.834 26.8912 105.834 27.9004C105.834 29.8539 105.125 31.3786 103.708 32.4747C102.301 33.56 100.344 34.1026 97.8355 34.1026L96.9074 34.0538L96.1481 33.9724C95.6194 34.363 95.355 34.7971 95.355 35.2747C95.355 35.9909 96.3 36.349 98.1899 36.349H101.396C103.466 36.349 105.041 36.7777 106.121 37.6351C107.212 38.4924 107.757 39.7513 107.757 41.4117C107.757 43.5388 106.835 45.1883 104.99 46.3604C103.156 47.5325 100.518 48.1185 97.0762 48.1185C94.4438 48.1185 92.4302 47.6735 91.0353 46.7836C89.6516 45.9046 88.9598 44.6674 88.9598 43.0721C88.9598 41.976 89.3141 41.059 90.0228 40.321C90.7315 39.5831 91.7721 39.0567 93.1445 38.742C92.6158 38.525 92.1546 38.1722 91.7609 37.6839C91.3671 37.1847 91.1703 36.6583 91.1703 36.1049C91.1703 35.4103 91.3784 34.8351 91.7946 34.3793C92.2108 33.9127 92.8127 33.4569 93.6001 33.0119C92.6102 32.5995 91.8227 31.9375 91.2378 31.0259C90.6641 30.1143 90.3772 29.0399 90.3772 27.8028C90.3772 25.8168 91.0465 24.2811 92.3852 23.1959C93.7239 22.1107 95.6363 21.568 98.1224 21.568C98.6511 21.568 99.2754 21.6169 99.9954 21.7145C100.727 21.8014 101.193 21.8665 101.396 21.9099H107.977ZM93.4145 42.6814C93.4145 43.3651 93.752 43.9023 94.427 44.293C95.1132 44.6837 96.0694 44.879 97.2955 44.879C99.1404 44.879 100.586 44.6349 101.632 44.1465C102.678 43.6582 103.201 42.9907 103.201 42.1442C103.201 41.4605 102.892 40.9885 102.273 40.728C101.655 40.4675 100.698 40.3373 99.4048 40.3373H96.7387C95.7938 40.3373 95.0007 40.5489 94.3595 40.9722C93.7295 41.4063 93.4145 41.976 93.4145 42.6814ZM95.2875 27.8679C95.2875 28.8554 95.5181 29.6368 95.9794 30.212C96.4518 30.7872 97.1662 31.0748 98.1224 31.0748C99.0898 31.0748 99.7985 30.7872 100.248 30.212C100.698 29.6368 100.923 28.8554 100.923 27.8679C100.923 25.6757 99.9898 24.5796 98.1224 24.5796C96.2325 24.5796 95.2875 25.6757 95.2875 27.8679Z" fill="#CACACA"/>
<path d="M128.512 40.1094H123.366V29.4795C123.366 26.8532 122.353 25.54 120.329 25.54C118.889 25.54 117.848 26.0121 117.207 26.9563C116.566 27.9004 116.245 29.4306 116.245 31.5468V40.1094H111.098V14.7798H116.245V19.9402C116.245 20.3417 116.206 21.2859 116.127 22.7727L116.009 24.2377H116.279C117.426 22.4579 119.249 21.568 121.746 21.568C123.962 21.568 125.644 22.1432 126.791 23.2936C127.939 24.4439 128.512 26.0935 128.512 28.2423V40.1094Z" fill="#CACACA"/>
<path d="M138.957 40.1094H133.811V14.7798H138.957V40.1094Z" fill="#CACACA"/>
<path d="M148.474 30.9771C148.474 32.7786 148.778 34.1406 149.386 35.063C150.004 35.9855 151.006 36.4467 152.389 36.4467C153.762 36.4467 154.746 35.9909 155.342 35.0793C155.95 34.1569 156.253 32.7894 156.253 30.9771C156.253 29.1756 155.95 27.8245 155.342 26.9237C154.735 26.023 153.739 25.5726 152.355 25.5726C150.983 25.5726 149.993 26.023 149.386 26.9237C148.778 27.8136 148.474 29.1647 148.474 30.9771ZM161.518 30.9771C161.518 33.9398 160.708 36.2568 159.088 37.9281C157.468 39.5993 155.213 40.435 152.322 40.435C150.511 40.435 148.913 40.0551 147.529 39.2955C146.146 38.525 145.083 37.4234 144.34 35.9909C143.598 34.5584 143.227 32.8871 143.227 30.9771C143.227 28.0035 144.031 25.692 145.64 24.0424C147.248 22.3928 149.509 21.568 152.423 21.568C154.234 21.568 155.831 21.9479 157.215 22.7075C158.599 23.4672 159.662 24.5579 160.404 25.9795C161.147 27.4012 161.518 29.0671 161.518 30.9771Z" fill="#CACACA"/>
<path d="M181.277 40.1094L179.826 33.7445L177.869 25.7028H177.751L174.309 40.1094H168.774L163.408 21.9099H168.538L170.714 29.9678C171.063 31.4112 171.417 33.4026 171.777 35.9421H171.879C171.924 35.1173 172.121 33.8096 172.469 32.0189L172.739 30.6352L175.068 21.9099H180.738L182.948 30.6352C182.993 30.874 183.06 31.2267 183.15 31.6934C183.252 32.16 183.347 32.6592 183.437 33.191C183.527 33.7119 183.606 34.2274 183.674 34.7375C183.752 35.2367 183.797 35.6382 183.809 35.9421H183.91C184.011 35.1607 184.191 34.0917 184.45 32.7352C184.709 31.3678 184.894 30.4453 185.007 29.9678L187.268 21.9099H192.313L186.88 40.1094H181.277Z" fill="#CACACA"/>
<path d="M17.9436 43.9561C27.8535 43.9561 35.8871 36.493 35.8871 27.2868C35.8871 18.0805 27.8535 10.6174 17.9436 10.6174C8.03365 10.6174 3.19845e-07 18.0806 2.06048e-07 27.2868C9.22516e-08 36.4929 8.03358 43.9561 17.9436 43.9561ZM31.2565 27.2868L4.6306 27.2868C4.6306 20.4507 10.586 14.9192 17.9436 14.9192C25.3022 14.9192 31.2565 20.4517 31.2565 27.2868Z" fill="#CACACA"/>
<path d="M324.785 41.868C323.648 42.7395 322.168 43.4157 320.346 43.8966C318.524 44.3774 316.281 44.6179 313.617 44.6179C310.969 44.6179 308.15 44.3849 305.159 43.9191V14.2119C308.181 13.746 310.798 13.5131 313.01 13.5131C315.237 13.5131 317.059 13.716 318.477 14.1217C319.91 14.5274 321.078 15.0759 321.981 15.7671C323.757 17.1044 324.645 18.84 324.645 20.9738C324.645 23.0925 323.843 24.8506 322.238 26.248C324.139 26.819 325.611 27.9009 326.654 29.4937C327.604 30.9213 328.079 32.5065 328.079 34.2496C328.079 35.9777 327.815 37.4578 327.285 38.6899C326.771 39.9221 325.938 40.9815 324.785 41.868ZM311.351 25.4141C312.005 25.5193 312.823 25.5718 313.804 25.5718C314.785 25.5718 315.587 25.4516 316.211 25.2112C316.849 24.9558 317.34 24.6402 317.682 24.2645C318.243 23.6485 318.524 22.792 318.524 21.695C318.524 19.396 317.122 18.2465 314.318 18.2465C313.134 18.2465 312.145 18.2915 311.351 18.3817V25.4141ZM314.809 30.2376C313.5 30.2376 312.348 30.3202 311.351 30.4855V39.3436C312.441 39.6141 313.586 39.7493 314.785 39.7493C315.985 39.7493 317.036 39.6141 317.939 39.3436C318.858 39.0581 319.629 38.6749 320.253 38.1941C321.514 37.2023 322.145 35.9401 322.145 34.4074C322.145 31.6275 319.7 30.2376 314.809 30.2376Z" fill="#CACACA"/>
<path d="M330.79 32.4014C330.79 30.7485 331.078 29.1707 331.654 27.668C332.246 26.1504 333.087 24.828 334.177 23.7011C336.561 21.2668 339.652 20.0496 343.453 20.0496C347.238 20.0496 350.244 21.1992 352.471 23.4982C354.605 25.6921 355.672 28.5396 355.672 32.0407C355.672 35.5419 354.574 38.442 352.378 40.741C350.057 43.1753 346.981 44.3925 343.149 44.3925C339.193 44.3925 336.093 43.1979 333.85 40.8087C331.81 38.6298 330.79 35.8274 330.79 32.4014ZM336.467 32.2661C336.467 33.2128 336.631 34.1294 336.958 35.016C337.285 35.9025 337.752 36.6614 338.36 37.2925C339.652 38.6599 341.35 39.3436 343.453 39.3436C345.4 39.3436 346.934 38.6749 348.056 37.3375C349.146 36.0453 349.691 34.3623 349.691 32.2887C349.691 30.185 349.13 28.487 348.009 27.1947C346.81 25.8123 345.166 25.1211 343.079 25.1211C340.961 25.1211 339.302 25.8573 338.103 27.3299C337.012 28.6823 336.467 30.3277 336.467 32.2661Z" fill="#CACACA"/>
<path d="M358.78 32.4014C358.78 30.7485 359.068 29.1707 359.644 27.668C360.236 26.1504 361.077 24.828 362.168 23.7011C364.551 21.2668 367.643 20.0496 371.443 20.0496C375.228 20.0496 378.234 21.1992 380.462 23.4982C382.595 25.6921 383.662 28.5396 383.662 32.0407C383.662 35.5419 382.564 38.442 380.368 40.741C378.047 43.1753 374.971 44.3925 371.139 44.3925C367.183 44.3925 364.083 43.1979 361.84 40.8087C359.8 38.6298 358.78 35.8274 358.78 32.4014ZM364.457 32.2661C364.457 33.2128 364.621 34.1294 364.948 35.016C365.275 35.9025 365.742 36.6614 366.35 37.2925C367.643 38.6599 369.34 39.3436 371.443 39.3436C373.39 39.3436 374.924 38.6749 376.046 37.3375C377.136 36.0453 377.681 34.3623 377.681 32.2887C377.681 30.185 377.121 28.487 375.999 27.1947C374.8 25.8123 373.156 25.1211 371.069 25.1211C368.951 25.1211 367.292 25.8573 366.093 27.3299C365.002 28.6823 364.457 30.3277 364.457 32.2661Z" fill="#CACACA"/>
<path d="M396.77 44.3925C392.377 44.3925 389.067 43.6186 386.84 42.0709C386.871 41.6201 386.918 41.1092 386.98 40.5382L387.19 38.9153C387.315 37.8484 387.393 37.1873 387.424 36.9318C387.455 36.6614 387.479 36.5186 387.494 36.5036C387.51 36.4735 387.634 36.5937 387.868 36.8642C388.102 37.1197 388.546 37.4352 389.2 37.8109C389.854 38.1865 390.609 38.5171 391.466 38.8026C393.32 39.4187 395.251 39.7267 397.26 39.7267C399.955 39.7267 401.302 38.8627 401.302 37.1347C401.302 36.5787 401.045 36.1655 400.531 35.895C399.612 35.4442 398.257 35.1061 396.466 34.8807C394.69 34.6403 393.234 34.2947 392.097 33.8439C390.96 33.3931 390.033 32.8522 389.317 32.221C387.993 31.034 387.331 29.4787 387.331 27.5553C387.331 25.2112 388.265 23.3705 390.134 22.0331C391.988 20.7108 394.55 20.0496 397.821 20.0496C401.061 20.0496 403.826 20.9362 406.115 22.7093C406.006 23.1 405.889 23.4757 405.765 23.8363C405.407 24.828 405.142 25.5418 404.97 25.9776L404.433 27.3074C404.402 27.4276 404.379 27.4877 404.363 27.4877C404.332 27.4877 404.207 27.3299 403.989 27.0144C403.008 25.9175 401.481 25.1962 399.41 24.8506C398.771 24.7304 398.117 24.6703 397.447 24.6703C394.612 24.6703 393.195 25.4967 393.195 27.1496C393.195 27.7206 393.491 28.1564 394.083 28.4569C395.189 29.0279 396.7 29.4487 398.615 29.7191C400.547 29.9896 402.011 30.3578 403.008 30.8236C404.005 31.2744 404.807 31.8228 405.414 32.469C406.536 33.641 407.097 35.1963 407.097 37.1347C407.097 39.2534 406.217 40.9739 404.456 42.2963C402.618 43.6937 400.056 44.3925 396.77 44.3925Z" fill="#CACACA"/>
<path d="M420.741 44.3925C416.349 44.3925 413.039 43.6186 410.811 42.0709C410.843 41.6201 410.889 41.1092 410.952 40.5382L411.162 38.9153C411.286 37.8484 411.364 37.1873 411.396 36.9318C411.427 36.6614 411.45 36.5186 411.466 36.5036C411.481 36.4735 411.606 36.5937 411.839 36.8642C412.073 37.1197 412.517 37.4352 413.171 37.8109C413.825 38.1865 414.581 38.5171 415.437 38.8026C417.291 39.4187 419.222 39.7267 421.232 39.7267C423.926 39.7267 425.274 38.8627 425.274 37.1347C425.274 36.5787 425.017 36.1655 424.503 35.895C423.584 35.4442 422.229 35.1061 420.437 34.8807C418.662 34.6403 417.205 34.2947 416.068 33.8439C414.931 33.3931 414.005 32.8522 413.288 32.221C411.964 31.034 411.302 29.4787 411.302 27.5553C411.302 25.2112 412.237 23.3705 414.106 22.0331C415.959 20.7108 418.522 20.0496 421.793 20.0496C425.032 20.0496 427.797 20.9362 430.087 22.7093C429.978 23.1 429.861 23.4757 429.736 23.8363C429.378 24.828 429.113 25.5418 428.942 25.9776L428.405 27.3074C428.373 27.4276 428.35 27.4877 428.334 27.4877C428.303 27.4877 428.179 27.3299 427.961 27.0144C426.979 25.9175 425.453 25.1962 423.381 24.8506C422.743 24.7304 422.088 24.6703 421.419 24.6703C418.584 24.6703 417.166 25.4967 417.166 27.1496C417.166 27.7206 417.462 28.1564 418.054 28.4569C419.16 29.0279 420.671 29.4487 422.587 29.7191C424.518 29.9896 425.982 30.3578 426.979 30.8236C427.976 31.2744 428.778 31.8228 429.386 32.469C430.507 33.641 431.068 35.1963 431.068 37.1347C431.068 39.2534 430.188 40.9739 428.428 42.2963C426.59 43.6937 424.028 44.3925 420.741 44.3925Z" fill="#CACACA"/>
<path d="M447.329 39.0956C449.339 39.0956 450.717 38.5923 451.465 37.5855H451.652L451.722 42.8147C450.959 43.551 449.541 44.0393 447.47 44.2798C446.909 44.3549 446.208 44.3925 445.367 44.3925C444.541 44.3925 443.638 44.2422 442.657 43.9417C441.691 43.6411 440.865 43.1528 440.18 42.4766C438.763 41.0791 438.054 38.8928 438.054 35.9175V25.6845H434.526C434.51 25.2488 434.503 24.8055 434.503 24.3547V20.8836C434.503 20.6281 434.51 20.5004 434.526 20.5004H438.054V14.0766H443.778V20.5004H450.203V25.6845H443.778V34.8807C443.778 37.2399 444.456 38.5847 445.811 38.9153C446.247 39.0355 446.753 39.0956 447.329 39.0956Z" fill="#CACACA"/>
<path d="M599.972 32.5764C599.972 35.9574 600.034 38.1287 600.158 39.0904H594.06V15.5364H599.972V17.565C602.105 15.9121 604.294 15.0857 606.537 15.0857C609.185 15.0857 611.108 16.1901 612.308 18.399C613.507 17.2119 614.504 16.4305 615.298 16.0549C616.622 15.4087 617.946 15.0857 619.27 15.0857C620.61 15.0857 621.747 15.3035 622.681 15.7393C623.616 16.1751 624.387 16.7912 624.994 17.5876C626.225 19.1954 626.84 21.4043 626.84 24.2142V33.185C626.84 35.7245 626.879 37.2496 626.957 37.7605C627.035 38.2714 627.136 38.602 627.261 38.7523C627.401 38.9026 627.518 39.0378 627.611 39.158L627.564 39.2482C626.318 39.143 625.399 39.0904 624.808 39.0904H623.055C622.479 39.0904 621.77 39.1129 620.929 39.158V26.964C620.929 23.4479 620.368 21.3592 619.247 20.698C618.873 20.4877 618.429 20.3825 617.915 20.3825C617.417 20.3825 616.973 20.4426 616.583 20.5628C616.194 20.668 615.828 20.8483 615.485 21.1037C614.909 21.5095 614.255 22.3059 613.523 23.4929C613.538 23.6132 613.546 23.7334 613.546 23.8536C613.546 23.9738 613.546 25.9573 613.546 29.804C613.546 33.6508 613.64 36.7463 613.826 39.0904C612.502 39.0904 611.373 39.0904 610.439 39.0904C609.52 39.0904 608.64 39.1129 607.799 39.158V26.9415C607.799 24.4922 607.643 22.8994 607.331 22.1631C607.035 21.4268 606.716 20.946 606.373 20.7206C606.031 20.4952 605.61 20.3825 605.112 20.3825C603.056 20.3825 601.342 21.3366 599.972 23.245V32.5764Z" fill="#CACACA"/>
<path d="M649.737 37.6929C647.525 38.85 645.524 39.4285 643.732 39.4285C641.941 39.4285 640.407 39.2707 639.13 38.9551C637.852 38.6246 636.77 38.1437 635.882 37.5126C634.075 36.2354 633.172 34.3871 633.172 31.9679C633.172 29.804 634.278 28.0009 636.49 26.5583C638.888 24.9956 642.144 24.2142 646.256 24.2142L647.19 24.2368C647.377 24.2518 647.587 24.2668 647.821 24.2818C648.055 24.2818 648.265 24.2969 648.452 24.3269C648.327 21.9227 647.253 20.5177 645.228 20.112C644.558 19.9768 643.841 19.9091 643.078 19.9091C642.331 19.9091 641.591 19.9768 640.859 20.112C640.142 20.2322 639.441 20.3975 638.756 20.6079C637.245 21.0737 636.162 21.6071 635.508 22.2082L635.438 22.1631L634.737 17.1818C637.494 15.7844 640.508 15.0857 643.779 15.0857C648.857 15.0857 652.104 16.8513 653.522 20.3825C653.974 21.5095 654.199 22.7792 654.199 24.1917V32.351C654.199 34.0941 654.838 35.2812 656.115 35.9123L651.886 39.6539C650.999 39.2031 650.282 38.5494 649.737 37.6929ZM648.475 28.384C648.055 28.3089 647.619 28.2713 647.167 28.2713H646.232C642.79 28.2713 640.602 29.0076 639.667 30.4802C639.387 30.916 639.246 31.3743 639.246 31.8552C639.246 32.336 639.332 32.7643 639.503 33.1399C639.69 33.5005 639.994 33.8011 640.415 34.0415C641.225 34.4923 642.424 34.7177 644.013 34.7177C645.617 34.7177 647.112 34.3495 648.499 33.6132C648.483 33.448 648.475 33.2752 648.475 33.0948V28.384Z" fill="#CACACA"/>
<path d="M660.297 8.9774C661.31 7.41466 662.47 5.94206 663.779 4.55963L668.241 7.96312C667.462 8.92481 666.933 9.58598 666.652 9.94661L665.835 11.0511C665.57 11.3967 665.29 11.7873 664.994 12.2231L660.297 8.9774ZM657.704 42.584C660.009 42.584 661.162 40.9311 661.162 37.6253V15.5364H666.839V36.0025C666.839 42.3136 664.978 46.0476 661.255 47.2047C660.04 47.5803 658.662 47.7682 657.12 47.7682L654.69 41.8402L654.737 41.7275C655.625 42.2985 656.614 42.584 657.704 42.584Z" fill="#CACACA"/>
<path d="M672.774 8.81963C674.02 6.94132 675.321 5.28841 676.676 3.8609L681.699 7.6701C681.029 8.46651 680.406 9.24788 679.83 10.0142C679.83 10.0142 679.23 10.8332 678.031 12.4711L672.774 8.81963ZM678.919 36.5659C678.919 37.8582 678.95 38.6997 679.012 39.0904H673.078V15.5364H678.919V36.5659Z" fill="#CACACA"/>
<path d="M691.675 36.2053C691.675 37.5276 691.738 38.4893 691.862 39.0904H685.998V15.5364H691.675V17.5425C693.731 15.9046 695.928 15.0857 698.264 15.0857C700.818 15.0857 702.859 15.9271 704.385 17.6101C705.912 19.278 706.675 21.4794 706.675 24.2142V33.185C706.675 35.7245 706.714 37.2496 706.792 37.7605C706.87 38.2714 706.971 38.602 707.096 38.7523C707.236 38.9026 707.353 39.0378 707.446 39.158L707.399 39.2482C706.138 39.143 705.219 39.0904 704.642 39.0904H703.007C702.508 39.0904 701.839 39.1129 700.998 39.158V26.8739C700.998 22.4711 699.611 20.2698 696.839 20.2698C694.783 20.2698 693.062 21.2916 691.675 23.3352V36.2053Z" fill="#CACACA"/>
<path d="M712.352 27.505C712.352 25.7469 712.664 24.1165 713.287 22.6139C713.91 21.1113 714.79 19.7964 715.927 18.6695C718.357 16.2803 721.535 15.0857 725.46 15.0857C728.777 15.0857 731.441 16.145 733.45 18.2637C735.428 20.3073 736.417 22.8769 736.417 25.9723C736.417 27.1594 736.324 27.9708 736.137 28.4066C734.579 28.8273 731.41 29.0377 726.628 29.0377H718.404C718.809 30.6455 719.751 31.9002 721.231 32.8018C722.711 33.6884 724.634 34.1317 727.002 34.1317C729.478 34.1317 731.604 33.7034 733.38 32.8469C733.847 32.6215 734.198 32.4111 734.431 32.2158C734.4 32.8469 734.361 33.493 734.315 34.1542L734.058 37.6704C732.874 38.4518 730.958 38.9927 728.31 39.2932C727.531 39.3834 726.784 39.4285 726.067 39.4285C722.111 39.4285 718.84 38.3165 716.254 36.0926C713.653 33.8537 712.352 30.9911 712.352 27.505ZM730.203 24.665C729.564 21.4343 727.742 19.819 724.735 19.819C722.368 19.819 720.569 20.8032 719.338 22.7717C718.964 23.3727 718.676 24.0339 718.474 24.7552C718.848 24.7702 719.307 24.7852 719.852 24.8002H721.581C722.158 24.8153 722.711 24.8228 723.24 24.8228H724.572C725.366 24.8228 726.145 24.8153 726.908 24.8002L728.824 24.7326C729.338 24.7176 729.798 24.6951 730.203 24.665Z" fill="#CACACA"/>
<path d="M570.673 16.1251C572.885 14.968 574.886 14.3895 576.678 14.3895C578.469 14.3895 580.003 14.5473 581.28 14.8629C582.557 15.1934 583.64 15.6743 584.528 16.3054C586.335 17.5826 587.238 19.4309 587.238 21.8502C587.238 24.014 586.132 25.8171 583.92 27.2597C581.522 28.8224 578.266 29.6038 574.154 29.6038L573.22 29.5813C573.033 29.5662 572.822 29.5512 572.589 29.5362C572.355 29.5362 572.145 29.5211 571.958 29.4911C572.083 31.8953 573.157 33.3003 575.182 33.706C575.852 33.8412 576.569 33.9089 577.332 33.9089C578.079 33.9089 578.819 33.8412 579.551 33.706C580.268 33.5858 580.969 33.4205 581.654 33.2101C583.165 32.7443 584.247 32.2109 584.902 31.6098L584.972 31.6549L585.673 36.6362C582.916 38.0336 579.902 38.7324 576.631 38.7324C571.553 38.7324 568.305 36.9667 566.888 33.4355C566.436 32.3086 566.21 31.0388 566.21 29.6263V21.467C566.21 19.7239 565.572 18.5368 564.295 17.9057L568.523 14.1641C569.411 14.6149 570.128 15.2686 570.673 16.1251ZM571.935 25.434C572.355 25.5091 572.791 25.5467 573.243 25.5467H574.178C577.62 25.5467 579.808 24.8104 580.743 23.3378C581.023 22.902 581.163 22.4437 581.163 21.9629C581.163 21.482 581.078 21.0538 580.906 20.6781C580.72 20.3175 580.416 20.0169 579.995 19.7765C579.185 19.3257 577.986 19.1003 576.397 19.1003C574.793 19.1003 573.298 19.4685 571.911 20.2048C571.927 20.37 571.935 20.5429 571.935 20.7232V25.434Z" fill="#CACACA"/>
<path d="M571.459 51.7575C570.421 50.756 570.421 49.1322 571.459 48.1307L573.728 45.9417C574.766 44.9402 576.449 44.9402 577.488 45.9417L579.757 48.1307C580.795 49.1322 580.795 50.756 579.757 51.7575L577.488 53.9464C576.449 54.9479 574.766 54.9479 573.728 53.9464L571.459 51.7575Z" fill="#CACACA"/>
<path d="M929.642 34.621H925.683V26.4441C925.683 25.434 925.505 24.6785 925.151 24.1777C924.804 23.6684 924.255 23.4138 923.502 23.4138C922.49 23.4138 921.754 23.7728 921.295 24.4907C920.837 25.2086 920.608 26.3899 920.608 28.0344V34.621H916.649V20.6214H919.673L920.205 22.412H920.426C920.815 21.7693 921.378 21.2684 922.113 20.9094C922.849 20.5421 923.692 20.3584 924.644 20.3584C926.816 20.3584 928.287 21.043 929.058 22.412H929.408C929.797 21.7609 930.368 21.2558 931.121 20.8969C931.883 20.5379 932.739 20.3584 933.691 20.3584C935.336 20.3584 936.577 20.7675 937.417 21.5856C938.265 22.3954 938.689 23.6976 938.689 25.4925V34.621H934.717V26.4441C934.717 25.434 934.539 24.6785 934.185 24.1777C933.838 23.6684 933.289 23.4138 932.536 23.4138C931.567 23.4138 930.84 23.7477 930.356 24.4156C929.88 25.0834 929.642 26.1436 929.642 27.5962V34.621Z" fill="#CACACA"/>
<path d="M951.98 34.621L951.214 32.7177H951.111C950.444 33.5274 949.756 34.0909 949.047 34.4082C948.346 34.717 947.429 34.8715 946.295 34.8715C944.902 34.8715 943.803 34.4875 942.998 33.7194C942.202 32.9514 941.804 31.8578 941.804 30.4387C941.804 28.9527 942.34 27.8591 943.413 27.1579C944.495 26.4483 946.122 26.056 948.294 25.9808L950.812 25.9057V25.2921C950.812 23.873 950.059 23.1634 948.553 23.1634C947.394 23.1634 946.031 23.5015 944.465 24.1777L943.154 21.5981C944.824 20.755 946.676 20.3334 948.709 20.3334C950.656 20.3334 952.149 20.7424 953.187 21.5606C954.226 22.3787 954.745 23.6225 954.745 25.2921V34.621H951.98ZM950.812 28.1346L949.28 28.1847C948.129 28.2181 947.273 28.4184 946.71 28.7858C946.148 29.1531 945.867 29.7124 945.867 30.4637C945.867 31.5406 946.507 32.0791 947.788 32.0791C948.705 32.0791 949.436 31.8244 949.981 31.3152C950.535 30.806 950.812 30.1298 950.812 29.2866V28.1346Z" fill="#CACACA"/>
<path d="M972.229 34.621H968.27V26.4441C968.27 25.434 968.084 24.6785 967.712 24.1777C967.34 23.6684 966.747 23.4138 965.934 23.4138C964.826 23.4138 964.026 23.7728 963.532 24.4907C963.039 25.2003 962.793 26.3815 962.793 28.0344V34.621H958.834V20.6214H961.858L962.39 22.412H962.611C963.052 21.7359 963.658 21.2266 964.428 20.8844C965.207 20.5337 966.089 20.3584 967.076 20.3584C968.763 20.3584 970.044 20.8009 970.918 21.6858C971.792 22.5623 972.229 23.8312 972.229 25.4925V34.621Z" fill="#CACACA"/>
<path d="M982.418 31.8286C983.111 31.8286 983.941 31.6825 984.91 31.3903V34.2328C983.924 34.6586 982.713 34.8715 981.276 34.8715C979.693 34.8715 978.537 34.4875 977.81 33.7194C977.092 32.9431 976.733 31.7827 976.733 30.2383V23.4889H974.838V21.8736L977.019 20.5964L978.161 17.6412H980.692V20.6214H984.755V23.4889H980.692V30.2383C980.692 30.7809 980.848 31.1816 981.159 31.4404C981.479 31.6992 981.899 31.8286 982.418 31.8286Z" fill="#CACACA"/>
<path d="M1001.25 34.621H997.293V26.4441C997.293 24.4239 996.515 23.4138 994.957 23.4138C993.849 23.4138 993.049 23.777 992.556 24.5032C992.062 25.2295 991.816 26.4066 991.816 28.0344V34.621H987.857V15.1368H991.816V19.1062C991.816 19.4151 991.786 20.1414 991.725 21.2851L991.634 22.412H991.842C992.724 21.043 994.126 20.3584 996.047 20.3584C997.752 20.3584 999.046 20.8009 999.928 21.6858C1000.81 22.5707 1001.25 23.8396 1001.25 25.4925V34.621Z" fill="#CACACA"/>
<path d="M1015.61 34.621L1015.08 32.8304H1014.87C1014.44 33.4815 1013.84 33.9866 1013.06 34.3455C1012.29 34.6962 1011.4 34.8715 1010.4 34.8715C1008.7 34.8715 1007.41 34.4332 1006.55 33.5567C1005.68 32.6718 1005.25 31.4029 1005.25 29.75V20.6214H1009.21V28.7983C1009.21 29.8084 1009.4 30.5681 1009.77 31.0773C1010.14 31.5782 1010.73 31.8286 1011.55 31.8286C1012.65 31.8286 1013.45 31.4738 1013.95 30.7642C1014.44 30.0463 1014.69 28.8609 1014.69 27.208V20.6214H1018.65V34.621H1015.61Z" fill="#CACACA"/>
<path d="M1026.76 34.621H1022.8V15.1368H1026.76V34.621Z" fill="#CACACA"/>
<path d="M849.444 24.3629C849.444 21.1635 850.097 17.9955 851.366 15.0396C852.635 12.0838 854.495 9.39803 856.84 7.13573C859.185 4.87343 861.969 3.07887 865.033 1.85453C868.097 0.630178 871.381 1.42076e-05 874.698 1.46271e-05C878.014 1.50467e-05 881.298 0.630179 884.362 1.85453C887.426 3.07888 890.21 4.87343 892.555 7.13573C894.9 9.39804 896.76 12.0838 898.029 15.0396C899.298 17.9955 899.951 21.1635 899.951 24.3629L887.324 24.3629C887.324 22.7632 886.998 21.1792 886.363 19.7012C885.729 18.2233 884.799 16.8805 883.626 15.7493C882.454 14.6182 881.062 13.7209 879.53 13.1087C877.998 12.4965 876.356 12.1814 874.698 12.1814C873.039 12.1814 871.397 12.4965 869.865 13.1087C868.333 13.7209 866.941 14.6182 865.769 15.7493C864.596 16.8805 863.666 18.2233 863.032 19.7012C862.397 21.1792 862.071 22.7632 862.071 24.3629L849.444 24.3629Z" fill="#CACACA"/>
<path fill-rule="evenodd" clip-rule="evenodd" d="M866.051 44.5019C864.132 43.7351 862.335 42.7183 860.711 41.483L865.934 36.4443C866.842 37.0576 867.819 37.5751 868.848 37.9864C870.703 38.7274 872.69 39.1088 874.698 39.1088C876.705 39.1088 878.692 38.7274 880.547 37.9864C881.576 37.5751 882.553 37.0576 883.461 36.4443L888.684 41.483C887.06 42.7183 885.263 43.7351 883.344 44.5019C880.603 45.5974 877.665 46.1612 874.698 46.1612C871.73 46.1612 868.792 45.5974 866.051 44.5019ZM890.576 43.3077C891.265 42.7701 891.926 42.1969 892.555 41.59L883.626 32.9765C882.454 34.1076 881.062 35.0049 879.53 35.6171C877.998 36.2292 876.356 36.5443 874.698 36.5443C873.039 36.5443 871.397 36.2292 869.865 35.6171C868.333 35.0049 866.941 34.1076 865.769 32.9765L856.84 41.59C857.469 42.1969 858.13 42.7701 858.819 43.3077C860.699 44.7741 862.791 45.9753 865.033 46.8712C868.097 48.0956 871.381 48.7257 874.698 48.7257C878.014 48.7257 881.298 48.0956 884.362 46.8712C886.604 45.9753 888.696 44.7741 890.576 43.3077Z" fill="#CACACA"/>
<path d="M1196.18 29.0867H1205.68L1202.95 41.491C1201.44 41.9902 1200.04 42.3266 1198.75 42.5003C1197.46 42.6847 1196.1 42.777 1194.66 42.777C1191.75 42.777 1189.5 41.9793 1187.91 40.384C1186.33 38.7887 1185.53 36.4989 1185.53 33.5144C1185.53 30.606 1186.13 27.9797 1187.34 25.6356C1188.54 23.2806 1190.23 21.4683 1192.42 20.1985C1194.6 18.9179 1197.12 18.2776 1199.98 18.2776C1202.43 18.2776 1204.74 18.8148 1206.9 19.8892L1204.95 23.9752C1204.12 23.5411 1203.29 23.1938 1202.46 22.9333C1201.62 22.6729 1200.72 22.5426 1199.74 22.5426C1198.02 22.5426 1196.48 22.993 1195.12 23.8938C1193.77 24.7945 1192.7 26.0805 1191.93 27.7518C1191.16 29.4122 1190.78 31.2029 1190.78 33.1238C1190.78 34.9904 1191.19 36.3632 1192 37.2423C1192.82 38.1104 1194.07 38.5445 1195.76 38.5445C1196.61 38.5445 1197.57 38.4143 1198.63 38.1539L1199.74 33.2865H1195.24L1196.18 29.0867Z" fill="#CACACA"/>
<path d="M1213.02 42.4514H1207.94L1213.51 17.1219H1218.59L1213.02 42.4514Z" fill="#CACACA"/>
<path d="M1231.16 31.1215C1231.16 28.9836 1230.36 27.9146 1228.75 27.9146C1227.9 27.9146 1227.14 28.2456 1226.47 28.9076C1225.81 29.5696 1225.26 30.5409 1224.83 31.8215C1224.42 33.1021 1224.21 34.4206 1224.21 35.7772C1224.21 37.7849 1225.05 38.7887 1226.74 38.7887C1227.58 38.7887 1228.34 38.4577 1229.02 37.7957C1229.69 37.1229 1230.22 36.195 1230.59 35.0121C1230.97 33.8183 1231.16 32.5214 1231.16 31.1215ZM1236.27 31.1215C1236.27 33.4113 1235.87 35.4408 1235.07 37.2097C1234.29 38.9786 1233.15 40.3515 1231.65 41.3282C1230.15 42.2941 1228.38 42.777 1226.32 42.777C1224.12 42.777 1222.37 42.1421 1221.05 40.8724C1219.75 39.5918 1219.1 37.8934 1219.1 35.7772C1219.1 33.4656 1219.49 31.4091 1220.29 29.6076C1221.1 27.7952 1222.27 26.3953 1223.79 25.4077C1225.3 24.4093 1227.08 23.91 1229.12 23.91C1231.32 23.91 1233.07 24.5503 1234.35 25.8309C1235.63 27.1115 1236.27 28.875 1236.27 31.1215Z" fill="#CACACA"/>
<path d="M1252.24 28.4518C1251.54 30.3835 1250.85 32.1145 1250.16 33.6447L1246.23 42.4514H1240.76L1239.9 24.2519H1244.64L1244.71 32.3098L1244.64 35.0284L1244.52 37.812H1244.59C1244.66 37.595 1244.74 37.3725 1244.83 37.1446C1244.92 36.9058 1245.2 36.1624 1245.69 34.9144C1246.17 33.6664 1246.43 33.0207 1246.46 32.9772L1250.36 24.2519H1255.9V32.9772C1255.9 34.5183 1255.84 36.1299 1255.73 37.812H1255.83L1256.3 36.5097C1257.12 34.2524 1257.66 32.8524 1257.91 32.3098L1261.6 24.2519H1266.78L1257.84 42.4514H1252.27L1252.17 33.9865C1252.17 32.3044 1252.22 30.4595 1252.34 28.4518H1252.24Z" fill="#CACACA"/>
<path d="M1289.22 18.652L1285.83 34.0516C1285.19 36.9384 1283.96 39.1143 1282.15 40.5794C1280.34 42.0445 1277.99 42.777 1275.08 42.777C1272.7 42.777 1270.82 42.1638 1269.45 40.9375C1268.09 39.7003 1267.41 38.0291 1267.41 35.9237C1267.41 35.1423 1267.49 34.3935 1267.66 33.6772L1270.97 18.652H1276.11L1272.84 33.6121C1272.65 34.4152 1272.55 35.0935 1272.55 35.6469C1272.55 37.5787 1273.62 38.5445 1275.74 38.5445C1277.12 38.5445 1278.22 38.1322 1279.03 37.3074C1279.84 36.4717 1280.43 35.2291 1280.79 33.5796L1284.06 18.652H1289.22Z" fill="#CACACA"/>
<path d="M1297.73 29.8518H1298.67C1300.27 29.8518 1301.52 29.4773 1302.44 28.7285C1303.36 27.9797 1303.82 26.9759 1303.82 25.717C1303.82 23.7635 1302.72 22.7868 1300.53 22.7868H1299.28L1297.73 29.8518ZM1309 25.5867C1309 28.2022 1308.04 30.2587 1306.13 31.7564C1304.23 33.2431 1301.6 33.9865 1298.25 33.9865H1296.8L1294.96 42.4514H1289.81L1295.03 18.652H1300.73C1303.45 18.652 1305.51 19.2327 1306.91 20.3939C1308.3 21.5442 1309 23.2752 1309 25.5867Z" fill="#CACACA"/>
<path d="M1166.64 23.13H1156.1L1159.99 15.3283C1160.36 14.4147 1159.31 13.5131 1157.87 13.5131H1144.71C1143.62 13.5131 1142.68 14.0481 1142.54 14.7633L1139.61 29.1887C1139.44 30.0542 1140.46 30.8236 1141.79 30.8236H1152.64L1148.42 42.5142C1148.09 43.4278 1149.15 44.2873 1150.55 44.2873C1151.32 44.2873 1152.05 44.0228 1152.45 43.566L1168.54 25.2939C1169.39 24.3382 1168.33 23.13 1166.64 23.13Z" fill="#CACACA"/>
</svg>
