<svg width="234" height="23" viewBox="0 0 234 23" fill="none" xmlns="http://www.w3.org/2000/svg">
<path d="M11.3126 12.8204L11.9404 8.85598H8.01531V6.28337C8.01531 5.19879 8.56361 4.14159 10.3215 4.14159H12.106V0.766343C12.106 0.766343 10.4866 0.498514 8.93842 0.498514C5.70598 0.498514 3.59311 2.39728 3.59311 5.83456V8.85598H0V12.8204H3.59311V22.404H8.01531V12.8204H11.3126Z" fill="white" fill-opacity="0.22"/>
<path d="M83.1167 6.58423C83.1308 6.7965 83.1308 7.00882 83.1308 7.22109C83.1308 13.6957 78.554 21.1559 70.1889 21.1559C67.6117 21.1559 65.2177 20.3522 63.2039 18.9573C63.57 19.0027 63.9221 19.0179 64.3023 19.0179C66.4288 19.0179 68.3863 18.2446 69.9494 16.9254C67.9497 16.8799 66.2739 15.4698 65.6965 13.5289C65.9781 13.5744 66.2598 13.6047 66.5555 13.6047C66.9639 13.6047 67.3724 13.544 67.7526 13.4379C65.6683 12.983 64.1051 11.0118 64.1051 8.63124V8.57061C64.7106 8.93453 65.4148 9.16197 66.1612 9.19226C64.936 8.31279 64.1333 6.81167 64.1333 5.1134C64.1333 4.20363 64.3586 3.36967 64.7529 2.64184C66.9921 5.61379 70.3578 7.55462 74.1319 7.76694C74.0615 7.40302 74.0193 7.02399 74.0193 6.6449C74.0193 3.94586 76.0472 1.74724 78.568 1.74724C79.8776 1.74724 81.0606 2.3386 81.8915 3.29387C82.9195 3.0816 83.9052 2.67218 84.7784 2.11116C84.4404 3.24841 83.7222 4.20368 82.7787 4.81016C83.6941 4.70407 84.5813 4.43108 85.398 4.05204C84.7785 5.02243 84.0039 5.88669 83.1167 6.58423V6.58423Z" fill="#EBE5DB"/>
<path d="M158.978 0H138.22C137.269 0 136.496 0.741223 136.496 1.65114V21.2501C136.496 22.16 137.269 22.9012 138.22 22.9012H158.978C159.93 22.9012 160.708 22.16 160.708 21.2501V1.65114C160.708 0.741223 159.93 0 158.978 0ZM143.814 19.6296H140.225V8.70042H143.819V19.6296H143.814ZM142.019 7.20775C140.868 7.20775 139.939 6.3234 139.939 5.23968C139.939 4.15596 140.868 3.2716 142.019 3.2716C143.165 3.2716 144.1 4.15596 144.1 5.23968C144.1 6.32851 143.17 7.20775 142.019 7.20775V7.20775ZM157.265 19.6296H153.677V14.3133C153.677 13.0455 153.65 11.4148 151.812 11.4148C149.942 11.4148 149.656 12.795 149.656 14.2213V19.6296H146.067V8.70042H149.51V10.1931H149.558C150.039 9.33429 151.212 8.42949 152.958 8.42949C156.59 8.42949 157.265 10.6941 157.265 13.6385V19.6296V19.6296Z" fill="white" fill-opacity="0.22"/>
<path d="M222.905 5.83497C219.756 5.83497 217.216 8.34251 217.216 11.4513C217.216 14.56 219.756 17.0676 222.905 17.0676C226.054 17.0676 228.594 14.56 228.594 11.4513C228.594 8.34251 226.054 5.83497 222.905 5.83497ZM222.905 15.1026C220.87 15.1026 219.207 13.4651 219.207 11.4513C219.207 9.43742 220.865 7.79995 222.905 7.79995C224.945 7.79995 226.604 9.43742 226.604 11.4513C226.604 13.4651 224.94 15.1026 222.905 15.1026V15.1026ZM230.154 5.60524C230.154 6.33355 229.56 6.91522 228.827 6.91522C228.089 6.91522 227.5 6.32866 227.5 5.60524C227.5 4.88182 228.094 4.29526 228.827 4.29526C229.56 4.29526 230.154 4.88182 230.154 5.60524ZM233.922 6.93477C233.838 5.17998 233.432 3.6256 232.13 2.34495C230.832 1.0643 229.258 0.663483 227.48 0.5755C225.648 0.472852 220.157 0.472852 218.325 0.5755C216.553 0.658595 214.978 1.05941 213.676 2.34006C212.374 3.62072 211.973 5.1751 211.884 6.92988C211.78 8.73844 211.78 14.1592 211.884 15.9678C211.968 17.7226 212.374 19.2769 213.676 20.5576C214.978 21.8382 216.548 22.2391 218.325 22.327C220.157 22.4297 225.648 22.4297 227.48 22.327C229.258 22.244 230.832 21.8431 232.13 20.5576C233.427 19.2769 233.833 17.7226 233.922 15.9678C234.026 14.1592 234.026 8.74333 233.922 6.93477V6.93477ZM231.555 17.9083C231.169 18.8664 230.421 19.6044 229.446 19.9906C227.985 20.5625 224.519 20.4305 222.905 20.4305C221.291 20.4305 217.82 20.5576 216.365 19.9906C215.394 19.6093 214.647 18.8712 214.255 17.9083C213.676 16.4663 213.81 13.0448 213.81 11.4513C213.81 9.85779 213.681 6.43131 214.255 4.99424C214.642 4.0362 215.389 3.29811 216.365 2.91196C217.825 2.34006 221.291 2.47204 222.905 2.47204C224.519 2.47204 227.99 2.34495 229.446 2.91196C230.417 3.29322 231.164 4.03131 231.555 4.99424C232.135 6.4362 232.001 9.85779 232.001 11.4513C232.001 13.0448 232.135 16.4712 231.555 17.9083Z" fill="white" fill-opacity="0.22"/>
</svg>
