<svg width="80" height="80" viewBox="0 0 80 80" fill="none" xmlns="http://www.w3.org/2000/svg">
<g clip-path="url(#clip0_44_678)">
<path d="M40 14.8814C41.2944 14.8814 42.3438 13.832 42.3438 12.5377V4.79688C42.3438 3.5025 41.2944 2.45312 40 2.45312C38.7056 2.45312 37.6562 3.5025 37.6562 4.79688V12.5377C37.6562 13.832 38.7056 14.8814 40 14.8814Z" fill="#2B6956"/>
<path d="M50.9376 18.8593C51.5374 18.8593 52.1373 18.6304 52.5948 18.1728L58.8448 11.9228C59.7601 11.0076 59.7601 9.52355 58.8448 8.60824C57.9296 7.69309 56.4455 7.69309 55.5302 8.60824L49.2802 14.8582C48.3649 15.7734 48.3649 17.2575 49.2802 18.1728C49.7379 18.6304 50.3377 18.8593 50.9376 18.8593V18.8593Z" fill="#2B6956"/>
<path d="M27.4054 18.173C27.863 18.6307 28.4629 18.8596 29.0626 18.8596C29.6623 18.8596 30.2623 18.6307 30.7198 18.173C31.6351 17.2579 31.6351 15.7738 30.7198 14.8585L24.4698 8.60849C23.5546 7.69333 22.0705 7.69333 21.1552 8.60849C20.2399 9.52364 20.2399 11.0077 21.1552 11.923L27.4054 18.173Z" fill="#2B6956"/>
<path d="M61.0516 35.5791L51.9534 26.4808C50.1952 24.7225 47.8106 23.7349 45.3241 23.7349H31.093C27.5453 23.7349 24.2102 25.1164 21.7017 27.6249L20.9527 28.3738L20.9042 28.4222H2.34375C1.04937 28.4222 0 29.4716 0 30.766V55.766C0 57.0603 1.04937 58.1097 2.34375 58.1097H14.0292L19.5928 63.6731C20.0323 64.1127 20.6284 64.3597 21.25 64.3597H23.3722C22.5867 63.1439 22.0811 61.7858 21.8831 60.3641C20.1309 59.7941 18.5542 58.7417 17.3398 57.2944C13.8095 53.0867 14.3603 46.7916 18.5677 43.2611L27.4758 35.7864H45.2623C45.8839 35.7864 46.4802 36.0333 46.9197 36.473L53.4636 43.0169C55.5655 45.1188 59.0502 45.1636 61.1159 43.0263C63.1227 40.9502 63.1011 37.6286 61.0516 35.5791V35.5791Z" fill="#2B6956"/>
<path d="M80 35.6099C80 34.3152 78.9507 33.266 77.6563 33.2661H65.2397C68.2364 37.1835 67.9471 42.8255 64.3663 46.4066C62.4789 48.2938 59.9677 49.333 57.2952 49.333C54.6225 49.333 52.1113 48.2938 50.2242 46.4066L44.2919 40.4741H28.7433L26.9022 42.0189L20.9561 47.0083C18.725 48.8803 18.4341 52.2066 20.3061 54.4377C22.1782 56.6688 25.5044 56.9597 27.7355 55.0877C25.5044 56.9597 25.2135 60.286 27.0855 62.5171C28.9575 64.7481 32.2838 65.0391 34.5149 63.1671C32.2838 65.0391 31.9928 68.3653 33.8649 70.5964C35.7369 72.8275 39.0632 73.1185 41.2942 71.2464L45.445 67.7635L44.8852 68.2333C42.6541 70.1053 42.3632 73.4316 44.2352 75.6627C46.1072 77.8938 49.4335 78.1847 51.6646 76.3127L67.5855 62.9533H77.6566C78.951 62.9533 80.0003 61.9039 80.0002 60.6096L80 35.6099Z" fill="#2B6956"/>
</g>
<defs>
<clipPath id="clip0_44_678">
<rect width="80" height="80" fill="white"/>
</clipPath>
</defs>
</svg>
