<svg width="32" height="23" viewBox="0 0 32 23" fill="none" xmlns="http://www.w3.org/2000/svg">
<path d="M31.2768 3.5987C30.9094 2.18217 29.827 1.06656 28.4526 0.68796C25.9614 0 15.9721 0 15.9721 0C15.9721 0 5.98294 0 3.49172 0.68796C2.11734 1.06662 1.03489 2.18217 0.667507 3.5987C0 6.16625 0 11.5232 0 11.5232C0 11.5232 0 16.8801 0.667507 19.4477C1.03489 20.8642 2.11734 21.9333 3.49172 22.3119C5.98294 22.9999 15.9721 22.9999 15.9721 22.9999C15.9721 22.9999 25.9614 22.9999 28.4526 22.3119C29.827 21.9333 30.9094 20.8642 31.2768 19.4477C31.9443 16.8801 31.9443 11.5232 31.9443 11.5232C31.9443 11.5232 31.9443 6.16625 31.2768 3.5987V3.5987ZM12.7051 16.3869V6.65949L21.0541 11.5233L12.7051 16.3869V16.3869Z" fill="#667966"/>
</svg>
