<svg width="75" height="57" viewBox="0 0 75 57" fill="none" xmlns="http://www.w3.org/2000/svg">
<ellipse cx="2.44444" cy="54.5351" rx="2.42285" ry="2.44444" transform="rotate(-90 2.44444 54.5351)" fill="#EBE5DB"/>
<ellipse cx="2.44444" cy="37.1643" rx="2.42285" ry="2.44444" transform="rotate(-90 2.44444 37.1643)" fill="#EBE5DB"/>
<ellipse cx="2.44444" cy="19.7936" rx="2.42285" ry="2.44444" transform="rotate(-90 2.44444 19.7936)" fill="#EBE5DB"/>
<ellipse cx="2.44444" cy="2.42279" rx="2.42285" ry="2.44444" transform="rotate(-90 2.44444 2.42279)" fill="#EBE5DB"/>
<ellipse cx="19.9722" cy="54.5351" rx="2.42285" ry="2.44444" transform="rotate(-90 19.9722 54.5351)" fill="#EBE5DB"/>
<ellipse cx="19.9722" cy="37.1643" rx="2.42285" ry="2.44444" transform="rotate(-90 19.9722 37.1643)" fill="#EBE5DB"/>
<ellipse cx="19.9722" cy="19.7936" rx="2.42285" ry="2.44444" transform="rotate(-90 19.9722 19.7936)" fill="#EBE5DB"/>
<ellipse cx="19.9722" cy="2.42279" rx="2.42285" ry="2.44444" transform="rotate(-90 19.9722 2.42279)" fill="#EBE5DB"/>
<ellipse cx="37.5" cy="54.5351" rx="2.42285" ry="2.44444" transform="rotate(-90 37.5 54.5351)" fill="#EBE5DB"/>
<ellipse cx="37.5" cy="37.1643" rx="2.42285" ry="2.44444" transform="rotate(-90 37.5 37.1643)" fill="#EBE5DB"/>
<ellipse cx="37.5" cy="19.7936" rx="2.42285" ry="2.44444" transform="rotate(-90 37.5 19.7936)" fill="#EBE5DB"/>
<ellipse cx="37.5" cy="2.42279" rx="2.42285" ry="2.44444" transform="rotate(-90 37.5 2.42279)" fill="#EBE5DB"/>
<ellipse cx="55.0278" cy="54.5351" rx="2.42285" ry="2.44444" transform="rotate(-90 55.0278 54.5351)" fill="#EBE5DB"/>
<ellipse cx="55.0278" cy="37.1643" rx="2.42285" ry="2.44444" transform="rotate(-90 55.0278 37.1643)" fill="#EBE5DB"/>
<ellipse cx="55.0278" cy="19.7936" rx="2.42285" ry="2.44444" transform="rotate(-90 55.0278 19.7936)" fill="#EBE5DB"/>
<ellipse cx="55.0278" cy="2.42279" rx="2.42285" ry="2.44444" transform="rotate(-90 55.0278 2.42279)" fill="#EBE5DB"/>
<ellipse cx="72.5555" cy="54.5351" rx="2.42285" ry="2.44444" transform="rotate(-90 72.5555 54.5351)" fill="#EBE5DB"/>
<ellipse cx="72.5555" cy="37.1643" rx="2.42285" ry="2.44444" transform="rotate(-90 72.5555 37.1643)" fill="#EBE5DB"/>
<ellipse cx="72.5555" cy="19.7936" rx="2.42285" ry="2.44444" transform="rotate(-90 72.5555 19.7936)" fill="#EBE5DB"/>
<ellipse cx="72.5555" cy="2.42279" rx="2.42285" ry="2.44444" transform="rotate(-90 72.5555 2.42279)" fill="#EBE5DB"/>
</svg>
