<svg width="119" height="119" viewBox="0 0 119 119" fill="none" xmlns="http://www.w3.org/2000/svg">
<rect x="7" y="7" width="105" height="104.185" rx="52.0926" fill="#D1E6DF" stroke="white" stroke-width="14"/>
<path d="M76.3685 45.2553L60.8685 39.0607C60.3963 38.8728 59.8902 38.7761 59.379 38.7761C58.8679 38.7761 58.3617 38.8728 57.8896 39.0607L42.3896 45.2553C40.9445 45.8283 40 47.1834 40 48.6856C40 64.0561 49.2435 74.6799 57.8815 78.1334C58.8341 78.5128 59.9078 78.5128 60.8604 78.1334C67.7789 75.369 78.75 65.8215 78.75 48.6856C78.75 47.1834 77.8055 45.8283 76.3685 45.2553ZM59.3831 73.3325L59.375 43.8306L73.5753 49.5064C73.3089 61.2298 66.9474 69.7242 59.3831 73.3325V73.3325Z" fill="#2B6956"/>
</svg>
