<svg width="1348" height="845" viewBox="0 0 1348 845" fill="none" xmlns="http://www.w3.org/2000/svg">
<mask id="mask0_36_114" style="mask-type:alpha" maskUnits="userSpaceOnUse" x="0" y="0" width="1348" height="845">
<path d="M0 20C0 8.95432 8.95431 0 20 0H1328C1339.05 0 1348 8.95431 1348 20V824.371C1348 835.416 1339.05 844.371 1328 844.371H20C8.9543 844.371 0 835.416 0 824.371V20Z" fill="#EBE5DB"/>
</mask>
<g mask="url(#mask0_36_114)">
<path d="M-231.824 82.8281C-422.624 241.646 -272.987 407.099 -174.319 469.974C13.5044 582.808 -1.82522 436.837 192.801 462.229C387.428 487.621 249.648 365.947 279.404 255.26C309.16 144.573 496.512 318.494 546.263 113.654C596.013 -91.1867 265.468 -297.228 260.091 -0.0742613C254.713 297.08 6.67653 -115.695 -231.824 82.8281Z" stroke="#EEEEEE" stroke-width="2"/>
<path d="M-152.135 101.383C-299.039 223.78 -183.974 351.118 -108.078 399.488C36.3996 486.287 24.6763 373.885 174.433 393.343C324.19 412.801 218.226 319.17 241.18 233.918C264.133 148.666 408.217 282.506 446.604 124.738C484.991 -33.0296 230.732 -191.535 226.445 37.2997C222.158 266.134 31.4956 -51.6123 -152.135 101.383Z" stroke="#EEEEEE" stroke-width="2"/>
<path d="M-305.726 65.845C-537.43 258.827 -355.86 459.701 -236.111 536.014C-8.15674 672.962 -26.6932 495.685 209.564 526.428C445.821 557.171 278.623 409.462 314.801 275.016C350.979 140.57 578.331 351.708 638.829 102.9C699.327 -145.908 298.16 -395.987 291.483 -35.0842C284.806 325.819 -16.0955 -175.383 -305.726 65.845Z" stroke="#EEEEEE" stroke-width="2"/>
<path d="M-367.662 51.3398C-633.41 272.485 -424.923 502.955 -287.46 590.546C-25.7909 747.741 -47.1819 544.438 223.943 579.851C495.067 615.263 303.107 445.768 344.53 291.618C385.953 137.468 646.981 379.74 716.233 94.4631C785.485 -190.814 324.978 -477.857 317.562 -64.0004C310.145 349.856 -35.4773 -225.092 -367.662 51.3398Z" stroke="#EEEEEE" stroke-width="2"/>
<path d="M-456.423 31.0927C-771.432 293.532 -524.675 566.593 -361.92 670.318C-52.0955 856.453 -77.2454 615.431 243.893 657.168C565.031 698.906 337.796 498.124 387.009 315.321C436.222 132.518 745.207 419.523 827.508 81.2276C909.809 -257.068 364.566 -596.973 355.394 -106.286C346.223 384.401 -62.6623 -296.957 -456.423 31.0927Z" stroke="#EEEEEE" stroke-width="2"/>
<path d="M-560.044 7.58141C-932.67 318.446 -641.307 641.268 -449.047 763.821C-83.044 983.723 -112.505 698.569 267.03 747.605C646.566 796.641 378.198 559.32 436.569 342.971C494.94 126.622 859.84 465.876 957.492 65.5102C1055.14 -334.856 411.049 -736.446 399.666 -155.847C388.284 424.751 -94.2608 -380.999 -560.044 7.58141Z" stroke="#EEEEEE" stroke-width="2"/>
<path d="M989.748 1015.64C875.339 1235.01 1077.71 1330.63 1193.2 1351.02C1410.37 1383.51 1339.53 1254.63 1529.02 1203.82C1718.51 1153.01 1544.09 1093.27 1528.56 979.76C1513.03 866.25 1753.5 955.296 1719.85 747.261C1686.2 539.226 1301.1 475.162 1411.56 751.469C1522.01 1027.78 1132.76 741.434 989.748 1015.64Z" stroke="#EEEEEE" stroke-width="2"/>
<path d="M1070.5 1002.37C982.46 1171.38 1138.12 1245.01 1226.95 1260.69C1394.01 1285.69 1339.53 1186.42 1485.31 1147.25C1631.08 1108.07 1496.92 1062.08 1484.99 974.644C1473.06 887.204 1658.03 955.764 1632.18 795.509C1606.32 635.255 1310.09 585.961 1395.02 798.798C1479.95 1011.63 1180.56 791.109 1070.5 1002.37Z" stroke="#EEEEEE" stroke-width="2"/>
<path d="M914.944 1028.16C776.052 1294.67 1021.65 1410.79 1161.82 1435.54C1425.4 1474.98 1339.43 1318.43 1569.43 1256.67C1799.42 1194.92 1587.73 1122.38 1568.9 984.489C1550.07 846.601 1841.91 954.737 1801.11 702.022C1760.3 449.307 1292.91 371.541 1426.93 707.181C1560.95 1042.82 1088.56 695.032 914.944 1028.16Z" stroke="#EEEEEE" stroke-width="2"/>
<path d="M852.147 1038.4C692.773 1343.89 974.714 1477.06 1135.61 1505.46C1438.17 1550.72 1339.46 1371.24 1603.45 1300.5C1867.43 1229.75 1624.43 1146.54 1602.79 988.47C1581.14 830.396 1916.16 954.418 1869.27 664.706C1822.38 374.993 1285.86 285.749 1439.77 670.543C1593.67 1055.34 1051.36 656.548 852.147 1038.4Z" stroke="#EEEEEE" stroke-width="2"/>
<path d="M762.361 1053.58C573.562 1415.97 907.367 1573.85 1097.87 1607.49C1456.12 1661.09 1339.29 1448.24 1651.89 1364.25C1964.49 1280.25 1676.78 1181.63 1651.2 994.142C1625.62 806.651 2022.27 953.665 1966.83 610.04C1911.39 266.416 1276.13 160.71 1458.26 617.084C1640.39 1073.46 998.359 600.592 762.361 1053.58Z" stroke="#EEEEEE" stroke-width="2"/>
<path d="M657.593 1071.41C434.427 1500.47 828.728 1687.27 1053.77 1727.03C1476.99 1790.36 1339.04 1538.42 1708.37 1438.89C2077.71 1339.35 1737.84 1222.7 1707.68 1000.75C1677.52 778.808 2146.07 952.713 2080.69 545.945C2015.31 139.177 1264.86 14.2509 1479.87 554.452C1694.88 1094.65 936.552 535.08 657.593 1071.41Z" stroke="#EEEEEE" stroke-width="2"/>
</g>
</svg>
