<svg width="28" height="28" viewBox="0 0 28 28" fill="none" xmlns="http://www.w3.org/2000/svg">
<g clip-path="url(#clip0_44_899)">
<path d="M14 7.83985C10.5985 7.83985 7.65344 10.2023 6.91556 13.5228L4.49909 24.3969C4.48137 24.4767 4.47242 24.5581 4.47242 24.6398C4.47242 25.2584 4.97386 25.7598 5.59242 25.7598H22.4076C22.4893 25.7598 22.5708 25.7509 22.6505 25.7332C23.2544 25.599 23.6351 25.0007 23.5009 24.3969L21.0844 13.5228C20.3466 10.2023 17.4015 7.83985 14 7.83985ZM14 5.59985C18.4514 5.59985 22.3055 8.69151 23.2711 13.0369L25.6876 23.911C26.0901 25.7225 24.948 27.5173 23.1365 27.9198C22.8972 27.973 22.6527 27.9998 22.4076 27.9998H5.59242C3.73675 27.9998 2.23242 26.4955 2.23242 24.6398C2.23242 24.3947 2.25925 24.1503 2.31243 23.911L4.7289 13.0369C5.69453 8.69151 9.54865 5.59985 14 5.59985Z" fill="#2B6956"/>
<path d="M16.2401 12.3198C16.8586 12.3198 17.3601 12.8213 17.3601 13.4398C17.3601 14.0584 16.8586 14.5598 16.2401 14.5598H13.4401C13.1308 14.5598 12.8801 14.8106 12.8801 15.1198C12.8801 15.4291 13.1308 15.6798 13.4401 15.6798H14.5601C16.1065 15.6798 17.3601 16.9334 17.3601 18.4798C17.3601 20.0262 16.1065 21.2798 14.5601 21.2798H11.7601C11.1415 21.2798 10.6401 20.7784 10.6401 20.1598C10.6401 19.5413 11.1415 19.0398 11.7601 19.0398H14.5601C14.8694 19.0398 15.1201 18.7891 15.1201 18.4798C15.1201 18.1706 14.8694 17.9198 14.5601 17.9198H13.4401C11.8937 17.9198 10.6401 16.6662 10.6401 15.1198C10.6401 13.5734 11.8937 12.3198 13.4401 12.3198H16.2401Z" fill="#2B6956"/>
<path d="M12.8801 11.1999C12.8801 10.5813 13.3816 10.0799 14.0001 10.0799C14.6187 10.0799 15.1201 10.5813 15.1201 11.1999V13.4399C15.1201 14.0584 14.6187 14.5599 14.0001 14.5599C13.3816 14.5599 12.8801 14.0584 12.8801 13.4399V11.1999Z" fill="#2B6956"/>
<path d="M15.1201 22.3999C15.1201 23.0184 14.6187 23.5199 14.0001 23.5199C13.3816 23.5199 12.8801 23.0184 12.8801 22.3999V20.1599C12.8801 19.5413 13.3816 19.0399 14.0001 19.0399C14.6187 19.0399 15.1201 19.5413 15.1201 20.1599V22.3999Z" fill="#2B6956"/>
<path d="M12.7999 6.30392C13.0297 6.87824 12.7503 7.53004 12.176 7.75977C11.6017 7.9895 10.9499 7.71015 10.7201 7.13583L8.48015 1.53583C8.11615 0.625828 9.01396 -0.279727 9.92706 0.0764517C10.7658 0.403606 11.3908 0.559878 11.76 0.559878C11.852 0.559878 11.9281 0.540236 12.0945 0.469561C12.1386 0.450797 12.1905 0.42789 12.3121 0.374064C12.8914 0.120198 13.349 -0.000122446 14 -0.000122446C14.6496 -0.000122446 15.1144 0.120518 15.6956 0.371934C15.8431 0.436508 15.902 0.462191 15.9541 0.483664C16.0977 0.542794 16.1668 0.559878 16.24 0.559878C16.5877 0.559878 17.2184 0.4022 18.0811 0.0733324C18.9931 -0.274297 19.8824 0.629663 19.5199 1.53583L17.2799 7.13583C17.0502 7.71015 16.3984 7.9895 15.8241 7.75977C15.2498 7.53004 14.9704 6.87824 15.2002 6.30392L16.6095 2.78061C16.4807 2.79343 16.3576 2.79988 16.24 2.79988C15.8313 2.79988 15.4925 2.71608 15.1012 2.55494C15.0239 2.52312 14.9393 2.48618 14.8063 2.42782C14.482 2.28755 14.2983 2.23988 14 2.23988C13.7046 2.23988 13.5312 2.28549 13.2113 2.42569C13.1014 2.47437 13.0317 2.50512 12.9705 2.53114C12.551 2.7094 12.2001 2.79988 11.76 2.79988C11.6418 2.79988 11.5188 2.79374 11.391 2.78153L12.7999 6.30392Z" fill="#2B6956"/>
</g>
<defs>
<clipPath id="clip0_44_899">
<rect width="28" height="28" fill="white"/>
</clipPath>
</defs>
</svg>
