<svg width="81" height="81" viewBox="0 0 81 81" fill="none" xmlns="http://www.w3.org/2000/svg">
<rect width="81" height="80.2747" rx="40.1373" fill="#E2F1ED"/>
<path d="M53.9333 39.3775H51.4V33.1009C51.4 32.1021 50.9996 31.1442 50.287 30.438C49.5744 29.7317 48.6078 29.335 47.6 29.335H41.2667V26.8243C41.2667 25.4926 40.7329 24.2154 39.7827 23.2737C38.8325 22.332 37.5438 21.803 36.2 21.803C34.8562 21.803 33.5675 22.332 32.6173 23.2737C31.6671 24.2154 31.1333 25.4926 31.1333 26.8243V29.335H24.8C23.7922 29.335 22.8256 29.7317 22.113 30.438C21.4004 31.1442 21 32.1021 21 33.1009V40.6329C21 40.9658 21.1335 41.2851 21.371 41.5205C21.6085 41.7559 21.9307 41.8882 22.2667 41.8882H26.0667C26.7385 41.8882 27.3829 42.1527 27.858 42.6235C28.3331 43.0944 28.6 43.733 28.6 44.3988C28.6 45.0647 28.3331 45.7033 27.858 46.1741C27.3829 46.645 26.7385 46.9095 26.0667 46.9095H22.2667C21.9307 46.9095 21.6085 47.0417 21.371 47.2772C21.1335 47.5126 21 47.8319 21 48.1648V55.6968C21 56.6956 21.4004 57.6535 22.113 58.3597C22.8256 59.066 23.7922 59.4627 24.8 59.4627H32.4C32.7359 59.4627 33.0581 59.3305 33.2957 59.0951C33.5332 58.8596 33.6667 58.5403 33.6667 58.2074V54.4414C33.6667 53.7756 33.9336 53.137 34.4087 52.6661C34.8838 52.1953 35.5281 51.9308 36.2 51.9308C36.8719 51.9308 37.5162 52.1953 37.9913 52.6661C38.4664 53.137 38.7333 53.7756 38.7333 54.4414V58.2074C38.7333 58.5403 38.8668 58.8596 39.1043 59.0951C39.3419 59.3305 39.6641 59.4627 40 59.4627H47.6C48.6078 59.4627 49.5744 59.066 50.287 58.3597C50.9996 57.6535 51.4 56.6956 51.4 55.6968V49.4201H53.9333C55.2771 49.4201 56.5658 48.8911 57.516 47.9494C58.4662 47.0078 59 45.7306 59 44.3988C59 43.0671 58.4662 41.7899 57.516 40.8483C56.5658 39.9066 55.2771 39.3775 53.9333 39.3775V39.3775Z" fill="#2B6956"/>
</svg>
