<svg width="24" height="24" viewBox="0 0 24 24" fill="none" xmlns="http://www.w3.org/2000/svg">
<path d="M12 10.8698L21.46 5.31982C21.1877 4.91687 20.8215 4.58618 20.3929 4.35623C19.9644 4.12628 19.4863 4.00396 19 3.99982H5.00002C4.5112 3.9996 4.02973 4.11884 3.5975 4.34715C3.16528 4.57547 2.79539 4.90594 2.52002 5.30982L12 10.8698Z" fill="#5A524C"/>
<path d="M13 12.5898C12.6962 12.766 12.3513 12.8591 12 12.8598C11.6496 12.8622 11.3048 12.7725 11 12.5998L2 7.32977V16.9998C2 17.7954 2.31607 18.5585 2.87868 19.1211C3.44129 19.6837 4.20435 19.9998 5 19.9998H19C19.7956 19.9998 20.5587 19.6837 21.1213 19.1211C21.6839 18.5585 22 17.7954 22 16.9998V7.32977L13 12.5898Z" fill="#5A524C"/>
</svg>
