<svg width="1126" height="163" viewBox="0 0 1126 163" fill="none" xmlns="http://www.w3.org/2000/svg">
<g filter="url(#filter0_d_36_293)">
<rect x="1012" y="26" width="65" height="64.418" rx="32.209" fill="#EBE5DB"/>
</g>
<g clip-path="url(#clip0_36_293)">
<path d="M1047.4 49.1906L1045.72 50.8555L1052.44 57.5153H1033V59.8938H1052.44L1045.72 66.5537L1047.4 68.2186L1057 58.7046L1047.4 49.1906Z" fill="#2B6956"/>
</g>
<g filter="url(#filter1_d_36_293)">
<rect x="-0.5" y="0.5" width="64" height="63.418" rx="31.709" transform="matrix(-1 0 0 1 113 26)" stroke="#EBE5DB"/>
</g>
<g clip-path="url(#clip1_36_293)">
<path d="M78.6 49.1906L80.28 50.8555L73.56 57.5153H93V59.8938H73.56L80.28 66.5537L78.6 68.2186L69 58.7046L78.6 49.1906Z" fill="#2B6956"/>
</g>
<defs>
<filter id="filter0_d_36_293" x="963" y="0" width="163" height="162.418" filterUnits="userSpaceOnUse" color-interpolation-filters="sRGB">
<feFlood flood-opacity="0" result="BackgroundImageFix"/>
<feColorMatrix in="SourceAlpha" type="matrix" values="0 0 0 0 0 0 0 0 0 0 0 0 0 0 0 0 0 0 127 0" result="hardAlpha"/>
<feOffset dy="23"/>
<feGaussianBlur stdDeviation="24.5"/>
<feColorMatrix type="matrix" values="0 0 0 0 0 0 0 0 0 0 0 0 0 0 0 0 0 0 0.04 0"/>
<feBlend mode="normal" in2="BackgroundImageFix" result="effect1_dropShadow_36_293"/>
<feBlend mode="normal" in="SourceGraphic" in2="effect1_dropShadow_36_293" result="shape"/>
</filter>
<filter id="filter1_d_36_293" x="0" y="0" width="163" height="162.418" filterUnits="userSpaceOnUse" color-interpolation-filters="sRGB">
<feFlood flood-opacity="0" result="BackgroundImageFix"/>
<feColorMatrix in="SourceAlpha" type="matrix" values="0 0 0 0 0 0 0 0 0 0 0 0 0 0 0 0 0 0 127 0" result="hardAlpha"/>
<feOffset dy="23"/>
<feGaussianBlur stdDeviation="24.5"/>
<feColorMatrix type="matrix" values="0 0 0 0 0 0 0 0 0 0 0 0 0 0 0 0 0 0 0.04 0"/>
<feBlend mode="normal" in2="BackgroundImageFix" result="effect1_dropShadow_36_293"/>
<feBlend mode="normal" in="SourceGraphic" in2="effect1_dropShadow_36_293" result="shape"/>
</filter>
<clipPath id="clip0_36_293">
<rect width="24" height="23.7851" fill="white" transform="translate(1033 46.812)"/>
</clipPath>
<clipPath id="clip1_36_293">
<rect width="24" height="23.7851" fill="white" transform="matrix(-1 0 0 1 93 46.812)"/>
</clipPath>
</defs>
</svg>
