<svg width="60" height="60" viewBox="0 0 60 60" fill="none" xmlns="http://www.w3.org/2000/svg">
<rect width="60" height="60" rx="30" fill="white"/>
<path d="M38.25 23.25V39.75C38.2503 39.8877 38.2126 40.0229 38.1412 40.1406C38.0698 40.2583 37.9673 40.3541 37.845 40.4175C37.7383 40.4722 37.6199 40.5005 37.5 40.5C37.3471 40.4996 37.1979 40.4525 37.0725 40.365L30 35.415L22.9275 40.365C22.8182 40.439 22.6912 40.4828 22.5596 40.492C22.4279 40.5012 22.2961 40.4755 22.1775 40.4175C22.051 40.3573 21.9439 40.2628 21.8684 40.1448C21.7928 40.0269 21.7518 39.8901 21.75 39.75V23.25C21.75 22.2554 22.1451 21.3016 22.8483 20.5983C23.5516 19.8951 24.5054 19.5 25.5 19.5H34.5C35.4946 19.5 36.4484 19.8951 37.1517 20.5983C37.8549 21.3016 38.25 22.2554 38.25 23.25V23.25Z" fill="#2B6956"/>
</svg>
