<svg width="60" height="58" viewBox="0 0 60 58" fill="none" xmlns="http://www.w3.org/2000/svg">
<rect width="60" height="57.883" rx="28.9415" fill="white" fill-opacity="0.26"/>
<path d="M38.25 22.4297V38.3475C38.2503 38.4804 38.2126 38.6108 38.1412 38.7244C38.0698 38.8379 37.9673 38.9304 37.845 38.9915C37.7383 39.0442 37.6199 39.0715 37.5 39.0711C37.3471 39.0707 37.1979 39.0253 37.0725 38.9408L30 34.1655L22.9275 38.9408C22.8182 39.0122 22.6912 39.0545 22.5596 39.0634C22.4279 39.0723 22.2961 39.0475 22.1775 38.9915C22.051 38.9334 21.9439 38.8423 21.8684 38.7284C21.7928 38.6146 21.7518 38.4827 21.75 38.3475V22.4297C21.75 21.4702 22.1451 20.5501 22.8483 19.8716C23.5516 19.1932 24.5054 18.812 25.5 18.812H34.5C35.4946 18.812 36.4484 19.1932 37.1517 19.8716C37.8549 20.5501 38.25 21.4702 38.25 22.4297V22.4297Z" fill="#EBE5DB"/>
</svg>
