<svg width="24" height="24" viewBox="0 0 24 24" fill="none" xmlns="http://www.w3.org/2000/svg">
<path d="M21.5994 6.04675C20.8854 6.35995 20.1246 6.56755 19.3314 6.66835C20.1474 6.18115 20.7702 5.41555 21.063 4.49275C20.3022 4.94635 19.4622 5.26675 18.567 5.44555C17.8446 4.67635 16.815 4.19995 15.6918 4.19995C13.5126 4.19995 11.7582 5.96875 11.7582 8.13715C11.7582 8.44915 11.7846 8.74915 11.8494 9.03475C8.57701 8.87515 5.68141 7.30675 3.73621 4.91755C2.34517 7.42387 3.89941 9.47875 4.94581 10.1784C4.31341 10.1664 3.69301 9.98275 3.16741 9.69355C3.16741 11.6474 4.53181 13.2384 6.32101 13.6044C5.92981 13.7342 5.07517 13.8048 4.54381 13.6668C5.05381 15.2256 6.50101 16.3716 8.22181 16.4088C6.88261 17.4564 4.90909 18.3103 2.39941 18.0335C4.14301 19.1579 6.20941 19.7999 8.43781 19.7999C15.681 19.7999 19.641 13.8 19.641 8.59915C19.641 8.42515 19.635 8.25715 19.6266 8.09035C20.4078 7.53595 21.0642 6.84355 21.5994 6.04675V6.04675Z" fill="#1DA1F3"/>
</svg>
