<svg width="24" height="24" viewBox="0 0 24 24" fill="none" xmlns="http://www.w3.org/2000/svg">
<path d="M19 4.82359H18V2.89416C18 2.6383 17.8946 2.39292 17.7071 2.212C17.5196 2.03108 17.2652 1.92944 17 1.92944C16.7348 1.92944 16.4804 2.03108 16.2929 2.212C16.1054 2.39292 16 2.6383 16 2.89416V4.82359H8V2.89416C8 2.6383 7.89464 2.39292 7.70711 2.212C7.51957 2.03108 7.26522 1.92944 7 1.92944C6.73478 1.92944 6.48043 2.03108 6.29289 2.212C6.10536 2.39292 6 2.6383 6 2.89416V4.82359H5C4.20435 4.82359 3.44129 5.12851 2.87868 5.67127C2.31607 6.21403 2 6.95017 2 7.71775V8.68246H22V7.71775C22 6.95017 21.6839 6.21403 21.1213 5.67127C20.5587 5.12851 19.7957 4.82359 19 4.82359Z" fill="#2B6956"/>
<path d="M2 18.3295C2 19.0971 2.31607 19.8333 2.87868 20.376C3.44129 20.9188 4.20435 21.2237 5 21.2237H19C19.7957 21.2237 20.5587 20.9188 21.1213 20.376C21.6839 19.8333 22 19.0971 22 18.3295V10.6118H2V18.3295Z" fill="#2B6956"/>
</svg>
