<svg width="24" height="24" viewBox="0 0 24 24" fill="none" xmlns="http://www.w3.org/2000/svg">
<path d="M18.7848 6.36254C18.216 5.24126 17.3746 4.28094 16.3377 3.56987C15.3009 2.85879 14.1019 2.41978 12.8511 2.29319C12.2852 2.23642 11.7151 2.23642 11.1492 2.29319C9.89839 2.41986 8.69944 2.85886 7.66255 3.56985C6.62566 4.28085 5.78409 5.24102 5.21515 6.36217C4.49934 7.79268 4.22286 9.40302 4.42052 10.9904C4.61817 12.5777 5.28114 14.0711 6.3259 15.2824L11.4206 21.4765C11.4909 21.5621 11.5794 21.631 11.6796 21.6783C11.7797 21.7257 11.8892 21.7502 12 21.7502C12.1107 21.7502 12.2202 21.7257 12.3203 21.6783C12.4205 21.631 12.509 21.5621 12.5793 21.4765L17.674 15.2824C18.7188 14.0711 19.3817 12.5779 19.5794 10.9906C19.777 9.40328 19.5005 7.79299 18.7848 6.36254ZM12 12.75C11.4066 12.75 10.8266 12.574 10.3332 12.2444C9.83989 11.9148 9.45538 11.4462 9.22831 10.898C9.00125 10.3499 8.94184 9.74666 9.0576 9.16472C9.17335 8.58278 9.45907 8.04823 9.87863 7.62867C10.2982 7.20911 10.8327 6.92339 11.4147 6.80764C11.9966 6.69188 12.5998 6.75129 13.148 6.97835C13.6962 7.20542 14.1647 7.58993 14.4944 8.08328C14.824 8.57663 15 9.15665 15 9.74999C14.999 10.5454 14.6826 11.3079 14.1202 11.8703C13.5578 12.4327 12.7953 12.7491 12 12.75V12.75Z" fill="#5A524C"/>
</svg>
