<svg width="60" height="60" viewBox="0 0 60 60" fill="none" xmlns="http://www.w3.org/2000/svg">
<rect width="60" height="59.2195" rx="29.6097" fill="white" fill-opacity="0.26"/>
<path d="M38.2499 22.9476V39.2329C38.2502 39.3688 38.2126 39.5022 38.1411 39.6184C38.0697 39.7346 37.9672 39.8292 37.8449 39.8917C37.7382 39.9457 37.6199 39.9736 37.4999 39.9731C37.347 39.9728 37.1978 39.9263 37.0724 39.8399L29.9999 34.9543L22.9274 39.8399C22.8181 39.9129 22.6912 39.9562 22.5595 39.9653C22.4278 39.9744 22.296 39.949 22.1774 39.8917C22.051 39.8323 21.9439 39.739 21.8683 39.6226C21.7927 39.5062 21.7517 39.3712 21.7499 39.2329V22.9476C21.7499 21.9659 22.145 21.0245 22.8483 20.3304C23.5515 19.6363 24.5054 19.2463 25.4999 19.2463H34.4999C35.4945 19.2463 36.4483 19.6363 37.1516 20.3304C37.8549 21.0245 38.2499 21.9659 38.2499 22.9476V22.9476Z" fill="#EBE5DB"/>
</svg>
