<svg width="81" height="81" viewBox="0 0 81 81" fill="none" xmlns="http://www.w3.org/2000/svg">
<rect width="81" height="80.2747" rx="40.1373" fill="#E2F1ED"/>
<path d="M23.2834 56.5128C23.2834 54.6019 21.986 52.988 20.1889 52.3801V37.5687L17.0945 36.1874V52.3802C15.2974 52.988 14 54.6019 14 56.5128C14 58.9408 16.0822 60.9159 18.6417 60.9159C21.2012 60.9159 23.2834 58.9408 23.2834 56.5128Z" fill="#2B6956"/>
<path d="M57.0825 48.5695L55.54 39.7916L40.4059 46.5471L25.1687 39.7916L23.6262 48.5695C23.9492 48.7645 29.757 55.0451 40.4059 55.0451C50.9778 55.0451 56.773 48.7562 57.0825 48.5695Z" fill="#2B6956"/>
<path d="M14 31.5624L40.4061 43.3038L66.709 31.5624L40.4061 19.8209L14 31.5624ZM41.9533 33.03H38.8589V30.0947H41.9533V33.03Z" fill="#2B6956"/>
</svg>
