<svg width="80" height="79" viewBox="0 0 80 79" fill="none" xmlns="http://www.w3.org/2000/svg">
<g clip-path="url(#clip0_29_253)">
<path d="M54.2188 28.0676C40.003 28.0676 28.4375 39.4826 28.4375 53.5134C28.4375 67.5443 40.003 78.9593 54.2188 78.9593C68.4345 78.9593 80 67.5443 80 53.5134C80 39.4826 68.4345 28.0676 54.2188 28.0676ZM54.2188 51.2002C58.0959 51.2002 61.25 54.3132 61.25 58.1399C61.25 61.1518 59.2847 63.6955 56.5625 64.6536V69.7062H51.875V64.6536C49.1528 63.6955 47.1875 61.1518 47.1875 58.1399H51.875C51.875 59.4162 52.9256 60.4532 54.2188 60.4532C55.5119 60.4532 56.5625 59.4162 56.5625 58.1399C56.5625 56.8636 55.5119 55.8267 54.2188 55.8267C50.3416 55.8267 47.1875 52.7136 47.1875 48.8869C47.1875 45.875 49.1528 43.3314 51.875 42.3732V37.3206H56.5625V42.3732C59.2847 43.3314 61.25 45.875 61.25 48.8869H56.5625C56.5625 47.6106 55.5119 46.5736 54.2188 46.5736C52.9256 46.5736 51.875 47.6106 51.875 48.8869C51.875 50.1632 52.9256 51.2002 54.2188 51.2002Z" fill="#2B6956"/>
<path d="M26.0938 28.0676C40.55 28.0676 51.875 21.9704 51.875 14.188C51.875 6.40557 40.55 0 26.0938 0C11.6375 0 0 6.40557 0 14.188C0 21.9704 11.6375 28.0676 26.0938 28.0676Z" fill="#2B6956"/>
<path d="M0 52.0575V55.8267C0 63.6091 11.6375 69.7063 26.0938 69.7063C26.9138 69.7063 27.7083 69.6318 28.5156 69.5928C26.7178 66.8028 25.377 63.7071 24.5875 60.3976C14.1336 60.1127 5.05656 56.9422 0 52.0575Z" fill="#2B6956"/>
<path d="M23.8627 55.7088C23.8089 54.9812 23.75 54.2544 23.75 53.5134C23.75 51.1019 24.0702 48.768 24.6161 46.5192C14.1492 46.2393 5.06109 43.067 0 38.1779V41.9471C0 49.3167 10.5097 55.1083 23.8627 55.7088Z" fill="#2B6956"/>
<path d="M26.0938 41.9471C26.0963 41.9471 26.0983 41.9468 26.1009 41.9468C27.6467 38.3005 29.8938 35.0135 32.6842 32.2595C30.5675 32.5235 28.38 32.6941 26.0938 32.6941C14.9661 32.6941 5.30094 29.4189 0 24.2983V28.0675C0 35.85 11.6375 41.9471 26.0938 41.9471Z" fill="#2B6956"/>
</g>
<defs>
<clipPath id="clip0_29_253">
<rect width="80" height="78.9593" fill="white"/>
</clipPath>
</defs>
</svg>
