<svg width="81" height="80" viewBox="0 0 81 80" fill="none" xmlns="http://www.w3.org/2000/svg">
<rect width="81" height="79.9463" rx="6" fill="white"/>
<path d="M60.4948 36.341L51.459 45.033L53.5919 57.3065C53.7475 58.2044 53.1361 59.0566 52.2263 59.2102C51.8651 59.2711 51.4934 59.2132 51.1688 59.0453L39.9998 53.2502L28.8311 59.0446C28.0138 59.4675 27.0037 59.1563 26.5753 58.3496C26.4051 58.0293 26.3463 57.6624 26.4082 57.3059L28.5408 45.0331L19.505 36.341C18.844 35.7054 18.8301 34.6612 19.474 34.0088C19.7309 33.7486 20.0675 33.5793 20.4316 33.5273L32.9173 31.7369L38.5016 20.571C38.9897 19.7544 40.0562 19.4829 40.8836 19.9648C41.137 20.1124 41.3483 20.3209 41.4978 20.571L47.0821 31.7369L59.5677 33.5265C60.4811 33.657 61.1145 34.4936 60.9824 35.3951C60.9297 35.7546 60.7582 36.0869 60.4945 36.3403L60.4948 36.341Z" fill="#2B6956"/>
</svg>
