<svg width="80" height="80" viewBox="0 0 80 80" fill="none" xmlns="http://www.w3.org/2000/svg">
<path d="M40.0052 41.542C51.4339 41.542 60.7762 32.1997 60.7762 20.771C60.7762 9.34236 51.4339 0 40.0052 0C28.5766 0 19.2344 9.34236 19.2344 20.771C19.2344 32.1997 28.5767 41.542 40.0052 41.542Z" fill="#2B6956"/>
<path d="M75.6519 58.1406C75.1077 56.78 74.3821 55.5102 73.5658 54.331C69.3934 48.1632 62.9537 44.0816 55.6974 43.0838C54.7905 42.9932 53.7927 43.1744 53.067 43.7187C49.2575 46.5305 44.7224 47.9817 40.0058 47.9817C35.2891 47.9817 30.754 46.5305 26.9445 43.7187C26.2188 43.1744 25.221 42.9024 24.3141 43.0838C17.0579 44.0816 10.5273 48.1632 6.44571 54.331C5.62939 55.5102 4.90369 56.8708 4.3596 58.1406C4.08755 58.6849 4.17817 59.3198 4.45022 59.864C5.17592 61.1338 6.08286 62.4038 6.89918 63.4922C8.16897 65.2156 9.52956 66.7574 11.0716 68.2087C12.3414 69.4784 13.7926 70.6576 15.244 71.8368C22.4094 77.1883 31.0263 80 39.9151 80C48.804 80 57.4209 77.1882 64.5863 71.8368C66.0375 70.7484 67.4887 69.4784 68.7587 68.2087C70.2099 66.7574 71.6611 65.2154 72.9311 63.4922C73.838 62.313 74.6545 61.1338 75.3801 59.864C75.8334 59.3198 75.924 58.6847 75.6519 58.1406Z" fill="#2B6956"/>
</svg>
