<svg width="54" height="54" viewBox="0 0 54 54" fill="none" xmlns="http://www.w3.org/2000/svg">
<rect width="54" height="54" rx="27" fill="#DBFFDC"/>
<path d="M27.0004 17.3999C21.6988 17.3999 17.4004 21.6983 17.4004 26.9999C17.4004 29.1023 18.0772 31.0487 19.2268 32.6303L17.9068 36.1007L21.7156 35.0159C23.23 36.0167 25.0468 36.5999 27.0004 36.5999C32.302 36.5999 36.6004 32.3015 36.6004 26.9999C36.6004 21.6983 32.302 17.3999 27.0004 17.3999V17.3999ZM32.1028 30.9767L31.0804 31.9991C30.0052 33.0743 27.154 31.8911 24.6268 29.3639C22.0972 26.8343 20.9668 23.9831 21.9892 22.9079L23.0116 21.8855C23.3884 21.5087 24.034 21.5087 24.4636 21.8855L25.9708 23.3927C26.5084 23.9303 26.2924 24.8447 25.594 25.0583C25.1092 25.2215 24.7876 25.7591 24.9484 26.2439C25.2172 27.3719 26.6692 28.7711 27.7468 29.0399C28.2292 29.1479 28.7692 28.8791 28.93 28.3943C29.1436 27.6959 30.0604 27.4799 30.598 28.0175L32.1028 29.5247C32.4796 29.9015 32.4796 30.5471 32.1028 30.9767V30.9767Z" fill="#4CAF50"/>
</svg>
