<svg width="80" height="80" viewBox="0 0 80 80" fill="none" xmlns="http://www.w3.org/2000/svg">
<path d="M63.3327 16.6666H59.9994V9.99996C59.9994 9.1159 59.6482 8.26806 59.023 7.64294C58.3979 7.01782 57.5501 6.66663 56.666 6.66663C55.782 6.66663 54.9341 7.01782 54.309 7.64294C53.6839 8.26806 53.3327 9.1159 53.3327 9.99996V16.6666H26.666V9.99996C26.666 9.1159 26.3148 8.26806 25.6897 7.64294C25.0646 7.01782 24.2167 6.66663 23.3327 6.66663C22.4486 6.66663 21.6008 7.01782 20.9757 7.64294C20.3505 8.26806 19.9993 9.1159 19.9993 9.99996V16.6666H16.666C14.0139 16.6666 11.4703 17.7202 9.59495 19.5956C7.71958 21.4709 6.66602 24.0145 6.66602 26.6666V30H73.3327V26.6666C73.3327 24.0145 72.2791 21.4709 70.4038 19.5956C68.5284 17.7202 65.9849 16.6666 63.3327 16.6666Z" fill="#2B6956"/>
<path d="M6.66602 63.3333C6.66602 65.9854 7.71958 68.529 9.59495 70.4043C11.4703 72.2797 14.0139 73.3333 16.666 73.3333H63.3327C65.9849 73.3333 68.5284 72.2797 70.4038 70.4043C72.2791 68.529 73.3327 65.9854 73.3327 63.3333V36.6666H6.66602V63.3333Z" fill="#2B6956"/>
</svg>
