<svg width="1309" height="57" viewBox="0 0 1309 57" fill="none" xmlns="http://www.w3.org/2000/svg">
<path d="M75.1568 41.5765H69.9428V30.929H60.1727V41.5765H54.9418V16.9067H60.1727V26.5755H69.9428V16.9067H75.1568V41.5765Z" fill="#CACACA"/>
<path d="M80.7759 17.8347C80.7759 16.1586 81.7096 15.3205 83.577 15.3205C85.4444 15.3205 86.3781 16.1586 86.3781 17.8347C86.3781 18.6334 86.1418 19.2578 85.6693 19.7077C85.2081 20.1465 84.5107 20.3658 83.577 20.3658C81.7096 20.3658 80.7759 19.5221 80.7759 17.8347ZM86.1418 41.5765H80.9952V22.7113H86.1418V41.5765Z" fill="#CACACA"/>
<path d="M107.977 22.7113V25.3268L105.024 26.0861C105.564 26.9298 105.834 27.8748 105.834 28.921C105.834 30.9458 105.125 32.5264 103.708 33.6625C102.301 34.7875 100.344 35.3499 97.8355 35.3499L96.9074 35.2993L96.1481 35.215C95.6194 35.6199 95.355 36.0699 95.355 36.5649C95.355 37.3073 96.3 37.6786 98.1899 37.6786H101.396C103.466 37.6786 105.041 38.1229 106.121 39.0116C107.212 39.9003 107.757 41.2052 107.757 42.9264C107.757 45.1312 106.835 46.8411 104.99 48.0561C103.156 49.271 100.518 49.8785 97.0762 49.8785C94.4438 49.8785 92.4302 49.4172 91.0353 48.4948C89.6516 47.5836 88.9598 46.3012 88.9598 44.6475C88.9598 43.5113 89.3141 42.5608 90.0228 41.7958C90.7315 41.0309 91.7721 40.4853 93.1445 40.159C92.6158 39.9341 92.1546 39.5685 91.7609 39.0622C91.3671 38.5448 91.1703 37.9992 91.1703 37.4255C91.1703 36.7055 91.3784 36.1093 91.7946 35.6368C92.2108 35.1531 92.8127 34.6806 93.6001 34.2194C92.6102 33.7919 91.8227 33.1057 91.2378 32.1608C90.6641 31.2158 90.3772 30.1021 90.3772 28.8197C90.3772 26.7611 91.0465 25.1693 92.3852 24.0444C93.7239 22.9194 95.6363 22.357 98.1224 22.357C98.6511 22.357 99.2754 22.4076 99.9954 22.5088C100.727 22.5988 101.193 22.6663 101.396 22.7113H107.977ZM93.4145 44.2426C93.4145 44.9513 93.752 45.5081 94.427 45.9131C95.1132 46.3181 96.0694 46.5205 97.2955 46.5205C99.1404 46.5205 100.586 46.2674 101.632 45.7612C102.678 45.255 103.201 44.5632 103.201 43.6857C103.201 42.977 102.892 42.4877 102.273 42.2177C101.655 41.9477 100.698 41.8127 99.4048 41.8127H96.7387C95.7938 41.8127 95.0007 42.0321 94.3595 42.4708C93.7295 42.9208 93.4145 43.5113 93.4145 44.2426ZM95.2875 28.8872C95.2875 29.9109 95.5181 30.7208 95.9794 31.3171C96.4518 31.9133 97.1662 32.2114 98.1224 32.2114C99.0898 32.2114 99.7985 31.9133 100.248 31.3171C100.698 30.7208 100.923 29.9109 100.923 28.8872C100.923 26.6148 99.9898 25.4787 98.1224 25.4787C96.2325 25.4787 95.2875 26.6148 95.2875 28.8872Z" fill="#CACACA"/>
<path d="M128.512 41.5765H123.366V30.5577C123.366 27.8354 122.353 26.4742 120.329 26.4742C118.889 26.4742 117.848 26.9636 117.207 27.9423C116.566 28.921 116.245 30.5071 116.245 32.7007V41.5765H111.098V15.3205H116.245V20.6696C116.245 21.0858 116.206 22.0645 116.127 23.6056L116.009 25.1243H116.279C117.426 23.2794 119.249 22.357 121.746 22.357C123.962 22.357 125.644 22.9532 126.791 24.1456C127.939 25.338 128.512 27.0479 128.512 29.2753V41.5765Z" fill="#CACACA"/>
<path d="M138.957 41.5765H133.811V15.3205H138.957V41.5765Z" fill="#CACACA"/>
<path d="M148.474 32.1101C148.474 33.9775 148.778 35.3893 149.386 36.3455C150.004 37.3017 151.006 37.7798 152.389 37.7798C153.762 37.7798 154.746 37.3073 155.342 36.3624C155.95 35.4062 156.253 33.9888 156.253 32.1101C156.253 30.2427 155.95 28.8422 155.342 27.9085C154.735 26.9748 153.739 26.508 152.355 26.508C150.983 26.508 149.993 26.9748 149.386 27.9085C148.778 28.831 148.474 30.2315 148.474 32.1101ZM161.518 32.1101C161.518 35.1812 160.708 37.5829 159.088 39.3153C157.468 41.0477 155.213 41.9139 152.322 41.9139C150.511 41.9139 148.913 41.5202 147.529 40.7328C146.146 39.9341 145.083 38.7922 144.34 37.3073C143.598 35.8224 143.227 34.09 143.227 32.1101C143.227 29.0278 144.031 26.6317 145.64 24.9218C147.248 23.2119 149.509 22.357 152.423 22.357C154.234 22.357 155.831 22.7507 157.215 23.5381C158.599 24.3256 159.662 25.4562 160.404 26.9298C161.147 28.4035 161.518 30.1303 161.518 32.1101Z" fill="#CACACA"/>
<path d="M181.277 41.5765L179.826 34.9787L177.869 26.643H177.751L174.309 41.5765H168.774L163.408 22.7113H168.538L170.714 31.064C171.063 32.5601 171.417 34.6244 171.777 37.2567H171.879C171.924 36.4018 172.121 35.0462 172.469 33.1901L172.739 31.7558L175.068 22.7113H180.738L182.948 31.7558C182.993 32.0033 183.06 32.3689 183.15 32.8526C183.252 33.3363 183.347 33.8538 183.437 34.405C183.527 34.945 183.606 35.4793 183.674 36.008C183.752 36.5255 183.797 36.9417 183.809 37.2567H183.91C184.011 36.4468 184.191 35.3387 184.45 33.9325C184.709 32.5151 184.894 31.5589 185.007 31.064L187.268 22.7113H192.313L186.88 41.5765H181.277Z" fill="#CACACA"/>
<path d="M17.9436 45.5638C27.8535 45.5638 35.8871 37.8278 35.8871 28.2848C35.8871 18.7419 27.8535 11.0059 17.9436 11.0059C8.03365 11.0059 3.19845e-07 18.742 2.06048e-07 28.2848C9.22516e-08 37.8277 8.03358 45.5638 17.9436 45.5638ZM31.2565 28.2848L4.6306 28.2848C4.6306 21.1987 10.586 15.465 17.9436 15.465C25.3022 15.465 31.2565 21.1998 31.2565 28.2848Z" fill="#CACACA"/>
<path d="M324.785 43.3992C323.648 44.3027 322.168 45.0036 320.346 45.502C318.524 46.0004 316.281 46.2497 313.617 46.2497C310.969 46.2497 308.15 46.0082 305.159 45.5254V14.7316C308.181 14.2487 310.798 14.0073 313.01 14.0073C315.237 14.0073 317.059 14.2176 318.477 14.6381C319.91 15.0587 321.078 15.6272 321.981 16.3437C323.757 17.73 324.645 19.529 324.645 21.7408C324.645 23.937 323.843 25.7594 322.238 27.208C324.139 27.7999 325.611 28.9213 326.654 30.5724C327.604 32.0521 328.079 33.6954 328.079 35.5022C328.079 37.2934 327.815 38.8277 327.285 40.1049C326.771 41.3821 325.938 42.4803 324.785 43.3992ZM311.351 26.3435C312.005 26.4525 312.823 26.5071 313.804 26.5071C314.785 26.5071 315.587 26.3825 316.211 26.1332C316.849 25.8684 317.34 25.5413 317.682 25.1519C318.243 24.5133 318.524 23.6255 318.524 22.4885C318.524 20.1053 317.122 18.9138 314.318 18.9138C313.134 18.9138 312.145 18.9605 311.351 19.0539V26.3435ZM314.809 31.3434C313.5 31.3434 312.348 31.4291 311.351 31.6004V40.7825C312.441 41.0628 313.586 41.203 314.785 41.203C315.985 41.203 317.036 41.0628 317.939 40.7825C318.858 40.4865 319.629 40.0893 320.253 39.5909C321.514 38.5629 322.145 37.2545 322.145 35.6658C322.145 32.7842 319.7 31.3434 314.809 31.3434Z" fill="#CACACA"/>
<path d="M330.79 33.5864C330.79 31.873 331.078 30.2375 331.654 28.6799C332.246 27.1067 333.087 25.736 334.177 24.5678C336.561 22.0445 339.652 20.7829 343.453 20.7829C347.238 20.7829 350.244 21.9744 352.471 24.3576C354.605 26.6317 355.672 29.5833 355.672 33.2125C355.672 36.8417 354.574 39.8479 352.378 42.231C350.057 44.7544 346.981 46.016 343.149 46.016C339.193 46.016 336.093 44.7777 333.85 42.3011C331.81 40.0426 330.79 37.1377 330.79 33.5864ZM336.467 33.4462C336.467 34.4275 336.631 35.3776 336.958 36.2966C337.285 37.2156 337.752 38.0022 338.36 38.6563C339.652 40.0738 341.35 40.7825 343.453 40.7825C345.4 40.7825 346.934 40.0893 348.056 38.7031C349.146 37.3635 349.691 35.619 349.691 33.4695C349.691 31.2889 349.13 29.5288 348.009 28.1893C346.81 26.7563 345.166 26.0398 343.079 26.0398C340.961 26.0398 339.302 26.803 338.103 28.3295C337.012 29.7313 336.467 31.4369 336.467 33.4462Z" fill="#CACACA"/>
<path d="M358.78 33.5864C358.78 31.873 359.068 30.2375 359.644 28.6799C360.236 27.1067 361.077 25.736 362.168 24.5678C364.551 22.0445 367.643 20.7829 371.443 20.7829C375.228 20.7829 378.234 21.9744 380.462 24.3576C382.595 26.6317 383.662 29.5833 383.662 33.2125C383.662 36.8417 382.564 39.8479 380.368 42.231C378.047 44.7544 374.971 46.016 371.139 46.016C367.183 46.016 364.083 44.7777 361.84 42.3011C359.8 40.0426 358.78 37.1377 358.78 33.5864ZM364.457 33.4462C364.457 34.4275 364.621 35.3776 364.948 36.2966C365.275 37.2156 365.742 38.0022 366.35 38.6563C367.643 40.0738 369.34 40.7825 371.443 40.7825C373.39 40.7825 374.924 40.0893 376.046 38.7031C377.136 37.3635 377.681 35.619 377.681 33.4695C377.681 31.2889 377.121 29.5288 375.999 28.1893C374.8 26.7563 373.156 26.0398 371.069 26.0398C368.951 26.0398 367.292 26.803 366.093 28.3295C365.002 29.7313 364.457 31.4369 364.457 33.4462Z" fill="#CACACA"/>
<path d="M396.77 46.016C392.377 46.016 389.067 45.2138 386.84 43.6095C386.871 43.1422 386.918 42.6127 386.98 42.0208L387.19 40.3386C387.315 39.2327 387.393 38.5473 387.424 38.2825C387.455 38.0022 387.479 37.8542 387.494 37.8386C387.51 37.8075 387.634 37.9321 387.868 38.2124C388.102 38.4772 388.546 38.8043 389.2 39.1937C389.854 39.5831 390.609 39.9258 391.466 40.2217C393.32 40.8604 395.251 41.1797 397.26 41.1797C399.955 41.1797 401.302 40.284 401.302 38.4928C401.302 37.9165 401.045 37.4881 400.531 37.2078C399.612 36.7405 398.257 36.39 396.466 36.1564C394.69 35.9072 393.234 35.5489 392.097 35.0817C390.96 34.6144 390.033 34.0536 389.317 33.3994C387.993 32.1689 387.331 30.5568 387.331 28.5631C387.331 26.1332 388.265 24.2252 390.134 22.8389C391.988 21.4682 394.55 20.7829 397.821 20.7829C401.061 20.7829 403.826 21.7019 406.115 23.5398C406.006 23.9448 405.889 24.3342 405.765 24.708C405.407 25.736 405.142 26.4759 404.97 26.9276L404.433 28.3061C404.402 28.4307 404.379 28.493 404.363 28.493C404.332 28.493 404.207 28.3295 403.989 28.0024C403.008 26.8653 401.481 26.1177 399.41 25.7594C398.771 25.6348 398.117 25.5725 397.447 25.5725C394.612 25.5725 393.195 26.4292 393.195 28.1425C393.195 28.7344 393.491 29.1861 394.083 29.4977C395.189 30.0895 396.7 30.5257 398.615 30.806C400.547 31.0864 402.011 31.468 403.008 31.9509C404.005 32.4182 404.807 32.9867 405.414 33.6564C406.536 34.8714 407.097 36.4835 407.097 38.4928C407.097 40.689 406.217 42.4725 404.456 43.8432C402.618 45.2917 400.056 46.016 396.77 46.016Z" fill="#CACACA"/>
<path d="M420.741 46.016C416.349 46.016 413.039 45.2138 410.811 43.6095C410.843 43.1422 410.889 42.6127 410.952 42.0208L411.162 40.3386C411.286 39.2327 411.364 38.5473 411.396 38.2825C411.427 38.0022 411.45 37.8542 411.466 37.8386C411.481 37.8075 411.606 37.9321 411.839 38.2124C412.073 38.4772 412.517 38.8043 413.171 39.1937C413.825 39.5831 414.581 39.9258 415.437 40.2217C417.291 40.8604 419.222 41.1797 421.232 41.1797C423.926 41.1797 425.274 40.284 425.274 38.4928C425.274 37.9165 425.017 37.4881 424.503 37.2078C423.584 36.7405 422.229 36.39 420.437 36.1564C418.662 35.9072 417.205 35.5489 416.068 35.0817C414.931 34.6144 414.005 34.0536 413.288 33.3994C411.964 32.1689 411.302 30.5568 411.302 28.5631C411.302 26.1332 412.237 24.2252 414.106 22.8389C415.959 21.4682 418.522 20.7829 421.793 20.7829C425.032 20.7829 427.797 21.7019 430.087 23.5398C429.978 23.9448 429.861 24.3342 429.736 24.708C429.378 25.736 429.113 26.4759 428.942 26.9276L428.405 28.3061C428.373 28.4307 428.35 28.493 428.334 28.493C428.303 28.493 428.179 28.3295 427.961 28.0024C426.979 26.8653 425.453 26.1177 423.381 25.7594C422.743 25.6348 422.088 25.5725 421.419 25.5725C418.584 25.5725 417.166 26.4292 417.166 28.1425C417.166 28.7344 417.462 29.1861 418.054 29.4977C419.16 30.0895 420.671 30.5257 422.587 30.806C424.518 31.0864 425.982 31.468 426.979 31.9509C427.976 32.4182 428.778 32.9867 429.386 33.6564C430.507 34.8714 431.068 36.4835 431.068 38.4928C431.068 40.689 430.188 42.4725 428.428 43.8432C426.59 45.2917 424.028 46.016 420.741 46.016Z" fill="#CACACA"/>
<path d="M447.329 40.5255C449.339 40.5255 450.717 40.0037 451.465 38.9601H451.652L451.722 44.3805C450.959 45.1438 449.541 45.65 447.47 45.8992C446.909 45.9771 446.208 46.016 445.367 46.016C444.541 46.016 443.638 45.8603 442.657 45.5487C441.691 45.2372 440.865 44.731 440.18 44.0301C438.763 42.5815 438.054 40.3152 438.054 37.2311V26.6239H434.526C434.51 26.1722 434.503 25.7127 434.503 25.2454V21.6473C434.503 21.3826 434.51 21.2502 434.526 21.2502H438.054V14.5914H443.778V21.2502H450.203V26.6239H443.778V36.1564C443.778 38.6018 444.456 39.9959 445.811 40.3386C446.247 40.4632 446.753 40.5255 447.329 40.5255Z" fill="#CACACA"/>
<path d="M599.971 33.7678C599.971 37.2724 600.034 39.5232 600.158 40.52H594.06V16.1046H599.971V18.2074C602.105 16.494 604.294 15.6374 606.537 15.6374C609.185 15.6374 611.108 16.7822 612.308 19.0719C613.507 17.8414 614.504 17.0314 615.298 16.642C616.622 15.9723 617.946 15.6374 619.27 15.6374C620.61 15.6374 621.747 15.8632 622.681 16.3149C623.616 16.7666 624.387 17.4052 624.994 18.2308C626.225 19.8974 626.84 22.1871 626.84 25.0998V34.3987C626.84 37.031 626.879 38.612 626.957 39.1416C627.035 39.6711 627.136 40.0138 627.26 40.1696C627.401 40.3253 627.517 40.4655 627.611 40.5901L627.564 40.6836C626.318 40.5746 625.399 40.52 624.807 40.52H623.055C622.479 40.52 621.77 40.5434 620.929 40.5901V27.9502C620.929 24.3054 620.368 22.1404 619.247 21.455C618.873 21.2369 618.429 21.1279 617.915 21.1279C617.416 21.1279 616.973 21.1902 616.583 21.3148C616.194 21.4239 615.828 21.6108 615.485 21.8756C614.909 22.2961 614.255 23.1216 613.522 24.3521C613.538 24.4768 613.546 24.6014 613.546 24.726C613.546 24.8506 613.546 26.9066 613.546 30.8941C613.546 34.8815 613.639 38.0902 613.826 40.52C612.502 40.52 611.373 40.52 610.438 40.52C609.519 40.52 608.639 40.5434 607.798 40.5901V27.9268C607.798 25.3879 607.643 23.7369 607.331 22.9737C607.035 22.2104 606.716 21.712 606.373 21.4784C606.03 21.2447 605.61 21.1279 605.111 21.1279C603.055 21.1279 601.342 22.117 599.971 24.0951V33.7678Z" fill="#CACACA"/>
<path d="M649.737 39.0715C647.525 40.2708 645.523 40.8705 643.732 40.8705C641.941 40.8705 640.407 40.707 639.129 40.3799C637.852 40.0372 636.77 39.5388 635.882 38.8846C634.075 37.5606 633.172 35.6447 633.172 33.137C633.172 30.8941 634.277 29.0249 636.489 27.5296C638.888 25.9097 642.143 25.0998 646.255 25.0998L647.19 25.1232C647.377 25.1387 647.587 25.1543 647.821 25.1699C648.054 25.1699 648.265 25.1855 648.452 25.2166C648.327 22.7245 647.252 21.2681 645.227 20.8475C644.558 20.7074 643.841 20.6373 643.078 20.6373C642.33 20.6373 641.59 20.7074 640.858 20.8475C640.142 20.9722 639.441 21.1435 638.756 21.3616C637.245 21.8444 636.162 22.3974 635.508 23.0204L635.438 22.9737L634.737 17.8102C637.494 16.3617 640.508 15.6374 643.779 15.6374C648.857 15.6374 652.104 17.4675 653.522 21.1279C653.973 22.2961 654.199 23.6123 654.199 25.0764V33.5342C654.199 35.341 654.838 36.5715 656.115 37.2257L651.886 41.1041C650.998 40.6369 650.282 39.9593 649.737 39.0715ZM648.475 29.4221C648.054 29.3443 647.618 29.3053 647.167 29.3053H646.232C642.79 29.3053 640.601 30.0685 639.667 31.595C639.386 32.0467 639.246 32.5218 639.246 33.0202C639.246 33.5186 639.332 33.9625 639.503 34.3519C639.69 34.7258 639.994 35.0373 640.414 35.2865C641.224 35.7538 642.424 35.9874 644.012 35.9874C645.617 35.9874 647.112 35.6058 648.498 34.8426C648.483 34.6712 648.475 34.4921 648.475 34.3052V29.4221Z" fill="#CACACA"/>
<path d="M660.297 9.30572C661.31 7.68582 662.47 6.15937 663.778 4.72637L668.241 8.25434C667.462 9.2512 666.933 9.93655 666.652 10.3104L665.834 11.4552C665.57 11.8135 665.289 12.2184 664.993 12.6701L660.297 9.30572ZM657.704 44.1415C660.009 44.1415 661.162 42.4281 661.162 39.0014V16.1046H666.839V37.3192C666.839 43.8611 664.978 47.7317 661.255 48.9311C660.04 49.3205 658.662 49.5152 657.12 49.5152L654.69 43.3704L654.737 43.2536C655.624 43.8455 656.613 44.1415 657.704 44.1415Z" fill="#CACACA"/>
<path d="M672.774 9.14217C674.02 7.19517 675.32 5.48181 676.675 4.00209L681.699 7.95061C681.029 8.77614 680.406 9.58609 679.83 10.3805C679.83 10.3805 679.23 11.2294 678.03 12.9271L672.774 9.14217ZM678.918 37.9033C678.918 39.2428 678.949 40.1151 679.012 40.52H673.077V16.1046H678.918V37.9033Z" fill="#CACACA"/>
<path d="M691.675 37.5294C691.675 38.9001 691.737 39.897 691.862 40.52H685.998V16.1046H691.675V18.184C693.731 16.4863 695.927 15.6374 698.264 15.6374C700.818 15.6374 702.859 16.5096 704.385 18.2541C705.912 19.9831 706.675 22.265 706.675 25.0998V34.3987C706.675 37.031 706.714 38.612 706.792 39.1416C706.869 39.6711 706.971 40.0138 707.095 40.1696C707.236 40.3253 707.352 40.4655 707.446 40.5901L707.399 40.6836C706.137 40.5746 705.218 40.52 704.642 40.52H703.007C702.508 40.52 701.838 40.5434 700.997 40.5901V27.8567C700.997 23.293 699.611 21.0111 696.839 21.0111C694.782 21.0111 693.061 22.0703 691.675 24.1886V37.5294Z" fill="#CACACA"/>
<path d="M712.352 28.5109C712.352 26.6885 712.664 24.9985 713.287 23.4409C713.91 21.8833 714.79 20.5204 715.927 19.3522C718.357 16.8757 721.534 15.6374 725.459 15.6374C728.777 15.6374 731.441 16.7355 733.45 18.9317C735.428 21.05 736.417 23.7135 736.417 26.9222C736.417 28.1527 736.324 28.9938 736.137 29.4455C734.579 29.8816 731.409 30.0997 726.628 30.0997H718.404C718.808 31.7663 719.751 33.0669 721.231 34.0015C722.71 34.9205 724.634 35.38 727.001 35.38C729.478 35.38 731.604 34.936 733.38 34.0482C733.847 33.8146 734.198 33.5965 734.431 33.394C734.4 34.0482 734.361 34.718 734.314 35.4033L734.057 39.0481C732.874 39.8581 730.958 40.4188 728.31 40.7303C727.531 40.8238 726.783 40.8705 726.067 40.8705C722.111 40.8705 718.84 39.7179 716.254 37.4126C713.653 35.0918 712.352 32.1246 712.352 28.5109ZM730.202 25.5671C729.564 22.2182 727.741 20.5438 724.735 20.5438C722.368 20.5438 720.569 21.564 719.338 23.6045C718.964 24.2275 718.676 24.9129 718.474 25.6605C718.847 25.6761 719.307 25.6917 719.852 25.7073H721.581C722.157 25.7228 722.71 25.7306 723.24 25.7306H724.572C725.366 25.7306 726.145 25.7228 726.908 25.7073L728.824 25.6372C729.338 25.6216 729.797 25.5982 730.202 25.5671Z" fill="#CACACA"/>
<path d="M570.673 16.7148C572.885 15.5154 574.887 14.9158 576.678 14.9158C578.469 14.9158 580.003 15.0793 581.28 15.4064C582.558 15.7491 583.64 16.2475 584.528 16.9017C586.335 18.2257 587.238 20.1415 587.238 22.6493C587.238 24.8922 586.132 26.7613 583.921 28.2566C581.522 29.8765 578.267 30.6865 574.154 30.6865L573.22 30.6631C573.033 30.6475 572.823 30.632 572.589 30.6164C572.355 30.6164 572.145 30.6008 571.958 30.5697C572.083 33.0618 573.158 34.5182 575.182 34.9387C575.852 35.0789 576.569 35.149 577.332 35.149C578.08 35.149 578.819 35.0789 579.552 34.9387C580.268 34.8141 580.969 34.6428 581.654 34.4247C583.165 33.9419 584.248 33.3889 584.902 32.7659L584.972 32.8126L585.673 37.976C582.916 39.4246 579.902 40.1489 576.631 40.1489C571.553 40.1489 568.306 38.3187 566.888 34.6584C566.437 33.4902 566.211 32.174 566.211 30.7098V22.2521C566.211 20.4452 565.572 19.2147 564.295 18.5606L568.524 14.6821C569.412 15.1494 570.128 15.827 570.673 16.7148ZM571.935 26.3641C572.355 26.442 572.792 26.481 573.243 26.481H574.178C577.62 26.481 579.809 25.7177 580.743 24.1913C581.023 23.7396 581.164 23.2645 581.164 22.7661C581.164 22.2676 581.078 21.8237 580.907 21.4343C580.72 21.0605 580.416 20.749 579.995 20.4998C579.186 20.0325 577.986 19.7988 576.397 19.7988C574.793 19.7988 573.298 20.1805 571.912 20.9437C571.927 21.115 571.935 21.2941 571.935 21.4811V26.3641Z" fill="#CACACA"/>
<path d="M571.459 53.6504C570.421 52.6123 570.421 50.9291 571.459 49.891L573.728 47.622C574.766 46.5838 576.45 46.5838 577.488 47.622L579.757 49.891C580.795 50.9291 580.795 52.6123 579.757 53.6504L577.488 55.9194C576.45 56.9576 574.766 56.9576 573.728 55.9194L571.459 53.6504Z" fill="#CACACA"/>
<path d="M929.642 35.8872H925.683V27.4113C925.683 26.3642 925.505 25.5811 925.151 25.0619C924.804 24.534 924.255 24.2701 923.502 24.2701C922.49 24.2701 921.754 24.6422 921.295 25.3864C920.837 26.1306 920.608 27.355 920.608 29.0597V35.8872H916.649V21.3756H919.673L920.205 23.2317H920.426C920.815 22.5654 921.378 22.0462 922.113 21.6741C922.849 21.2934 923.692 21.103 924.644 21.103C926.816 21.103 928.287 21.8126 929.058 23.2317H929.408C929.797 22.5567 930.368 22.0332 931.121 21.6611C931.883 21.289 932.739 21.103 933.691 21.103C935.336 21.103 936.577 21.527 937.417 22.375C938.265 23.2144 938.689 24.5643 938.689 26.4248V35.8872H934.717V27.4113C934.717 26.3642 934.539 25.5811 934.185 25.0619C933.838 24.534 933.289 24.2701 932.536 24.2701C931.567 24.2701 930.84 24.6162 930.356 25.3085C929.88 26.0008 929.642 27.0997 929.642 28.6054V35.8872Z" fill="#CACACA"/>
<path d="M951.98 35.8872L951.214 33.9143H951.111C950.444 34.7536 949.756 35.3377 949.047 35.6666C948.346 35.9867 947.429 36.1468 946.295 36.1468C944.902 36.1468 943.803 35.7488 942.998 34.9527C942.202 34.1565 941.804 33.023 941.804 31.5519C941.804 30.0116 942.34 28.878 943.413 28.1511C944.495 27.4156 946.122 27.0089 948.294 26.931L950.812 26.8531V26.2171C950.812 24.746 950.059 24.0105 948.553 24.0105C947.394 24.0105 946.031 24.361 944.465 25.0619L943.154 22.388C944.824 21.514 946.676 21.077 948.709 21.077C950.656 21.077 952.149 21.501 953.187 22.3491C954.226 23.1971 954.745 24.4864 954.745 26.2171V35.8872H951.98ZM950.812 29.1636L949.28 29.2155C948.129 29.2501 947.273 29.4578 946.71 29.8385C946.148 30.2193 945.867 30.7991 945.867 31.5779C945.867 32.6941 946.507 33.2523 947.788 33.2523C948.705 33.2523 949.436 32.9883 949.981 32.4605C950.535 31.9326 950.812 31.2317 950.812 30.3577V29.1636Z" fill="#CACACA"/>
<path d="M972.229 35.8872H968.27V27.4113C968.27 26.3642 968.084 25.5811 967.712 25.0619C967.34 24.534 966.747 24.2701 965.934 24.2701C964.826 24.2701 964.026 24.6422 963.532 25.3864C963.039 26.1219 962.793 27.3464 962.793 29.0597V35.8872H958.834V21.3756H961.858L962.39 23.2317H962.611C963.052 22.5308 963.658 22.0029 964.428 21.6481C965.207 21.2847 966.089 21.103 967.076 21.103C968.763 21.103 970.044 21.5616 970.918 22.4789C971.792 23.3875 972.229 24.7028 972.229 26.4248V35.8872Z" fill="#CACACA"/>
<path d="M982.418 32.9927C983.111 32.9927 983.941 32.8412 984.91 32.5384V35.4848C983.924 35.9262 982.713 36.1468 981.276 36.1468C979.693 36.1468 978.537 35.7488 977.81 34.9527C977.092 34.1479 976.733 32.9451 976.733 31.3442V24.348H974.838V22.6736L977.019 21.3496L978.161 18.2863H980.692V21.3756H984.755V24.348H980.692V31.3442C980.692 31.9067 980.848 32.322 981.159 32.5903C981.479 32.8585 981.899 32.9927 982.418 32.9927Z" fill="#CACACA"/>
<path d="M1001.25 35.8872H997.293V27.4113C997.293 25.3172 996.515 24.2701 994.957 24.2701C993.849 24.2701 993.049 24.6465 992.556 25.3994C992.062 26.1522 991.816 27.3723 991.816 29.0597V35.8872H987.857V15.6903H991.816V19.805C991.816 20.1252 991.786 20.878 991.725 22.0635L991.634 23.2317H991.842C992.724 21.8126 994.126 21.103 996.047 21.103C997.752 21.103 999.046 21.5616 999.928 22.4789C1000.81 23.3961 1001.25 24.7114 1001.25 26.4248V35.8872Z" fill="#CACACA"/>
<path d="M1015.61 35.8872L1015.08 34.0311H1014.87C1014.44 34.706 1013.84 35.2296 1013.06 35.6017C1012.29 35.9651 1011.4 36.1468 1010.4 36.1468C1008.7 36.1468 1007.41 35.6925 1006.55 34.7839C1005.68 33.8667 1005.25 32.5514 1005.25 30.838V21.3756H1009.21V29.8515C1009.21 30.8986 1009.4 31.686 1009.77 32.2139C1010.14 32.7331 1010.73 32.9927 1011.55 32.9927C1012.65 32.9927 1013.45 32.6249 1013.95 31.8894C1014.44 31.1452 1014.69 29.9164 1014.69 28.203V21.3756H1018.65V35.8872H1015.61Z" fill="#CACACA"/>
<path d="M1026.76 35.8872H1022.8V15.6903H1026.76V35.8872Z" fill="#CACACA"/>
<path d="M849.444 25.2539C849.444 21.9375 850.097 18.6536 851.366 15.5897C852.635 12.5257 854.495 9.74174 856.84 7.3967C859.185 5.05166 861.969 3.19147 865.033 1.92234C868.097 0.653217 871.381 5.07954e-06 874.698 5.51443e-06C878.014 5.94933e-06 881.298 0.653218 884.362 1.92235C887.426 3.19147 890.21 5.05166 892.555 7.3967C894.9 9.74175 896.76 12.5257 898.029 15.5897C899.298 18.6536 899.951 21.9375 899.951 25.2539L887.324 25.2539C887.324 23.5957 886.998 21.9538 886.363 20.4218C885.729 18.8898 884.799 17.4978 883.626 16.3253C882.454 15.1528 881.062 14.2227 879.53 13.5881C877.998 12.9536 876.356 12.627 874.698 12.627C873.039 12.627 871.397 12.9536 869.865 13.5881C868.333 14.2227 866.941 15.1528 865.769 16.3253C864.596 17.4978 863.666 18.8898 863.032 20.4218C862.397 21.9538 862.071 23.5957 862.071 25.2539L849.444 25.2539Z" fill="#CACACA"/>
<path fill-rule="evenodd" clip-rule="evenodd" d="M866.05 46.1295C864.131 45.3347 862.335 44.2807 860.71 43.0002L865.933 37.7772C866.841 38.4129 867.818 38.9494 868.848 39.3756C870.702 40.1438 872.69 40.5392 874.697 40.5392C876.704 40.5392 878.692 40.1438 880.546 39.3756C881.576 38.9494 882.553 38.4129 883.461 37.7772L888.684 43.0002C887.059 44.2807 885.263 45.3347 883.344 46.1295C880.603 47.2651 877.664 47.8495 874.697 47.8495C871.73 47.8495 868.791 47.2651 866.05 46.1295ZM890.575 44.8916C891.264 44.3344 891.925 43.7402 892.554 43.1111L883.626 34.1825C882.453 35.355 881.061 36.2851 879.529 36.9197C877.997 37.5543 876.355 37.8809 874.697 37.8809C873.039 37.8809 871.397 37.5543 869.865 36.9197C868.333 36.2851 866.941 35.355 865.768 34.1825L856.84 43.1111C857.469 43.7402 858.13 44.3344 858.819 44.8916C860.699 46.4116 862.791 47.6568 865.033 48.5855C868.097 49.8546 871.381 50.5078 874.697 50.5078C878.013 50.5078 881.297 49.8546 884.361 48.5855C886.603 47.6568 888.695 46.4116 890.575 44.8916Z" fill="#CACACA"/>
<path d="M1196.18 30.1504H1205.68L1202.95 43.0084C1201.44 43.5259 1200.04 43.8746 1198.75 44.0546C1197.46 44.2459 1196.1 44.3415 1194.66 44.3415C1191.75 44.3415 1189.5 43.5146 1187.91 41.861C1186.33 40.2073 1185.53 37.8337 1185.53 34.7402C1185.53 31.7253 1186.14 29.003 1187.34 26.5731C1188.54 24.132 1190.24 22.2534 1192.42 20.9372C1194.6 19.6098 1197.12 18.9461 1199.98 18.9461C1202.43 18.9461 1204.74 19.5029 1206.9 20.6166L1204.96 24.852C1204.12 24.402 1203.29 24.042 1202.46 23.7721C1201.63 23.5021 1200.72 23.3671 1199.74 23.3671C1198.02 23.3671 1196.48 23.8339 1195.12 24.7676C1193.77 25.7013 1192.7 27.0344 1191.93 28.7668C1191.16 30.4879 1190.78 32.3441 1190.78 34.3352C1190.78 36.2701 1191.19 37.6931 1192 38.6043C1192.82 39.5043 1194.07 39.9542 1195.76 39.9542C1196.61 39.9542 1197.57 39.8192 1198.63 39.5493L1199.74 34.5039H1195.24L1196.18 30.1504Z" fill="#CACACA"/>
<path d="M1213.02 44.004H1207.94L1213.51 17.748H1218.59L1213.02 44.004Z" fill="#CACACA"/>
<path d="M1231.16 32.2597C1231.16 30.0436 1230.36 28.9355 1228.75 28.9355C1227.9 28.9355 1227.14 29.2786 1226.47 29.9648C1225.81 30.651 1225.26 31.6578 1224.83 32.9853C1224.42 34.3127 1224.21 35.6795 1224.21 37.0856C1224.21 39.1668 1225.05 40.2073 1226.74 40.2073C1227.58 40.2073 1228.34 39.8642 1229.02 39.178C1229.69 38.4806 1230.22 37.5187 1230.59 36.2926C1230.97 35.0551 1231.16 33.7108 1231.16 32.2597ZM1236.27 32.2597C1236.27 34.6333 1235.87 36.7369 1235.08 38.5706C1234.29 40.4042 1233.15 41.8272 1231.65 42.8397C1230.15 43.8409 1228.38 44.3415 1226.32 44.3415C1224.12 44.3415 1222.37 43.6834 1221.05 42.3672C1219.75 41.0398 1219.1 39.2793 1219.1 37.0856C1219.1 34.6895 1219.49 32.5578 1220.29 30.6904C1221.1 28.8118 1222.27 27.3606 1223.79 26.3369C1225.31 25.302 1227.08 24.7845 1229.12 24.7845C1231.32 24.7845 1233.07 25.4482 1234.35 26.7756C1235.63 28.1031 1236.27 29.9311 1236.27 32.2597Z" fill="#CACACA"/>
<path d="M1252.24 29.4923C1251.54 31.4947 1250.85 33.289 1250.16 34.8752L1246.23 44.004H1240.76L1239.9 25.1389H1244.64L1244.71 33.4915L1244.64 36.3094L1244.52 39.1949H1244.59C1244.66 38.9699 1244.74 38.7393 1244.83 38.5031C1244.92 38.2556 1245.21 37.485 1245.69 36.1913C1246.17 34.8977 1246.43 34.2283 1246.47 34.1833L1250.36 25.1389H1255.9V34.1833C1255.9 35.7807 1255.84 37.4513 1255.73 39.1949H1255.83L1256.3 37.845C1257.12 35.5051 1257.66 34.054 1257.91 33.4915L1261.6 25.1389H1266.78L1257.84 44.004H1252.27L1252.17 35.2295C1252.17 33.4859 1252.22 31.5735 1252.34 29.4923H1252.24Z" fill="#CACACA"/>
<path d="M1289.22 19.3342L1285.83 35.297C1285.19 38.2893 1283.96 40.5448 1282.15 42.0635C1280.34 43.5821 1277.99 44.3415 1275.08 44.3415C1272.7 44.3415 1270.82 43.7059 1269.45 42.4347C1268.09 41.1523 1267.41 39.4199 1267.41 37.2375C1267.41 36.4276 1267.49 35.6514 1267.66 34.9089L1270.97 19.3342H1276.11L1272.84 34.8414C1272.65 35.6739 1272.55 36.3769 1272.55 36.9507C1272.55 38.953 1273.62 39.9542 1275.74 39.9542C1277.13 39.9542 1278.22 39.5268 1279.03 38.6718C1279.84 37.8056 1280.43 36.5176 1280.79 34.8077L1284.06 19.3342H1289.22Z" fill="#CACACA"/>
<path d="M1297.73 30.9435H1298.67C1300.27 30.9435 1301.53 30.5554 1302.44 29.7792C1303.36 29.003 1303.82 27.9624 1303.82 26.6575C1303.82 24.6326 1302.72 23.6202 1300.53 23.6202H1299.28L1297.73 30.9435ZM1309 26.5225C1309 29.2336 1308.04 31.3654 1306.13 32.9178C1304.23 34.4589 1301.6 35.2295 1298.25 35.2295H1296.8L1294.96 44.004H1289.81L1295.03 19.3342H1300.73C1303.45 19.3342 1305.51 19.936 1306.91 21.1397C1308.3 22.3321 1309 24.1264 1309 26.5225Z" fill="#CACACA"/>
<path d="M1166.64 23.976H1156.1L1159.99 15.8889C1160.36 14.9419 1159.31 14.0073 1157.87 14.0073H1144.71C1143.62 14.0073 1142.68 14.5618 1142.54 15.3032L1139.61 30.2562C1139.44 31.1534 1140.46 31.9509 1141.79 31.9509H1152.64L1148.42 44.069C1148.09 45.016 1149.15 45.907 1150.55 45.907C1151.32 45.907 1152.05 45.6328 1152.45 45.1593L1168.54 26.2189C1169.39 25.2283 1168.33 23.976 1166.64 23.976Z" fill="#CACACA"/>
</svg>
