<svg width="56" height="56" viewBox="0 0 56 56" fill="none" xmlns="http://www.w3.org/2000/svg">
<rect x="0.5" y="0.5" width="55" height="54.2715" rx="27.1357" stroke="#EBE5DB"/>
<path d="M19 33.5577C19 34.1032 19.4473 34.5446 20 34.5446H23H24C24 36.722 25.7939 38.4926 28 38.4926C30.2061 38.4926 32 36.722 32 34.5446H33H36C36.5527 34.5446 37 34.1032 37 33.5577C37 33.0121 36.5527 32.5707 36 32.5707H35.8157C35.9278 32.2604 36 31.9314 36 31.5837V26.6487C36 22.9776 33.4447 19.8927 30 19.0127V18.7528C30 17.6646 29.1025 16.7788 28 16.7788C26.8975 16.7788 26 17.6646 26 18.7528V19.0127C22.5553 19.8927 20 22.9776 20 26.6487V31.5837C20 31.9314 20.0723 32.2604 20.1843 32.5707H20C19.4473 32.5707 19 33.0121 19 33.5577ZM28 36.5186C26.8975 36.5186 26 35.6328 26 34.5446H30C30 35.6328 29.1025 36.5186 28 36.5186ZM22 31.5837V26.6487C22 23.3832 24.6914 20.7268 28 20.7268C31.3086 20.7268 34 23.3832 34 26.6487V31.5837C34 32.1283 33.5518 32.5707 33 32.5707H31H25H23C22.4482 32.5707 22 32.1283 22 31.5837Z" fill="#EBE5DB"/>
</svg>
