<svg width="51" height="51" viewBox="0 0 51 51" fill="none" xmlns="http://www.w3.org/2000/svg">
<rect width="51" height="51" rx="25.5" fill="#E1EEEA"/>
<path d="M34.3918 20.6579C34.4058 20.8726 34.4058 21.0873 34.4058 21.302C34.4058 27.8493 29.8378 35.3934 21.4887 35.3934C18.9165 35.3934 16.5271 34.5807 14.5171 33.1701C14.8825 33.216 15.2339 33.2314 15.6134 33.2314C17.7358 33.2314 19.6896 32.4494 21.2497 31.1154C19.2538 31.0694 17.5812 29.6434 17.0049 27.6807C17.2861 27.7266 17.5671 27.7573 17.8623 27.7573C18.2699 27.7573 18.6776 27.696 19.0571 27.5887C16.9768 27.1286 15.4166 25.1353 15.4166 22.728V22.6667C16.021 23.0347 16.7238 23.2647 17.4687 23.2953C16.2459 22.4059 15.4447 20.8879 15.4447 19.1706C15.4447 18.2506 15.6696 17.4073 16.0632 16.6713C18.298 19.6766 21.6573 21.6392 25.4242 21.854C25.354 21.4859 25.3118 21.1026 25.3118 20.7193C25.3118 17.9899 27.3358 15.7666 29.8517 15.7666C31.1589 15.7666 32.3396 16.3646 33.1689 17.3306C34.1949 17.116 35.1788 16.7019 36.0503 16.1346C35.7129 17.2846 34.9961 18.2506 34.0544 18.8639C34.968 18.7567 35.8535 18.4806 36.6687 18.0973C36.0504 19.0786 35.2773 19.9526 34.3918 20.6579V20.6579Z" fill="#2B6956"/>
</svg>
