<svg width="24" height="24" viewBox="0 0 24 24" fill="none" xmlns="http://www.w3.org/2000/svg">
<path d="M21.6004 6.04675C20.8864 6.35995 20.1256 6.56755 19.3324 6.66835C20.1484 6.18115 20.7712 5.41555 21.064 4.49275C20.3032 4.94635 19.4632 5.26675 18.568 5.44555C17.8456 4.67635 16.816 4.19995 15.6928 4.19995C13.5136 4.19995 11.7592 5.96875 11.7592 8.13715C11.7592 8.44915 11.7856 8.74915 11.8504 9.03475C8.57799 8.87515 5.68239 7.30675 3.73719 4.91755C2.34615 7.42387 3.90039 9.47875 4.94679 10.1784C4.31439 10.1664 3.69399 9.98275 3.16839 9.69355C3.16839 11.6474 4.53279 13.2384 6.32199 13.6044C5.93079 13.7342 5.07615 13.8048 4.54479 13.6668C5.05479 15.2256 6.50199 16.3716 8.22279 16.4088C6.88359 17.4564 4.91007 18.3103 2.40039 18.0335C4.14399 19.1579 6.21039 19.7999 8.43879 19.7999C15.682 19.7999 19.642 13.8 19.642 8.59915C19.642 8.42515 19.636 8.25715 19.6276 8.09035C20.4088 7.53595 21.0652 6.84355 21.6004 6.04675V6.04675Z" fill="#1DA1F3"/>
</svg>
