<svg width="234" height="24" viewBox="0 0 234 24" fill="none" xmlns="http://www.w3.org/2000/svg">
<path d="M11.3126 12.9891L11.9404 8.97249H8.0153V6.36597C8.0153 5.2671 8.56361 4.19597 10.3215 4.19597H12.1059V0.776233C12.1059 0.776233 10.4866 0.504873 8.93841 0.504873C5.70598 0.504873 3.59311 2.42866 3.59311 5.91125V8.97249H0V12.9891H3.59311V22.6991H8.0153V12.9891H11.3126Z" fill="white" fill-opacity="0.22"/>
<path d="M83.1169 6.67073C83.131 6.8858 83.131 7.10091 83.131 7.31598C83.131 13.8759 78.5542 21.4344 70.1891 21.4344C67.6119 21.4344 65.2179 20.6202 63.2041 19.2069C63.5702 19.2529 63.9223 19.2683 64.3025 19.2683C66.429 19.2683 68.3865 18.4848 69.9497 17.1482C67.9499 17.1021 66.2741 15.6734 65.6967 13.7069C65.9784 13.753 66.26 13.7837 66.5558 13.7837C66.9641 13.7837 67.3726 13.7223 67.7528 13.6148C65.6685 13.1538 64.1053 11.1567 64.1053 8.74472V8.68329C64.7109 9.052 65.4151 9.28244 66.1614 9.31313C64.9362 8.42207 64.1335 6.90116 64.1335 5.18051C64.1335 4.25876 64.3588 3.4138 64.7531 2.67638C66.9923 5.6875 70.358 7.65391 74.1321 7.86903C74.0617 7.50031 74.0195 7.11628 74.0195 6.7322C74.0195 3.99758 76.0474 1.76999 78.5682 1.76999C79.8778 1.76999 81.0608 2.36914 81.8917 3.337C82.9197 3.12193 83.9055 2.70712 84.7786 2.1387C84.4406 3.29094 83.7224 4.2588 82.7789 4.87328C83.6943 4.76579 84.5815 4.4892 85.3982 4.10516C84.7787 5.08835 84.0041 5.96399 83.1169 6.67073V6.67073Z" fill="#EBE5DB"/>
<path d="M158.978 0H138.22C137.269 0 136.496 0.750992 136.496 1.6729V21.5302C136.496 22.4521 137.269 23.2031 138.22 23.2031H158.978C159.929 23.2031 160.708 22.4521 160.708 21.5302V1.6729C160.708 0.750992 159.929 0 158.978 0ZM143.813 19.8883H140.225V8.81509H143.819V19.8883H143.813ZM142.019 7.30275C140.868 7.30275 139.938 6.40674 139.938 5.30874C139.938 4.21073 140.868 3.31472 142.019 3.31472C143.165 3.31472 144.1 4.21073 144.1 5.30874C144.1 6.41192 143.17 7.30275 142.019 7.30275V7.30275ZM157.265 19.8883H153.677V14.5019C153.677 13.2175 153.65 11.5653 151.812 11.5653C149.942 11.5653 149.656 12.9637 149.656 14.4087V19.8883H146.067V8.81509H149.51V10.3274H149.558C150.039 9.45732 151.212 8.54059 152.958 8.54059C156.59 8.54059 157.265 10.835 157.265 13.8183V19.8883V19.8883Z" fill="white" fill-opacity="0.22"/>
<path d="M222.906 5.91167C219.757 5.91167 217.217 8.45226 217.217 11.602C217.217 14.7517 219.757 17.2923 222.906 17.2923C226.055 17.2923 228.595 14.7517 228.595 11.602C228.595 8.45226 226.055 5.91167 222.906 5.91167ZM222.906 15.3014C220.871 15.3014 219.207 13.6424 219.207 11.602C219.207 9.5616 220.866 7.90254 222.906 7.90254C224.946 7.90254 226.604 9.5616 226.604 11.602C226.604 13.6424 224.941 15.3014 222.906 15.3014V15.3014ZM230.154 5.67891C230.154 6.41682 229.56 7.00615 228.827 7.00615C228.09 7.00615 227.501 6.41186 227.501 5.67891C227.501 4.94595 228.095 4.35166 228.827 4.35166C229.56 4.35166 230.154 4.94595 230.154 5.67891ZM233.922 7.02596C233.838 5.24805 233.432 3.67318 232.13 2.37565C230.833 1.07811 229.258 0.672017 227.481 0.582874C225.649 0.478873 220.158 0.478873 218.326 0.582874C216.553 0.667065 214.979 1.07316 213.676 2.37069C212.374 3.66823 211.973 5.24309 211.884 7.02101C211.78 8.8534 211.78 14.3456 211.884 16.178C211.968 17.9559 212.374 19.5308 213.676 20.8283C214.979 22.1259 216.548 22.532 218.326 22.6211C220.158 22.7251 225.649 22.7251 227.481 22.6211C229.258 22.5369 230.833 22.1308 232.13 20.8283C233.427 19.5308 233.833 17.9559 233.922 16.178C234.026 14.3456 234.026 8.85835 233.922 7.02596V7.02596ZM231.556 18.1441C231.169 19.1148 230.422 19.8626 229.446 20.2539C227.986 20.8333 224.52 20.6996 222.906 20.6996C221.292 20.6996 217.821 20.8283 216.365 20.2539C215.395 19.8676 214.647 19.1198 214.256 18.1441C213.676 16.6832 213.81 13.2165 213.81 11.602C213.81 9.9875 213.681 6.51586 214.256 5.05985C214.642 4.08918 215.39 3.34137 216.365 2.95013C217.826 2.37069 221.292 2.50441 222.906 2.50441C224.52 2.50441 227.991 2.37565 229.446 2.95013C230.417 3.33641 231.164 4.08423 231.556 5.05985C232.135 6.52082 232.001 9.9875 232.001 11.602C232.001 13.2165 232.135 16.6881 231.556 18.1441Z" fill="white" fill-opacity="0.22"/>
</svg>
