<svg width="81" height="80" viewBox="0 0 81 80" fill="none" xmlns="http://www.w3.org/2000/svg">
<rect width="81" height="79.9463" rx="6" fill="white"/>
<g clip-path="url(#clip0_1_350)">
<path d="M58.8877 23.9242C58.1277 23.1272 57.0495 22.6677 55.938 22.6677H52.3992C52.4135 22.0395 52.423 21.3926 52.423 20.7268H29.5992C29.5992 21.3925 29.6087 22.0395 29.623 22.6677H26.0605C24.9489 22.6677 23.8707 23.1272 23.1107 23.9242C22.3412 24.726 21.9422 25.8229 22.0087 26.9341C22.6452 37.4076 28.122 43.9804 36.8049 44.9556L35.1234 50.7314C33.1237 50.7314 31.5039 52.33 31.5039 54.3038V58.2325H50.523V54.3038C50.523 52.33 48.9032 50.7314 46.9035 50.7314L45.222 44.9556C53.886 43.971 59.358 37.4029 59.9897 26.9341C60.0562 25.8277 59.6572 24.7306 58.8877 23.9242ZM25.8039 26.709C25.7992 26.6059 25.842 26.5356 25.8799 26.4981C25.9512 26.4231 26.0367 26.4231 26.0605 26.4231H29.8035C30.3688 33.7976 32.017 37.9795 33.6178 40.3424C27.5235 37.8201 26.0699 31.0832 25.8039 26.709ZM48.4045 40.3282C50.0052 37.9607 51.6488 33.7835 52.2139 26.4184H55.9427C55.9712 26.4184 56.052 26.4184 56.1232 26.4934C56.1613 26.5309 56.2039 26.6013 56.1992 26.7044C55.9285 31.0785 54.4797 37.7966 48.4045 40.3282Z" fill="#2B6956"/>
</g>
<defs>
<clipPath id="clip0_1_350">
<rect width="38" height="37.5057" fill="white" transform="translate(22 20.7269)"/>
</clipPath>
</defs>
</svg>
