<svg width="75" height="56" viewBox="0 0 75 56" fill="none" xmlns="http://www.w3.org/2000/svg">
<ellipse cx="2.44444" cy="53.0861" rx="2.35819" ry="2.44444" transform="rotate(-90 2.44444 53.0861)" fill="#EBE5DB"/>
<ellipse cx="2.44444" cy="36.1767" rx="2.35819" ry="2.44444" transform="rotate(-90 2.44444 36.1767)" fill="#EBE5DB"/>
<ellipse cx="2.44444" cy="19.2675" rx="2.35819" ry="2.44444" transform="rotate(-90 2.44444 19.2675)" fill="#EBE5DB"/>
<ellipse cx="2.44444" cy="2.35811" rx="2.35819" ry="2.44444" transform="rotate(-90 2.44444 2.35811)" fill="#EBE5DB"/>
<ellipse cx="19.9722" cy="53.0861" rx="2.35819" ry="2.44444" transform="rotate(-90 19.9722 53.0861)" fill="#EBE5DB"/>
<ellipse cx="19.9722" cy="36.1767" rx="2.35819" ry="2.44444" transform="rotate(-90 19.9722 36.1767)" fill="#EBE5DB"/>
<ellipse cx="19.9722" cy="19.2675" rx="2.35819" ry="2.44444" transform="rotate(-90 19.9722 19.2675)" fill="#EBE5DB"/>
<ellipse cx="19.9722" cy="2.35811" rx="2.35819" ry="2.44444" transform="rotate(-90 19.9722 2.35811)" fill="#EBE5DB"/>
<ellipse cx="37.5" cy="53.0861" rx="2.35819" ry="2.44444" transform="rotate(-90 37.5 53.0861)" fill="#EBE5DB"/>
<ellipse cx="37.5" cy="36.1767" rx="2.35819" ry="2.44444" transform="rotate(-90 37.5 36.1767)" fill="#EBE5DB"/>
<ellipse cx="37.5" cy="19.2675" rx="2.35819" ry="2.44444" transform="rotate(-90 37.5 19.2675)" fill="#EBE5DB"/>
<ellipse cx="37.5" cy="2.35811" rx="2.35819" ry="2.44444" transform="rotate(-90 37.5 2.35811)" fill="#EBE5DB"/>
<ellipse cx="55.0278" cy="53.0861" rx="2.35819" ry="2.44444" transform="rotate(-90 55.0278 53.0861)" fill="#EBE5DB"/>
<ellipse cx="55.0278" cy="36.1767" rx="2.35819" ry="2.44444" transform="rotate(-90 55.0278 36.1767)" fill="#EBE5DB"/>
<ellipse cx="55.0278" cy="19.2675" rx="2.35819" ry="2.44444" transform="rotate(-90 55.0278 19.2675)" fill="#EBE5DB"/>
<ellipse cx="55.0278" cy="2.35811" rx="2.35819" ry="2.44444" transform="rotate(-90 55.0278 2.35811)" fill="#EBE5DB"/>
<ellipse cx="72.5555" cy="53.0861" rx="2.35819" ry="2.44444" transform="rotate(-90 72.5555 53.0861)" fill="#EBE5DB"/>
<ellipse cx="72.5555" cy="36.1767" rx="2.35819" ry="2.44444" transform="rotate(-90 72.5555 36.1767)" fill="#EBE5DB"/>
<ellipse cx="72.5555" cy="19.2675" rx="2.35819" ry="2.44444" transform="rotate(-90 72.5555 19.2675)" fill="#EBE5DB"/>
<ellipse cx="72.5555" cy="2.35811" rx="2.35819" ry="2.44444" transform="rotate(-90 72.5555 2.35811)" fill="#EBE5DB"/>
</svg>
