<svg width="24" height="24" viewBox="0 0 24 24" fill="none" xmlns="http://www.w3.org/2000/svg">
<path d="M12 10.8699L21.46 5.31988C21.1877 4.91693 20.8215 4.58624 20.3929 4.35629C19.9644 4.12634 19.4863 4.00402 19 3.99988H5.00002C4.5112 3.99966 4.02973 4.1189 3.5975 4.34721C3.16528 4.57553 2.79539 4.906 2.52002 5.30988L12 10.8699Z" fill="#5A524C"/>
<path d="M13 12.5898C12.6962 12.7661 12.3513 12.8592 12 12.8598C11.6496 12.8623 11.3048 12.7726 11 12.5998L2 7.32983V16.9998C2 17.7955 2.31607 18.5585 2.87868 19.1212C3.44129 19.6838 4.20435 19.9998 5 19.9998H19C19.7956 19.9998 20.5587 19.6838 21.1213 19.1212C21.6839 18.5585 22 17.7955 22 16.9998V7.32983L13 12.5898Z" fill="#5A524C"/>
</svg>
