<svg width="1426" height="366" viewBox="0 0 1426 366" fill="none" xmlns="http://www.w3.org/2000/svg">
<mask id="mask0_25_3945" style="mask-type:alpha" maskUnits="userSpaceOnUse" x="-248" y="0" width="1921" height="366">
<rect x="-247.095" width="1920" height="366" fill="#0D0E0C"/>
</mask>
<g mask="url(#mask0_25_3945)">
<path d="M362.437 55.463C286.902 -195.156 514.469 -255.832 637.695 -254.843C868.287 -246.881 770.087 -126.229 955.906 -36.7957C1141.73 52.6373 949.991 81.3033 911.902 196.595C873.812 311.887 1139.45 265.396 1064.28 475.699C989.121 686.003 578.973 678.615 746.722 411.957C914.471 145.299 456.857 368.737 362.437 55.463Z" stroke="#20221E" stroke-width="2"/>
<path d="M443.255 84.8461C385.165 -108.219 560.221 -154.974 655.01 -154.219C832.388 -148.099 756.843 -55.1464 899.776 13.7393C1042.71 82.625 895.219 104.719 865.913 193.538C836.607 282.357 1040.94 246.527 983.115 408.543C925.285 570.558 609.786 564.89 738.839 359.456C867.892 154.022 515.867 326.177 443.255 84.8461Z" stroke="#20221E" stroke-width="2"/>
<path d="M287.618 28.0157C195.957 -276.435 472.153 -350.158 621.709 -348.963C901.574 -339.304 782.384 -192.729 1007.9 -84.095C1233.42 24.5387 1000.72 59.3734 954.483 199.433C908.248 339.493 1230.65 283 1139.41 538.484C1048.17 793.967 550.387 785.016 753.995 461.068C957.604 137.119 402.195 408.58 287.618 28.0157Z" stroke="#20221E" stroke-width="2"/>
<path d="M224.755 5.2546C119.515 -343.759 436.551 -428.249 608.224 -426.867C929.476 -415.773 792.671 -247.757 1051.55 -123.207C1310.43 1.34174 1043.31 41.2564 990.251 201.81C937.19 362.363 1307.26 297.628 1202.55 590.493C1097.84 883.358 526.442 873.059 760.136 501.717C993.829 130.376 356.305 441.521 224.755 5.2546Z" stroke="#20221E" stroke-width="2"/>
<path d="M134.981 -27.8459C10.4078 -441.822 385.804 -542.075 589.074 -540.454C969.453 -527.329 807.451 -328.019 1113.96 -180.311C1420.48 -32.6023 1104.19 14.7715 1041.35 205.22C978.504 395.668 1416.69 318.842 1292.68 666.24C1168.67 1013.64 492.102 1001.48 768.848 560.984C1045.59 120.487 290.697 489.624 134.981 -27.8459Z" stroke="#20221E" stroke-width="2"/>
<path d="M30.2498 -66.5962C-116.863 -556.666 326.626 -675.398 566.759 -673.505C1016.12 -658.014 824.713 -422.041 1186.79 -247.214C1548.88 -72.3882 1175.23 -16.2652 1100.96 209.205C1026.7 434.675 1544.36 343.67 1397.82 754.952C1251.27 1166.23 452.008 1151.93 778.997 630.411C1105.99 108.894 214.141 545.992 30.2498 -66.5962Z" stroke="#20221E" stroke-width="2"/>
</g>
</svg>
