<svg width="160" height="24" viewBox="0 0 160 24" fill="none" xmlns="http://www.w3.org/2000/svg">
<path d="M22.9494 9.32205C22.8908 9.14736 22.7851 8.99226 22.6439 8.87385C22.5027 8.75544 22.3316 8.67834 22.1494 8.65105L15.7674 7.67605L12.9034 1.57605C12.8226 1.40426 12.6946 1.25899 12.5344 1.15725C12.3741 1.0555 12.1882 1.00146 11.9984 1.00146C11.8085 1.00146 11.6226 1.0555 11.4624 1.15725C11.3021 1.25899 11.1741 1.40426 11.0934 1.57605L8.22936 7.67605L1.84736 8.65105C1.66558 8.67876 1.49496 8.75605 1.35425 8.87443C1.21355 8.99281 1.10821 9.1477 1.04981 9.32206C0.991419 9.49642 0.982229 9.6835 1.02325 9.86275C1.06428 10.042 1.15393 10.2065 1.28236 10.3381L5.93336 15.1001L4.83336 21.8381C4.80334 22.023 4.82587 22.2126 4.89838 22.3853C4.97089 22.5581 5.09046 22.707 5.24347 22.8151C5.39648 22.9231 5.57678 22.9861 5.76381 22.9967C5.95085 23.0073 6.13711 22.9651 6.30136 22.8751L12.0014 19.7271L17.7014 22.8751C17.8656 22.9659 18.0521 23.0087 18.2395 22.9985C18.427 22.9884 18.6077 22.9257 18.7612 22.8176C18.9147 22.7095 19.0346 22.5604 19.1073 22.3874C19.18 22.2143 19.2026 22.0243 19.1724 21.8391L18.0724 15.1011L22.7204 10.3381C22.8482 10.2061 22.9372 10.0414 22.9776 9.86222C23.018 9.68299 23.0082 9.4961 22.9494 9.32205V9.32205Z" fill="#FA8B3B"/>
<path d="M56.9494 9.32205C56.8908 9.14736 56.7851 8.99226 56.6439 8.87385C56.5027 8.75544 56.3316 8.67834 56.1494 8.65105L49.7674 7.67605L46.9034 1.57605C46.8226 1.40426 46.6946 1.25899 46.5344 1.15725C46.3741 1.0555 46.1882 1.00146 45.9984 1.00146C45.8085 1.00146 45.6226 1.0555 45.4624 1.15725C45.3021 1.25899 45.1741 1.40426 45.0934 1.57605L42.2294 7.67605L35.8474 8.65105C35.6656 8.67876 35.495 8.75605 35.3543 8.87443C35.2136 8.99281 35.1082 9.1477 35.0498 9.32206C34.9914 9.49642 34.9822 9.6835 35.0233 9.86275C35.0643 10.042 35.1539 10.2065 35.2824 10.3381L39.9334 15.1001L38.8334 21.8381C38.8033 22.023 38.8259 22.2126 38.8984 22.3853C38.9709 22.5581 39.0905 22.707 39.2435 22.8151C39.3965 22.9231 39.5768 22.9861 39.7638 22.9967C39.9509 23.0073 40.1371 22.9651 40.3014 22.8751L46.0014 19.7271L51.7014 22.8751C51.8656 22.9659 52.0521 23.0087 52.2395 22.9985C52.427 22.9884 52.6077 22.9257 52.7612 22.8176C52.9147 22.7095 53.0346 22.5604 53.1073 22.3874C53.18 22.2143 53.2026 22.0243 53.1724 21.8391L52.0724 15.1011L56.7204 10.3381C56.8482 10.2061 56.9372 10.0414 56.9776 9.86222C57.018 9.68299 57.0082 9.4961 56.9494 9.32205V9.32205Z" fill="#FA8B3B"/>
<path d="M90.9494 9.32205C90.8908 9.14736 90.7851 8.99226 90.6439 8.87385C90.5027 8.75544 90.3316 8.67834 90.1494 8.65105L83.7674 7.67605L80.9034 1.57605C80.8226 1.40426 80.6946 1.25899 80.5344 1.15725C80.3741 1.0555 80.1882 1.00146 79.9984 1.00146C79.8085 1.00146 79.6226 1.0555 79.4624 1.15725C79.3021 1.25899 79.1741 1.40426 79.0934 1.57605L76.2294 7.67605L69.8474 8.65105C69.6656 8.67876 69.495 8.75605 69.3543 8.87443C69.2136 8.99281 69.1082 9.1477 69.0498 9.32206C68.9914 9.49642 68.9822 9.6835 69.0233 9.86275C69.0643 10.042 69.1539 10.2065 69.2824 10.3381L73.9334 15.1001L72.8334 21.8381C72.8033 22.023 72.8259 22.2126 72.8984 22.3853C72.9709 22.5581 73.0905 22.707 73.2435 22.8151C73.3965 22.9231 73.5768 22.9861 73.7638 22.9967C73.9509 23.0073 74.1371 22.9651 74.3014 22.8751L80.0014 19.7271L85.7014 22.8751C85.8656 22.9659 86.0521 23.0087 86.2395 22.9985C86.427 22.9884 86.6077 22.9257 86.7612 22.8176C86.9147 22.7095 87.0346 22.5604 87.1073 22.3874C87.18 22.2143 87.2026 22.0243 87.1724 21.8391L86.0724 15.1011L90.7204 10.3381C90.8482 10.2061 90.9372 10.0414 90.9776 9.86222C91.018 9.68299 91.0082 9.4961 90.9494 9.32205V9.32205Z" fill="#FA8B3B"/>
<path d="M124.949 9.32205C124.891 9.14736 124.785 8.99226 124.644 8.87385C124.503 8.75544 124.332 8.67834 124.149 8.65105L117.767 7.67605L114.903 1.57605C114.823 1.40426 114.695 1.25899 114.534 1.15725C114.374 1.0555 114.188 1.00146 113.998 1.00146C113.809 1.00146 113.623 1.0555 113.462 1.15725C113.302 1.25899 113.174 1.40426 113.093 1.57605L110.229 7.67605L103.847 8.65105C103.666 8.67876 103.495 8.75605 103.354 8.87443C103.214 8.99281 103.108 9.1477 103.05 9.32206C102.991 9.49642 102.982 9.6835 103.023 9.86275C103.064 10.042 103.154 10.2065 103.282 10.3381L107.933 15.1001L106.833 21.8381C106.803 22.023 106.826 22.2126 106.898 22.3853C106.971 22.5581 107.09 22.707 107.243 22.8151C107.396 22.9231 107.577 22.9861 107.764 22.9967C107.951 23.0073 108.137 22.9651 108.301 22.8751L114.001 19.7271L119.701 22.8751C119.866 22.9659 120.052 23.0087 120.24 22.9985C120.427 22.9884 120.608 22.9257 120.761 22.8176C120.915 22.7095 121.035 22.5604 121.107 22.3874C121.18 22.2143 121.203 22.0243 121.172 21.8391L120.072 15.1011L124.72 10.3381C124.848 10.2061 124.937 10.0414 124.978 9.86222C125.018 9.68299 125.008 9.4961 124.949 9.32205V9.32205Z" fill="#FA8B3B"/>
<path d="M158.949 9.32205C158.891 9.14736 158.785 8.99226 158.644 8.87385C158.503 8.75544 158.332 8.67834 158.149 8.65105L151.767 7.67605L148.903 1.57605C148.823 1.40426 148.695 1.25899 148.534 1.15725C148.374 1.0555 148.188 1.00146 147.998 1.00146C147.809 1.00146 147.623 1.0555 147.462 1.15725C147.302 1.25899 147.174 1.40426 147.093 1.57605L144.229 7.67605L137.847 8.65105C137.666 8.67876 137.495 8.75605 137.354 8.87443C137.214 8.99281 137.108 9.1477 137.05 9.32206C136.991 9.49642 136.982 9.6835 137.023 9.86275C137.064 10.042 137.154 10.2065 137.282 10.3381L141.933 15.1001L140.833 21.8381C140.803 22.023 140.826 22.2126 140.898 22.3853C140.971 22.5581 141.09 22.707 141.243 22.8151C141.396 22.9231 141.577 22.9861 141.764 22.9967C141.951 23.0073 142.137 22.9651 142.301 22.8751L148.001 19.7271L153.701 22.8751C153.866 22.9659 154.052 23.0087 154.24 22.9985C154.427 22.9884 154.608 22.9257 154.761 22.8176C154.915 22.7095 155.035 22.5604 155.107 22.3874C155.18 22.2143 155.203 22.0243 155.172 21.8391L154.072 15.1011L158.72 10.3381C158.848 10.2061 158.937 10.0414 158.978 9.86222C159.018 9.68299 159.008 9.4961 158.949 9.32205V9.32205Z" fill="#D0D0D0"/>
</svg>
