<svg width="80" height="80" viewBox="0 0 80 80" fill="none" xmlns="http://www.w3.org/2000/svg">
<path d="M63.3332 16.6667H59.9998V10.0001C59.9998 9.11603 59.6487 8.26818 59.0235 7.64306C58.3984 7.01794 57.5506 6.66675 56.6665 6.66675C55.7825 6.66675 54.9346 7.01794 54.3095 7.64306C53.6844 8.26818 53.3332 9.11603 53.3332 10.0001V16.6667H26.6665V10.0001C26.6665 9.11603 26.3153 8.26818 25.6902 7.64306C25.0651 7.01794 24.2172 6.66675 23.3332 6.66675C22.4491 6.66675 21.6013 7.01794 20.9761 7.64306C20.351 8.26818 19.9998 9.11603 19.9998 10.0001V16.6667H16.6665C14.0143 16.6667 11.4708 17.7203 9.59544 19.5957C7.72007 21.471 6.6665 24.0146 6.6665 26.6667V30.0001H73.3332V26.6667C73.3332 24.0146 72.2796 21.471 70.4042 19.5957C68.5289 17.7203 65.9853 16.6667 63.3332 16.6667Z" fill="#2B6956"/>
<path d="M6.6665 63.3334C6.6665 65.9856 7.72007 68.5291 9.59544 70.4045C11.4708 72.2798 14.0143 73.3334 16.6665 73.3334H63.3332C65.9853 73.3334 68.5289 72.2798 70.4042 70.4045C72.2796 68.5291 73.3332 65.9856 73.3332 63.3334V36.6667H6.6665V63.3334Z" fill="#2B6956"/>
</svg>
