<svg width="24" height="24" viewBox="0 0 24 24" fill="none" xmlns="http://www.w3.org/2000/svg">
<path d="M18.7848 6.36266C18.216 5.24139 17.3746 4.28107 16.3377 3.56999C15.3009 2.85891 14.1019 2.4199 12.8511 2.29331C12.2852 2.23654 11.7151 2.23654 11.1492 2.29331C9.89839 2.41999 8.69944 2.85899 7.66255 3.56998C6.62566 4.28097 5.78409 5.24115 5.21515 6.36229C4.49934 7.7928 4.22286 9.40314 4.42052 10.9905C4.61817 12.5778 5.28114 14.0712 6.3259 15.2825L11.4206 21.4766C11.4909 21.5622 11.5794 21.6311 11.6796 21.6784C11.7797 21.7258 11.8892 21.7503 12 21.7503C12.1107 21.7503 12.2202 21.7258 12.3203 21.6784C12.4205 21.6311 12.509 21.5622 12.5793 21.4766L17.674 15.2825C18.7188 14.0713 19.3817 12.578 19.5794 10.9907C19.777 9.4034 19.5005 7.79311 18.7848 6.36266ZM12 12.7501C11.4066 12.7501 10.8266 12.5742 10.3332 12.2445C9.83989 11.9149 9.45538 11.4463 9.22831 10.8982C9.00125 10.35 8.94184 9.74679 9.0576 9.16484C9.17335 8.5829 9.45907 8.04835 9.87863 7.62879C10.2982 7.20924 10.8327 6.92351 11.4147 6.80776C11.9966 6.692 12.5998 6.75141 13.148 6.97847C13.6962 7.20554 14.1647 7.59006 14.4944 8.0834C14.824 8.57675 15 9.15677 15 9.75011C14.999 10.5455 14.6826 11.308 14.1202 11.8704C13.5578 12.4328 12.7953 12.7492 12 12.7501V12.7501Z" fill="#EBE5DB"/>
</svg>
