<svg width="1920" height="491" viewBox="0 0 1920 491" fill="none" xmlns="http://www.w3.org/2000/svg">
<rect width="1920" height="490.076" fill="#2B6956"/>
<mask id="mask0_36_359" style="mask-type:alpha" maskUnits="userSpaceOnUse" x="0" y="0" width="1920" height="491">
<rect width="1920" height="490.076" fill="#080A12"/>
</mask>
<g mask="url(#mask0_36_359)">
<path d="M1913.39 190.57C2119.51 152.877 2148.68 332.787 2137.5 427.454C2111.71 604.107 2023.83 518.787 1936.88 654.387C1849.94 789.987 1843.26 640.233 1754.58 601.568C1665.9 562.903 1680.56 770.929 1519.28 696.03C1358 621.131 1398.47 306.373 1596.86 457.045C1795.24 607.716 1655.75 237.685 1913.39 190.57Z" stroke="#EEEEEE" stroke-opacity="0.12" stroke-width="2"/>
<path d="M1883.16 250.32C2041.93 221.359 2064.44 359.761 2055.84 432.582C2036.01 568.47 1968.29 502.822 1901.34 607.119C1834.38 711.416 1829.21 596.215 1760.89 566.457C1692.57 536.699 1703.9 696.727 1579.65 639.083C1455.4 581.439 1486.52 339.316 1639.37 455.254C1792.22 571.193 1684.69 286.52 1883.16 250.32Z" stroke="#EEEEEE" stroke-opacity="0.12" stroke-width="2"/>
<path d="M1941.58 135.275C2191.96 89.5624 2227.43 307.924 2213.86 422.819C2182.57 637.219 2075.79 533.652 1970.2 698.215C1864.6 862.778 1856.46 681.02 1748.73 634.078C1640.99 587.135 1658.84 839.619 1462.91 748.687C1266.97 657.755 1316.08 275.739 1557.1 458.643C1798.13 641.546 1628.6 192.416 1941.58 135.275Z" stroke="#EEEEEE" stroke-opacity="0.12" stroke-width="2"/>
<path d="M1965.02 88.7916C2252.06 36.2633 2292.67 286.902 2277.09 418.787C2241.16 664.893 2118.78 546.038 1997.69 734.956C1876.59 923.874 1867.3 715.245 1743.82 661.386C1620.33 607.528 1640.72 897.338 1416.13 793.006C1191.54 688.674 1247.93 250.166 1524.19 460.057C1800.45 669.948 1606.22 154.452 1965.02 88.7916Z" stroke="#EEEEEE" stroke-opacity="0.12" stroke-width="2"/>
<path d="M1998.97 22.4573C2339.42 -39.6516 2387.67 257.142 2369.24 413.303C2326.7 704.706 2181.51 563.931 2037.94 787.591C1894.37 1011.25 1883.28 764.21 1736.79 700.397C1590.3 636.585 1614.58 979.755 1348.16 856.146C1081.73 732.536 1148.47 213.317 1476.22 461.935C1803.96 710.553 1573.41 100.093 1998.97 22.4573Z" stroke="#EEEEEE" stroke-opacity="0.12" stroke-width="2"/>
<path d="M2038.68 -54.9175C2441.68 -128.167 2498.92 222.485 2477.16 406.968C2426.92 751.217 2254.99 584.851 2085.12 849.031C1915.25 1113.21 1902.03 821.351 1728.59 745.909C1555.15 670.467 1584.03 1075.9 1268.59 929.767C953.148 783.636 1031.94 170.25 1420.03 464.091C1808.11 757.932 1534.94 36.6449 2038.68 -54.9175Z" stroke="#EEEEEE" stroke-opacity="0.12" stroke-width="2"/>
<path d="M-43.0142 -53.2387C-132.506 91.2635 4.78684 164.722 84.6198 183.388C235.003 214.507 191.082 123.884 325.732 97.1792C460.382 70.4746 341.065 22.5898 335.14 -55.2834C329.215 -133.157 493.421 -62.5889 478.938 -205.527C464.455 -348.465 198.072 -408.041 263.276 -215.464C328.48 -22.8861 68.8506 -233.867 -43.0142 -53.2387Z" stroke="#EEEEEE" stroke-opacity="0.12" stroke-width="2"/>
<path d="M14.0054 -58.9196C-54.8709 52.4131 50.7283 108.971 112.138 123.334C227.816 147.274 194.05 77.4735 297.638 56.874C401.227 36.2745 309.45 -0.587451 304.91 -60.5741C300.369 -120.561 426.673 -66.2349 415.564 -176.341C404.455 -286.447 199.547 -332.284 249.663 -183.95C299.779 -35.6161 100.101 -198.086 14.0054 -58.9196Z" stroke="#EEEEEE" stroke-opacity="0.12" stroke-width="2"/>
<path d="M-95.8412 -47.8268C-204.492 127.729 -37.8733 216.935 59.0171 239.594C241.532 277.365 188.246 167.287 351.679 134.819C515.112 102.351 370.305 44.2069 363.132 -50.39C355.958 -144.987 555.242 -59.2977 537.696 -232.932C520.15 -406.566 196.85 -478.882 275.946 -244.957C355.041 -11.0332 39.9718 -267.272 -95.8412 -47.8268Z" stroke="#EEEEEE" stroke-opacity="0.12" stroke-width="2"/>
<path d="M-140.178 -43.4681C-264.836 157.758 -73.5598 260.072 37.6608 286.075C247.169 329.428 185.971 203.22 373.554 166.045C561.138 128.87 394.907 62.172 386.643 -46.2759C378.38 -154.724 607.151 -56.4331 586.958 -255.492C566.765 -454.552 195.65 -537.546 286.509 -269.353C377.369 -1.15957 15.645 -295.001 -140.178 -43.4681Z" stroke="#EEEEEE" stroke-opacity="0.12" stroke-width="2"/>
<path d="M-203.592 -36.8706C-351.288 201.851 -124.835 323.129 6.85391 353.928C254.92 405.267 182.507 255.596 404.646 211.43C626.784 167.264 429.973 88.2192 420.234 -40.4067C410.495 -169.032 681.348 -52.5401 657.52 -288.634C633.692 -524.729 194.279 -623.023 301.756 -304.957C409.233 13.109 -18.9718 -335.272 -203.592 -36.8706Z" stroke="#EEEEEE" stroke-opacity="0.12" stroke-width="2"/>
<path d="M-277.592 -29.0897C-452.205 253.568 -184.724 397.027 -29.1567 433.425C263.894 494.083 178.416 316.943 440.882 264.558C703.348 212.173 470.866 118.694 459.424 -33.5637C447.981 -185.822 767.921 -48.0474 739.887 -327.516C711.853 -606.984 192.76 -723.138 319.58 -346.673C446.4 29.7911 -59.3262 -382.411 -277.592 -29.0897Z" stroke="#EEEEEE" stroke-opacity="0.12" stroke-width="2"/>
</g>
</svg>
