<svg width="25" height="24" viewBox="0 0 25 24" fill="none" xmlns="http://www.w3.org/2000/svg">
<path d="M23.2143 0H1.78013C0.797991 0 0 0.775437 0 1.72735V22.231C0 23.1829 0.797991 23.9583 1.78013 23.9583H23.2143C24.1964 23.9583 25 23.1829 25 22.231V1.72735C25 0.775437 24.1964 0 23.2143 0ZM7.5558 20.5357H3.85044V9.10202H7.56138V20.5357H7.5558ZM5.70312 7.54045C4.51451 7.54045 3.55469 6.61528 3.55469 5.48153C3.55469 4.34779 4.51451 3.42262 5.70312 3.42262C6.88616 3.42262 7.85156 4.34779 7.85156 5.48153C7.85156 6.62062 6.89174 7.54045 5.70312 7.54045V7.54045ZM21.4453 20.5357H17.7399V14.9739C17.7399 13.6477 17.712 11.9417 15.8147 11.9417C13.8839 11.9417 13.5882 13.3856 13.5882 14.8777V20.5357H9.88281V9.10202H13.4375V10.6636H13.4877C13.9844 9.76515 15.1953 8.81859 16.9978 8.81859C20.7478 8.81859 21.4453 11.1877 21.4453 14.268V20.5357V20.5357Z" fill="#667966"/>
</svg>
