<svg width="24" height="24" viewBox="0 0 24 24" fill="none" xmlns="http://www.w3.org/2000/svg">
<path d="M21.5953 21.6001V21.5994H21.6001V14.5578C21.6001 11.113 20.8585 8.45935 16.8313 8.45935C14.8952 8.45935 13.5961 9.52183 13.0657 10.5289H13.0098V8.78095H9.19141V21.5994H13.1675V15.2521C13.1675 13.581 13.4843 11.9648 15.5538 11.9648C17.5931 11.9648 17.6233 13.8721 17.6233 15.3591V21.6001H21.5953Z" fill="#0073B1"/>
<path d="M2.7168 8.78162H6.69767V21.6H2.7168V8.78162Z" fill="#0073B1"/>
<path d="M4.70607 2.40015C3.43311 2.40015 2.40039 3.43286 2.40039 4.70582C2.40039 5.97878 3.43311 7.0331 4.70607 7.0331C5.97904 7.0331 7.01176 5.97878 7.01176 4.70582C7.0108 3.43286 5.97808 2.40015 4.70607 2.40015Z" fill="#0073B1"/>
</svg>
