<svg width="1426" height="362" viewBox="0 0 1426 362" fill="none" xmlns="http://www.w3.org/2000/svg">
<mask id="mask0_25_51" style="mask-type:alpha" maskUnits="userSpaceOnUse" x="-248" y="0" width="1922" height="362">
<rect x="-247.245" width="1921.21" height="361.466" fill="#0D0E0C"/>
</mask>
<g mask="url(#mask0_25_51)">
<path d="M362.671 54.7755C287.088 -192.74 514.799 -252.664 638.102 -251.686C868.839 -243.823 770.577 -124.666 956.514 -36.3404C1142.45 51.9848 950.595 80.2957 912.481 194.159C874.368 308.023 1140.17 262.108 1064.96 469.806C989.75 677.505 579.343 670.209 747.198 406.854C915.052 143.499 457.15 364.169 362.671 54.7755Z" stroke="#20221E" stroke-width="2"/>
<path d="M443.539 83.7954C385.413 -106.878 560.579 -153.054 655.428 -152.308C832.918 -146.264 757.325 -54.4631 900.348 13.5693C1043.37 81.6017 895.789 103.422 866.464 191.141C837.139 278.86 1041.61 243.474 983.739 403.482C925.873 563.491 610.176 557.893 739.31 355.004C868.444 152.114 516.198 322.137 443.539 83.7954Z" stroke="#20221E" stroke-width="2"/>
<path d="M287.805 27.6695C196.086 -273.01 472.456 -345.82 622.107 -344.64C902.147 -335.1 782.882 -190.341 1008.54 -83.0525C1234.2 24.2355 1001.35 58.6388 955.089 196.964C908.826 335.289 1231.43 279.495 1140.13 531.814C1048.84 784.133 550.74 775.293 754.476 455.357C958.212 135.421 402.454 403.519 287.805 27.6695Z" stroke="#20221E" stroke-width="2"/>
<path d="M224.902 5.1894C119.596 -339.501 436.832 -422.944 608.613 -421.58C930.068 -410.623 793.176 -244.688 1052.22 -121.681C1311.26 1.325 1043.98 40.7452 990.881 199.31C937.786 357.874 1308.09 293.941 1203.32 583.178C1098.54 872.416 526.779 862.244 760.62 495.502C994.461 128.761 356.535 436.052 224.902 5.1894Z" stroke="#20221E" stroke-width="2"/>
<path d="M135.071 -27.5006C10.4199 -436.349 386.053 -535.36 589.451 -533.759C970.07 -520.797 807.965 -323.955 1114.67 -178.077C1421.38 -32.198 1104.89 14.5889 1042.01 202.678C979.126 390.767 1417.59 314.893 1293.5 657.987C1169.41 1001.08 492.418 989.076 769.338 554.036C1046.26 118.995 290.885 483.56 135.071 -27.5006Z" stroke="#20221E" stroke-width="2"/>
<path d="M30.2742 -65.7714C-116.931 -549.771 326.837 -667.032 567.122 -665.162C1016.77 -649.864 825.238 -416.813 1187.55 -244.152C1549.86 -71.4916 1175.97 -16.0638 1101.66 206.614C1027.35 429.291 1545.34 339.412 1398.7 745.6C1252.07 1151.79 452.298 1137.66 779.493 622.602C1106.69 107.545 214.281 539.228 30.2742 -65.7714Z" stroke="#20221E" stroke-width="2"/>
</g>
</svg>
