<svg width="24" height="24" viewBox="0 0 24 24" fill="none" xmlns="http://www.w3.org/2000/svg">
<path d="M12 10.8695L21.46 5.31951C21.1877 4.91657 20.8215 4.58587 20.3929 4.35592C19.9644 4.12597 19.4863 4.00365 19 3.99951H5.00002C4.5112 3.9993 4.02973 4.11854 3.5975 4.34685C3.16528 4.57516 2.79539 4.90563 2.52002 5.30951L12 10.8695Z" fill="#EBE5DB"/>
<path d="M13 12.5901C12.6962 12.7663 12.3513 12.8595 12 12.8601C11.6496 12.8625 11.3048 12.7728 11 12.6001L2 7.33008V17.0001C2 17.7957 2.31607 18.5588 2.87868 19.1214C3.44129 19.684 4.20435 20.0001 5 20.0001H19C19.7956 20.0001 20.5587 19.684 21.1213 19.1214C21.6839 18.5588 22 17.7957 22 17.0001V7.33008L13 12.5901Z" fill="#EBE5DB"/>
</svg>
