<svg width="1920" height="668" viewBox="0 0 1920 668" fill="none" xmlns="http://www.w3.org/2000/svg">
<rect width="1920" height="667.965" fill="#0D0E0C"/>
<mask id="mask0_25_399" style="mask-type:alpha" maskUnits="userSpaceOnUse" x="0" y="0" width="1920" height="668">
<rect width="1920" height="667.965" fill="#0D0E0C"/>
</mask>
<g mask="url(#mask0_25_399)">
<path d="M609.532 415.707C533.997 167.331 761.564 107.199 884.79 108.18C1115.38 116.07 1017.18 235.642 1203 324.274C1388.82 412.906 1197.09 441.316 1159 555.575C1120.91 669.834 1386.54 623.759 1311.38 832.18C1236.22 1040.6 826.068 1033.28 993.817 769.009C1161.57 504.739 703.952 726.176 609.532 415.707Z" stroke="#20221E" stroke-width="2"/>
<path d="M690.35 444.827C632.26 253.491 807.316 207.154 902.105 207.903C1079.48 213.968 1003.94 306.088 1146.87 374.357C1289.8 442.626 1142.31 464.522 1113.01 552.546C1083.7 640.57 1288.04 605.06 1230.21 765.625C1172.38 926.19 856.881 920.573 985.934 716.978C1114.99 513.383 762.962 683.997 690.35 444.827Z" stroke="#20221E" stroke-width="2"/>
<path d="M534.713 388.506C443.052 86.7806 719.249 13.7181 868.805 14.9025C1148.67 24.4748 1029.48 169.738 1255 277.399C1480.52 385.06 1247.81 419.582 1201.58 558.388C1155.34 697.194 1477.74 641.207 1386.5 894.402C1295.27 1147.6 797.482 1138.73 1001.09 817.679C1204.7 496.632 649.29 765.662 534.713 388.506Z" stroke="#20221E" stroke-width="2"/>
<path d="M471.851 365.948C366.611 20.06 683.646 -63.6737 855.319 -62.3045C1176.57 -51.3099 1039.77 115.203 1298.64 238.636C1557.52 362.07 1290.41 401.627 1237.35 560.743C1184.29 719.859 1554.36 655.703 1449.65 945.946C1344.94 1236.19 773.538 1225.98 1007.23 857.965C1240.92 489.949 603.401 798.308 471.851 365.948Z" stroke="#20221E" stroke-width="2"/>
<path d="M382.076 333.144C257.503 -77.1251 632.9 -176.48 836.17 -174.874C1216.55 -161.867 1054.55 35.6589 1361.06 182.045C1667.57 328.43 1351.29 375.38 1288.44 564.123C1225.6 752.866 1663.79 676.728 1539.78 1021.01C1415.77 1365.3 739.198 1353.25 1015.94 916.702C1292.69 480.149 537.792 845.981 382.076 333.144Z" stroke="#20221E" stroke-width="2"/>
<path d="M277.345 294.741C130.232 -190.941 573.721 -308.609 813.854 -306.733C1263.21 -291.382 1071.81 -57.5208 1433.89 115.74C1795.97 289.001 1422.32 344.621 1348.06 568.072C1273.79 791.524 1791.46 701.333 1644.91 1108.93C1498.37 1516.53 699.103 1502.35 1026.09 985.507C1353.08 468.659 461.236 901.843 277.345 294.741Z" stroke="#20221E" stroke-width="2"/>
</g>
</svg>
