<svg width="1498" height="879" viewBox="0 0 1498 879" fill="none" xmlns="http://www.w3.org/2000/svg">
<mask id="mask0_25_259" style="mask-type:alpha" maskUnits="userSpaceOnUse" x="0" y="0" width="1498" height="879">
<path d="M0 0H1498V878.422H0V0Z" fill="#EBE5DB"/>
</mask>
<g mask="url(#mask0_25_259)">
<path d="M-156.824 -155.375C-347.624 2.79305 -197.987 167.569 -99.3189 230.187C88.5043 342.559 73.1747 197.186 267.801 222.474C462.428 247.762 324.648 126.585 354.404 16.3511C384.16 -93.8829 571.512 79.3262 621.263 -124.676C671.013 -328.678 340.468 -533.877 335.091 -237.939C329.713 57.9997 81.6765 -353.086 -156.824 -155.375Z" stroke="#EEEEEE" stroke-width="2"/>
<path d="M-77.135 -136.896C-224.039 -15.0003 -108.974 111.817 -33.0779 159.989C111.4 246.432 99.6763 134.491 249.433 153.869C399.189 173.248 293.226 79.9997 316.18 -4.90382C339.133 -89.8073 483.217 43.4856 521.604 -113.637C559.991 -270.759 305.732 -428.616 301.445 -200.718C297.158 27.181 106.496 -289.266 -77.135 -136.896Z" stroke="#EEEEEE" stroke-width="2"/>
<path d="M-230.726 -172.289C-462.43 19.9039 -280.86 219.955 -161.111 295.957C66.8432 432.344 48.3068 255.792 284.564 286.41C520.821 317.027 353.623 169.923 389.801 36.0263C425.979 -97.8701 653.331 112.405 713.829 -135.385C774.327 -383.175 373.16 -632.232 366.483 -272.805C359.806 86.6216 58.9045 -412.53 -230.726 -172.289Z" stroke="#EEEEEE" stroke-width="2"/>
<path d="M-292.662 -186.735C-558.41 33.5054 -349.923 263.032 -212.46 350.266C49.2091 506.817 27.8181 304.346 298.943 339.614C570.067 374.881 378.107 206.08 419.53 52.5603C460.953 -100.959 721.981 140.321 791.233 -143.788C860.485 -427.897 399.978 -713.766 392.562 -301.603C385.145 110.56 39.5227 -462.035 -292.662 -186.735Z" stroke="#EEEEEE" stroke-width="2"/>
<path d="M-381.423 -206.899C-696.432 54.4666 -449.675 326.41 -286.92 429.711C22.9045 615.084 -2.24545 375.049 318.893 416.615C640.031 458.182 412.796 258.222 462.009 76.1663C511.222 -105.889 820.207 179.942 902.508 -156.969C984.81 -493.881 439.566 -832.395 430.394 -343.716C421.223 144.963 12.3377 -533.606 -381.423 -206.899Z" stroke="#EEEEEE" stroke-width="2"/>
<path d="M-485.043 -230.314C-857.67 79.278 -566.307 400.78 -374.047 522.831C-8.04405 741.833 -37.5049 457.847 342.031 506.682C721.566 555.517 453.198 319.167 511.569 103.703C569.94 -111.761 934.84 226.106 1032.49 -172.623C1130.14 -571.351 486.049 -971.297 474.666 -393.074C463.284 185.149 -19.2608 -617.305 -485.043 -230.314Z" stroke="#EEEEEE" stroke-width="2"/>
<path d="M1064.75 773.625C950.339 992.096 1152.71 1087.32 1268.2 1107.63C1485.37 1139.98 1414.53 1011.63 1604.02 961.029C1793.51 910.423 1619.09 850.931 1603.56 737.887C1588.03 624.842 1828.5 713.523 1794.85 506.339C1761.2 299.155 1376.1 235.353 1486.56 510.53C1597.01 785.707 1207.76 500.536 1064.75 773.625Z" stroke="#EEEEEE" stroke-width="2"/>
<path d="M1145.5 760.403C1057.46 928.719 1213.12 1002.05 1301.95 1017.67C1469.01 1042.56 1414.53 943.701 1560.31 904.689C1706.08 865.677 1571.92 819.873 1559.99 732.791C1548.06 645.71 1733.03 713.989 1707.18 554.39C1681.32 394.791 1385.09 345.699 1470.02 557.665C1554.95 769.631 1255.56 550.007 1145.5 760.403Z" stroke="#EEEEEE" stroke-width="2"/>
<path d="M989.944 786.092C851.052 1051.51 1096.65 1167.16 1236.82 1191.81C1500.4 1231.08 1414.43 1075.17 1644.43 1013.67C1874.42 952.165 1662.73 879.921 1643.9 742.597C1625.07 605.273 1916.91 712.966 1876.11 461.285C1835.3 209.605 1367.91 132.156 1501.93 466.423C1635.95 800.69 1163.56 454.324 989.944 786.092Z" stroke="#EEEEEE" stroke-width="2"/>
<path d="M927.147 796.291C767.773 1100.53 1049.71 1233.15 1210.61 1261.44C1513.17 1306.51 1414.46 1127.77 1678.45 1057.31C1942.43 986.851 1699.43 903.989 1677.79 746.561C1656.14 589.134 1991.16 712.649 1944.27 424.121C1897.38 135.594 1360.86 46.7152 1514.77 429.935C1668.67 813.155 1126.36 415.997 927.147 796.291Z" stroke="#EEEEEE" stroke-width="2"/>
<path d="M837.361 811.404C648.562 1172.31 982.367 1329.55 1172.87 1363.05C1531.12 1416.43 1414.29 1204.45 1726.89 1120.8C2039.49 1037.15 1751.78 938.934 1726.2 752.21C1700.62 565.486 2097.27 711.898 2041.83 369.68C1986.39 27.4613 1351.13 -77.8118 1533.26 376.695C1715.39 831.202 1073.36 360.27 837.361 811.404Z" stroke="#EEEEEE" stroke-width="2"/>
<path d="M732.593 829.161C509.427 1256.47 903.728 1442.5 1128.77 1482.1C1551.99 1545.17 1414.04 1294.26 1783.37 1195.13C2152.71 1096.01 1812.84 979.832 1782.68 758.795C1752.52 537.757 2221.07 710.951 2155.69 305.847C2090.31 -99.2572 1339.86 -223.672 1554.87 314.319C1769.88 852.31 1011.55 295.026 732.593 829.161Z" stroke="#EEEEEE" stroke-width="2"/>
</g>
</svg>
