<svg width="1426" height="354" viewBox="0 0 1426 354" fill="none" xmlns="http://www.w3.org/2000/svg">
<mask id="mask0_25_1287" style="mask-type:alpha" maskUnits="userSpaceOnUse" x="-248" y="0" width="1922" height="354">
<rect x="-247.233" width="1921.19" height="353.304" fill="#0D0E0C"/>
</mask>
<g mask="url(#mask0_25_1287)">
<path d="M362.676 53.5391C287.094 -188.387 514.801 -246.958 638.103 -246.003C868.838 -238.317 770.577 -121.85 956.511 -35.5194C1142.44 50.8114 950.592 78.4831 912.479 189.776C874.366 301.068 1140.16 256.19 1064.96 459.198C989.746 662.207 579.345 655.076 747.198 397.668C915.05 140.259 457.153 355.947 362.676 53.5391Z" stroke="#20221E" stroke-width="2"/>
<path d="M443.543 81.9032C385.417 -104.465 560.581 -149.598 655.429 -148.869C832.917 -142.961 757.325 -53.2334 900.346 13.2628C1043.37 79.759 895.786 101.087 866.462 186.825C837.138 272.563 1041.6 237.976 983.736 394.371C925.871 550.767 610.177 545.296 739.31 346.988C868.443 148.679 516.2 314.863 443.543 81.9032Z" stroke="#20221E" stroke-width="2"/>
<path d="M287.81 27.0441C196.092 -266.847 472.46 -338.012 622.108 -336.858C902.145 -327.534 782.881 -186.043 1008.54 -81.1779C1234.2 23.6876 1001.35 57.314 955.087 192.516C908.823 327.717 1231.42 273.184 1140.13 519.805C1048.84 766.427 550.742 757.786 754.476 445.074C958.21 132.363 402.458 394.407 287.81 27.0441Z" stroke="#20221E" stroke-width="2"/>
<path d="M224.909 5.07241C119.604 -331.835 436.835 -413.394 608.614 -412.06C930.065 -401.351 793.176 -239.162 1052.21 -118.934C1311.25 1.29529 1043.97 39.8254 990.877 194.81C937.783 349.794 1308.08 287.304 1203.31 570.01C1098.54 852.717 526.782 842.775 760.62 484.314C994.457 125.854 356.54 426.206 224.909 5.07241Z" stroke="#20221E" stroke-width="2"/>
<path d="M135.079 -26.8798C10.4289 -426.496 386.057 -523.272 589.453 -521.707C970.067 -509.037 807.964 -316.641 1114.67 -174.056C1421.37 -31.4712 1104.89 14.2592 1042.01 198.102C979.123 381.944 1417.58 307.782 1293.5 643.13C1169.41 978.477 492.421 966.743 769.337 541.525C1046.25 116.308 290.891 472.641 135.079 -26.8798Z" stroke="#20221E" stroke-width="2"/>
<path d="M30.2828 -64.2861C-116.921 -537.357 326.842 -651.97 567.124 -650.143C1016.76 -635.189 825.236 -407.401 1187.54 -238.639C1549.85 -69.8771 1175.97 -15.7009 1101.66 201.948C1027.34 419.598 1545.33 331.749 1398.7 728.765C1252.06 1125.78 452.301 1111.97 779.492 608.544C1106.68 105.117 214.287 527.053 30.2828 -64.2861Z" stroke="#20221E" stroke-width="2"/>
</g>
</svg>
