<svg width="1920" height="674" viewBox="0 0 1920 674" fill="none" xmlns="http://www.w3.org/2000/svg">
<rect width="1920" height="674" fill="#0D0E0C"/>
<mask id="mask0_47_19" style="mask-type:alpha" maskUnits="userSpaceOnUse" x="0" y="0" width="1920" height="674">
<rect width="1920" height="674" fill="#0D0E0C"/>
</mask>
<g mask="url(#mask0_47_19)">
<path d="M609.533 419.463C533.998 168.844 761.565 108.168 884.79 109.157C1115.38 117.119 1017.18 237.771 1203 327.204C1388.82 416.637 1197.09 445.303 1159 560.595C1120.91 675.887 1386.54 629.396 1311.38 839.699C1236.22 1050 826.069 1042.62 993.818 775.957C1161.57 509.299 703.952 732.737 609.533 419.463Z" stroke="#20221E" stroke-width="2"/>
<path d="M690.35 448.846C632.26 255.781 807.315 209.026 902.104 209.781C1079.48 215.901 1003.94 308.854 1146.87 377.739C1289.8 446.625 1142.31 468.719 1113.01 557.538C1083.7 646.358 1288.04 610.527 1230.21 772.543C1172.38 934.558 856.881 928.89 985.934 723.456C1114.99 518.022 762.962 690.177 690.35 448.846Z" stroke="#20221E" stroke-width="2"/>
<path d="M534.714 392.015C443.052 87.5641 719.249 13.8415 868.805 15.0367C1148.67 24.6954 1029.48 171.271 1255 279.905C1480.52 388.538 1247.81 423.373 1201.58 563.433C1155.34 703.493 1477.74 647 1386.51 902.483C1295.27 1157.97 797.483 1149.02 1001.09 825.067C1204.7 501.118 649.29 772.579 534.714 392.015Z" stroke="#20221E" stroke-width="2"/>
<path d="M471.852 369.254C366.612 20.2412 683.648 -64.2491 855.321 -62.8675C1176.57 -51.7736 1039.77 116.243 1298.65 240.792C1557.52 365.342 1290.41 405.256 1237.35 565.81C1184.29 726.363 1554.36 661.627 1449.65 954.493C1344.94 1247.36 773.539 1237.06 1007.23 865.717C1240.93 494.376 603.402 805.521 471.852 369.254Z" stroke="#20221E" stroke-width="2"/>
<path d="M382.076 336.154C257.504 -77.8222 632.9 -178.075 836.17 -176.455C1216.55 -163.329 1054.55 35.9809 1361.06 183.689C1667.57 331.398 1351.29 378.771 1288.44 569.22C1225.6 759.668 1663.79 682.842 1539.78 1030.24C1415.77 1377.64 739.198 1365.48 1015.94 924.984C1292.69 484.487 537.792 853.624 382.076 336.154Z" stroke="#20221E" stroke-width="2"/>
<path d="M277.346 297.403C130.234 -192.667 573.722 -311.398 813.856 -309.505C1263.22 -294.015 1071.81 -58.041 1433.89 116.785C1795.97 291.611 1422.32 347.734 1348.06 573.205C1273.79 798.675 1791.46 707.669 1644.92 1118.95C1498.37 1530.23 699.104 1515.93 1026.09 994.411C1353.08 472.893 461.237 909.991 277.346 297.403Z" stroke="#20221E" stroke-width="2"/>
</g>
</svg>
