<svg width="28" height="28" viewBox="0 0 28 28" fill="none" xmlns="http://www.w3.org/2000/svg">
<g clip-path="url(#clip0_37_998)">
<path d="M14 7.8401C10.5985 7.8401 7.65344 10.2026 6.91556 13.523L4.49909 24.3971C4.48137 24.4769 4.47242 24.5584 4.47242 24.6401C4.47242 25.2587 4.97386 25.7601 5.59242 25.7601H22.4076C22.4893 25.7601 22.5708 25.7512 22.6505 25.7334C23.2544 25.5992 23.6351 25.001 23.5009 24.3971L21.0844 13.523C20.3466 10.2026 17.4015 7.8401 14 7.8401ZM14 5.6001C18.4514 5.6001 22.3055 8.69176 23.2711 13.0371L25.6876 23.9112C26.0901 25.7227 24.948 27.5175 23.1365 27.9201C22.8972 27.9733 22.6527 28.0001 22.4076 28.0001H5.59242C3.73675 28.0001 2.23242 26.4958 2.23242 24.6401C2.23242 24.3949 2.25925 24.1505 2.31243 23.9112L4.7289 13.0371C5.69453 8.69176 9.54865 5.6001 14 5.6001Z" fill="#2B6956"/>
<path d="M16.2401 12.3201C16.8586 12.3201 17.3601 12.8215 17.3601 13.4401C17.3601 14.0586 16.8586 14.5601 16.2401 14.5601H13.4401C13.1308 14.5601 12.8801 14.8108 12.8801 15.1201C12.8801 15.4294 13.1308 15.6801 13.4401 15.6801H14.5601C16.1065 15.6801 17.3601 16.9337 17.3601 18.4801C17.3601 20.0265 16.1065 21.2801 14.5601 21.2801H11.7601C11.1415 21.2801 10.6401 20.7786 10.6401 20.1601C10.6401 19.5415 11.1415 19.0401 11.7601 19.0401H14.5601C14.8694 19.0401 15.1201 18.7894 15.1201 18.4801C15.1201 18.1708 14.8694 17.9201 14.5601 17.9201H13.4401C11.8937 17.9201 10.6401 16.6665 10.6401 15.1201C10.6401 13.5737 11.8937 12.3201 13.4401 12.3201H16.2401Z" fill="#2B6956"/>
<path d="M12.8801 11.2001C12.8801 10.5815 13.3816 10.0801 14.0001 10.0801C14.6187 10.0801 15.1201 10.5815 15.1201 11.2001V13.4401C15.1201 14.0587 14.6187 14.5601 14.0001 14.5601C13.3816 14.5601 12.8801 14.0587 12.8801 13.4401V11.2001Z" fill="#2B6956"/>
<path d="M15.1201 22.4001C15.1201 23.0187 14.6187 23.5201 14.0001 23.5201C13.3816 23.5201 12.8801 23.0187 12.8801 22.4001V20.1601C12.8801 19.5416 13.3816 19.0401 14.0001 19.0401C14.6187 19.0401 15.1201 19.5416 15.1201 20.1601V22.4001Z" fill="#2B6956"/>
<path d="M12.7999 6.30416C13.0297 6.87848 12.7503 7.53029 12.176 7.76001C11.6017 7.98974 10.9499 7.7104 10.7201 7.13608L8.48015 1.53608C8.11615 0.626073 9.01396 -0.279483 9.92706 0.0766958C10.7658 0.403851 11.3908 0.560122 11.76 0.560122C11.852 0.560122 11.9281 0.54048 12.0945 0.469805C12.1386 0.451042 12.1905 0.428134 12.3121 0.374309C12.8914 0.120442 13.349 0.000121694 14 0.000121694C14.6496 0.000121694 15.1144 0.120762 15.6956 0.372178C15.8431 0.436753 15.902 0.462435 15.9541 0.483908C16.0977 0.543038 16.1668 0.560122 16.24 0.560122C16.5877 0.560122 17.2184 0.402444 18.0811 0.0735765C18.9931 -0.274052 19.8824 0.629907 19.5199 1.53608L17.2799 7.13608C17.0502 7.7104 16.3984 7.98974 15.8241 7.76001C15.2498 7.53029 14.9704 6.87848 15.2002 6.30416L16.6095 2.78085C16.4807 2.79368 16.3576 2.80012 16.24 2.80012C15.8313 2.80012 15.4925 2.71632 15.1012 2.55518C15.0239 2.52336 14.9393 2.48642 14.8063 2.42807C14.482 2.2878 14.2983 2.24012 14 2.24012C13.7046 2.24012 13.5312 2.28574 13.2113 2.42593C13.1014 2.47462 13.0317 2.50536 12.9705 2.53138C12.551 2.70964 12.2001 2.80012 11.76 2.80012C11.6418 2.80012 11.5188 2.79398 11.391 2.78177L12.7999 6.30416Z" fill="#2B6956"/>
</g>
<defs>
<clipPath id="clip0_37_998">
<rect width="28" height="28" fill="white"/>
</clipPath>
</defs>
</svg>
