<svg width="28" height="28" viewBox="0 0 28 28" fill="none" xmlns="http://www.w3.org/2000/svg">
<g clip-path="url(#clip0_32_89)">
<path d="M14.0001 7.73795C10.5986 7.73795 7.65355 10.0697 6.91567 13.347L4.4992 24.0796C4.48147 24.1583 4.47253 24.2387 4.47253 24.3194C4.47253 24.9299 4.97397 25.4248 5.59253 25.4248H22.4077C22.4894 25.4248 22.5709 25.416 22.6506 25.3985C23.2545 25.2661 23.6352 24.6756 23.501 24.0796L21.0846 13.347C20.3467 10.0697 17.4016 7.73795 14.0001 7.73795ZM14.0001 5.52709C18.4515 5.52709 22.3056 8.57853 23.2712 12.8674L25.6877 23.6C26.0902 25.3879 24.9481 27.1594 23.1366 27.5567C22.8973 27.6092 22.6528 27.6357 22.4077 27.6357H5.59253C3.73685 27.6357 2.23253 26.1509 2.23253 24.3194C2.23253 24.0774 2.25936 23.8362 2.31254 23.6L4.72901 12.8674C5.69464 8.57853 9.54876 5.52709 14.0001 5.52709Z" fill="#2B6956"/>
<path d="M16.2402 12.1597C16.8587 12.1597 17.3602 12.6546 17.3602 13.2651C17.3602 13.8756 16.8587 14.3705 16.2402 14.3705H13.4402C13.1309 14.3705 12.8802 14.618 12.8802 14.9232C12.8802 15.2285 13.1309 15.4759 13.4402 15.4759H14.5602C16.1066 15.4759 17.3602 16.7132 17.3602 18.2395C17.3602 19.7658 16.1066 21.0031 14.5602 21.0031H11.7602C11.1416 21.0031 10.6402 20.5082 10.6402 19.8977C10.6402 19.2872 11.1416 18.7922 11.7602 18.7922H14.5602C14.8695 18.7922 15.1202 18.5448 15.1202 18.2395C15.1202 17.9343 14.8695 17.6868 14.5602 17.6868H13.4402C11.8938 17.6868 10.6402 16.4495 10.6402 14.9232C10.6402 13.397 11.8938 12.1597 13.4402 12.1597H16.2402Z" fill="#2B6956"/>
<path d="M12.8802 11.0542C12.8802 10.4437 13.3817 9.94881 14.0002 9.94881C14.6188 9.94881 15.1202 10.4437 15.1202 11.0542V13.2651C15.1202 13.8756 14.6188 14.3705 14.0002 14.3705C13.3817 14.3705 12.8802 13.8756 12.8802 13.2651V11.0542Z" fill="#2B6956"/>
<path d="M15.1202 22.1086C15.1202 22.7191 14.6188 23.214 14.0002 23.214C13.3817 23.214 12.8802 22.7191 12.8802 22.1086V19.8977C12.8802 19.2872 13.3817 18.7923 14.0002 18.7923C14.6188 18.7923 15.1202 19.2872 15.1202 19.8977V22.1086Z" fill="#2B6956"/>
<path d="M12.8 6.22199C13.0298 6.78884 12.7504 7.43217 12.1761 7.65891C11.6018 7.88565 10.95 7.60993 10.7203 7.04309L8.48026 1.51594C8.11625 0.617771 9.01407 -0.276004 9.92717 0.0755411C10.7659 0.39844 11.3909 0.552678 11.7602 0.552678C11.8521 0.552678 11.9282 0.533292 12.0946 0.463537C12.1387 0.445017 12.1906 0.422407 12.3122 0.369282C12.8915 0.118718 13.3491 -3.68958e-05 14.0002 -3.68958e-05C14.6497 -3.68958e-05 15.1145 0.119034 15.6957 0.367179C15.8432 0.430914 15.9021 0.456262 15.9542 0.477456C16.0978 0.535817 16.1669 0.552678 16.2402 0.552678C16.5878 0.552678 17.2185 0.397052 18.0812 0.0724623C18.9932 -0.270644 19.8825 0.621555 19.52 1.51594L17.28 7.04309C17.0503 7.60993 16.3985 7.88565 15.8242 7.65891C15.2499 7.43217 14.9705 6.78884 15.2003 6.22199L16.6096 2.74452C16.4808 2.75718 16.3578 2.76354 16.2402 2.76354C15.8314 2.76354 15.4927 2.68083 15.1013 2.52178C15.0241 2.49038 14.9394 2.45392 14.8064 2.39632C14.4821 2.25788 14.2985 2.21082 14.0002 2.21082C13.7047 2.21082 13.5313 2.25584 13.2114 2.39422C13.1015 2.44227 13.0319 2.47261 12.9706 2.49829C12.5511 2.67424 12.2002 2.76354 11.7602 2.76354C11.6419 2.76354 11.5189 2.75748 11.3911 2.74543L12.8 6.22199Z" fill="#2B6956"/>
</g>
<defs>
<clipPath id="clip0_32_89">
<rect width="28" height="27.6357" fill="white"/>
</clipPath>
</defs>
</svg>
