<svg width="1309" height="57" viewBox="0 0 1309 57" fill="none" xmlns="http://www.w3.org/2000/svg">
<path d="M75.1569 41.2041H69.9428V30.6519H60.1727V41.2041H54.9418V16.7552H60.1727V26.3374H69.9428V16.7552H75.1569V41.2041Z" fill="#A69A87"/>
<path d="M80.7759 17.6749C80.7759 16.0138 81.7096 15.1832 83.577 15.1832C85.4444 15.1832 86.3781 16.0138 86.3781 17.6749C86.3781 18.4665 86.1418 19.0852 85.6694 19.5312C85.2081 19.966 84.5107 20.1834 83.577 20.1834C81.7096 20.1834 80.7759 19.3472 80.7759 17.6749ZM86.1418 41.2041H80.9953V22.5079H86.1418V41.2041Z" fill="#A69A87"/>
<path d="M107.977 22.5079V25.0999L105.024 25.8524C105.564 26.6886 105.834 27.6251 105.834 28.6619C105.834 30.6686 105.125 32.235 103.708 33.361C102.302 34.4759 100.344 35.0333 97.8355 35.0333L96.9075 34.9832L96.1481 34.8995C95.6194 35.3009 95.355 35.7468 95.355 36.2374C95.355 36.9732 96.3 37.3411 98.1899 37.3411H101.396C103.466 37.3411 105.041 37.7815 106.121 38.6622C107.212 39.5429 107.757 40.8362 107.757 42.5419C107.757 44.727 106.835 46.4216 104.99 47.6257C103.156 48.8297 100.518 49.4317 97.0762 49.4317C94.4438 49.4317 92.4302 48.9747 91.0353 48.0605C89.6516 47.1574 88.9598 45.8865 88.9598 44.2476C88.9598 43.1216 89.3141 42.1796 90.0229 41.4215C90.7316 40.6634 91.7721 40.1227 93.1446 39.7994C92.6158 39.5764 92.1546 39.214 91.7609 38.7124C91.3672 38.1995 91.1703 37.6588 91.1703 37.0902C91.1703 36.3767 91.3784 35.7859 91.7946 35.3176C92.2109 34.8382 92.8127 34.37 93.6001 33.9129C92.6102 33.4892 91.8228 32.8092 91.2378 31.8727C90.6641 30.9362 90.3772 29.8325 90.3772 28.5616C90.3772 26.5214 91.0465 24.9438 92.3852 23.829C93.7239 22.7141 95.6363 22.1567 98.1224 22.1567C98.6511 22.1567 99.2754 22.2068 99.9954 22.3072C100.727 22.3964 101.193 22.4633 101.396 22.5079H107.977ZM93.4145 43.8463C93.4145 44.5487 93.752 45.1005 94.427 45.5019C95.1132 45.9032 96.0694 46.1039 97.2956 46.1039C99.1404 46.1039 100.586 45.853 101.632 45.3514C102.678 44.8497 103.201 44.164 103.201 43.2944C103.201 42.5921 102.892 42.1071 102.273 41.8395C101.655 41.572 100.698 41.4382 99.4048 41.4382H96.7387C95.7938 41.4382 95.0007 41.6556 94.3595 42.0904C93.7295 42.5363 93.4145 43.1216 93.4145 43.8463ZM95.2875 28.6284C95.2875 29.643 95.5182 30.4457 95.9794 31.0365C96.4519 31.6274 97.1662 31.9229 98.1224 31.9229C99.0898 31.9229 99.7985 31.6274 100.249 31.0365C100.698 30.4457 100.923 29.643 100.923 28.6284C100.923 26.3764 99.9898 25.2504 98.1224 25.2504C96.2325 25.2504 95.2875 26.3764 95.2875 28.6284Z" fill="#A69A87"/>
<path d="M128.512 41.2041H123.366V30.284C123.366 27.5861 122.353 26.2371 120.329 26.2371C118.889 26.2371 117.848 26.722 117.207 27.692C116.566 28.6619 116.245 30.2338 116.245 32.4078V41.2041H111.098V15.1832H116.245V20.4844C116.245 20.8969 116.206 21.8668 116.127 23.3942L116.009 24.8992H116.279C117.426 23.0709 119.249 22.1567 121.746 22.1567C123.962 22.1567 125.644 22.7476 126.791 23.9293C127.939 25.1111 128.512 26.8056 128.512 29.0131V41.2041Z" fill="#A69A87"/>
<path d="M138.957 41.2041H133.811V15.1832H138.957V41.2041Z" fill="#A69A87"/>
<path d="M148.474 31.8225C148.474 33.6732 148.778 35.0723 149.386 36.02C150.004 36.9676 151.006 37.4414 152.389 37.4414C153.762 37.4414 154.746 36.9732 155.342 36.0367C155.95 35.0891 156.253 33.6843 156.253 31.8225C156.253 29.9719 155.95 28.5839 155.342 27.6585C154.735 26.7332 153.739 26.2705 152.355 26.2705C150.983 26.2705 149.993 26.7332 149.386 27.6585C148.778 28.5727 148.474 29.9607 148.474 31.8225ZM161.518 31.8225C161.518 34.8661 160.708 37.2463 159.088 38.9632C157.468 40.6801 155.213 41.5385 152.322 41.5385C150.511 41.5385 148.913 41.1483 147.529 40.3679C146.146 39.5764 145.083 38.4448 144.34 36.9732C143.598 35.5016 143.227 33.7847 143.227 31.8225C143.227 28.7678 144.031 26.3932 145.64 24.6986C147.248 23.004 149.509 22.1567 152.423 22.1567C154.234 22.1567 155.832 22.5469 157.215 23.3273C158.599 24.1077 159.662 25.2281 160.404 26.6886C161.147 28.1491 161.518 29.8604 161.518 31.8225Z" fill="#A69A87"/>
<path d="M181.278 41.2041L179.826 34.6654L177.869 26.4043H177.751L174.309 41.2041H168.774L163.408 22.5079H168.538L170.714 30.7857C171.063 32.2685 171.417 34.3142 171.777 36.923H171.879C171.924 36.0757 172.121 34.7323 172.469 32.8928L172.739 31.4713L175.068 22.5079H180.738L182.948 31.4713C182.993 31.7166 183.061 32.0789 183.151 32.5583C183.252 33.0377 183.347 33.5506 183.437 34.0968C183.527 34.632 183.606 35.1615 183.674 35.6855C183.752 36.1984 183.797 36.6108 183.809 36.923H183.91C184.011 36.1203 184.191 35.0222 184.45 33.6286C184.709 32.2239 184.894 31.2762 185.007 30.7857L187.268 22.5079H192.313L186.88 41.2041H181.278Z" fill="#A69A87"/>
<path d="M17.9436 45.1557C27.8535 45.1557 35.8871 37.489 35.8871 28.0315C35.8871 18.574 27.8535 10.9072 17.9436 10.9072C8.03365 10.9072 3.19845e-07 18.574 2.06049e-07 28.0315C9.22516e-08 37.4889 8.03358 45.1557 17.9436 45.1557ZM31.2565 28.0315L4.6306 28.0315C4.6306 21.0088 10.5861 15.3264 17.9436 15.3264C25.3022 15.3264 31.2565 21.0099 31.2565 28.0315Z" fill="#A69A87"/>
<path d="M324.785 43.0106C323.648 43.9059 322.168 44.6006 320.346 45.0946C318.524 45.5885 316.281 45.8355 313.617 45.8355C310.969 45.8355 308.15 45.5962 305.159 45.1177V14.5997C308.181 14.1212 310.798 13.8819 313.01 13.8819C315.237 13.8819 317.059 14.0903 318.477 14.5071C319.91 14.9239 321.078 15.4873 321.982 16.1974C323.757 17.5712 324.645 19.3541 324.645 21.5461C324.645 23.7227 323.843 25.5288 322.239 26.9643C324.139 27.5509 325.611 28.6624 326.654 30.2986C327.604 31.7651 328.08 33.3937 328.08 35.1843C328.08 36.9595 327.815 38.48 327.285 39.7458C326.771 41.0116 325.938 42.0999 324.785 43.0106ZM311.351 26.1076C312.005 26.2157 312.823 26.2697 313.804 26.2697C314.785 26.2697 315.588 26.1462 316.211 25.8992C316.849 25.6368 317.34 25.3126 317.683 24.9267C318.243 24.2938 318.524 23.4139 318.524 22.2871C318.524 19.9253 317.122 18.7444 314.318 18.7444C313.134 18.7444 312.145 18.7907 311.351 18.8833V26.1076ZM314.809 31.0628C313.5 31.0628 312.348 31.1477 311.351 31.3175V40.4173C312.441 40.6951 313.586 40.8341 314.785 40.8341C315.985 40.8341 317.036 40.6951 317.94 40.4173C318.859 40.124 319.63 39.7304 320.253 39.2364C321.514 38.2176 322.145 36.9209 322.145 35.3464C322.145 32.4906 319.7 31.0628 314.809 31.0628Z" fill="#A69A87"/>
<path d="M330.79 33.2856C330.79 31.5876 331.078 29.9668 331.654 28.4231C332.246 26.864 333.087 25.5056 334.178 24.3479C336.561 21.8471 339.652 20.5968 343.453 20.5968C347.238 20.5968 350.244 21.7777 352.472 24.1395C354.605 26.3932 355.672 29.3184 355.672 32.9151C355.672 36.5118 354.574 39.4911 352.378 41.8529C350.057 44.3536 346.981 45.604 343.149 45.604C339.193 45.604 336.093 44.3768 333.85 41.9224C331.81 39.6841 330.79 36.8051 330.79 33.2856ZM336.467 33.1467C336.467 34.1192 336.631 35.0608 336.958 35.9716C337.285 36.8823 337.752 37.6619 338.36 38.3102C339.652 39.7149 341.35 40.4173 343.453 40.4173C345.4 40.4173 346.934 39.7304 348.056 38.3565C349.146 37.029 349.691 35.3001 349.691 33.1698C349.691 31.0087 349.13 29.2644 348.009 27.9369C346.81 26.5167 345.166 25.8066 343.079 25.8066C340.961 25.8066 339.302 26.563 338.103 28.0758C337.012 29.4651 336.467 31.1554 336.467 33.1467Z" fill="#A69A87"/>
<path d="M358.78 33.2856C358.78 31.5876 359.068 29.9668 359.644 28.4231C360.236 26.864 361.077 25.5056 362.168 24.3479C364.551 21.8471 367.643 20.5968 371.443 20.5968C375.228 20.5968 378.234 21.7777 380.462 24.1395C382.596 26.3932 383.663 29.3184 383.663 32.9151C383.663 36.5118 382.564 39.4911 380.368 41.8529C378.047 44.3536 374.971 45.604 371.139 45.604C367.183 45.604 364.083 44.3768 361.841 41.9224C359.8 39.6841 358.78 36.8051 358.78 33.2856ZM364.457 33.1467C364.457 34.1192 364.621 35.0608 364.948 35.9716C365.275 36.8823 365.742 37.6619 366.35 38.3102C367.643 39.7149 369.34 40.4173 371.443 40.4173C373.39 40.4173 374.924 39.7304 376.046 38.3565C377.136 37.029 377.681 35.3001 377.681 33.1698C377.681 31.0087 377.121 29.2644 375.999 27.9369C374.8 26.5167 373.156 25.8066 371.069 25.8066C368.951 25.8066 367.292 26.563 366.093 28.0758C365.002 29.4651 364.457 31.1554 364.457 33.1467Z" fill="#A69A87"/>
<path d="M396.77 45.604C392.377 45.604 389.067 44.809 386.84 43.219C386.871 42.7559 386.918 42.2311 386.98 41.6445L387.19 39.9773C387.315 38.8814 387.393 38.2021 387.424 37.9397C387.455 37.6619 387.479 37.5152 387.494 37.4998C387.51 37.4689 387.634 37.5924 387.868 37.8703C388.102 38.1327 388.546 38.4569 389.2 38.8428C389.854 39.2287 390.609 39.5683 391.466 39.8616C393.32 40.4945 395.251 40.8109 397.26 40.8109C399.955 40.8109 401.302 39.9233 401.302 38.1481C401.302 37.577 401.045 37.1525 400.531 36.8746C399.612 36.4115 398.257 36.0642 396.466 35.8326C394.69 35.5857 393.234 35.2306 392.097 34.7675C390.96 34.3044 390.033 33.7487 389.317 33.1004C387.993 31.8809 387.331 30.2832 387.331 28.3073C387.331 25.8992 388.265 24.0083 390.134 22.6344C391.988 21.276 394.55 20.5968 397.821 20.5968C401.061 20.5968 403.826 21.5075 406.115 23.329C406.006 23.7304 405.889 24.1163 405.765 24.4868C405.407 25.5056 405.142 26.2388 404.97 26.6865L404.433 28.0526C404.402 28.1761 404.379 28.2379 404.363 28.2379C404.332 28.2379 404.207 28.0758 403.989 27.7516C403.008 26.6247 401.481 25.8838 399.41 25.5288C398.771 25.4053 398.117 25.3435 397.447 25.3435C394.612 25.3435 393.195 26.1925 393.195 27.8905C393.195 28.4771 393.491 28.9248 394.083 29.2335C395.189 29.8201 396.7 30.2523 398.615 30.5302C400.547 30.808 402.011 31.1862 403.008 31.6648C404.005 32.1279 404.807 32.6913 405.414 33.3551C406.536 34.5591 407.097 36.1568 407.097 38.1481C407.097 40.3247 406.217 42.0922 404.456 43.4506C402.619 44.8862 400.056 45.604 396.77 45.604Z" fill="#A69A87"/>
<path d="M420.741 45.604C416.349 45.604 413.039 44.809 410.811 43.219C410.843 42.7559 410.889 42.2311 410.952 41.6445L411.162 39.9773C411.287 38.8814 411.364 38.2021 411.396 37.9397C411.427 37.6619 411.45 37.5152 411.466 37.4998C411.481 37.4689 411.606 37.5924 411.84 37.8703C412.073 38.1327 412.517 38.4569 413.171 38.8428C413.825 39.2287 414.581 39.5683 415.438 39.8616C417.291 40.4945 419.223 40.8109 421.232 40.8109C423.927 40.8109 425.274 39.9233 425.274 38.1481C425.274 37.577 425.017 37.1525 424.503 36.8746C423.584 36.4115 422.229 36.0642 420.437 35.8326C418.662 35.5857 417.205 35.2306 416.068 34.7675C414.931 34.3044 414.005 33.7487 413.288 33.1004C411.964 31.8809 411.302 30.2832 411.302 28.3073C411.302 25.8992 412.237 24.0083 414.106 22.6344C415.959 21.276 418.522 20.5968 421.793 20.5968C425.032 20.5968 427.797 21.5075 430.087 23.329C429.978 23.7304 429.861 24.1163 429.736 24.4868C429.378 25.5056 429.113 26.2388 428.942 26.6865L428.405 28.0526C428.373 28.1761 428.35 28.2379 428.335 28.2379C428.303 28.2379 428.179 28.0758 427.961 27.7516C426.979 26.6247 425.453 25.8838 423.381 25.5288C422.743 25.4053 422.089 25.3435 421.419 25.3435C418.584 25.3435 417.167 26.1925 417.167 27.8905C417.167 28.4771 417.462 28.9248 418.054 29.2335C419.16 29.8201 420.671 30.2523 422.587 30.5302C424.518 30.808 425.983 31.1862 426.979 31.6648C427.976 32.1279 428.778 32.6913 429.386 33.3551C430.507 34.5591 431.068 36.1568 431.068 38.1481C431.068 40.3247 430.188 42.0922 428.428 43.4506C426.59 44.8862 424.028 45.604 420.741 45.604Z" fill="#A69A87"/>
<path d="M447.329 40.1626C449.339 40.1626 450.717 39.6455 451.465 38.6112H451.652L451.722 43.9831C450.959 44.7395 449.541 45.2412 447.47 45.4882C446.909 45.5654 446.208 45.604 445.367 45.604C444.541 45.604 443.638 45.4496 442.657 45.1409C441.691 44.8321 440.865 44.3305 440.18 43.6358C438.763 42.2002 438.054 39.9542 438.054 36.8978V26.3855H434.526C434.51 25.9378 434.503 25.4824 434.503 25.0193V21.4535C434.503 21.1911 434.51 21.0599 434.526 21.0599H438.054V14.4608H443.778V21.0599H450.203V26.3855H443.778V35.8326C443.778 38.2562 444.456 39.6377 445.811 39.9773C446.247 40.1008 446.753 40.1626 447.329 40.1626Z" fill="#A69A87"/>
<path d="M599.972 33.4655C599.972 36.9387 600.034 39.1693 600.159 40.1573H594.061V15.9605H599.972V18.0444C602.106 16.3464 604.294 15.4974 606.537 15.4974C609.185 15.4974 611.109 16.632 612.308 18.9012C613.507 17.6817 614.504 16.879 615.298 16.4931C616.622 15.8293 617.946 15.4974 619.27 15.4974C620.61 15.4974 621.747 15.7212 622.682 16.1689C623.616 16.6165 624.387 17.2494 624.995 18.0676C626.225 19.7193 626.84 21.9885 626.84 24.8751V34.0907C626.84 36.6995 626.879 38.2663 626.957 38.7911C627.035 39.316 627.136 39.6556 627.261 39.8099C627.401 39.9643 627.518 40.1032 627.611 40.2267L627.565 40.3193C626.319 40.2113 625.4 40.1573 624.808 40.1573H623.055C622.479 40.1573 621.77 40.1804 620.929 40.2267V27.7C620.929 24.0878 620.368 21.9422 619.247 21.2629C618.873 21.0468 618.429 20.9388 617.915 20.9388C617.417 20.9388 616.973 21.0005 616.584 21.124C616.194 21.2321 615.828 21.4173 615.485 21.6797C614.909 22.0965 614.255 22.9147 613.523 24.1341C613.538 24.2576 613.546 24.3811 613.546 24.5046C613.546 24.6281 613.546 26.6657 613.546 30.6175C613.546 34.5692 613.64 37.7492 613.827 40.1573C612.503 40.1573 611.373 40.1573 610.439 40.1573C609.52 40.1573 608.64 40.1804 607.799 40.2267V27.6768C607.799 25.1607 607.643 23.5244 607.331 22.768C607.035 22.0116 606.716 21.5176 606.373 21.2861C606.031 21.0546 605.61 20.9388 605.112 20.9388C603.056 20.9388 601.342 21.919 599.972 23.8794V33.4655Z" fill="#A69A87"/>
<path d="M649.737 38.7217C647.525 39.9103 645.524 40.5046 643.732 40.5046C641.941 40.5046 640.407 40.3425 639.13 40.0183C637.853 39.6787 636.77 39.1848 635.882 38.5364C634.075 37.2243 633.172 35.3256 633.172 32.8403C633.172 30.6175 634.278 28.7651 636.49 27.2832C638.888 25.6778 642.144 24.8751 646.256 24.8751L647.19 24.8982C647.377 24.9137 647.588 24.9291 647.821 24.9446C648.055 24.9446 648.265 24.96 648.452 24.9909C648.327 22.521 647.253 21.0777 645.228 20.6609C644.558 20.522 643.842 20.4525 643.078 20.4525C642.331 20.4525 641.591 20.522 640.859 20.6609C640.142 20.7844 639.441 20.9542 638.756 21.1703C637.245 21.6489 636.163 22.1969 635.508 22.8143L635.438 22.768L634.737 17.6508C637.494 16.2152 640.508 15.4974 643.779 15.4974C648.857 15.4974 652.105 17.3112 653.522 20.9388C653.974 22.0965 654.2 23.4009 654.2 24.8519V33.234C654.2 35.0246 654.838 36.2441 656.115 36.8924L651.887 40.7361C650.999 40.273 650.282 39.6015 649.737 38.7217ZM648.475 29.1587C648.055 29.0815 647.619 29.043 647.167 29.043H646.232C642.79 29.043 640.602 29.7993 639.667 31.3121C639.387 31.7598 639.247 32.2306 639.247 32.7246C639.247 33.2185 639.332 33.6585 639.504 34.0444C639.691 34.4149 639.994 34.7236 640.415 34.9706C641.225 35.4337 642.424 35.6652 644.013 35.6652C645.617 35.6652 647.112 35.287 648.499 34.5306C648.483 34.3608 648.475 34.1833 648.475 33.9981V29.1587Z" fill="#A69A87"/>
<path d="M660.298 9.22245C661.31 7.61705 662.47 6.10427 663.779 4.6841L668.241 8.18048C667.463 9.16842 666.933 9.84763 666.653 10.2181L665.835 11.3527C665.57 11.7077 665.29 12.1091 664.994 12.5567L660.298 9.22245ZM657.704 43.7463C660.009 43.7463 661.162 42.0482 661.162 38.6522V15.9605H666.839V36.9851C666.839 43.4684 664.978 47.3044 661.255 48.493C660.041 48.8789 658.662 49.0719 657.12 49.0719L654.69 42.9821L654.737 42.8664C655.625 43.453 656.614 43.7463 657.704 43.7463Z" fill="#A69A87"/>
<path d="M672.774 9.06036C674.02 7.1308 675.321 5.43278 676.676 3.96631L681.699 7.87947C681.029 8.6976 680.406 9.5003 679.83 10.2876C679.83 10.2876 679.23 11.1289 678.031 12.8114L672.774 9.06036ZM678.919 37.5639C678.919 38.8915 678.95 39.7559 679.012 40.1573H673.078V15.9605H678.919V37.5639Z" fill="#A69A87"/>
<path d="M691.675 37.1934C691.675 38.5519 691.738 39.5398 691.862 40.1573H685.998V15.9605H691.675V18.0213C693.731 16.3387 695.928 15.4974 698.264 15.4974C700.819 15.4974 702.859 16.3618 704.385 18.0907C705.912 19.8042 706.675 22.0656 706.675 24.8751V34.0907C706.675 36.6995 706.714 38.2663 706.792 38.7911C706.87 39.316 706.971 39.6556 707.096 39.8099C707.236 39.9643 707.353 40.1032 707.446 40.2267L707.399 40.3193C706.138 40.2113 705.219 40.1573 704.642 40.1573H703.007C702.509 40.1573 701.839 40.1804 700.998 40.2267V27.6074C700.998 23.0845 699.611 20.823 696.839 20.823C694.783 20.823 693.062 21.8727 691.675 23.9721V37.1934Z" fill="#A69A87"/>
<path d="M712.353 28.2557C712.353 26.4496 712.664 24.7748 713.287 23.2311C713.91 21.6874 714.79 20.3368 715.927 19.179C718.357 16.7246 721.535 15.4974 725.46 15.4974C728.778 15.4974 731.441 16.5857 733.45 18.7622C735.428 20.8616 736.418 23.5012 736.418 26.6812C736.418 27.9007 736.324 28.7342 736.137 29.1819C734.58 29.6141 731.41 29.8302 726.628 29.8302H718.404C718.809 31.4819 719.751 32.7709 721.231 33.6971C722.711 34.6078 724.634 35.0632 727.002 35.0632C729.478 35.0632 731.605 34.6233 733.38 33.7434C733.847 33.5118 734.198 33.2957 734.432 33.095C734.4 33.7434 734.362 34.4072 734.315 35.0864L734.058 38.6985C732.874 39.5012 730.958 40.0569 728.31 40.3657C727.531 40.4583 726.784 40.5046 726.067 40.5046C722.111 40.5046 718.84 39.3623 716.254 37.0777C713.653 34.7776 712.353 31.837 712.353 28.2557ZM730.203 25.3382C729.564 22.0193 727.742 20.3599 724.736 20.3599C722.368 20.3599 720.569 21.371 719.338 23.3932C718.965 24.0106 718.676 24.6899 718.474 25.4308C718.848 25.4462 719.307 25.4617 719.852 25.4771H721.581C722.158 25.4926 722.711 25.5003 723.24 25.5003H724.572C725.366 25.5003 726.145 25.4926 726.908 25.4771L728.824 25.4077C729.338 25.3922 729.798 25.3691 730.203 25.3382Z" fill="#A69A87"/>
<path d="M570.673 16.5651C572.885 15.3765 574.887 14.7822 576.678 14.7822C578.469 14.7822 580.003 14.9443 581.28 15.2685C582.558 15.6081 583.64 16.102 584.528 16.7504C586.335 18.0625 587.238 19.9612 587.238 22.4465C587.238 24.6693 586.132 26.5217 583.921 28.0036C581.522 29.609 578.267 30.4117 574.154 30.4117L573.22 30.3886C573.033 30.3731 572.823 30.3577 572.589 30.3422C572.355 30.3422 572.145 30.3268 571.958 30.2959C572.083 32.7658 573.158 34.2091 575.182 34.6259C575.852 34.7648 576.569 34.8343 577.332 34.8343C578.08 34.8343 578.819 34.7648 579.552 34.6259C580.268 34.5024 580.969 34.3326 581.654 34.1165C583.165 33.6379 584.248 33.0899 584.902 32.4725L584.972 32.5188L585.673 37.636C582.916 39.0716 579.902 39.7894 576.631 39.7894C571.553 39.7894 568.306 37.9756 566.888 34.348C566.437 33.1903 566.211 31.8859 566.211 30.4349V22.0528C566.211 20.2622 565.572 19.0427 564.295 18.3944L568.524 14.5507C569.412 15.0138 570.128 15.6853 570.673 16.5651ZM571.935 26.1281C572.355 26.2053 572.792 26.2438 573.243 26.2438H574.178C577.62 26.2438 579.809 25.4875 580.743 23.9747C581.023 23.527 581.164 23.0562 581.164 22.5622C581.164 22.0683 581.078 21.6283 580.907 21.2424C580.72 20.8719 580.416 20.5632 579.995 20.3162C579.186 19.8531 577.986 19.6216 576.397 19.6216C574.793 19.6216 573.298 19.9998 571.912 20.7562C571.927 20.926 571.935 21.1035 571.935 21.2887V26.1281Z" fill="#A69A87"/>
<path d="M571.459 53.1701C570.421 52.1412 570.421 50.473 571.459 49.4441L573.729 47.1953C574.767 46.1664 576.45 46.1664 577.488 47.1953L579.757 49.4441C580.796 50.473 580.796 52.1412 579.757 53.1701L577.488 55.419C576.45 56.4479 574.767 56.4479 573.729 55.419L571.459 53.1701Z" fill="#A69A87"/>
<path d="M929.642 35.5659H925.683V27.1659C925.683 26.1282 925.506 25.3521 925.151 24.8375C924.805 24.3144 924.255 24.0528 923.502 24.0528C922.49 24.0528 921.755 24.4216 921.296 25.1591C920.837 25.8966 920.608 27.1101 920.608 28.7996V35.5659H916.649V21.1842H919.673L920.206 23.0237H920.426C920.816 22.3634 921.378 21.8488 922.114 21.4801C922.849 21.1027 923.693 20.9141 924.645 20.9141C926.817 20.9141 928.288 21.6173 929.058 23.0237H929.408C929.798 22.3548 930.369 21.836 931.122 21.4672C931.883 21.0984 932.74 20.9141 933.692 20.9141C935.336 20.9141 936.578 21.3343 937.417 22.1747C938.265 23.0066 938.689 24.3444 938.689 26.1882V35.5659H934.717V27.1659C934.717 26.1282 934.54 25.3521 934.185 24.8375C933.839 24.3144 933.289 24.0528 932.537 24.0528C931.567 24.0528 930.841 24.3959 930.356 25.0819C929.88 25.768 929.642 26.8571 929.642 28.3493V35.5659Z" fill="#A69A87"/>
<path d="M951.981 35.5659L951.215 33.6106H951.111C950.445 34.4425 949.757 35.0213 949.047 35.3472C948.346 35.6645 947.429 35.8232 946.295 35.8232C944.902 35.8232 943.803 35.4287 942.998 34.6397C942.202 33.8507 941.804 32.7273 941.804 31.2694C941.804 29.7429 942.341 28.6195 943.414 27.8991C944.495 27.1702 946.122 26.7671 948.294 26.6899L950.812 26.6127V25.9824C950.812 24.5245 950.06 23.7956 948.554 23.7956C947.394 23.7956 946.031 24.1429 944.465 24.8375L943.154 22.1876C944.824 21.3214 946.676 20.8883 948.71 20.8883C950.657 20.8883 952.149 21.3086 953.188 22.149C954.226 22.9894 954.745 24.2672 954.745 25.9824V35.5659H951.981ZM950.812 28.9025L949.281 28.9539C948.13 28.9882 947.273 29.1941 946.711 29.5714C946.148 29.9487 945.867 30.5233 945.867 31.2951C945.867 32.4014 946.507 32.9546 947.788 32.9546C948.705 32.9546 949.437 32.693 949.982 32.1699C950.536 31.6467 950.812 30.9521 950.812 30.0859V28.9025Z" fill="#A69A87"/>
<path d="M972.229 35.5659H968.271V27.1659C968.271 26.1282 968.084 25.3521 967.712 24.8375C967.34 24.3144 966.748 24.0528 965.934 24.0528C964.826 24.0528 964.026 24.4216 963.533 25.1591C963.04 25.8881 962.793 27.1015 962.793 28.7996V35.5659H958.834V21.1842H961.858L962.391 23.0237H962.611C963.053 22.3291 963.658 21.806 964.428 21.4543C965.207 21.0942 966.09 20.9141 967.076 20.9141C968.764 20.9141 970.044 21.3686 970.918 22.2776C971.792 23.1781 972.229 24.4816 972.229 26.1882V35.5659Z" fill="#A69A87"/>
<path d="M982.419 32.6973C983.111 32.6973 983.942 32.5472 984.911 32.2471V35.1671C983.924 35.6045 982.713 35.8232 981.276 35.8232C979.693 35.8232 978.538 35.4287 977.811 34.6397C977.093 33.8422 976.733 32.6501 976.733 31.0636V24.13H974.838V22.4706L977.019 21.1585L978.161 18.1226H980.692V21.1842H984.755V24.13H980.692V31.0636C980.692 31.621 980.848 32.0327 981.16 32.2985C981.48 32.5644 981.9 32.6973 982.419 32.6973Z" fill="#A69A87"/>
<path d="M1001.25 35.5659H997.294V27.1659C997.294 25.0905 996.515 24.0528 994.957 24.0528C993.85 24.0528 993.049 24.4259 992.556 25.172C992.063 25.9181 991.816 27.1273 991.816 28.7996V35.5659H987.857V15.5499H991.816V19.6277C991.816 19.945 991.786 20.6911 991.725 21.866L991.635 23.0237H991.842C992.725 21.6173 994.127 20.9141 996.048 20.9141C997.752 20.9141 999.046 21.3686 999.929 22.2776C1000.81 23.1867 1001.25 24.4902 1001.25 26.1882V35.5659Z" fill="#A69A87"/>
<path d="M1015.61 35.5659L1015.08 33.7264H1014.87C1014.44 34.3953 1013.84 34.9141 1013.06 35.2829C1012.29 35.6431 1011.4 35.8232 1010.4 35.8232C1008.7 35.8232 1007.41 35.373 1006.55 34.4725C1005.68 33.5634 1005.25 32.2599 1005.25 30.5619V21.1842H1009.21V29.5843C1009.21 30.6219 1009.4 31.4023 1009.77 31.9255C1010.14 32.44 1010.73 32.6973 1011.55 32.6973C1012.65 32.6973 1013.45 32.3328 1013.95 31.6039C1014.44 30.8663 1014.69 29.6486 1014.69 27.9506V21.1842H1018.65V35.5659H1015.61Z" fill="#A69A87"/>
<path d="M1026.76 35.5659H1022.8V15.5499H1026.76V35.5659Z" fill="#A69A87"/>
<path d="M849.444 25.0278C849.444 21.7411 850.097 18.4866 851.366 15.4501C852.635 12.4136 854.495 9.65452 856.84 7.33047C859.186 5.00643 861.969 3.1629 865.033 1.90514C868.097 0.647374 871.381 1.16858e-05 874.698 1.21168e-05C878.014 1.25478e-05 881.298 0.647375 884.362 1.90514C887.426 3.1629 890.21 5.00643 892.555 7.33048C894.9 9.65452 896.76 12.4136 898.029 15.4501C899.298 18.4866 899.952 21.7411 899.952 25.0278L887.325 25.0278C887.325 23.3844 886.998 21.7572 886.363 20.2389C885.729 18.7207 884.799 17.3412 883.626 16.1791C882.454 15.0171 881.062 14.0953 879.53 13.4665C877.998 12.8376 876.356 12.5139 874.698 12.5139C873.039 12.5139 871.398 12.8376 869.866 13.4665C868.334 14.0953 866.942 15.0171 865.769 16.1791C864.597 17.3411 863.666 18.7207 863.032 20.2389C862.397 21.7572 862.071 23.3844 862.071 25.0278L849.444 25.0278Z" fill="#A69A87"/>
<path fill-rule="evenodd" clip-rule="evenodd" d="M866.051 45.7165C864.132 44.9287 862.336 43.8842 860.711 42.6151L865.934 37.439C866.842 38.0689 867.819 38.6006 868.848 39.0231C870.703 39.7843 872.69 40.1762 874.698 40.1762C876.705 40.1762 878.693 39.7843 880.547 39.0231C881.576 38.6006 882.553 38.0689 883.462 37.439L888.685 42.6151C887.06 43.8842 885.264 44.9287 883.345 45.7165C880.603 46.8418 877.665 47.4211 874.698 47.4211C871.73 47.4211 868.792 46.8418 866.051 45.7165ZM890.576 44.4896C891.265 43.9374 891.926 43.3485 892.555 42.7251L883.626 33.8764C882.454 35.0385 881.062 35.9602 879.53 36.5891C877.998 37.218 876.356 37.5417 874.698 37.5417C873.039 37.5417 871.398 37.218 869.866 36.5891C868.334 35.9602 866.942 35.0385 865.769 33.8764L856.84 42.7251C857.47 43.3485 858.13 43.9374 858.819 44.4896C860.699 45.9961 862.791 47.2301 865.033 48.1504C868.097 49.4082 871.381 50.0556 874.698 50.0556C878.014 50.0556 881.298 49.4082 884.362 48.1504C886.604 47.2301 888.696 45.9961 890.576 44.4896Z" fill="#A69A87"/>
<path d="M1196.18 29.8805H1205.68L1202.95 42.6233C1201.44 43.1362 1200.04 43.4818 1198.75 43.6602C1197.46 43.8497 1196.1 43.9445 1194.66 43.9445C1191.75 43.9445 1189.5 43.125 1187.91 41.4862C1186.33 39.8473 1185.53 37.495 1185.53 34.4291C1185.53 31.4413 1186.13 28.7433 1187.34 26.3352C1188.54 23.916 1190.24 22.0542 1192.42 20.7498C1194.6 19.4342 1197.12 18.7765 1199.98 18.7765C1202.43 18.7765 1204.74 19.3283 1206.9 20.432L1204.95 24.6295C1204.12 24.1835 1203.29 23.8268 1202.46 23.5592C1201.63 23.2917 1200.72 23.1579 1199.74 23.1579C1198.02 23.1579 1196.48 23.6205 1195.12 24.5459C1193.77 25.4712 1192.7 26.7923 1191.93 28.5092C1191.16 30.2149 1190.78 32.0545 1190.78 34.0278C1190.78 35.9453 1191.19 37.3556 1192 38.2587C1192.82 39.1506 1194.07 39.5965 1195.76 39.5965C1196.61 39.5965 1197.57 39.4627 1198.63 39.1951L1199.74 34.195H1195.24L1196.18 29.8805Z" fill="#A69A87"/>
<path d="M1213.02 43.61H1207.94L1213.51 17.5891H1218.59L1213.02 43.61Z" fill="#A69A87"/>
<path d="M1231.16 31.9708C1231.16 29.7746 1230.36 28.6764 1228.75 28.6764C1227.9 28.6764 1227.14 29.0165 1226.47 29.6965C1225.81 30.3766 1225.26 31.3744 1224.83 32.6899C1224.42 34.0055 1224.21 35.36 1224.21 36.7536C1224.21 38.8161 1225.05 39.8473 1226.74 39.8473C1227.58 39.8473 1228.34 39.5073 1229.02 38.8272C1229.69 38.136 1230.22 37.1828 1230.59 35.9676C1230.97 34.7413 1231.16 33.409 1231.16 31.9708ZM1236.27 31.9708C1236.27 34.3232 1235.87 36.408 1235.08 38.2252C1234.29 40.0424 1233.15 41.4527 1231.65 42.4561C1230.15 43.4483 1228.38 43.9445 1226.32 43.9445C1224.12 43.9445 1222.37 43.2923 1221.05 41.9879C1219.75 40.6723 1219.1 38.9276 1219.1 36.7536C1219.1 34.3789 1219.49 32.2663 1220.29 30.4156C1221.1 28.5538 1222.27 27.1156 1223.79 26.1011C1225.3 25.0754 1227.08 24.5626 1229.12 24.5626C1231.32 24.5626 1233.07 25.2204 1234.35 26.5359C1235.63 27.8514 1236.27 29.6631 1236.27 31.9708Z" fill="#A69A87"/>
<path d="M1252.24 29.2283C1251.54 31.2127 1250.85 32.9909 1250.16 34.5629L1246.23 43.61H1240.76L1239.9 24.9138H1244.64L1244.71 33.1916L1244.64 35.9843L1244.52 38.844H1244.59C1244.66 38.621 1244.74 38.3924 1244.83 38.1583C1244.92 37.9131 1245.21 37.1494 1245.69 35.8673C1246.17 34.5852 1246.43 33.9219 1246.46 33.8773L1250.36 24.9138H1255.9V33.8773C1255.9 35.4604 1255.84 37.1159 1255.73 38.844H1255.83L1256.3 37.5061C1257.12 35.1872 1257.66 33.7491 1257.91 33.1916L1261.6 24.9138H1266.78L1257.84 43.61H1252.27L1252.17 34.9141C1252.17 33.186 1252.22 31.2908 1252.34 29.2283H1252.24Z" fill="#A69A87"/>
<path d="M1289.22 19.1611L1285.83 34.981C1285.19 37.9465 1283.96 40.1818 1282.15 41.6869C1280.34 43.1919 1277.99 43.9445 1275.08 43.9445C1272.7 43.9445 1270.82 43.3146 1269.45 42.0548C1268.09 40.7838 1267.41 39.0669 1267.41 36.9041C1267.41 36.1014 1267.49 35.3322 1267.66 34.5963L1270.97 19.1611H1276.11L1272.84 34.5295C1272.65 35.3545 1272.55 36.0512 1272.55 36.6198C1272.55 38.6043 1273.62 39.5965 1275.74 39.5965C1277.13 39.5965 1278.22 39.1729 1279.03 38.3256C1279.84 37.4671 1280.43 36.1906 1280.79 34.496L1284.06 19.1611H1289.22Z" fill="#A69A87"/>
<path d="M1297.73 30.6665H1298.67C1300.27 30.6665 1301.52 30.2818 1302.44 29.5126C1303.36 28.7433 1303.82 27.7121 1303.82 26.4188C1303.82 24.4121 1302.72 23.4087 1300.53 23.4087H1299.28L1297.73 30.6665ZM1309 26.2851C1309 28.9719 1308.04 31.0845 1306.13 32.623C1304.23 34.1504 1301.6 34.9141 1298.25 34.9141H1296.8L1294.96 43.61H1289.81L1295.03 19.1611H1300.73C1303.45 19.1611 1305.51 19.7575 1306.91 20.9505C1308.3 22.1322 1309 23.9104 1309 26.2851Z" fill="#A69A87"/>
<path d="M1166.64 23.7613H1156.1L1159.99 15.7466C1160.36 14.8081 1159.31 13.8819 1157.87 13.8819H1144.71C1143.62 13.8819 1142.68 14.4314 1142.54 15.1662L1139.61 29.9853C1139.44 30.8744 1140.46 31.6648 1141.79 31.6648H1152.64L1148.42 43.6744C1148.09 44.6129 1149.15 45.4959 1150.55 45.4959C1151.32 45.4959 1152.05 45.2242 1152.45 44.755L1168.54 25.9841C1169.39 25.0024 1168.34 23.7613 1166.64 23.7613Z" fill="#A69A87"/>
</svg>
