<svg width="81" height="42" viewBox="0 0 81 42" fill="none" xmlns="http://www.w3.org/2000/svg">
<path d="M1.65486 18.3739L15.4199 6.25092C18.3418 3.6776 22.833 3.96559 25.393 6.89044L30.0654 12.2289C32.8867 15.4523 37.9607 15.4184 40.7375 12.1576L44.5987 7.62356C47.3281 4.41856 52.2934 4.32137 55.1493 7.41706L59.7079 12.3583C62.6171 15.5117 67.6961 15.3421 70.3826 12.0017L78.7732 1.5693" stroke="#EBE5DB" stroke-width="5"/>
<path d="M1.65488 40.1212L15.42 27.9982C18.3418 25.4248 22.833 25.7128 25.393 28.6377L30.0654 33.9761C32.8867 37.1996 37.9607 37.1657 40.7376 33.9049L44.5987 29.3708C47.3281 26.1658 52.2934 26.0686 55.1493 29.1643L59.7079 34.1055C62.6171 37.259 67.6961 37.0893 70.3827 33.749L78.7732 23.3165" stroke="#EBE5DB" stroke-width="5"/>
</svg>
