<svg width="51" height="51" viewBox="0 0 51 51" fill="none" xmlns="http://www.w3.org/2000/svg">
<rect width="51" height="51" rx="25.5" fill="#E1EEEA" fill-opacity="0.11"/>
<path d="M34.3919 20.6579C34.406 20.8726 34.406 21.0873 34.406 21.302C34.406 27.8493 29.8379 35.3934 21.4888 35.3934C18.9166 35.3934 16.5272 34.5807 14.5172 33.1701C14.8827 33.216 15.234 33.2314 15.6135 33.2314C17.7359 33.2314 19.6897 32.4494 21.2499 31.1154C19.254 31.0694 17.5813 29.6434 17.005 27.6807C17.2862 27.7266 17.5673 27.7573 17.8625 27.7573C18.2701 27.7573 18.6777 27.696 19.0572 27.5887C16.977 27.1286 15.4167 25.1353 15.4167 22.728V22.6667C16.0211 23.0347 16.7239 23.2647 17.4688 23.2953C16.246 22.4059 15.4449 20.8879 15.4449 19.1706C15.4449 18.2506 15.6697 17.4073 16.0633 16.6713C18.2981 19.6766 21.6575 21.6392 25.4243 21.854C25.3541 21.4859 25.3119 21.1026 25.3119 20.7193C25.3119 17.9899 27.3359 15.7666 29.8519 15.7666C31.159 15.7666 32.3397 16.3646 33.169 17.3306C34.195 17.116 35.1789 16.7019 36.0504 16.1346C35.713 17.2846 34.9962 18.2506 34.0545 18.8639C34.9681 18.7567 35.8536 18.4806 36.6688 18.0973C36.0505 19.0786 35.2774 19.9526 34.3919 20.6579V20.6579Z" fill="#EBE5DB"/>
</svg>
