<svg width="81" height="80" viewBox="0 0 81 80" fill="none" xmlns="http://www.w3.org/2000/svg">
<rect width="81" height="79.9463" rx="6" fill="white"/>
<path d="M53.9333 39.2165H51.4V32.9656C51.4 31.9709 50.9996 31.0169 50.287 30.3135C49.5744 29.6101 48.6078 29.215 47.6 29.215H41.2667V26.7146C41.2667 25.3883 40.7329 24.1164 39.7827 23.1786C38.8325 22.2407 37.5438 21.7139 36.2 21.7139C34.8562 21.7139 33.5675 22.2407 32.6173 23.1786C31.6671 24.1164 31.1333 25.3883 31.1333 26.7146V29.215H24.8C23.7922 29.215 22.8256 29.6101 22.113 30.3135C21.4004 31.0169 21 31.9709 21 32.9656V40.4667C21 40.7983 21.1335 41.1163 21.371 41.3507C21.6085 41.5852 21.9307 41.7169 22.2667 41.7169H26.0667C26.7385 41.7169 27.3829 41.9803 27.858 42.4492C28.3331 42.9181 28.6 43.5541 28.6 44.2173C28.6 44.8804 28.3331 45.5164 27.858 45.9853C27.3829 46.4542 26.7385 46.7176 26.0667 46.7176H22.2667C21.9307 46.7176 21.6085 46.8494 21.371 47.0838C21.1335 47.3183 21 47.6363 21 47.9678V55.469C21 56.4637 21.4004 57.4176 22.113 58.121C22.8256 58.8244 23.7922 59.2195 24.8 59.2195H32.4C32.7359 59.2195 33.0581 59.0878 33.2957 58.8534C33.5332 58.6189 33.6667 58.3009 33.6667 57.9693V54.2188C33.6667 53.5556 33.9336 52.9196 34.4087 52.4507C34.8838 51.9818 35.5281 51.7184 36.2 51.7184C36.8719 51.7184 37.5162 51.9818 37.9913 52.4507C38.4664 52.9196 38.7333 53.5556 38.7333 54.2188V57.9693C38.7333 58.3009 38.8668 58.6189 39.1043 58.8534C39.3419 59.0878 39.6641 59.2195 40 59.2195H47.6C48.6078 59.2195 49.5744 58.8244 50.287 58.121C50.9996 57.4176 51.4 56.4637 51.4 55.469V49.218H53.9333C55.2771 49.218 56.5658 48.6911 57.516 47.7533C58.4662 46.8155 59 45.5435 59 44.2173C59 42.891 58.4662 41.619 57.516 40.6812C56.5658 39.7434 55.2771 39.2165 53.9333 39.2165V39.2165Z" fill="#2B6956"/>
</svg>
