<svg width="24" height="24" viewBox="0 0 24 24" fill="none" xmlns="http://www.w3.org/2000/svg">
<path d="M18.7857 6.36254C18.217 5.24126 17.3756 4.28094 16.3387 3.56987C15.3019 2.85879 14.1029 2.41978 12.852 2.29319C12.2862 2.23642 11.7161 2.23642 11.1502 2.29319C9.89936 2.41986 8.70042 2.85886 7.66353 3.56985C6.62664 4.28085 5.78506 5.24102 5.21613 6.36217C4.50032 7.79268 4.22383 9.40302 4.42149 10.9904C4.61915 12.5777 5.28211 14.0711 6.32688 15.2824L11.4216 21.4765C11.4919 21.5621 11.5804 21.631 11.6805 21.6783C11.7807 21.7257 11.8901 21.7502 12.0009 21.7502C12.1117 21.7502 12.2211 21.7257 12.3213 21.6783C12.4215 21.631 12.5099 21.5621 12.5803 21.4765L17.675 15.2824C18.7197 14.0711 19.3827 12.5779 19.5803 10.9906C19.778 9.40328 19.5015 7.79299 18.7857 6.36254ZM12.0009 12.75C11.4076 12.75 10.8276 12.574 10.3342 12.2444C9.84087 11.9148 9.45635 11.4462 9.22929 10.898C9.00223 10.3499 8.94282 9.74666 9.05857 9.16472C9.17433 8.58278 9.46005 8.04823 9.87961 7.62867C10.2992 7.20911 10.8337 6.92339 11.4157 6.80764C11.9976 6.69188 12.6008 6.75129 13.149 6.97835C13.6972 7.20542 14.1657 7.58993 14.4953 8.08328C14.825 8.57663 15.0009 9.15665 15.0009 9.74999C15 10.5454 14.6836 11.3079 14.1212 11.8703C13.5588 12.4327 12.7963 12.7491 12.0009 12.75V12.75Z" fill="#EBE5DB"/>
</svg>
