<svg width="30" height="38" viewBox="0 0 30 38" fill="none" xmlns="http://www.w3.org/2000/svg">
<path d="M25.0824 19.9011C25.0664 16.8154 26.3895 14.4865 29.0675 12.7713C27.5691 10.5096 25.3055 9.26531 22.3167 9.02148C19.4872 8.78607 16.3948 10.7619 15.263 10.7619C14.0675 10.7619 11.3257 9.10556 9.17375 9.10556C4.72635 9.18123 0 12.847 0 20.3046C0 22.5075 0.382572 24.7832 1.14772 27.1317C2.16791 30.2173 5.85016 37.7843 9.69182 37.6582C11.7003 37.6077 13.119 36.1532 15.7333 36.1532C18.2678 36.1532 19.5829 37.6582 21.8225 37.6582C25.6961 37.5993 29.0276 30.7218 30 27.6278C24.8034 25.0466 25.0824 20.0608 25.0824 19.9011V19.9011ZM20.5712 6.0956C22.7471 3.3715 22.5478 0.891218 22.4841 0C20.5632 0.117708 18.3395 1.37887 17.0723 2.93429C15.6775 4.59902 14.8565 6.65891 15.0319 8.97944C17.1121 9.1476 19.009 8.02096 20.5712 6.0956V6.0956Z" fill="#0D0E0C"/>
</svg>
