<svg width="81" height="80" viewBox="0 0 81 80" fill="none" xmlns="http://www.w3.org/2000/svg">
<rect width="81" height="79.9463" rx="6" fill="white"/>
<path d="M23.2834 56.2815C23.2834 54.3784 21.986 52.7711 20.1889 52.1657V37.415L17.0945 36.0393V52.1658C15.2974 52.7711 14 54.3784 14 56.2815C14 58.6996 16.0822 60.6666 18.6417 60.6666C21.2012 60.6666 23.2834 58.6996 23.2834 56.2815Z" fill="#2B6956"/>
<path d="M57.0826 48.3708L55.5401 39.6288L40.406 46.3566L25.1688 39.6288L23.6263 48.3708C23.9492 48.565 29.757 54.8199 40.406 54.8199C50.9778 54.8199 56.773 48.5567 57.0826 48.3708Z" fill="#2B6956"/>
<path d="M14 31.4332L40.4061 43.1266L66.709 31.4332L40.4061 19.7397L14 31.4332ZM41.9533 32.8948H38.8589V29.9715H41.9533V32.8948Z" fill="#2B6956"/>
</svg>
